ISO-10303-21;
HEADER;
/* Generated by software containing ST-Developer
 * from STEP Tools, Inc. (www.steptools.com) 
 */
/* OPTION: using custom renumber hook */

FILE_DESCRIPTION(
/* description */ ('STEP AP242 Edition 2',
'CAx-IF Rec.Pracs.---Representation and Presentation of Product Manufa
cturing Information (PMI)---4.0---2014-10-13',
'CAx-IF Rec.Pracs.---3D Tessellated Geometry---0.4---2014-09-14','2;1',
'CAx-IF Rec.Pracs.---User Defined Attributes---1.5---2016-08-15'),
/* implementation_level */ '2;1');

FILE_NAME(
/* name */ 'CaseBottomRight',
/* time_stamp */ '2026-06-29T20:29:05Z',
/* author */ (''),
/* organization */ (''),
/* preprocessor_version */ 'ST-DEVELOPER v20',
/* originating_system */ 'ONSHAPE BY PTC INC, 1.217',
/* authorisation */ '  ');

FILE_SCHEMA (('AP242_MANAGED_MODEL_BASED_3D_ENGINEERING_MIM_LF { 1 0 10303 442 3 1 4 }'));
ENDSEC;

DATA;
#10=SHAPE_REPRESENTATION_RELATIONSHIP('','',#801,#11);
#11=ADVANCED_BREP_SHAPE_REPRESENTATION('',(#799),#1319);
#12=CYLINDRICAL_SURFACE('',#815,0.0015);
#13=CYLINDRICAL_SURFACE('',#818,0.0015);
#14=CYLINDRICAL_SURFACE('',#821,0.0015);
#15=CYLINDRICAL_SURFACE('',#824,0.0015);
#16=CYLINDRICAL_SURFACE('',#859,0.0075);
#17=CYLINDRICAL_SURFACE('',#860,0.0075);
#18=CYLINDRICAL_SURFACE('',#861,0.0075);
#19=CYLINDRICAL_SURFACE('',#862,0.0075);
#20=CYLINDRICAL_SURFACE('',#863,0.0075);
#21=CYLINDRICAL_SURFACE('',#864,0.0075);
#22=CYLINDRICAL_SURFACE('',#865,0.02);
#23=CYLINDRICAL_SURFACE('',#866,0.002);
#24=CYLINDRICAL_SURFACE('',#867,0.002);
#25=CYLINDRICAL_SURFACE('',#870,0.002);
#26=CYLINDRICAL_SURFACE('',#871,0.002);
#27=CIRCLE('',#807,0.002);
#28=CIRCLE('',#808,0.002);
#29=CIRCLE('',#809,0.002);
#30=CIRCLE('',#810,0.002);
#31=CIRCLE('',#816,0.0015);
#32=CIRCLE('',#817,0.0015);
#33=CIRCLE('',#819,0.0015);
#34=CIRCLE('',#820,0.0015);
#35=CIRCLE('',#822,0.0015);
#36=CIRCLE('',#823,0.0015);
#37=CIRCLE('',#825,0.0015);
#38=CIRCLE('',#826,0.0015);
#39=CIRCLE('',#830,0.02);
#40=CIRCLE('',#831,0.0075);
#41=CIRCLE('',#832,0.0075);
#42=CIRCLE('',#833,0.0075);
#43=CIRCLE('',#834,0.0075);
#44=CIRCLE('',#835,0.0075);
#45=CIRCLE('',#836,0.0075);
#46=CIRCLE('',#838,0.002);
#47=CIRCLE('',#839,0.002);
#48=CIRCLE('',#840,0.002);
#49=CIRCLE('',#841,0.002);
#50=CIRCLE('',#852,0.02);
#51=CIRCLE('',#853,0.0075);
#52=CIRCLE('',#854,0.0075);
#53=CIRCLE('',#855,0.0075);
#54=CIRCLE('',#856,0.0075);
#55=CIRCLE('',#857,0.0075);
#56=CIRCLE('',#858,0.0075);
#57=ORIENTED_EDGE('',*,*,#277,.F.);
#58=ORIENTED_EDGE('',*,*,#278,.T.);
#59=ORIENTED_EDGE('',*,*,#279,.T.);
#60=ORIENTED_EDGE('',*,*,#280,.T.);
#61=ORIENTED_EDGE('',*,*,#281,.F.);
#62=ORIENTED_EDGE('',*,*,#282,.T.);
#63=ORIENTED_EDGE('',*,*,#283,.T.);
#64=ORIENTED_EDGE('',*,*,#284,.T.);
#65=ORIENTED_EDGE('',*,*,#285,.T.);
#66=ORIENTED_EDGE('',*,*,#286,.T.);
#67=ORIENTED_EDGE('',*,*,#287,.F.);
#68=ORIENTED_EDGE('',*,*,#288,.T.);
#69=ORIENTED_EDGE('',*,*,#283,.F.);
#70=ORIENTED_EDGE('',*,*,#289,.T.);
#71=ORIENTED_EDGE('',*,*,#290,.T.);
#72=ORIENTED_EDGE('',*,*,#291,.T.);
#73=ORIENTED_EDGE('',*,*,#277,.T.);
#74=ORIENTED_EDGE('',*,*,#292,.T.);
#75=ORIENTED_EDGE('',*,*,#293,.F.);
#76=ORIENTED_EDGE('',*,*,#294,.T.);
#77=ORIENTED_EDGE('',*,*,#295,.F.);
#78=ORIENTED_EDGE('',*,*,#296,.T.);
#79=ORIENTED_EDGE('',*,*,#297,.T.);
#80=ORIENTED_EDGE('',*,*,#298,.T.);
#81=ORIENTED_EDGE('',*,*,#299,.F.);
#82=ORIENTED_EDGE('',*,*,#300,.F.);
#83=ORIENTED_EDGE('',*,*,#301,.F.);
#84=ORIENTED_EDGE('',*,*,#302,.T.);
#85=ORIENTED_EDGE('',*,*,#303,.T.);
#86=ORIENTED_EDGE('',*,*,#304,.T.);
#87=ORIENTED_EDGE('',*,*,#305,.T.);
#88=ORIENTED_EDGE('',*,*,#306,.T.);
#89=ORIENTED_EDGE('',*,*,#307,.F.);
#90=ORIENTED_EDGE('',*,*,#308,.T.);
#91=ORIENTED_EDGE('',*,*,#309,.T.);
#92=ORIENTED_EDGE('',*,*,#310,.T.);
#93=ORIENTED_EDGE('',*,*,#311,.F.);
#94=ORIENTED_EDGE('',*,*,#312,.T.);
#95=ORIENTED_EDGE('',*,*,#313,.T.);
#96=ORIENTED_EDGE('',*,*,#314,.T.);
#97=ORIENTED_EDGE('',*,*,#315,.F.);
#98=ORIENTED_EDGE('',*,*,#316,.T.);
#99=ORIENTED_EDGE('',*,*,#317,.F.);
#100=ORIENTED_EDGE('',*,*,#318,.T.);
#101=ORIENTED_EDGE('',*,*,#319,.F.);
#102=ORIENTED_EDGE('',*,*,#320,.T.);
#103=ORIENTED_EDGE('',*,*,#321,.F.);
#104=ORIENTED_EDGE('',*,*,#322,.T.);
#105=ORIENTED_EDGE('',*,*,#323,.F.);
#106=ORIENTED_EDGE('',*,*,#324,.T.);
#107=ORIENTED_EDGE('',*,*,#325,.F.);
#108=ORIENTED_EDGE('',*,*,#326,.T.);
#109=ORIENTED_EDGE('',*,*,#327,.T.);
#110=ORIENTED_EDGE('',*,*,#328,.T.);
#111=ORIENTED_EDGE('',*,*,#323,.T.);
#112=ORIENTED_EDGE('',*,*,#321,.T.);
#113=ORIENTED_EDGE('',*,*,#319,.T.);
#114=ORIENTED_EDGE('',*,*,#317,.T.);
#115=ORIENTED_EDGE('',*,*,#329,.T.);
#116=ORIENTED_EDGE('',*,*,#330,.T.);
#117=ORIENTED_EDGE('',*,*,#293,.T.);
#118=ORIENTED_EDGE('',*,*,#331,.T.);
#119=ORIENTED_EDGE('',*,*,#332,.T.);
#120=ORIENTED_EDGE('',*,*,#333,.T.);
#121=ORIENTED_EDGE('',*,*,#334,.T.);
#122=ORIENTED_EDGE('',*,*,#335,.T.);
#123=ORIENTED_EDGE('',*,*,#336,.T.);
#124=ORIENTED_EDGE('',*,*,#337,.T.);
#125=ORIENTED_EDGE('',*,*,#338,.T.);
#126=ORIENTED_EDGE('',*,*,#339,.T.);
#127=ORIENTED_EDGE('',*,*,#340,.T.);
#128=ORIENTED_EDGE('',*,*,#341,.T.);
#129=ORIENTED_EDGE('',*,*,#327,.F.);
#130=ORIENTED_EDGE('',*,*,#342,.T.);
#131=ORIENTED_EDGE('',*,*,#285,.F.);
#132=ORIENTED_EDGE('',*,*,#343,.T.);
#133=ORIENTED_EDGE('',*,*,#297,.F.);
#134=ORIENTED_EDGE('',*,*,#344,.T.);
#135=ORIENTED_EDGE('',*,*,#301,.T.);
#136=ORIENTED_EDGE('',*,*,#345,.T.);
#137=ORIENTED_EDGE('',*,*,#305,.F.);
#138=ORIENTED_EDGE('',*,*,#346,.T.);
#139=ORIENTED_EDGE('',*,*,#309,.F.);
#140=ORIENTED_EDGE('',*,*,#347,.T.);
#141=ORIENTED_EDGE('',*,*,#313,.F.);
#142=ORIENTED_EDGE('',*,*,#348,.T.);
#143=ORIENTED_EDGE('',*,*,#324,.F.);
#144=ORIENTED_EDGE('',*,*,#322,.F.);
#145=ORIENTED_EDGE('',*,*,#320,.F.);
#146=ORIENTED_EDGE('',*,*,#318,.F.);
#147=ORIENTED_EDGE('',*,*,#332,.F.);
#148=ORIENTED_EDGE('',*,*,#349,.T.);
#149=ORIENTED_EDGE('',*,*,#279,.F.);
#150=ORIENTED_EDGE('',*,*,#350,.T.);
#151=ORIENTED_EDGE('',*,*,#351,.F.);
#152=ORIENTED_EDGE('',*,*,#352,.T.);
#153=ORIENTED_EDGE('',*,*,#281,.T.);
#154=ORIENTED_EDGE('',*,*,#353,.T.);
#155=ORIENTED_EDGE('',*,*,#329,.F.);
#156=ORIENTED_EDGE('',*,*,#354,.F.);
#157=ORIENTED_EDGE('',*,*,#355,.T.);
#158=ORIENTED_EDGE('',*,*,#356,.T.);
#159=ORIENTED_EDGE('',*,*,#357,.T.);
#160=ORIENTED_EDGE('',*,*,#358,.T.);
#161=ORIENTED_EDGE('',*,*,#333,.F.);
#162=ORIENTED_EDGE('',*,*,#358,.F.);
#163=ORIENTED_EDGE('',*,*,#359,.T.);
#164=ORIENTED_EDGE('',*,*,#360,.T.);
#165=ORIENTED_EDGE('',*,*,#334,.F.);
#166=ORIENTED_EDGE('',*,*,#360,.F.);
#167=ORIENTED_EDGE('',*,*,#361,.T.);
#168=ORIENTED_EDGE('',*,*,#362,.T.);
#169=ORIENTED_EDGE('',*,*,#335,.F.);
#170=ORIENTED_EDGE('',*,*,#362,.F.);
#171=ORIENTED_EDGE('',*,*,#363,.T.);
#172=ORIENTED_EDGE('',*,*,#364,.T.);
#173=ORIENTED_EDGE('',*,*,#336,.F.);
#174=ORIENTED_EDGE('',*,*,#364,.F.);
#175=ORIENTED_EDGE('',*,*,#365,.T.);
#176=ORIENTED_EDGE('',*,*,#366,.T.);
#177=ORIENTED_EDGE('',*,*,#337,.F.);
#178=ORIENTED_EDGE('',*,*,#366,.F.);
#179=ORIENTED_EDGE('',*,*,#367,.T.);
#180=ORIENTED_EDGE('',*,*,#368,.T.);
#181=ORIENTED_EDGE('',*,*,#338,.F.);
#182=ORIENTED_EDGE('',*,*,#368,.F.);
#183=ORIENTED_EDGE('',*,*,#369,.T.);
#184=ORIENTED_EDGE('',*,*,#370,.T.);
#185=ORIENTED_EDGE('',*,*,#339,.F.);
#186=ORIENTED_EDGE('',*,*,#370,.F.);
#187=ORIENTED_EDGE('',*,*,#371,.T.);
#188=ORIENTED_EDGE('',*,*,#372,.T.);
#189=ORIENTED_EDGE('',*,*,#340,.F.);
#190=ORIENTED_EDGE('',*,*,#372,.F.);
#191=ORIENTED_EDGE('',*,*,#373,.T.);
#192=ORIENTED_EDGE('',*,*,#374,.T.);
#193=ORIENTED_EDGE('',*,*,#341,.F.);
#194=ORIENTED_EDGE('',*,*,#374,.F.);
#195=ORIENTED_EDGE('',*,*,#375,.T.);
#196=ORIENTED_EDGE('',*,*,#354,.T.);
#197=ORIENTED_EDGE('',*,*,#287,.T.);
#198=ORIENTED_EDGE('',*,*,#376,.T.);
#199=ORIENTED_EDGE('',*,*,#325,.T.);
#200=ORIENTED_EDGE('',*,*,#377,.T.);
#201=ORIENTED_EDGE('',*,*,#315,.T.);
#202=ORIENTED_EDGE('',*,*,#378,.T.);
#203=ORIENTED_EDGE('',*,*,#311,.T.);
#204=ORIENTED_EDGE('',*,*,#379,.T.);
#205=ORIENTED_EDGE('',*,*,#307,.T.);
#206=ORIENTED_EDGE('',*,*,#380,.T.);
#207=ORIENTED_EDGE('',*,*,#303,.F.);
#208=ORIENTED_EDGE('',*,*,#381,.T.);
#209=ORIENTED_EDGE('',*,*,#295,.T.);
#210=ORIENTED_EDGE('',*,*,#382,.T.);
#211=ORIENTED_EDGE('',*,*,#355,.F.);
#212=ORIENTED_EDGE('',*,*,#375,.F.);
#213=ORIENTED_EDGE('',*,*,#373,.F.);
#214=ORIENTED_EDGE('',*,*,#371,.F.);
#215=ORIENTED_EDGE('',*,*,#369,.F.);
#216=ORIENTED_EDGE('',*,*,#367,.F.);
#217=ORIENTED_EDGE('',*,*,#365,.F.);
#218=ORIENTED_EDGE('',*,*,#363,.F.);
#219=ORIENTED_EDGE('',*,*,#361,.F.);
#220=ORIENTED_EDGE('',*,*,#359,.F.);
#221=ORIENTED_EDGE('',*,*,#357,.F.);
#222=ORIENTED_EDGE('',*,*,#383,.F.);
#223=ORIENTED_EDGE('',*,*,#299,.T.);
#224=ORIENTED_EDGE('',*,*,#384,.T.);
#225=ORIENTED_EDGE('',*,*,#381,.F.);
#226=ORIENTED_EDGE('',*,*,#302,.F.);
#227=ORIENTED_EDGE('',*,*,#344,.F.);
#228=ORIENTED_EDGE('',*,*,#296,.F.);
#229=ORIENTED_EDGE('',*,*,#380,.F.);
#230=ORIENTED_EDGE('',*,*,#306,.F.);
#231=ORIENTED_EDGE('',*,*,#345,.F.);
#232=ORIENTED_EDGE('',*,*,#304,.F.);
#233=ORIENTED_EDGE('',*,*,#379,.F.);
#234=ORIENTED_EDGE('',*,*,#310,.F.);
#235=ORIENTED_EDGE('',*,*,#346,.F.);
#236=ORIENTED_EDGE('',*,*,#308,.F.);
#237=ORIENTED_EDGE('',*,*,#378,.F.);
#238=ORIENTED_EDGE('',*,*,#314,.F.);
#239=ORIENTED_EDGE('',*,*,#347,.F.);
#240=ORIENTED_EDGE('',*,*,#312,.F.);
#241=ORIENTED_EDGE('',*,*,#377,.F.);
#242=ORIENTED_EDGE('',*,*,#328,.F.);
#243=ORIENTED_EDGE('',*,*,#348,.F.);
#244=ORIENTED_EDGE('',*,*,#316,.F.);
#245=ORIENTED_EDGE('',*,*,#384,.F.);
#246=ORIENTED_EDGE('',*,*,#298,.F.);
#247=ORIENTED_EDGE('',*,*,#343,.F.);
#248=ORIENTED_EDGE('',*,*,#288,.F.);
#249=ORIENTED_EDGE('',*,*,#376,.F.);
#250=ORIENTED_EDGE('',*,*,#286,.F.);
#251=ORIENTED_EDGE('',*,*,#342,.F.);
#252=ORIENTED_EDGE('',*,*,#326,.F.);
#253=ORIENTED_EDGE('',*,*,#292,.F.);
#254=ORIENTED_EDGE('',*,*,#280,.F.);
#255=ORIENTED_EDGE('',*,*,#349,.F.);
#256=ORIENTED_EDGE('',*,*,#331,.F.);
#257=ORIENTED_EDGE('',*,*,#294,.F.);
#258=ORIENTED_EDGE('',*,*,#330,.F.);
#259=ORIENTED_EDGE('',*,*,#353,.F.);
#260=ORIENTED_EDGE('',*,*,#284,.F.);
#261=ORIENTED_EDGE('',*,*,#351,.T.);
#262=ORIENTED_EDGE('',*,*,#385,.T.);
#263=ORIENTED_EDGE('',*,*,#290,.F.);
#264=ORIENTED_EDGE('',*,*,#386,.T.);
#265=ORIENTED_EDGE('',*,*,#383,.T.);
#266=ORIENTED_EDGE('',*,*,#356,.F.);
#267=ORIENTED_EDGE('',*,*,#382,.F.);
#268=ORIENTED_EDGE('',*,*,#300,.T.);
#269=ORIENTED_EDGE('',*,*,#291,.F.);
#270=ORIENTED_EDGE('',*,*,#385,.F.);
#271=ORIENTED_EDGE('',*,*,#350,.F.);
#272=ORIENTED_EDGE('',*,*,#278,.F.);
#273=ORIENTED_EDGE('',*,*,#289,.F.);
#274=ORIENTED_EDGE('',*,*,#282,.F.);
#275=ORIENTED_EDGE('',*,*,#352,.F.);
#276=ORIENTED_EDGE('',*,*,#386,.F.);
#277=EDGE_CURVE('',#387,#388,#463,.T.);
#278=EDGE_CURVE('',#387,#389,#464,.T.);
#279=EDGE_CURVE('',#389,#390,#465,.T.);
#280=EDGE_CURVE('',#390,#388,#466,.F.);
#281=EDGE_CURVE('',#391,#392,#467,.T.);
#282=EDGE_CURVE('',#391,#393,#468,.F.);
#283=EDGE_CURVE('',#393,#394,#469,.T.);
#284=EDGE_CURVE('',#394,#392,#470,.T.);
#285=EDGE_CURVE('',#395,#396,#471,.T.);
#286=EDGE_CURVE('',#396,#397,#472,.F.);
#287=EDGE_CURVE('',#398,#397,#473,.T.);
#288=EDGE_CURVE('',#398,#395,#474,.T.);
#289=EDGE_CURVE('',#393,#399,#27,.T.);
#290=EDGE_CURVE('',#399,#400,#475,.T.);
#291=EDGE_CURVE('',#400,#387,#28,.T.);
#292=EDGE_CURVE('',#388,#401,#29,.T.);
#293=EDGE_CURVE('',#402,#401,#476,.T.);
#294=EDGE_CURVE('',#402,#394,#30,.T.);
#295=EDGE_CURVE('',#403,#404,#477,.T.);
#296=EDGE_CURVE('',#403,#405,#478,.T.);
#297=EDGE_CURVE('',#405,#406,#479,.T.);
#298=EDGE_CURVE('',#406,#407,#480,.F.);
#299=EDGE_CURVE('',#408,#407,#481,.T.);
#300=EDGE_CURVE('',#404,#408,#482,.T.);
#301=EDGE_CURVE('',#409,#410,#483,.T.);
#302=EDGE_CURVE('',#409,#411,#484,.F.);
#303=EDGE_CURVE('',#411,#412,#485,.T.);
#304=EDGE_CURVE('',#412,#410,#486,.T.);
#305=EDGE_CURVE('',#413,#414,#487,.T.);
#306=EDGE_CURVE('',#414,#415,#488,.F.);
#307=EDGE_CURVE('',#416,#415,#489,.T.);
#308=EDGE_CURVE('',#416,#413,#490,.T.);
#309=EDGE_CURVE('',#417,#418,#491,.T.);
#310=EDGE_CURVE('',#418,#419,#492,.F.);
#311=EDGE_CURVE('',#420,#419,#493,.T.);
#312=EDGE_CURVE('',#420,#417,#494,.T.);
#313=EDGE_CURVE('',#421,#422,#495,.T.);
#314=EDGE_CURVE('',#422,#423,#496,.F.);
#315=EDGE_CURVE('',#424,#423,#497,.T.);
#316=EDGE_CURVE('',#424,#421,#498,.T.);
#317=EDGE_CURVE('',#425,#425,#31,.T.);
#318=EDGE_CURVE('',#426,#426,#32,.T.);
#319=EDGE_CURVE('',#427,#427,#33,.T.);
#320=EDGE_CURVE('',#428,#428,#34,.T.);
#321=EDGE_CURVE('',#429,#429,#35,.T.);
#322=EDGE_CURVE('',#430,#430,#36,.T.);
#323=EDGE_CURVE('',#431,#431,#37,.T.);
#324=EDGE_CURVE('',#432,#432,#38,.T.);
#325=EDGE_CURVE('',#433,#434,#499,.T.);
#326=EDGE_CURVE('',#433,#435,#500,.T.);
#327=EDGE_CURVE('',#435,#436,#501,.T.);
#328=EDGE_CURVE('',#436,#434,#502,.F.);
#329=EDGE_CURVE('',#437,#438,#503,.T.);
#330=EDGE_CURVE('',#438,#402,#504,.F.);
#331=EDGE_CURVE('',#401,#439,#505,.T.);
#332=EDGE_CURVE('',#439,#440,#506,.T.);
#333=EDGE_CURVE('',#440,#441,#507,.T.);
#334=EDGE_CURVE('',#441,#442,#508,.T.);
#335=EDGE_CURVE('',#442,#443,#509,.T.);
#336=EDGE_CURVE('',#443,#444,#510,.T.);
#337=EDGE_CURVE('',#444,#445,#511,.T.);
#338=EDGE_CURVE('',#445,#446,#512,.T.);
#339=EDGE_CURVE('',#446,#447,#513,.T.);
#340=EDGE_CURVE('',#447,#448,#514,.T.);
#341=EDGE_CURVE('',#448,#437,#515,.T.);
#342=EDGE_CURVE('',#435,#396,#39,.T.);
#343=EDGE_CURVE('',#395,#406,#40,.T.);
#344=EDGE_CURVE('',#405,#409,#41,.T.);
#345=EDGE_CURVE('',#410,#414,#42,.T.);
#346=EDGE_CURVE('',#413,#418,#43,.T.);
#347=EDGE_CURVE('',#417,#422,#44,.T.);
#348=EDGE_CURVE('',#421,#436,#45,.T.);
#349=EDGE_CURVE('',#439,#390,#46,.F.);
#350=EDGE_CURVE('',#389,#449,#47,.F.);
#351=EDGE_CURVE('',#450,#449,#516,.T.);
#352=EDGE_CURVE('',#450,#391,#48,.F.);
#353=EDGE_CURVE('',#392,#438,#49,.F.);
#354=EDGE_CURVE('',#451,#437,#517,.T.);
#355=EDGE_CURVE('',#451,#452,#518,.T.);
#356=EDGE_CURVE('',#452,#453,#519,.T.);
#357=EDGE_CURVE('',#453,#454,#520,.T.);
#358=EDGE_CURVE('',#454,#440,#521,.T.);
#359=EDGE_CURVE('',#454,#455,#522,.T.);
#360=EDGE_CURVE('',#455,#441,#523,.T.);
#361=EDGE_CURVE('',#455,#456,#524,.T.);
#362=EDGE_CURVE('',#456,#442,#525,.T.);
#363=EDGE_CURVE('',#456,#457,#526,.T.);
#364=EDGE_CURVE('',#457,#443,#527,.T.);
#365=EDGE_CURVE('',#457,#458,#528,.T.);
#366=EDGE_CURVE('',#458,#444,#529,.T.);
#367=EDGE_CURVE('',#458,#459,#530,.T.);
#368=EDGE_CURVE('',#459,#445,#531,.T.);
#369=EDGE_CURVE('',#459,#460,#532,.T.);
#370=EDGE_CURVE('',#460,#446,#533,.T.);
#371=EDGE_CURVE('',#460,#461,#534,.T.);
#372=EDGE_CURVE('',#461,#447,#535,.T.);
#373=EDGE_CURVE('',#461,#462,#536,.T.);
#374=EDGE_CURVE('',#462,#448,#537,.T.);
#375=EDGE_CURVE('',#462,#451,#538,.T.);
#376=EDGE_CURVE('',#397,#433,#50,.F.);
#377=EDGE_CURVE('',#434,#424,#51,.F.);
#378=EDGE_CURVE('',#423,#420,#52,.F.);
#379=EDGE_CURVE('',#419,#416,#53,.F.);
#380=EDGE_CURVE('',#415,#412,#54,.F.);
#381=EDGE_CURVE('',#411,#403,#55,.F.);
#382=EDGE_CURVE('',#404,#452,#539,.T.);
#383=EDGE_CURVE('',#408,#453,#540,.T.);
#384=EDGE_CURVE('',#407,#398,#56,.F.);
#385=EDGE_CURVE('',#449,#400,#541,.F.);
#386=EDGE_CURVE('',#399,#450,#542,.T.);
#387=VERTEX_POINT('',#1095);
#388=VERTEX_POINT('',#1096);
#389=VERTEX_POINT('',#1098);
#390=VERTEX_POINT('',#1100);
#391=VERTEX_POINT('',#1104);
#392=VERTEX_POINT('',#1105);
#393=VERTEX_POINT('',#1107);
#394=VERTEX_POINT('',#1109);
#395=VERTEX_POINT('',#1113);
#396=VERTEX_POINT('',#1114);
#397=VERTEX_POINT('',#1116);
#398=VERTEX_POINT('',#1118);
#399=VERTEX_POINT('',#1122);
#400=VERTEX_POINT('',#1124);
#401=VERTEX_POINT('',#1127);
#402=VERTEX_POINT('',#1129);
#403=VERTEX_POINT('',#1132);
#404=VERTEX_POINT('',#1133);
#405=VERTEX_POINT('',#1135);
#406=VERTEX_POINT('',#1137);
#407=VERTEX_POINT('',#1139);
#408=VERTEX_POINT('',#1141);
#409=VERTEX_POINT('',#1145);
#410=VERTEX_POINT('',#1146);
#411=VERTEX_POINT('',#1148);
#412=VERTEX_POINT('',#1150);
#413=VERTEX_POINT('',#1154);
#414=VERTEX_POINT('',#1155);
#415=VERTEX_POINT('',#1157);
#416=VERTEX_POINT('',#1159);
#417=VERTEX_POINT('',#1163);
#418=VERTEX_POINT('',#1164);
#419=VERTEX_POINT('',#1166);
#420=VERTEX_POINT('',#1168);
#421=VERTEX_POINT('',#1172);
#422=VERTEX_POINT('',#1173);
#423=VERTEX_POINT('',#1175);
#424=VERTEX_POINT('',#1177);
#425=VERTEX_POINT('',#1181);
#426=VERTEX_POINT('',#1183);
#427=VERTEX_POINT('',#1186);
#428=VERTEX_POINT('',#1188);
#429=VERTEX_POINT('',#1191);
#430=VERTEX_POINT('',#1193);
#431=VERTEX_POINT('',#1196);
#432=VERTEX_POINT('',#1198);
#433=VERTEX_POINT('',#1201);
#434=VERTEX_POINT('',#1202);
#435=VERTEX_POINT('',#1204);
#436=VERTEX_POINT('',#1206);
#437=VERTEX_POINT('',#1210);
#438=VERTEX_POINT('',#1211);
#439=VERTEX_POINT('',#1214);
#440=VERTEX_POINT('',#1216);
#441=VERTEX_POINT('',#1218);
#442=VERTEX_POINT('',#1220);
#443=VERTEX_POINT('',#1222);
#444=VERTEX_POINT('',#1224);
#445=VERTEX_POINT('',#1226);
#446=VERTEX_POINT('',#1228);
#447=VERTEX_POINT('',#1230);
#448=VERTEX_POINT('',#1232);
#449=VERTEX_POINT('',#1245);
#450=VERTEX_POINT('',#1247);
#451=VERTEX_POINT('',#1251);
#452=VERTEX_POINT('',#1253);
#453=VERTEX_POINT('',#1255);
#454=VERTEX_POINT('',#1257);
#455=VERTEX_POINT('',#1261);
#456=VERTEX_POINT('',#1265);
#457=VERTEX_POINT('',#1269);
#458=VERTEX_POINT('',#1273);
#459=VERTEX_POINT('',#1277);
#460=VERTEX_POINT('',#1281);
#461=VERTEX_POINT('',#1285);
#462=VERTEX_POINT('',#1289);
#463=LINE('',#1094,#543);
#464=LINE('',#1097,#544);
#465=LINE('',#1099,#545);
#466=LINE('',#1101,#546);
#467=LINE('',#1103,#547);
#468=LINE('',#1106,#548);
#469=LINE('',#1108,#549);
#470=LINE('',#1110,#550);
#471=LINE('',#1112,#551);
#472=LINE('',#1115,#552);
#473=LINE('',#1117,#553);
#474=LINE('',#1119,#554);
#475=LINE('',#1123,#555);
#476=LINE('',#1128,#556);
#477=LINE('',#1131,#557);
#478=LINE('',#1134,#558);
#479=LINE('',#1136,#559);
#480=LINE('',#1138,#560);
#481=LINE('',#1140,#561);
#482=LINE('',#1142,#562);
#483=LINE('',#1144,#563);
#484=LINE('',#1147,#564);
#485=LINE('',#1149,#565);
#486=LINE('',#1151,#566);
#487=LINE('',#1153,#567);
#488=LINE('',#1156,#568);
#489=LINE('',#1158,#569);
#490=LINE('',#1160,#570);
#491=LINE('',#1162,#571);
#492=LINE('',#1165,#572);
#493=LINE('',#1167,#573);
#494=LINE('',#1169,#574);
#495=LINE('',#1171,#575);
#496=LINE('',#1174,#576);
#497=LINE('',#1176,#577);
#498=LINE('',#1178,#578);
#499=LINE('',#1200,#579);
#500=LINE('',#1203,#580);
#501=LINE('',#1205,#581);
#502=LINE('',#1207,#582);
#503=LINE('',#1209,#583);
#504=LINE('',#1212,#584);
#505=LINE('',#1213,#585);
#506=LINE('',#1215,#586);
#507=LINE('',#1217,#587);
#508=LINE('',#1219,#588);
#509=LINE('',#1221,#589);
#510=LINE('',#1223,#590);
#511=LINE('',#1225,#591);
#512=LINE('',#1227,#592);
#513=LINE('',#1229,#593);
#514=LINE('',#1231,#594);
#515=LINE('',#1233,#595);
#516=LINE('',#1246,#596);
#517=LINE('',#1250,#597);
#518=LINE('',#1252,#598);
#519=LINE('',#1254,#599);
#520=LINE('',#1256,#600);
#521=LINE('',#1258,#601);
#522=LINE('',#1260,#602);
#523=LINE('',#1262,#603);
#524=LINE('',#1264,#604);
#525=LINE('',#1266,#605);
#526=LINE('',#1268,#606);
#527=LINE('',#1270,#607);
#528=LINE('',#1272,#608);
#529=LINE('',#1274,#609);
#530=LINE('',#1276,#610);
#531=LINE('',#1278,#611);
#532=LINE('',#1280,#612);
#533=LINE('',#1282,#613);
#534=LINE('',#1284,#614);
#535=LINE('',#1286,#615);
#536=LINE('',#1288,#616);
#537=LINE('',#1290,#617);
#538=LINE('',#1292,#618);
#539=LINE('',#1300,#619);
#540=LINE('',#1301,#620);
#541=LINE('',#1313,#621);
#542=LINE('',#1314,#622);
#543=VECTOR('',#876,1.);
#544=VECTOR('',#877,1.);
#545=VECTOR('',#878,1.);
#546=VECTOR('',#879,1.);
#547=VECTOR('',#882,1.);
#548=VECTOR('',#883,1.);
#549=VECTOR('',#884,1.);
#550=VECTOR('',#885,1.);
#551=VECTOR('',#888,1.);
#552=VECTOR('',#889,1.);
#553=VECTOR('',#890,1.);
#554=VECTOR('',#891,1.);
#555=VECTOR('',#896,1.);
#556=VECTOR('',#901,1.);
#557=VECTOR('',#904,1.);
#558=VECTOR('',#905,1.);
#559=VECTOR('',#906,1.);
#560=VECTOR('',#907,1.);
#561=VECTOR('',#908,1.);
#562=VECTOR('',#909,1.);
#563=VECTOR('',#912,1.);
#564=VECTOR('',#913,1.);
#565=VECTOR('',#914,1.);
#566=VECTOR('',#915,1.);
#567=VECTOR('',#918,1.);
#568=VECTOR('',#919,1.);
#569=VECTOR('',#920,1.);
#570=VECTOR('',#921,1.);
#571=VECTOR('',#924,1.);
#572=VECTOR('',#925,1.);
#573=VECTOR('',#926,1.);
#574=VECTOR('',#927,1.);
#575=VECTOR('',#930,1.);
#576=VECTOR('',#931,1.);
#577=VECTOR('',#932,1.);
#578=VECTOR('',#933,1.);
#579=VECTOR('',#960,1.);
#580=VECTOR('',#961,1.);
#581=VECTOR('',#962,1.);
#582=VECTOR('',#963,1.);
#583=VECTOR('',#966,1.);
#584=VECTOR('',#967,1.);
#585=VECTOR('',#968,1.);
#586=VECTOR('',#969,1.);
#587=VECTOR('',#970,1.);
#588=VECTOR('',#971,1.);
#589=VECTOR('',#972,1.);
#590=VECTOR('',#973,1.);
#591=VECTOR('',#974,1.);
#592=VECTOR('',#975,1.);
#593=VECTOR('',#976,1.);
#594=VECTOR('',#977,1.);
#595=VECTOR('',#978,1.);
#596=VECTOR('',#1001,1.);
#597=VECTOR('',#1006,1.);
#598=VECTOR('',#1007,1.);
#599=VECTOR('',#1008,1.);
#600=VECTOR('',#1009,1.);
#601=VECTOR('',#1010,1.);
#602=VECTOR('',#1013,1.);
#603=VECTOR('',#1014,1.);
#604=VECTOR('',#1017,1.);
#605=VECTOR('',#1018,1.);
#606=VECTOR('',#1021,1.);
#607=VECTOR('',#1022,1.);
#608=VECTOR('',#1025,1.);
#609=VECTOR('',#1026,1.);
#610=VECTOR('',#1029,1.);
#611=VECTOR('',#1030,1.);
#612=VECTOR('',#1033,1.);
#613=VECTOR('',#1034,1.);
#614=VECTOR('',#1037,1.);
#615=VECTOR('',#1038,1.);
#616=VECTOR('',#1041,1.);
#617=VECTOR('',#1042,1.);
#618=VECTOR('',#1045,1.);
#619=VECTOR('',#1060,1.);
#620=VECTOR('',#1061,1.);
#621=VECTOR('',#1084,1.);
#622=VECTOR('',#1085,1.);
#623=EDGE_LOOP('',(#57,#58,#59,#60));
#624=EDGE_LOOP('',(#61,#62,#63,#64));
#625=EDGE_LOOP('',(#65,#66,#67,#68));
#626=EDGE_LOOP('',(#69,#70,#71,#72,#73,#74,#75,#76));
#627=EDGE_LOOP('',(#77,#78,#79,#80,#81,#82));
#628=EDGE_LOOP('',(#83,#84,#85,#86));
#629=EDGE_LOOP('',(#87,#88,#89,#90));
#630=EDGE_LOOP('',(#91,#92,#93,#94));
#631=EDGE_LOOP('',(#95,#96,#97,#98));
#632=EDGE_LOOP('',(#99));
#633=EDGE_LOOP('',(#100));
#634=EDGE_LOOP('',(#101));
#635=EDGE_LOOP('',(#102));
#636=EDGE_LOOP('',(#103));
#637=EDGE_LOOP('',(#104));
#638=EDGE_LOOP('',(#105));
#639=EDGE_LOOP('',(#106));
#640=EDGE_LOOP('',(#107,#108,#109,#110));
#641=EDGE_LOOP('',(#111));
#642=EDGE_LOOP('',(#112));
#643=EDGE_LOOP('',(#113));
#644=EDGE_LOOP('',(#114));
#645=EDGE_LOOP('',(#115,#116,#117,#118,#119,#120,#121,#122,#123,#124,#125,
#126,#127,#128));
#646=EDGE_LOOP('',(#129,#130,#131,#132,#133,#134,#135,#136,#137,#138,#139,
#140,#141,#142));
#647=EDGE_LOOP('',(#143));
#648=EDGE_LOOP('',(#144));
#649=EDGE_LOOP('',(#145));
#650=EDGE_LOOP('',(#146));
#651=EDGE_LOOP('',(#147,#148,#149,#150,#151,#152,#153,#154,#155,#156,#157,
#158,#159,#160));
#652=EDGE_LOOP('',(#161,#162,#163,#164));
#653=EDGE_LOOP('',(#165,#166,#167,#168));
#654=EDGE_LOOP('',(#169,#170,#171,#172));
#655=EDGE_LOOP('',(#173,#174,#175,#176));
#656=EDGE_LOOP('',(#177,#178,#179,#180));
#657=EDGE_LOOP('',(#181,#182,#183,#184));
#658=EDGE_LOOP('',(#185,#186,#187,#188));
#659=EDGE_LOOP('',(#189,#190,#191,#192));
#660=EDGE_LOOP('',(#193,#194,#195,#196));
#661=EDGE_LOOP('',(#197,#198,#199,#200,#201,#202,#203,#204,#205,#206,#207,
#208,#209,#210,#211,#212,#213,#214,#215,#216,#217,#218,#219,#220,#221,#222,
#223,#224));
#662=EDGE_LOOP('',(#225,#226,#227,#228));
#663=EDGE_LOOP('',(#229,#230,#231,#232));
#664=EDGE_LOOP('',(#233,#234,#235,#236));
#665=EDGE_LOOP('',(#237,#238,#239,#240));
#666=EDGE_LOOP('',(#241,#242,#243,#244));
#667=EDGE_LOOP('',(#245,#246,#247,#248));
#668=EDGE_LOOP('',(#249,#250,#251,#252));
#669=EDGE_LOOP('',(#253,#254,#255,#256));
#670=EDGE_LOOP('',(#257,#258,#259,#260));
#671=EDGE_LOOP('',(#261,#262,#263,#264));
#672=EDGE_LOOP('',(#265,#266,#267,#268));
#673=EDGE_LOOP('',(#269,#270,#271,#272));
#674=EDGE_LOOP('',(#273,#274,#275,#276));
#675=FACE_BOUND('',#623,.T.);
#676=FACE_BOUND('',#624,.T.);
#677=FACE_BOUND('',#625,.T.);
#678=FACE_BOUND('',#626,.T.);
#679=FACE_BOUND('',#627,.T.);
#680=FACE_BOUND('',#628,.T.);
#681=FACE_BOUND('',#629,.T.);
#682=FACE_BOUND('',#630,.T.);
#683=FACE_BOUND('',#631,.T.);
#684=FACE_BOUND('',#632,.T.);
#685=FACE_BOUND('',#633,.T.);
#686=FACE_BOUND('',#634,.T.);
#687=FACE_BOUND('',#635,.T.);
#688=FACE_BOUND('',#636,.T.);
#689=FACE_BOUND('',#637,.T.);
#690=FACE_BOUND('',#638,.T.);
#691=FACE_BOUND('',#639,.T.);
#692=FACE_BOUND('',#640,.T.);
#693=FACE_BOUND('',#641,.T.);
#694=FACE_BOUND('',#642,.T.);
#695=FACE_BOUND('',#643,.T.);
#696=FACE_BOUND('',#644,.T.);
#697=FACE_BOUND('',#645,.T.);
#698=FACE_BOUND('',#646,.T.);
#699=FACE_BOUND('',#647,.T.);
#700=FACE_BOUND('',#648,.T.);
#701=FACE_BOUND('',#649,.T.);
#702=FACE_BOUND('',#650,.T.);
#703=FACE_BOUND('',#651,.T.);
#704=FACE_BOUND('',#652,.T.);
#705=FACE_BOUND('',#653,.T.);
#706=FACE_BOUND('',#654,.T.);
#707=FACE_BOUND('',#655,.T.);
#708=FACE_BOUND('',#656,.T.);
#709=FACE_BOUND('',#657,.T.);
#710=FACE_BOUND('',#658,.T.);
#711=FACE_BOUND('',#659,.T.);
#712=FACE_BOUND('',#660,.T.);
#713=FACE_BOUND('',#661,.T.);
#714=FACE_BOUND('',#662,.T.);
#715=FACE_BOUND('',#663,.T.);
#716=FACE_BOUND('',#664,.T.);
#717=FACE_BOUND('',#665,.T.);
#718=FACE_BOUND('',#666,.T.);
#719=FACE_BOUND('',#667,.T.);
#720=FACE_BOUND('',#668,.T.);
#721=FACE_BOUND('',#669,.T.);
#722=FACE_BOUND('',#670,.T.);
#723=FACE_BOUND('',#671,.T.);
#724=FACE_BOUND('',#672,.T.);
#725=FACE_BOUND('',#673,.T.);
#726=FACE_BOUND('',#674,.T.);
#727=PLANE('',#803);
#728=PLANE('',#804);
#729=PLANE('',#805);
#730=PLANE('',#806);
#731=PLANE('',#811);
#732=PLANE('',#812);
#733=PLANE('',#813);
#734=PLANE('',#814);
#735=PLANE('',#827);
#736=PLANE('',#828);
#737=PLANE('',#829);
#738=PLANE('',#837);
#739=PLANE('',#842);
#740=PLANE('',#843);
#741=PLANE('',#844);
#742=PLANE('',#845);
#743=PLANE('',#846);
#744=PLANE('',#847);
#745=PLANE('',#848);
#746=PLANE('',#849);
#747=PLANE('',#850);
#748=PLANE('',#851);
#749=PLANE('',#868);
#750=PLANE('',#869);
#751=ADVANCED_FACE('',(#675),#727,.T.);
#752=ADVANCED_FACE('',(#676),#728,.F.);
#753=ADVANCED_FACE('',(#677),#729,.F.);
#754=ADVANCED_FACE('',(#678,#679),#730,.F.);
#755=ADVANCED_FACE('',(#680),#731,.T.);
#756=ADVANCED_FACE('',(#681),#732,.F.);
#757=ADVANCED_FACE('',(#682),#733,.F.);
#758=ADVANCED_FACE('',(#683),#734,.F.);
#759=ADVANCED_FACE('',(#684,#685),#12,.F.);
#760=ADVANCED_FACE('',(#686,#687),#13,.F.);
#761=ADVANCED_FACE('',(#688,#689),#14,.F.);
#762=ADVANCED_FACE('',(#690,#691),#15,.F.);
#763=ADVANCED_FACE('',(#692),#735,.F.);
#764=ADVANCED_FACE('',(#693,#694,#695,#696,#697),#736,.F.);
#765=ADVANCED_FACE('',(#698,#699,#700,#701,#702),#737,.T.);
#766=ADVANCED_FACE('',(#703),#738,.T.);
#767=ADVANCED_FACE('',(#704),#739,.T.);
#768=ADVANCED_FACE('',(#705),#740,.T.);
#769=ADVANCED_FACE('',(#706),#741,.T.);
#770=ADVANCED_FACE('',(#707),#742,.T.);
#771=ADVANCED_FACE('',(#708),#743,.T.);
#772=ADVANCED_FACE('',(#709),#744,.T.);
#773=ADVANCED_FACE('',(#710),#745,.T.);
#774=ADVANCED_FACE('',(#711),#746,.T.);
#775=ADVANCED_FACE('',(#712),#747,.T.);
#776=ADVANCED_FACE('',(#713),#748,.F.);
#777=ADVANCED_FACE('',(#714),#16,.T.);
#778=ADVANCED_FACE('',(#715),#17,.T.);
#779=ADVANCED_FACE('',(#716),#18,.T.);
#780=ADVANCED_FACE('',(#717),#19,.T.);
#781=ADVANCED_FACE('',(#718),#20,.T.);
#782=ADVANCED_FACE('',(#719),#21,.T.);
#783=ADVANCED_FACE('',(#720),#22,.T.);
#784=ADVANCED_FACE('',(#721),#23,.F.);
#785=ADVANCED_FACE('',(#722),#24,.F.);
#786=ADVANCED_FACE('',(#723),#749,.T.);
#787=ADVANCED_FACE('',(#724),#750,.F.);
#788=ADVANCED_FACE('',(#725),#25,.F.);
#789=ADVANCED_FACE('',(#726),#26,.F.);
#790=CLOSED_SHELL('',(#751,#752,#753,#754,#755,#756,#757,#758,#759,#760,
#761,#762,#763,#764,#765,#766,#767,#768,#769,#770,#771,#772,#773,#774,#775,
#776,#777,#778,#779,#780,#781,#782,#783,#784,#785,#786,#787,#788,#789));
#791=STYLED_ITEM('',(#792),#799);
#792=PRESENTATION_STYLE_ASSIGNMENT((#793));
#793=SURFACE_STYLE_USAGE(.BOTH.,#794);
#794=SURFACE_SIDE_STYLE('',(#795));
#795=SURFACE_STYLE_FILL_AREA(#796);
#796=FILL_AREA_STYLE('',(#797));
#797=FILL_AREA_STYLE_COLOUR('',#798);
#798=COLOUR_RGB('',0.615686274509804,0.811764705882353,0.929411764705882);
#799=MANIFOLD_SOLID_BREP('Part 1',#790);
#800=SHAPE_DEFINITION_REPRESENTATION(#1324,#801);
#801=SHAPE_REPRESENTATION('Part 1',(#802),#1319);
#802=AXIS2_PLACEMENT_3D('',#1092,#872,#873);
#803=AXIS2_PLACEMENT_3D('',#1093,#874,#875);
#804=AXIS2_PLACEMENT_3D('',#1102,#880,#881);
#805=AXIS2_PLACEMENT_3D('',#1111,#886,#887);
#806=AXIS2_PLACEMENT_3D('',#1120,#892,#893);
#807=AXIS2_PLACEMENT_3D('',#1121,#894,#895);
#808=AXIS2_PLACEMENT_3D('',#1125,#897,#898);
#809=AXIS2_PLACEMENT_3D('',#1126,#899,#900);
#810=AXIS2_PLACEMENT_3D('',#1130,#902,#903);
#811=AXIS2_PLACEMENT_3D('',#1143,#910,#911);
#812=AXIS2_PLACEMENT_3D('',#1152,#916,#917);
#813=AXIS2_PLACEMENT_3D('',#1161,#922,#923);
#814=AXIS2_PLACEMENT_3D('',#1170,#928,#929);
#815=AXIS2_PLACEMENT_3D('',#1179,#934,#935);
#816=AXIS2_PLACEMENT_3D('',#1180,#936,#937);
#817=AXIS2_PLACEMENT_3D('',#1182,#938,#939);
#818=AXIS2_PLACEMENT_3D('',#1184,#940,#941);
#819=AXIS2_PLACEMENT_3D('',#1185,#942,#943);
#820=AXIS2_PLACEMENT_3D('',#1187,#944,#945);
#821=AXIS2_PLACEMENT_3D('',#1189,#946,#947);
#822=AXIS2_PLACEMENT_3D('',#1190,#948,#949);
#823=AXIS2_PLACEMENT_3D('',#1192,#950,#951);
#824=AXIS2_PLACEMENT_3D('',#1194,#952,#953);
#825=AXIS2_PLACEMENT_3D('',#1195,#954,#955);
#826=AXIS2_PLACEMENT_3D('',#1197,#956,#957);
#827=AXIS2_PLACEMENT_3D('',#1199,#958,#959);
#828=AXIS2_PLACEMENT_3D('',#1208,#964,#965);
#829=AXIS2_PLACEMENT_3D('',#1234,#979,#980);
#830=AXIS2_PLACEMENT_3D('',#1235,#981,#982);
#831=AXIS2_PLACEMENT_3D('',#1236,#983,#984);
#832=AXIS2_PLACEMENT_3D('',#1237,#985,#986);
#833=AXIS2_PLACEMENT_3D('',#1238,#987,#988);
#834=AXIS2_PLACEMENT_3D('',#1239,#989,#990);
#835=AXIS2_PLACEMENT_3D('',#1240,#991,#992);
#836=AXIS2_PLACEMENT_3D('',#1241,#993,#994);
#837=AXIS2_PLACEMENT_3D('',#1242,#995,#996);
#838=AXIS2_PLACEMENT_3D('',#1243,#997,#998);
#839=AXIS2_PLACEMENT_3D('',#1244,#999,#1000);
#840=AXIS2_PLACEMENT_3D('',#1248,#1002,#1003);
#841=AXIS2_PLACEMENT_3D('',#1249,#1004,#1005);
#842=AXIS2_PLACEMENT_3D('',#1259,#1011,#1012);
#843=AXIS2_PLACEMENT_3D('',#1263,#1015,#1016);
#844=AXIS2_PLACEMENT_3D('',#1267,#1019,#1020);
#845=AXIS2_PLACEMENT_3D('',#1271,#1023,#1024);
#846=AXIS2_PLACEMENT_3D('',#1275,#1027,#1028);
#847=AXIS2_PLACEMENT_3D('',#1279,#1031,#1032);
#848=AXIS2_PLACEMENT_3D('',#1283,#1035,#1036);
#849=AXIS2_PLACEMENT_3D('',#1287,#1039,#1040);
#850=AXIS2_PLACEMENT_3D('',#1291,#1043,#1044);
#851=AXIS2_PLACEMENT_3D('',#1293,#1046,#1047);
#852=AXIS2_PLACEMENT_3D('',#1294,#1048,#1049);
#853=AXIS2_PLACEMENT_3D('',#1295,#1050,#1051);
#854=AXIS2_PLACEMENT_3D('',#1296,#1052,#1053);
#855=AXIS2_PLACEMENT_3D('',#1297,#1054,#1055);
#856=AXIS2_PLACEMENT_3D('',#1298,#1056,#1057);
#857=AXIS2_PLACEMENT_3D('',#1299,#1058,#1059);
#858=AXIS2_PLACEMENT_3D('',#1302,#1062,#1063);
#859=AXIS2_PLACEMENT_3D('',#1303,#1064,#1065);
#860=AXIS2_PLACEMENT_3D('',#1304,#1066,#1067);
#861=AXIS2_PLACEMENT_3D('',#1305,#1068,#1069);
#862=AXIS2_PLACEMENT_3D('',#1306,#1070,#1071);
#863=AXIS2_PLACEMENT_3D('',#1307,#1072,#1073);
#864=AXIS2_PLACEMENT_3D('',#1308,#1074,#1075);
#865=AXIS2_PLACEMENT_3D('',#1309,#1076,#1077);
#866=AXIS2_PLACEMENT_3D('',#1310,#1078,#1079);
#867=AXIS2_PLACEMENT_3D('',#1311,#1080,#1081);
#868=AXIS2_PLACEMENT_3D('',#1312,#1082,#1083);
#869=AXIS2_PLACEMENT_3D('',#1315,#1086,#1087);
#870=AXIS2_PLACEMENT_3D('',#1316,#1088,#1089);
#871=AXIS2_PLACEMENT_3D('',#1317,#1090,#1091);
#872=DIRECTION('',(0.,0.,1.));
#873=DIRECTION('',(1.,0.,0.));
#874=DIRECTION('',(0.,-1.,0.));
#875=DIRECTION('',(0.,0.,-1.));
#876=DIRECTION('',(0.,0.,1.));
#877=DIRECTION('',(1.,0.,0.));
#878=DIRECTION('',(0.,0.,1.));
#879=DIRECTION('',(1.,0.,0.));
#880=DIRECTION('',(0.,-1.,0.));
#881=DIRECTION('',(0.,0.,-1.));
#882=DIRECTION('',(0.,0.,1.));
#883=DIRECTION('',(1.,0.,0.));
#884=DIRECTION('',(0.,0.,1.));
#885=DIRECTION('',(1.,0.,0.));
#886=DIRECTION('',(0.112562519933784,-0.993644644279914,0.));
#887=DIRECTION('',(0.993644644279914,0.112562519933784,0.));
#888=DIRECTION('',(0.993644644279914,0.112562519933784,0.));
#889=DIRECTION('',(0.,0.,1.));
#890=DIRECTION('',(0.993644644279914,0.112562519933784,0.));
#891=DIRECTION('',(0.,0.,1.));
#892=DIRECTION('',(1.,0.,0.));
#893=DIRECTION('',(0.,0.,-1.));
#894=DIRECTION('',(1.,0.,0.));
#895=DIRECTION('',(0.,0.,-1.));
#896=DIRECTION('',(0.,1.,0.));
#897=DIRECTION('',(1.,0.,0.));
#898=DIRECTION('',(0.,0.,-1.));
#899=DIRECTION('',(1.,0.,0.));
#900=DIRECTION('',(0.,0.,-1.));
#901=DIRECTION('',(0.,1.,0.));
#902=DIRECTION('',(1.,0.,0.));
#903=DIRECTION('',(0.,0.,-1.));
#904=DIRECTION('',(0.,1.,0.));
#905=DIRECTION('',(0.,0.,1.));
#906=DIRECTION('',(0.,1.,0.));
#907=DIRECTION('',(0.,0.,1.));
#908=DIRECTION('',(0.,1.,0.));
#909=DIRECTION('',(0.,1.,0.));
#910=DIRECTION('',(-0.707106857629191,-0.707106704743896,0.));
#911=DIRECTION('',(0.707106704743896,-0.707106857629191,0.));
#912=DIRECTION('',(0.707106704743896,-0.707106857629191,0.));
#913=DIRECTION('',(0.,0.,1.));
#914=DIRECTION('',(0.707106704743896,-0.707106857629191,0.));
#915=DIRECTION('',(0.,0.,1.));
#916=DIRECTION('',(0.,1.,0.));
#917=DIRECTION('',(0.,0.,1.));
#918=DIRECTION('',(-1.,0.,0.));
#919=DIRECTION('',(0.,0.,1.));
#920=DIRECTION('',(-1.,0.,0.));
#921=DIRECTION('',(0.,0.,1.));
#922=DIRECTION('',(-0.844888310097866,0.534942747833795,0.));
#923=DIRECTION('',(-0.534942747833795,-0.844888310097867,0.));
#924=DIRECTION('',(-0.534942747833795,-0.844888310097867,0.));
#925=DIRECTION('',(0.,0.,1.));
#926=DIRECTION('',(-0.534942747833795,-0.844888310097867,0.));
#927=DIRECTION('',(0.,0.,1.));
#928=DIRECTION('',(-0.999961212695737,-0.00880755948438649,0.));
#929=DIRECTION('',(0.00880755948438649,-0.999961212695737,0.));
#930=DIRECTION('',(0.00880755948438649,-0.999961212695737,0.));
#931=DIRECTION('',(0.,0.,1.));
#932=DIRECTION('',(0.00880755948438649,-0.999961212695737,0.));
#933=DIRECTION('',(0.,0.,1.));
#934=DIRECTION('',(0.,0.,1.));
#935=DIRECTION('',(1.,0.,0.));
#936=DIRECTION('',(0.,0.,1.));
#937=DIRECTION('',(1.,0.,0.));
#938=DIRECTION('',(0.,0.,1.));
#939=DIRECTION('',(1.,0.,0.));
#940=DIRECTION('',(0.,0.,1.));
#941=DIRECTION('',(1.,0.,0.));
#942=DIRECTION('',(0.,0.,1.));
#943=DIRECTION('',(1.,0.,0.));
#944=DIRECTION('',(0.,0.,1.));
#945=DIRECTION('',(1.,0.,0.));
#946=DIRECTION('',(0.,0.,1.));
#947=DIRECTION('',(1.,0.,0.));
#948=DIRECTION('',(0.,0.,1.));
#949=DIRECTION('',(1.,0.,0.));
#950=DIRECTION('',(0.,0.,1.));
#951=DIRECTION('',(1.,0.,0.));
#952=DIRECTION('',(0.,0.,1.));
#953=DIRECTION('',(1.,0.,0.));
#954=DIRECTION('',(0.,0.,1.));
#955=DIRECTION('',(1.,0.,0.));
#956=DIRECTION('',(0.,0.,1.));
#957=DIRECTION('',(1.,0.,0.));
#958=DIRECTION('',(-0.111059546613137,-0.993813753731595,0.));
#959=DIRECTION('',(0.993813753731596,-0.111059546613138,0.));
#960=DIRECTION('',(0.993813753731596,-0.111059546613138,0.));
#961=DIRECTION('',(0.,0.,1.));
#962=DIRECTION('',(0.993813753731596,-0.111059546613138,0.));
#963=DIRECTION('',(0.,0.,1.));
#964=DIRECTION('',(0.,0.,1.));
#965=DIRECTION('',(1.,0.,0.));
#966=DIRECTION('',(0.,1.,0.));
#967=DIRECTION('',(1.,0.,0.));
#968=DIRECTION('',(1.,0.,0.));
#969=DIRECTION('',(0.,1.,0.));
#970=DIRECTION('',(0.995597798278787,0.0937284591916007,0.));
#971=DIRECTION('',(0.994549313432595,-0.104267267878056,0.));
#972=DIRECTION('',(0.00880755948438643,-0.999961212695737,0.));
#973=DIRECTION('',(-0.534942747833795,-0.844888310097867,0.));
#974=DIRECTION('',(-1.,0.,0.));
#975=DIRECTION('',(-0.49112065783987,0.871091556291837,0.));
#976=DIRECTION('',(-1.,0.,0.));
#977=DIRECTION('',(-0.387996945466199,-0.921660658978618,0.));
#978=DIRECTION('',(-1.,0.,0.));
#979=DIRECTION('',(0.,0.,1.));
#980=DIRECTION('',(1.,0.,0.));
#981=DIRECTION('',(0.,0.,1.));
#982=DIRECTION('',(1.,0.,0.));
#983=DIRECTION('',(0.,0.,1.));
#984=DIRECTION('',(1.,0.,0.));
#985=DIRECTION('',(0.,0.,1.));
#986=DIRECTION('',(1.,0.,0.));
#987=DIRECTION('',(0.,0.,1.));
#988=DIRECTION('',(1.,0.,0.));
#989=DIRECTION('',(0.,0.,1.));
#990=DIRECTION('',(1.,0.,0.));
#991=DIRECTION('',(0.,0.,1.));
#992=DIRECTION('',(1.,0.,0.));
#993=DIRECTION('',(0.,0.,1.));
#994=DIRECTION('',(1.,0.,0.));
#995=DIRECTION('',(1.,0.,0.));
#996=DIRECTION('',(0.,0.,-1.));
#997=DIRECTION('',(1.,0.,0.));
#998=DIRECTION('',(0.,0.,-1.));
#999=DIRECTION('',(1.,0.,0.));
#1000=DIRECTION('',(0.,0.,-1.));
#1001=DIRECTION('',(0.,1.,0.));
#1002=DIRECTION('',(1.,0.,0.));
#1003=DIRECTION('',(0.,0.,-1.));
#1004=DIRECTION('',(1.,0.,0.));
#1005=DIRECTION('',(0.,0.,-1.));
#1006=DIRECTION('',(0.,0.,1.));
#1007=DIRECTION('',(0.,1.,0.));
#1008=DIRECTION('',(0.,1.,0.));
#1009=DIRECTION('',(0.,1.,0.));
#1010=DIRECTION('',(0.,0.,1.));
#1011=DIRECTION('',(0.0937284591916007,-0.995597798278787,0.));
#1012=DIRECTION('',(0.995597798278787,0.0937284591916007,0.));
#1013=DIRECTION('',(0.995597798278787,0.0937284591916007,0.));
#1014=DIRECTION('',(0.,0.,1.));
#1015=DIRECTION('',(-0.104267267878056,-0.994549313432595,0.));
#1016=DIRECTION('',(0.994549313432595,-0.104267267878056,0.));
#1017=DIRECTION('',(0.994549313432595,-0.104267267878056,0.));
#1018=DIRECTION('',(0.,0.,1.));
#1019=DIRECTION('',(-0.999961212695737,-0.00880755948438643,0.));
#1020=DIRECTION('',(0.00880755948438643,-0.999961212695737,0.));
#1021=DIRECTION('',(0.00880755948438643,-0.999961212695737,0.));
#1022=DIRECTION('',(0.,0.,1.));
#1023=DIRECTION('',(-0.844888310097867,0.534942747833795,0.));
#1024=DIRECTION('',(-0.534942747833795,-0.844888310097867,0.));
#1025=DIRECTION('',(-0.534942747833795,-0.844888310097867,0.));
#1026=DIRECTION('',(0.,0.,1.));
#1027=DIRECTION('',(0.,1.,0.));
#1028=DIRECTION('',(0.,0.,1.));
#1029=DIRECTION('',(-1.,0.,0.));
#1030=DIRECTION('',(0.,0.,1.));
#1031=DIRECTION('',(0.871091556291837,0.49112065783987,0.));
#1032=DIRECTION('',(-0.49112065783987,0.871091556291837,0.));
#1033=DIRECTION('',(-0.49112065783987,0.871091556291837,0.));
#1034=DIRECTION('',(0.,0.,1.));
#1035=DIRECTION('',(0.,1.,0.));
#1036=DIRECTION('',(0.,0.,1.));
#1037=DIRECTION('',(-1.,0.,0.));
#1038=DIRECTION('',(0.,0.,1.));
#1039=DIRECTION('',(-0.921660658978618,0.387996945466199,0.));
#1040=DIRECTION('',(-0.387996945466199,-0.921660658978618,0.));
#1041=DIRECTION('',(-0.387996945466199,-0.921660658978618,0.));
#1042=DIRECTION('',(0.,0.,1.));
#1043=DIRECTION('',(0.,1.,0.));
#1044=DIRECTION('',(0.,0.,1.));
#1045=DIRECTION('',(-1.,0.,0.));
#1046=DIRECTION('',(0.,0.,1.));
#1047=DIRECTION('',(1.,0.,0.));
#1048=DIRECTION('',(0.,0.,1.));
#1049=DIRECTION('',(1.,0.,0.));
#1050=DIRECTION('',(0.,0.,1.));
#1051=DIRECTION('',(1.,0.,0.));
#1052=DIRECTION('',(0.,0.,1.));
#1053=DIRECTION('',(1.,0.,0.));
#1054=DIRECTION('',(0.,0.,1.));
#1055=DIRECTION('',(1.,0.,0.));
#1056=DIRECTION('',(0.,0.,1.));
#1057=DIRECTION('',(1.,0.,0.));
#1058=DIRECTION('',(0.,0.,1.));
#1059=DIRECTION('',(1.,0.,0.));
#1060=DIRECTION('',(1.,0.,0.));
#1061=DIRECTION('',(1.,0.,0.));
#1062=DIRECTION('',(0.,0.,1.));
#1063=DIRECTION('',(1.,0.,0.));
#1064=DIRECTION('',(0.,0.,-1.));
#1065=DIRECTION('',(-1.,0.,0.));
#1066=DIRECTION('',(0.,0.,-1.));
#1067=DIRECTION('',(-1.,0.,0.));
#1068=DIRECTION('',(0.,0.,1.));
#1069=DIRECTION('',(1.,0.,0.));
#1070=DIRECTION('',(0.,0.,1.));
#1071=DIRECTION('',(1.,0.,0.));
#1072=DIRECTION('',(0.,0.,1.));
#1073=DIRECTION('',(1.,0.,0.));
#1074=DIRECTION('',(0.,0.,1.));
#1075=DIRECTION('',(1.,0.,0.));
#1076=DIRECTION('',(0.,0.,1.));
#1077=DIRECTION('',(1.,0.,0.));
#1078=DIRECTION('',(1.,0.,0.));
#1079=DIRECTION('',(0.,0.,-1.));
#1080=DIRECTION('',(-1.,0.,0.));
#1081=DIRECTION('',(0.,0.,1.));
#1082=DIRECTION('',(0.,0.,1.));
#1083=DIRECTION('',(1.,0.,0.));
#1084=DIRECTION('',(1.,0.,0.));
#1085=DIRECTION('',(1.,0.,0.));
#1086=DIRECTION('',(0.,0.,1.));
#1087=DIRECTION('',(1.,0.,0.));
#1088=DIRECTION('',(-1.,0.,0.));
#1089=DIRECTION('',(0.,0.,1.));
#1090=DIRECTION('',(1.,0.,0.));
#1091=DIRECTION('',(0.,0.,-1.));
#1092=CARTESIAN_POINT('',(0.,0.,0.));
#1093=CARTESIAN_POINT('',(-0.0709110043636354,-0.019883336,-0.009));
#1094=CARTESIAN_POINT('',(-0.0732235443636354,-0.019883336,-0.009));
#1095=CARTESIAN_POINT('',(-0.0732235443636354,-0.019883336,-0.006461));
#1096=CARTESIAN_POINT('',(-0.0732235443636354,-0.019883336,-0.005));
#1097=CARTESIAN_POINT('',(-0.0685984643636354,-0.019883336,-0.006461));
#1098=CARTESIAN_POINT('',(-0.0685984643636354,-0.019883336,-0.006461));
#1099=CARTESIAN_POINT('',(-0.0685984643636354,-0.019883336,-0.009));
#1100=CARTESIAN_POINT('',(-0.0685984643636354,-0.019883336,-0.005));
#1101=CARTESIAN_POINT('',(-0.0709110043636354,-0.019883336,-0.005));
#1102=CARTESIAN_POINT('',(-0.0709110043636354,-0.030991336,-0.009));
#1103=CARTESIAN_POINT('',(-0.0685984643636354,-0.030991336,-0.009));
#1104=CARTESIAN_POINT('',(-0.0685984643636354,-0.030991336,-0.006461));
#1105=CARTESIAN_POINT('',(-0.0685984643636354,-0.030991336,-0.005));
#1106=CARTESIAN_POINT('',(-0.0709110043636354,-0.030991336,-0.006461));
#1107=CARTESIAN_POINT('',(-0.0732235443636354,-0.030991336,-0.006461));
#1108=CARTESIAN_POINT('',(-0.0732235443636354,-0.030991336,-0.009));
#1109=CARTESIAN_POINT('',(-0.0732235443636354,-0.030991336,-0.005));
#1110=CARTESIAN_POINT('',(-0.0685984643636354,-0.030991336,-0.005));
#1111=CARTESIAN_POINT('',(-0.0364746988636354,0.055516331,-0.003));
#1112=CARTESIAN_POINT('',(-0.0364746988636354,0.055516331,0.));
#1113=CARTESIAN_POINT('',(-0.0665677632631388,0.0521073143250371,0.));
#1114=CARTESIAN_POINT('',(-0.0019618837528951,0.0594260279537726,0.));
#1115=CARTESIAN_POINT('',(-0.0019618837528951,0.0594260279537726,-0.003));
#1116=CARTESIAN_POINT('',(-0.0019618837528951,0.0594260279537726,-0.009));
#1117=CARTESIAN_POINT('',(-0.0364746988636354,0.055516331,-0.009));
#1118=CARTESIAN_POINT('',(-0.0665677632631388,0.0521073143250371,-0.009));
#1119=CARTESIAN_POINT('',(-0.0665677632631388,0.0521073143250371,-0.003));
#1120=CARTESIAN_POINT('',(-0.0732235443636354,-0.041671836,-0.003));
#1121=CARTESIAN_POINT('',(-0.0732235443636354,-0.028991336,-0.006461));
#1122=CARTESIAN_POINT('',(-0.0732235443636354,-0.028991336,-0.008461));
#1123=CARTESIAN_POINT('',(-0.0732235443636354,-0.030991336,-0.008461));
#1124=CARTESIAN_POINT('',(-0.0732235443636354,-0.021883336,-0.008461));
#1125=CARTESIAN_POINT('',(-0.0732235443636354,-0.021883336,-0.006461));
#1126=CARTESIAN_POINT('',(-0.0732235443636354,-0.021883336,-0.005));
#1127=CARTESIAN_POINT('',(-0.0732235443636354,-0.021883336,-0.003));
#1128=CARTESIAN_POINT('',(-0.0732235443636354,-0.041671836,-0.003));
#1129=CARTESIAN_POINT('',(-0.0732235443636354,-0.028991336,-0.003));
#1130=CARTESIAN_POINT('',(-0.0732235443636354,-0.028991336,-0.005));
#1131=CARTESIAN_POINT('',(-0.0732235443636354,-0.041671836,-0.009));
#1132=CARTESIAN_POINT('',(-0.0732235443636354,-0.0492457347571555,-0.009));
#1133=CARTESIAN_POINT('',(-0.0732235443636354,-0.030991336,-0.00899977001621305));
#1134=CARTESIAN_POINT('',(-0.0732235443636354,-0.0492457347571555,0.));
#1135=CARTESIAN_POINT('',(-0.0732235443636354,-0.0492457347571555,0.));
#1136=CARTESIAN_POINT('',(-0.0732235443636354,-0.041671836,0.));
#1137=CARTESIAN_POINT('',(-0.0732235443636354,0.0446549794929378,0.));
#1138=CARTESIAN_POINT('',(-0.0732235443636354,0.0446549794929378,-0.003));
#1139=CARTESIAN_POINT('',(-0.0732235443636354,0.0446549794929378,-0.009));
#1140=CARTESIAN_POINT('',(-0.0732235443636354,0.0157349975,-0.009));
#1141=CARTESIAN_POINT('',(-0.0732235443636354,-0.019883336,-0.00899977001621305));
#1142=CARTESIAN_POINT('',(-0.0732235443636354,-0.030991336,-0.00899954003242611));
#1143=CARTESIAN_POINT('',(-0.0709110043636354,-0.0546648765,-0.003));
#1144=CARTESIAN_POINT('',(-0.0709110043636354,-0.0546648765,0.));
#1145=CARTESIAN_POINT('',(-0.0710268457958544,-0.0545490350427347,0.));
#1146=CARTESIAN_POINT('',(-0.0707951636031024,-0.0547807172855792,0.));
#1147=CARTESIAN_POINT('',(-0.0710268457958544,-0.0545490350427347,-0.009));
#1148=CARTESIAN_POINT('',(-0.0710268457958544,-0.0545490350427347,-0.009));
#1149=CARTESIAN_POINT('',(-0.0709110043636354,-0.0546648765,-0.009));
#1150=CARTESIAN_POINT('',(-0.0707951636031024,-0.0547807172855792,-0.009));
#1151=CARTESIAN_POINT('',(-0.0707951636031024,-0.0547807172855792,0.));
#1152=CARTESIAN_POINT('',(-0.00949255487273472,-0.056977417,-0.003));
#1153=CARTESIAN_POINT('',(-0.00949255487273472,-0.056977417,0.));
#1154=CARTESIAN_POINT('',(0.0454850818635785,-0.056977417,0.));
#1155=CARTESIAN_POINT('',(-0.0654918621708835,-0.056977417,0.));
#1156=CARTESIAN_POINT('',(-0.0654918621708835,-0.056977417,-0.009));
#1157=CARTESIAN_POINT('',(-0.0654918621708835,-0.056977417,-0.009));
#1158=CARTESIAN_POINT('',(-0.00949255487273472,-0.056977417,-0.009));
#1159=CARTESIAN_POINT('',(0.0454850818635785,-0.056977417,-0.009));
#1160=CARTESIAN_POINT('',(0.0454850818635785,-0.056977417,-0.003));
#1161=CARTESIAN_POINT('',(0.0624947883279371,-0.036632487,-0.003));
#1162=CARTESIAN_POINT('',(0.0624947883279371,-0.036632487,0.));
#1163=CARTESIAN_POINT('',(0.0741937057405588,-0.0181552226520863,0.));
#1164=CARTESIAN_POINT('',(0.0518217441893125,-0.0534894876087535,0.));
#1165=CARTESIAN_POINT('',(0.0518217441893125,-0.0534894876087535,-0.003));
#1166=CARTESIAN_POINT('',(0.0518217441893125,-0.0534894876087535,-0.009));
#1167=CARTESIAN_POINT('',(0.0624947883279371,-0.036632487,-0.009));
#1168=CARTESIAN_POINT('',(0.0741937057405588,-0.0181552226520863,-0.009));
#1169=CARTESIAN_POINT('',(0.0741937057405587,-0.0181552226520863,-0.003));
#1170=CARTESIAN_POINT('',(0.0750783355441822,0.0175328151291979,-0.003));
#1171=CARTESIAN_POINT('',(0.0750783355441822,0.0175328151291979,0.));
#1172=CARTESIAN_POINT('',(0.0748390134422908,0.0447041126556518,0.));
#1173=CARTESIAN_POINT('',(0.0753567525100428,-0.0140770953471999,0.));
#1174=CARTESIAN_POINT('',(0.0753567525100428,-0.0140770953471999,-0.003));
#1175=CARTESIAN_POINT('',(0.0753567525100428,-0.0140770953471999,-0.009));
#1176=CARTESIAN_POINT('',(0.0750783355441822,0.0175328151291979,-0.009));
#1177=CARTESIAN_POINT('',(0.0748390134422908,0.0447041126556518,-0.009));
#1178=CARTESIAN_POINT('',(0.0748390134422908,0.0447041126556518,-0.003));
#1179=CARTESIAN_POINT('',(0.0650663756363646,0.043462402,-0.003));
#1180=CARTESIAN_POINT('',(0.0650663756363646,0.043462402,-0.003));
#1181=CARTESIAN_POINT('',(0.0665663756363646,0.043462402,-0.003));
#1182=CARTESIAN_POINT('',(0.0650663756363646,0.043462402,0.));
#1183=CARTESIAN_POINT('',(0.0665663756363646,0.043462402,0.));
#1184=CARTESIAN_POINT('',(0.0535663756363646,-0.030537598,-0.003));
#1185=CARTESIAN_POINT('',(0.0535663756363646,-0.030537598,-0.003));
#1186=CARTESIAN_POINT('',(0.0550663756363646,-0.030537598,-0.003));
#1187=CARTESIAN_POINT('',(0.0535663756363646,-0.030537598,0.));
#1188=CARTESIAN_POINT('',(0.0550663756363646,-0.030537598,0.));
#1189=CARTESIAN_POINT('',(-0.0636336243636354,0.044012402,-0.003));
#1190=CARTESIAN_POINT('',(-0.0636336243636354,0.044012402,-0.003));
#1191=CARTESIAN_POINT('',(-0.0621336243636354,0.044012402,-0.003));
#1192=CARTESIAN_POINT('',(-0.0636336243636354,0.044012402,0.));
#1193=CARTESIAN_POINT('',(-0.0621336243636354,0.044012402,0.));
#1194=CARTESIAN_POINT('',(-0.0609336243636354,-0.044037598,-0.003));
#1195=CARTESIAN_POINT('',(-0.0609336243636354,-0.044037598,-0.003));
#1196=CARTESIAN_POINT('',(-0.0594336243636354,-0.044037598,-0.003));
#1197=CARTESIAN_POINT('',(-0.0609336243636354,-0.044037598,0.));
#1198=CARTESIAN_POINT('',(-0.0594336243636354,-0.044037598,0.));
#1199=CARTESIAN_POINT('',(0.0375272978435103,0.0555162591291979,-0.003));
#1200=CARTESIAN_POINT('',(0.0375272978435103,0.0555162591291979,-0.009));
#1201=CARTESIAN_POINT('',(0.00251055757804332,0.0594294101428063,-0.009));
#1202=CARTESIAN_POINT('',(0.0681722509466713,0.0520916591125059,-0.009));
#1203=CARTESIAN_POINT('',(0.00251055757804332,0.0594294101428063,-0.003));
#1204=CARTESIAN_POINT('',(0.00251055757804332,0.0594294101428063,0.));
#1205=CARTESIAN_POINT('',(0.0375272978435103,0.0555162591291979,0.));
#1206=CARTESIAN_POINT('',(0.0681722509466713,0.0520916591125059,0.));
#1207=CARTESIAN_POINT('',(0.0681722509466713,0.0520916591125059,-0.003));
#1208=CARTESIAN_POINT('',(-0.00142366116296359,0.00135095699999998,-0.003));
#1209=CARTESIAN_POINT('',(-0.0685984643636354,0.00135095699999998,-0.003));
#1210=CARTESIAN_POINT('',(-0.0685984643636354,-0.052352336,-0.003));
#1211=CARTESIAN_POINT('',(-0.0685984643636354,-0.028991336,-0.003));
#1212=CARTESIAN_POINT('',(-0.0732235443636354,-0.028991336,-0.003));
#1213=CARTESIAN_POINT('',(-0.00142366116296359,-0.021883336,-0.003));
#1214=CARTESIAN_POINT('',(-0.0685984643636354,-0.021883336,-0.003));
#1215=CARTESIAN_POINT('',(-0.0685984643636354,0.00135095699999998,-0.003));
#1216=CARTESIAN_POINT('',(-0.0685984643636354,0.048570464,-0.003));
#1217=CARTESIAN_POINT('',(-0.0064201217447707,0.0544241131933078,-0.003));
#1218=CARTESIAN_POINT('',(0.000274146636364561,0.055054331,-0.003));
#1219=CARTESIAN_POINT('',(0.00416377977265055,0.0546465468763865,-0.003));
#1220=CARTESIAN_POINT('',(0.0701871486363646,0.047724742,-0.003));
#1221=CARTESIAN_POINT('',(0.0705900175911855,0.0019852463616911,-0.003));
#1222=CARTESIAN_POINT('',(0.0707509626363646,-0.016287557,-0.003));
#1223=CARTESIAN_POINT('',(0.058069226145536,-0.0363170853116384,-0.003));
#1224=CARTESIAN_POINT('',(0.0479164746363545,-0.052352336,-0.003));
#1225=CARTESIAN_POINT('',(-0.00142366116296359,-0.052352336,-0.003));
#1226=CARTESIAN_POINT('',(0.0211352846363646,-0.052352336,-0.003));
#1227=CARTESIAN_POINT('',(-0.00728078442879176,-0.00195128397637681,-0.003));
#1228=CARTESIAN_POINT('',(0.0104228086363646,-0.033351817,-0.003));
#1229=CARTESIAN_POINT('',(-0.00142366116296359,-0.033351817,-0.003));
#1230=CARTESIAN_POINT('',(-0.0245336923636355,-0.033351817,-0.003));
#1231=CARTESIAN_POINT('',(-0.00864490585858611,0.00439092714201569,-0.003));
#1232=CARTESIAN_POINT('',(-0.0325324533636355,-0.052352336,-0.003));
#1233=CARTESIAN_POINT('',(-0.00142366116296359,-0.052352336,-0.003));
#1234=CARTESIAN_POINT('',(-0.00142366116296359,0.00135095699999998,0.));
#1235=CARTESIAN_POINT('',(0.000289366645780567,0.0395531350681744,0.));
#1236=CARTESIAN_POINT('',(-0.0657235443636355,0.0446549794929378,0.));
#1237=CARTESIAN_POINT('',(-0.0657235443636355,-0.0492457347571555,0.));
#1238=CARTESIAN_POINT('',(-0.0654918621708835,-0.049477417,0.));
#1239=CARTESIAN_POINT('',(0.0454850818635785,-0.049477417,0.));
#1240=CARTESIAN_POINT('',(0.0678570434148248,-0.0141431520433328,0.));
#1241=CARTESIAN_POINT('',(0.0673393043470728,0.044638055959519,0.));
#1242=CARTESIAN_POINT('',(-0.0685984643636354,0.014343564,-0.009));
#1243=CARTESIAN_POINT('',(-0.0685984643636354,-0.021883336,-0.005));
#1244=CARTESIAN_POINT('',(-0.0685984643636354,-0.021883336,-0.006461));
#1245=CARTESIAN_POINT('',(-0.0685984643636354,-0.021883336,-0.008461));
#1246=CARTESIAN_POINT('',(-0.0685984643636354,-0.030991336,-0.008461));
#1247=CARTESIAN_POINT('',(-0.0685984643636354,-0.028991336,-0.008461));
#1248=CARTESIAN_POINT('',(-0.0685984643636354,-0.028991336,-0.006461));
#1249=CARTESIAN_POINT('',(-0.0685984643636354,-0.028991336,-0.005));
#1250=CARTESIAN_POINT('',(-0.0685984643636354,-0.052352336,-0.009));
#1251=CARTESIAN_POINT('',(-0.0685984643636354,-0.052352336,-0.009));
#1252=CARTESIAN_POINT('',(-0.0685984643636354,-0.041671836,-0.009));
#1253=CARTESIAN_POINT('',(-0.0685984643636354,-0.030991336,-0.00899977001621305));
#1254=CARTESIAN_POINT('',(-0.0685984643636354,-0.030991336,-0.00899954003242611));
#1255=CARTESIAN_POINT('',(-0.0685984643636354,-0.019883336,-0.00899977001621305));
#1256=CARTESIAN_POINT('',(-0.0685984643636354,0.014343564,-0.009));
#1257=CARTESIAN_POINT('',(-0.0685984643636354,0.048570464,-0.009));
#1258=CARTESIAN_POINT('',(-0.0685984643636354,0.048570464,-0.009));
#1259=CARTESIAN_POINT('',(-0.0341621588636355,0.0518123975,-0.009));
#1260=CARTESIAN_POINT('',(-0.0341621588636355,0.0518123975,-0.009));
#1261=CARTESIAN_POINT('',(0.000274146636364561,0.055054331,-0.009));
#1262=CARTESIAN_POINT('',(0.000274146636364561,0.055054331,-0.009));
#1263=CARTESIAN_POINT('',(0.0352306476363645,0.0513895365,-0.009));
#1264=CARTESIAN_POINT('',(0.0352306476363645,0.0513895365,-0.009));
#1265=CARTESIAN_POINT('',(0.0701871486363646,0.047724742,-0.009));
#1266=CARTESIAN_POINT('',(0.0701871486363646,0.047724742,-0.009));
#1267=CARTESIAN_POINT('',(0.0704690556363646,0.0157185924999999,-0.009));
#1268=CARTESIAN_POINT('',(0.0704690556363646,0.0157185924999999,-0.009));
#1269=CARTESIAN_POINT('',(0.0707509626363646,-0.016287557,-0.009));
#1270=CARTESIAN_POINT('',(0.0707509626363646,-0.016287557,-0.009));
#1271=CARTESIAN_POINT('',(0.0593337186363595,-0.0343199465,-0.009));
#1272=CARTESIAN_POINT('',(0.0593337186363595,-0.0343199465,-0.009));
#1273=CARTESIAN_POINT('',(0.0479164746363545,-0.052352336,-0.009));
#1274=CARTESIAN_POINT('',(0.0479164746363545,-0.052352336,-0.009));
#1275=CARTESIAN_POINT('',(0.0345258796363595,-0.052352336,-0.009));
#1276=CARTESIAN_POINT('',(0.0345258796363595,-0.052352336,-0.009));
#1277=CARTESIAN_POINT('',(0.0211352846363646,-0.052352336,-0.009));
#1278=CARTESIAN_POINT('',(0.0211352846363646,-0.052352336,-0.009));
#1279=CARTESIAN_POINT('',(0.0157790466363646,-0.0428520765,-0.009));
#1280=CARTESIAN_POINT('',(0.0157790466363646,-0.0428520765,-0.009));
#1281=CARTESIAN_POINT('',(0.0104228086363646,-0.033351817,-0.009));
#1282=CARTESIAN_POINT('',(0.0104228086363646,-0.033351817,-0.009));
#1283=CARTESIAN_POINT('',(-0.00705544186363544,-0.033351817,-0.009));
#1284=CARTESIAN_POINT('',(-0.00705544186363544,-0.033351817,-0.009));
#1285=CARTESIAN_POINT('',(-0.0245336923636355,-0.033351817,-0.009));
#1286=CARTESIAN_POINT('',(-0.0245336923636355,-0.033351817,-0.009));
#1287=CARTESIAN_POINT('',(-0.0285330728636355,-0.0428520765,-0.009));
#1288=CARTESIAN_POINT('',(-0.0285330728636355,-0.0428520765,-0.009));
#1289=CARTESIAN_POINT('',(-0.0325324533636355,-0.052352336,-0.009));
#1290=CARTESIAN_POINT('',(-0.0325324533636355,-0.052352336,-0.009));
#1291=CARTESIAN_POINT('',(-0.0505654588636354,-0.052352336,-0.009));
#1292=CARTESIAN_POINT('',(-0.0505654588636354,-0.052352336,-0.009));
#1293=CARTESIAN_POINT('',(-0.00142366116296359,0.00135095699999998,-0.009));
#1294=CARTESIAN_POINT('',(0.000289366645780567,0.0395531350681744,-0.009));
#1295=CARTESIAN_POINT('',(0.0673393043470728,0.044638055959519,-0.009));
#1296=CARTESIAN_POINT('',(0.0678570434148248,-0.0141431520433328,-0.009));
#1297=CARTESIAN_POINT('',(0.0454850818635785,-0.049477417,-0.009));
#1298=CARTESIAN_POINT('',(-0.0654918621708835,-0.049477417,-0.009));
#1299=CARTESIAN_POINT('',(-0.0657235443636355,-0.0492457347571555,-0.009));
#1300=CARTESIAN_POINT('',(-0.0709110043636354,-0.030991336,-0.009));
#1301=CARTESIAN_POINT('',(-0.0709110043636354,-0.019883336,-0.009));
#1302=CARTESIAN_POINT('',(-0.0657235443636355,0.0446549794929378,-0.009));
#1303=CARTESIAN_POINT('',(-0.0657235443636355,-0.0492457347571555,-0.003));
#1304=CARTESIAN_POINT('',(-0.0654918621708835,-0.049477417,-0.003));
#1305=CARTESIAN_POINT('',(0.0454850818635785,-0.049477417,-0.003));
#1306=CARTESIAN_POINT('',(0.0678570434148248,-0.0141431520433328,-0.003));
#1307=CARTESIAN_POINT('',(0.0673393043470728,0.044638055959519,-0.003));
#1308=CARTESIAN_POINT('',(-0.0657235443636355,0.0446549794929378,-0.003));
#1309=CARTESIAN_POINT('',(0.000289366645780567,0.0395531350681744,-0.003));
#1310=CARTESIAN_POINT('',(-0.00142366116296359,-0.021883336,-0.005));
#1311=CARTESIAN_POINT('',(-0.0709110043636354,-0.028991336,-0.005));
#1312=CARTESIAN_POINT('',(-0.0709110043636354,-0.030991336,-0.008461));
#1313=CARTESIAN_POINT('',(-0.0732235443636354,-0.021883336,-0.008461));
#1314=CARTESIAN_POINT('',(-0.0709110043636354,-0.028991336,-0.008461));
#1315=CARTESIAN_POINT('',(-0.0709110043636354,-0.030991336,-0.00899954003242611));
#1316=CARTESIAN_POINT('',(-0.0709110043636354,-0.021883336,-0.006461));
#1317=CARTESIAN_POINT('',(-0.0709110043636354,-0.028991336,-0.006461));
#1318=MECHANICAL_DESIGN_GEOMETRIC_PRESENTATION_REPRESENTATION('',(#791),
#1319);
#1319=(
GEOMETRIC_REPRESENTATION_CONTEXT(3)
GLOBAL_UNCERTAINTY_ASSIGNED_CONTEXT((#1320))
GLOBAL_UNIT_ASSIGNED_CONTEXT((#1323,#1322,#1321))
REPRESENTATION_CONTEXT('Part 1','TOP_LEVEL_ASSEMBLY_PART')
);
#1320=UNCERTAINTY_MEASURE_WITH_UNIT(LENGTH_MEASURE(2.04599675738947E-5),
#1323,'DISTANCE_ACCURACY_VALUE','Maximum Tolerance applied to model');
#1321=(
NAMED_UNIT(*)
SI_UNIT($,.STERADIAN.)
SOLID_ANGLE_UNIT()
);
#1322=(
NAMED_UNIT(*)
PLANE_ANGLE_UNIT()
SI_UNIT($,.RADIAN.)
);
#1323=(
LENGTH_UNIT()
NAMED_UNIT(*)
SI_UNIT($,.METRE.)
);
#1324=PRODUCT_DEFINITION_SHAPE('','',#1325);
#1325=PRODUCT_DEFINITION('','',#1327,#1326);
#1326=PRODUCT_DEFINITION_CONTEXT('',#1333,'design');
#1327=PRODUCT_DEFINITION_FORMATION_WITH_SPECIFIED_SOURCE('','',#1329,
 .NOT_KNOWN.);
#1328=PRODUCT_RELATED_PRODUCT_CATEGORY('','',(#1329));
#1329=PRODUCT('Part 1','Part 1','Part 1',(#1331));
#1330=PRODUCT_CATEGORY('','');
#1331=PRODUCT_CONTEXT('',#1333,'mechanical');
#1332=APPLICATION_PROTOCOL_DEFINITION('international standard',
'ap242_managed_model_based_3d_engineering',2020,#1333);
#1333=APPLICATION_CONTEXT('managed model based 3d engineering');
ENDSEC;
END-ISO-10303-21;
