ISO-10303-21;
HEADER;
/* Generated by software containing ST-Developer
 * from STEP Tools, Inc. (www.steptools.com) 
 */
/* OPTION: using custom renumber hook */

FILE_DESCRIPTION(
/* description */ ('STEP AP242 Edition 2',
'CAx-IF Rec.Pracs.---Representation and Presentation of Product Manufa
cturing Information (PMI)---4.0---2014-10-13',
'CAx-IF Rec.Pracs.---3D Tessellated Geometry---0.4---2014-09-14','2;1',
'CAx-IF Rec.Pracs.---User Defined Attributes---1.5---2016-08-15'),
/* implementation_level */ '2;1');

FILE_NAME(
/* name */ 'CaseBottomLeft',
/* time_stamp */ '2026-06-29T20:27:48Z',
/* author */ (''),
/* organization */ (''),
/* preprocessor_version */ 'ST-DEVELOPER v20',
/* originating_system */ 'ONSHAPE BY PTC INC, 1.217',
/* authorisation */ '  ');

FILE_SCHEMA (('AP242_MANAGED_MODEL_BASED_3D_ENGINEERING_MIM_LF { 1 0 10303 442 3 1 4 }'));
ENDSEC;

DATA;
#10=SHAPE_REPRESENTATION_RELATIONSHIP('','',#765,#11);
#11=ADVANCED_BREP_SHAPE_REPRESENTATION('',(#763),#1263);
#12=CYLINDRICAL_SURFACE('',#784,0.0015);
#13=CYLINDRICAL_SURFACE('',#786,0.0015);
#14=CYLINDRICAL_SURFACE('',#788,0.0015);
#15=CYLINDRICAL_SURFACE('',#790,0.0015);
#16=CYLINDRICAL_SURFACE('',#823,0.0075);
#17=CYLINDRICAL_SURFACE('',#824,0.0075);
#18=CYLINDRICAL_SURFACE('',#825,0.0075);
#19=CYLINDRICAL_SURFACE('',#826,0.0075);
#20=CYLINDRICAL_SURFACE('',#827,0.0075);
#21=CYLINDRICAL_SURFACE('',#828,0.0075);
#22=CYLINDRICAL_SURFACE('',#829,0.02);
#23=CYLINDRICAL_SURFACE('',#830,0.002);
#24=CYLINDRICAL_SURFACE('',#831,0.002);
#25=CYLINDRICAL_SURFACE('',#833,0.002);
#26=CYLINDRICAL_SURFACE('',#834,0.002);
#27=CIRCLE('',#770,0.0015);
#28=CIRCLE('',#771,0.0015);
#29=CIRCLE('',#772,0.0015);
#30=CIRCLE('',#773,0.0015);
#31=CIRCLE('',#776,0.002);
#32=CIRCLE('',#777,0.002);
#33=CIRCLE('',#778,0.002);
#34=CIRCLE('',#779,0.002);
#35=CIRCLE('',#785,0.0015);
#36=CIRCLE('',#787,0.0015);
#37=CIRCLE('',#789,0.0015);
#38=CIRCLE('',#791,0.0015);
#39=CIRCLE('',#794,0.02);
#40=CIRCLE('',#795,0.0075);
#41=CIRCLE('',#796,0.0075);
#42=CIRCLE('',#797,0.0075);
#43=CIRCLE('',#798,0.0075);
#44=CIRCLE('',#799,0.0075);
#45=CIRCLE('',#800,0.0075);
#46=CIRCLE('',#802,0.002);
#47=CIRCLE('',#803,0.002);
#48=CIRCLE('',#804,0.002);
#49=CIRCLE('',#805,0.002);
#50=CIRCLE('',#816,0.02);
#51=CIRCLE('',#817,0.0075);
#52=CIRCLE('',#818,0.0075);
#53=CIRCLE('',#819,0.0075);
#54=CIRCLE('',#820,0.0075);
#55=CIRCLE('',#821,0.0075);
#56=CIRCLE('',#822,0.0075);
#57=ORIENTED_EDGE('',*,*,#265,.F.);
#58=ORIENTED_EDGE('',*,*,#266,.T.);
#59=ORIENTED_EDGE('',*,*,#267,.T.);
#60=ORIENTED_EDGE('',*,*,#268,.T.);
#61=ORIENTED_EDGE('',*,*,#269,.F.);
#62=ORIENTED_EDGE('',*,*,#270,.T.);
#63=ORIENTED_EDGE('',*,*,#271,.T.);
#64=ORIENTED_EDGE('',*,*,#272,.T.);
#65=ORIENTED_EDGE('',*,*,#273,.F.);
#66=ORIENTED_EDGE('',*,*,#274,.F.);
#67=ORIENTED_EDGE('',*,*,#275,.F.);
#68=ORIENTED_EDGE('',*,*,#276,.F.);
#69=ORIENTED_EDGE('',*,*,#277,.F.);
#70=ORIENTED_EDGE('',*,*,#278,.T.);
#71=ORIENTED_EDGE('',*,*,#279,.T.);
#72=ORIENTED_EDGE('',*,*,#280,.T.);
#73=ORIENTED_EDGE('',*,*,#281,.T.);
#74=ORIENTED_EDGE('',*,*,#282,.T.);
#75=ORIENTED_EDGE('',*,*,#283,.T.);
#76=ORIENTED_EDGE('',*,*,#284,.T.);
#77=ORIENTED_EDGE('',*,*,#285,.T.);
#78=ORIENTED_EDGE('',*,*,#286,.T.);
#79=ORIENTED_EDGE('',*,*,#287,.T.);
#80=ORIENTED_EDGE('',*,*,#288,.T.);
#81=ORIENTED_EDGE('',*,*,#289,.T.);
#82=ORIENTED_EDGE('',*,*,#290,.T.);
#83=ORIENTED_EDGE('',*,*,#291,.T.);
#84=ORIENTED_EDGE('',*,*,#292,.T.);
#85=ORIENTED_EDGE('',*,*,#293,.F.);
#86=ORIENTED_EDGE('',*,*,#294,.T.);
#87=ORIENTED_EDGE('',*,*,#295,.F.);
#88=ORIENTED_EDGE('',*,*,#296,.T.);
#89=ORIENTED_EDGE('',*,*,#269,.T.);
#90=ORIENTED_EDGE('',*,*,#297,.T.);
#91=ORIENTED_EDGE('',*,*,#277,.T.);
#92=ORIENTED_EDGE('',*,*,#298,.T.);
#93=ORIENTED_EDGE('',*,*,#267,.F.);
#94=ORIENTED_EDGE('',*,*,#299,.T.);
#95=ORIENTED_EDGE('',*,*,#300,.F.);
#96=ORIENTED_EDGE('',*,*,#301,.T.);
#97=ORIENTED_EDGE('',*,*,#302,.T.);
#98=ORIENTED_EDGE('',*,*,#303,.T.);
#99=ORIENTED_EDGE('',*,*,#304,.F.);
#100=ORIENTED_EDGE('',*,*,#305,.T.);
#101=ORIENTED_EDGE('',*,*,#306,.T.);
#102=ORIENTED_EDGE('',*,*,#307,.T.);
#103=ORIENTED_EDGE('',*,*,#308,.T.);
#104=ORIENTED_EDGE('',*,*,#309,.T.);
#105=ORIENTED_EDGE('',*,*,#310,.F.);
#106=ORIENTED_EDGE('',*,*,#311,.T.);
#107=ORIENTED_EDGE('',*,*,#312,.T.);
#108=ORIENTED_EDGE('',*,*,#313,.T.);
#109=ORIENTED_EDGE('',*,*,#314,.F.);
#110=ORIENTED_EDGE('',*,*,#315,.T.);
#111=ORIENTED_EDGE('',*,*,#316,.T.);
#112=ORIENTED_EDGE('',*,*,#317,.T.);
#113=ORIENTED_EDGE('',*,*,#318,.F.);
#114=ORIENTED_EDGE('',*,*,#319,.T.);
#115=ORIENTED_EDGE('',*,*,#276,.T.);
#116=ORIENTED_EDGE('',*,*,#320,.F.);
#117=ORIENTED_EDGE('',*,*,#275,.T.);
#118=ORIENTED_EDGE('',*,*,#321,.F.);
#119=ORIENTED_EDGE('',*,*,#274,.T.);
#120=ORIENTED_EDGE('',*,*,#322,.F.);
#121=ORIENTED_EDGE('',*,*,#273,.T.);
#122=ORIENTED_EDGE('',*,*,#323,.F.);
#123=ORIENTED_EDGE('',*,*,#324,.F.);
#124=ORIENTED_EDGE('',*,*,#325,.T.);
#125=ORIENTED_EDGE('',*,*,#326,.T.);
#126=ORIENTED_EDGE('',*,*,#327,.T.);
#127=ORIENTED_EDGE('',*,*,#293,.T.);
#128=ORIENTED_EDGE('',*,*,#328,.T.);
#129=ORIENTED_EDGE('',*,*,#324,.T.);
#130=ORIENTED_EDGE('',*,*,#329,.T.);
#131=ORIENTED_EDGE('',*,*,#318,.T.);
#132=ORIENTED_EDGE('',*,*,#330,.T.);
#133=ORIENTED_EDGE('',*,*,#314,.T.);
#134=ORIENTED_EDGE('',*,*,#331,.T.);
#135=ORIENTED_EDGE('',*,*,#310,.T.);
#136=ORIENTED_EDGE('',*,*,#332,.T.);
#137=ORIENTED_EDGE('',*,*,#306,.F.);
#138=ORIENTED_EDGE('',*,*,#333,.T.);
#139=ORIENTED_EDGE('',*,*,#300,.T.);
#140=ORIENTED_EDGE('',*,*,#334,.T.);
#141=ORIENTED_EDGE('',*,*,#323,.T.);
#142=ORIENTED_EDGE('',*,*,#322,.T.);
#143=ORIENTED_EDGE('',*,*,#321,.T.);
#144=ORIENTED_EDGE('',*,*,#320,.T.);
#145=ORIENTED_EDGE('',*,*,#289,.F.);
#146=ORIENTED_EDGE('',*,*,#335,.F.);
#147=ORIENTED_EDGE('',*,*,#336,.F.);
#148=ORIENTED_EDGE('',*,*,#337,.T.);
#149=ORIENTED_EDGE('',*,*,#279,.F.);
#150=ORIENTED_EDGE('',*,*,#338,.T.);
#151=ORIENTED_EDGE('',*,*,#271,.F.);
#152=ORIENTED_EDGE('',*,*,#339,.T.);
#153=ORIENTED_EDGE('',*,*,#340,.T.);
#154=ORIENTED_EDGE('',*,*,#341,.T.);
#155=ORIENTED_EDGE('',*,*,#265,.T.);
#156=ORIENTED_EDGE('',*,*,#342,.T.);
#157=ORIENTED_EDGE('',*,*,#288,.F.);
#158=ORIENTED_EDGE('',*,*,#343,.F.);
#159=ORIENTED_EDGE('',*,*,#344,.F.);
#160=ORIENTED_EDGE('',*,*,#335,.T.);
#161=ORIENTED_EDGE('',*,*,#287,.F.);
#162=ORIENTED_EDGE('',*,*,#345,.F.);
#163=ORIENTED_EDGE('',*,*,#346,.F.);
#164=ORIENTED_EDGE('',*,*,#343,.T.);
#165=ORIENTED_EDGE('',*,*,#286,.F.);
#166=ORIENTED_EDGE('',*,*,#347,.F.);
#167=ORIENTED_EDGE('',*,*,#348,.F.);
#168=ORIENTED_EDGE('',*,*,#345,.T.);
#169=ORIENTED_EDGE('',*,*,#285,.F.);
#170=ORIENTED_EDGE('',*,*,#349,.F.);
#171=ORIENTED_EDGE('',*,*,#350,.F.);
#172=ORIENTED_EDGE('',*,*,#347,.T.);
#173=ORIENTED_EDGE('',*,*,#284,.F.);
#174=ORIENTED_EDGE('',*,*,#351,.F.);
#175=ORIENTED_EDGE('',*,*,#352,.F.);
#176=ORIENTED_EDGE('',*,*,#349,.T.);
#177=ORIENTED_EDGE('',*,*,#283,.F.);
#178=ORIENTED_EDGE('',*,*,#353,.F.);
#179=ORIENTED_EDGE('',*,*,#354,.F.);
#180=ORIENTED_EDGE('',*,*,#351,.T.);
#181=ORIENTED_EDGE('',*,*,#282,.F.);
#182=ORIENTED_EDGE('',*,*,#355,.F.);
#183=ORIENTED_EDGE('',*,*,#356,.F.);
#184=ORIENTED_EDGE('',*,*,#353,.T.);
#185=ORIENTED_EDGE('',*,*,#281,.F.);
#186=ORIENTED_EDGE('',*,*,#357,.F.);
#187=ORIENTED_EDGE('',*,*,#358,.F.);
#188=ORIENTED_EDGE('',*,*,#355,.T.);
#189=ORIENTED_EDGE('',*,*,#280,.F.);
#190=ORIENTED_EDGE('',*,*,#337,.F.);
#191=ORIENTED_EDGE('',*,*,#359,.F.);
#192=ORIENTED_EDGE('',*,*,#357,.T.);
#193=ORIENTED_EDGE('',*,*,#359,.T.);
#194=ORIENTED_EDGE('',*,*,#336,.T.);
#195=ORIENTED_EDGE('',*,*,#344,.T.);
#196=ORIENTED_EDGE('',*,*,#346,.T.);
#197=ORIENTED_EDGE('',*,*,#348,.T.);
#198=ORIENTED_EDGE('',*,*,#350,.T.);
#199=ORIENTED_EDGE('',*,*,#352,.T.);
#200=ORIENTED_EDGE('',*,*,#354,.T.);
#201=ORIENTED_EDGE('',*,*,#356,.T.);
#202=ORIENTED_EDGE('',*,*,#358,.T.);
#203=ORIENTED_EDGE('',*,*,#326,.F.);
#204=ORIENTED_EDGE('',*,*,#360,.T.);
#205=ORIENTED_EDGE('',*,*,#291,.F.);
#206=ORIENTED_EDGE('',*,*,#361,.T.);
#207=ORIENTED_EDGE('',*,*,#302,.F.);
#208=ORIENTED_EDGE('',*,*,#362,.T.);
#209=ORIENTED_EDGE('',*,*,#304,.T.);
#210=ORIENTED_EDGE('',*,*,#363,.T.);
#211=ORIENTED_EDGE('',*,*,#308,.F.);
#212=ORIENTED_EDGE('',*,*,#364,.T.);
#213=ORIENTED_EDGE('',*,*,#312,.F.);
#214=ORIENTED_EDGE('',*,*,#365,.T.);
#215=ORIENTED_EDGE('',*,*,#316,.F.);
#216=ORIENTED_EDGE('',*,*,#366,.T.);
#217=ORIENTED_EDGE('',*,*,#362,.F.);
#218=ORIENTED_EDGE('',*,*,#301,.F.);
#219=ORIENTED_EDGE('',*,*,#333,.F.);
#220=ORIENTED_EDGE('',*,*,#305,.F.);
#221=ORIENTED_EDGE('',*,*,#363,.F.);
#222=ORIENTED_EDGE('',*,*,#307,.F.);
#223=ORIENTED_EDGE('',*,*,#332,.F.);
#224=ORIENTED_EDGE('',*,*,#309,.F.);
#225=ORIENTED_EDGE('',*,*,#364,.F.);
#226=ORIENTED_EDGE('',*,*,#311,.F.);
#227=ORIENTED_EDGE('',*,*,#331,.F.);
#228=ORIENTED_EDGE('',*,*,#313,.F.);
#229=ORIENTED_EDGE('',*,*,#365,.F.);
#230=ORIENTED_EDGE('',*,*,#315,.F.);
#231=ORIENTED_EDGE('',*,*,#330,.F.);
#232=ORIENTED_EDGE('',*,*,#317,.F.);
#233=ORIENTED_EDGE('',*,*,#366,.F.);
#234=ORIENTED_EDGE('',*,*,#319,.F.);
#235=ORIENTED_EDGE('',*,*,#329,.F.);
#236=ORIENTED_EDGE('',*,*,#327,.F.);
#237=ORIENTED_EDGE('',*,*,#361,.F.);
#238=ORIENTED_EDGE('',*,*,#294,.F.);
#239=ORIENTED_EDGE('',*,*,#334,.F.);
#240=ORIENTED_EDGE('',*,*,#303,.F.);
#241=ORIENTED_EDGE('',*,*,#360,.F.);
#242=ORIENTED_EDGE('',*,*,#325,.F.);
#243=ORIENTED_EDGE('',*,*,#328,.F.);
#244=ORIENTED_EDGE('',*,*,#292,.F.);
#245=ORIENTED_EDGE('',*,*,#342,.F.);
#246=ORIENTED_EDGE('',*,*,#268,.F.);
#247=ORIENTED_EDGE('',*,*,#298,.F.);
#248=ORIENTED_EDGE('',*,*,#290,.F.);
#249=ORIENTED_EDGE('',*,*,#338,.F.);
#250=ORIENTED_EDGE('',*,*,#278,.F.);
#251=ORIENTED_EDGE('',*,*,#297,.F.);
#252=ORIENTED_EDGE('',*,*,#272,.F.);
#253=ORIENTED_EDGE('',*,*,#295,.T.);
#254=ORIENTED_EDGE('',*,*,#367,.T.);
#255=ORIENTED_EDGE('',*,*,#340,.F.);
#256=ORIENTED_EDGE('',*,*,#368,.T.);
#257=ORIENTED_EDGE('',*,*,#299,.F.);
#258=ORIENTED_EDGE('',*,*,#266,.F.);
#259=ORIENTED_EDGE('',*,*,#341,.F.);
#260=ORIENTED_EDGE('',*,*,#367,.F.);
#261=ORIENTED_EDGE('',*,*,#296,.F.);
#262=ORIENTED_EDGE('',*,*,#368,.F.);
#263=ORIENTED_EDGE('',*,*,#339,.F.);
#264=ORIENTED_EDGE('',*,*,#270,.F.);
#265=EDGE_CURVE('',#369,#370,#441,.T.);
#266=EDGE_CURVE('',#369,#371,#442,.F.);
#267=EDGE_CURVE('',#371,#372,#443,.T.);
#268=EDGE_CURVE('',#372,#370,#444,.F.);
#269=EDGE_CURVE('',#373,#374,#445,.T.);
#270=EDGE_CURVE('',#373,#375,#446,.T.);
#271=EDGE_CURVE('',#375,#376,#447,.T.);
#272=EDGE_CURVE('',#376,#374,#448,.T.);
#273=EDGE_CURVE('',#377,#377,#27,.T.);
#274=EDGE_CURVE('',#378,#378,#28,.T.);
#275=EDGE_CURVE('',#379,#379,#29,.T.);
#276=EDGE_CURVE('',#380,#380,#30,.T.);
#277=EDGE_CURVE('',#381,#382,#449,.T.);
#278=EDGE_CURVE('',#381,#383,#450,.F.);
#279=EDGE_CURVE('',#383,#384,#451,.T.);
#280=EDGE_CURVE('',#384,#385,#452,.T.);
#281=EDGE_CURVE('',#385,#386,#453,.T.);
#282=EDGE_CURVE('',#386,#387,#454,.T.);
#283=EDGE_CURVE('',#387,#388,#455,.T.);
#284=EDGE_CURVE('',#388,#389,#456,.T.);
#285=EDGE_CURVE('',#389,#390,#457,.T.);
#286=EDGE_CURVE('',#390,#391,#458,.T.);
#287=EDGE_CURVE('',#391,#392,#459,.T.);
#288=EDGE_CURVE('',#392,#393,#460,.T.);
#289=EDGE_CURVE('',#393,#394,#461,.T.);
#290=EDGE_CURVE('',#394,#382,#462,.T.);
#291=EDGE_CURVE('',#395,#396,#463,.T.);
#292=EDGE_CURVE('',#396,#397,#464,.T.);
#293=EDGE_CURVE('',#398,#397,#465,.T.);
#294=EDGE_CURVE('',#398,#395,#466,.F.);
#295=EDGE_CURVE('',#399,#400,#467,.T.);
#296=EDGE_CURVE('',#399,#373,#31,.F.);
#297=EDGE_CURVE('',#374,#381,#32,.F.);
#298=EDGE_CURVE('',#382,#372,#33,.F.);
#299=EDGE_CURVE('',#371,#400,#34,.F.);
#300=EDGE_CURVE('',#401,#402,#468,.T.);
#301=EDGE_CURVE('',#401,#403,#469,.F.);
#302=EDGE_CURVE('',#403,#404,#470,.T.);
#303=EDGE_CURVE('',#404,#402,#471,.T.);
#304=EDGE_CURVE('',#405,#406,#472,.T.);
#305=EDGE_CURVE('',#405,#407,#473,.T.);
#306=EDGE_CURVE('',#407,#408,#474,.T.);
#307=EDGE_CURVE('',#408,#406,#475,.F.);
#308=EDGE_CURVE('',#409,#410,#476,.T.);
#309=EDGE_CURVE('',#410,#411,#477,.T.);
#310=EDGE_CURVE('',#412,#411,#478,.T.);
#311=EDGE_CURVE('',#412,#409,#479,.F.);
#312=EDGE_CURVE('',#413,#414,#480,.T.);
#313=EDGE_CURVE('',#414,#415,#481,.T.);
#314=EDGE_CURVE('',#416,#415,#482,.T.);
#315=EDGE_CURVE('',#416,#413,#483,.F.);
#316=EDGE_CURVE('',#417,#418,#484,.T.);
#317=EDGE_CURVE('',#418,#419,#485,.T.);
#318=EDGE_CURVE('',#420,#419,#486,.T.);
#319=EDGE_CURVE('',#420,#417,#487,.F.);
#320=EDGE_CURVE('',#421,#421,#35,.T.);
#321=EDGE_CURVE('',#422,#422,#36,.T.);
#322=EDGE_CURVE('',#423,#423,#37,.T.);
#323=EDGE_CURVE('',#424,#424,#38,.T.);
#324=EDGE_CURVE('',#425,#426,#488,.T.);
#325=EDGE_CURVE('',#425,#427,#489,.F.);
#326=EDGE_CURVE('',#427,#428,#490,.T.);
#327=EDGE_CURVE('',#428,#426,#491,.T.);
#328=EDGE_CURVE('',#397,#425,#39,.F.);
#329=EDGE_CURVE('',#426,#420,#40,.F.);
#330=EDGE_CURVE('',#419,#416,#41,.F.);
#331=EDGE_CURVE('',#415,#412,#42,.F.);
#332=EDGE_CURVE('',#411,#408,#43,.F.);
#333=EDGE_CURVE('',#407,#401,#44,.F.);
#334=EDGE_CURVE('',#402,#398,#45,.F.);
#335=EDGE_CURVE('',#429,#393,#492,.T.);
#336=EDGE_CURVE('',#430,#429,#493,.T.);
#337=EDGE_CURVE('',#430,#384,#494,.T.);
#338=EDGE_CURVE('',#383,#376,#46,.T.);
#339=EDGE_CURVE('',#375,#431,#47,.T.);
#340=EDGE_CURVE('',#431,#432,#495,.T.);
#341=EDGE_CURVE('',#432,#369,#48,.T.);
#342=EDGE_CURVE('',#370,#394,#49,.T.);
#343=EDGE_CURVE('',#433,#392,#496,.T.);
#344=EDGE_CURVE('',#429,#433,#497,.T.);
#345=EDGE_CURVE('',#434,#391,#498,.T.);
#346=EDGE_CURVE('',#433,#434,#499,.T.);
#347=EDGE_CURVE('',#435,#390,#500,.T.);
#348=EDGE_CURVE('',#434,#435,#501,.T.);
#349=EDGE_CURVE('',#436,#389,#502,.T.);
#350=EDGE_CURVE('',#435,#436,#503,.T.);
#351=EDGE_CURVE('',#437,#388,#504,.T.);
#352=EDGE_CURVE('',#436,#437,#505,.T.);
#353=EDGE_CURVE('',#438,#387,#506,.T.);
#354=EDGE_CURVE('',#437,#438,#507,.T.);
#355=EDGE_CURVE('',#439,#386,#508,.T.);
#356=EDGE_CURVE('',#438,#439,#509,.T.);
#357=EDGE_CURVE('',#440,#385,#510,.T.);
#358=EDGE_CURVE('',#439,#440,#511,.T.);
#359=EDGE_CURVE('',#440,#430,#512,.T.);
#360=EDGE_CURVE('',#427,#396,#50,.T.);
#361=EDGE_CURVE('',#395,#404,#51,.T.);
#362=EDGE_CURVE('',#403,#405,#52,.T.);
#363=EDGE_CURVE('',#406,#410,#53,.T.);
#364=EDGE_CURVE('',#409,#414,#54,.T.);
#365=EDGE_CURVE('',#413,#418,#55,.T.);
#366=EDGE_CURVE('',#417,#428,#56,.T.);
#367=EDGE_CURVE('',#400,#432,#513,.T.);
#368=EDGE_CURVE('',#431,#399,#514,.F.);
#369=VERTEX_POINT('',#1050);
#370=VERTEX_POINT('',#1051);
#371=VERTEX_POINT('',#1053);
#372=VERTEX_POINT('',#1055);
#373=VERTEX_POINT('',#1059);
#374=VERTEX_POINT('',#1060);
#375=VERTEX_POINT('',#1062);
#376=VERTEX_POINT('',#1064);
#377=VERTEX_POINT('',#1068);
#378=VERTEX_POINT('',#1070);
#379=VERTEX_POINT('',#1072);
#380=VERTEX_POINT('',#1074);
#381=VERTEX_POINT('',#1076);
#382=VERTEX_POINT('',#1077);
#383=VERTEX_POINT('',#1079);
#384=VERTEX_POINT('',#1081);
#385=VERTEX_POINT('',#1083);
#386=VERTEX_POINT('',#1085);
#387=VERTEX_POINT('',#1087);
#388=VERTEX_POINT('',#1089);
#389=VERTEX_POINT('',#1091);
#390=VERTEX_POINT('',#1093);
#391=VERTEX_POINT('',#1095);
#392=VERTEX_POINT('',#1097);
#393=VERTEX_POINT('',#1099);
#394=VERTEX_POINT('',#1101);
#395=VERTEX_POINT('',#1105);
#396=VERTEX_POINT('',#1106);
#397=VERTEX_POINT('',#1108);
#398=VERTEX_POINT('',#1110);
#399=VERTEX_POINT('',#1114);
#400=VERTEX_POINT('',#1115);
#401=VERTEX_POINT('',#1121);
#402=VERTEX_POINT('',#1122);
#403=VERTEX_POINT('',#1124);
#404=VERTEX_POINT('',#1126);
#405=VERTEX_POINT('',#1130);
#406=VERTEX_POINT('',#1131);
#407=VERTEX_POINT('',#1133);
#408=VERTEX_POINT('',#1135);
#409=VERTEX_POINT('',#1139);
#410=VERTEX_POINT('',#1140);
#411=VERTEX_POINT('',#1142);
#412=VERTEX_POINT('',#1144);
#413=VERTEX_POINT('',#1148);
#414=VERTEX_POINT('',#1149);
#415=VERTEX_POINT('',#1151);
#416=VERTEX_POINT('',#1153);
#417=VERTEX_POINT('',#1157);
#418=VERTEX_POINT('',#1158);
#419=VERTEX_POINT('',#1160);
#420=VERTEX_POINT('',#1162);
#421=VERTEX_POINT('',#1166);
#422=VERTEX_POINT('',#1169);
#423=VERTEX_POINT('',#1172);
#424=VERTEX_POINT('',#1175);
#425=VERTEX_POINT('',#1178);
#426=VERTEX_POINT('',#1179);
#427=VERTEX_POINT('',#1181);
#428=VERTEX_POINT('',#1183);
#429=VERTEX_POINT('',#1195);
#430=VERTEX_POINT('',#1197);
#431=VERTEX_POINT('',#1201);
#432=VERTEX_POINT('',#1203);
#433=VERTEX_POINT('',#1208);
#434=VERTEX_POINT('',#1212);
#435=VERTEX_POINT('',#1216);
#436=VERTEX_POINT('',#1220);
#437=VERTEX_POINT('',#1224);
#438=VERTEX_POINT('',#1228);
#439=VERTEX_POINT('',#1232);
#440=VERTEX_POINT('',#1236);
#441=LINE('',#1049,#515);
#442=LINE('',#1052,#516);
#443=LINE('',#1054,#517);
#444=LINE('',#1056,#518);
#445=LINE('',#1058,#519);
#446=LINE('',#1061,#520);
#447=LINE('',#1063,#521);
#448=LINE('',#1065,#522);
#449=LINE('',#1075,#523);
#450=LINE('',#1078,#524);
#451=LINE('',#1080,#525);
#452=LINE('',#1082,#526);
#453=LINE('',#1084,#527);
#454=LINE('',#1086,#528);
#455=LINE('',#1088,#529);
#456=LINE('',#1090,#530);
#457=LINE('',#1092,#531);
#458=LINE('',#1094,#532);
#459=LINE('',#1096,#533);
#460=LINE('',#1098,#534);
#461=LINE('',#1100,#535);
#462=LINE('',#1102,#536);
#463=LINE('',#1104,#537);
#464=LINE('',#1107,#538);
#465=LINE('',#1109,#539);
#466=LINE('',#1111,#540);
#467=LINE('',#1113,#541);
#468=LINE('',#1120,#542);
#469=LINE('',#1123,#543);
#470=LINE('',#1125,#544);
#471=LINE('',#1127,#545);
#472=LINE('',#1129,#546);
#473=LINE('',#1132,#547);
#474=LINE('',#1134,#548);
#475=LINE('',#1136,#549);
#476=LINE('',#1138,#550);
#477=LINE('',#1141,#551);
#478=LINE('',#1143,#552);
#479=LINE('',#1145,#553);
#480=LINE('',#1147,#554);
#481=LINE('',#1150,#555);
#482=LINE('',#1152,#556);
#483=LINE('',#1154,#557);
#484=LINE('',#1156,#558);
#485=LINE('',#1159,#559);
#486=LINE('',#1161,#560);
#487=LINE('',#1163,#561);
#488=LINE('',#1177,#562);
#489=LINE('',#1180,#563);
#490=LINE('',#1182,#564);
#491=LINE('',#1184,#565);
#492=LINE('',#1194,#566);
#493=LINE('',#1196,#567);
#494=LINE('',#1198,#568);
#495=LINE('',#1202,#569);
#496=LINE('',#1207,#570);
#497=LINE('',#1209,#571);
#498=LINE('',#1211,#572);
#499=LINE('',#1213,#573);
#500=LINE('',#1215,#574);
#501=LINE('',#1217,#575);
#502=LINE('',#1219,#576);
#503=LINE('',#1221,#577);
#504=LINE('',#1223,#578);
#505=LINE('',#1225,#579);
#506=LINE('',#1227,#580);
#507=LINE('',#1229,#581);
#508=LINE('',#1231,#582);
#509=LINE('',#1233,#583);
#510=LINE('',#1235,#584);
#511=LINE('',#1237,#585);
#512=LINE('',#1239,#586);
#513=LINE('',#1258,#587);
#514=LINE('',#1259,#588);
#515=VECTOR('',#839,1.);
#516=VECTOR('',#840,1.);
#517=VECTOR('',#841,1.);
#518=VECTOR('',#842,1.);
#519=VECTOR('',#845,1.);
#520=VECTOR('',#846,1.);
#521=VECTOR('',#847,1.);
#522=VECTOR('',#848,1.);
#523=VECTOR('',#859,1.);
#524=VECTOR('',#860,1.);
#525=VECTOR('',#861,1.);
#526=VECTOR('',#862,1.);
#527=VECTOR('',#863,1.);
#528=VECTOR('',#864,1.);
#529=VECTOR('',#865,1.);
#530=VECTOR('',#866,1.);
#531=VECTOR('',#867,1.);
#532=VECTOR('',#868,1.);
#533=VECTOR('',#869,1.);
#534=VECTOR('',#870,1.);
#535=VECTOR('',#871,1.);
#536=VECTOR('',#872,1.);
#537=VECTOR('',#875,1.);
#538=VECTOR('',#876,1.);
#539=VECTOR('',#877,1.);
#540=VECTOR('',#878,1.);
#541=VECTOR('',#881,1.);
#542=VECTOR('',#890,1.);
#543=VECTOR('',#891,1.);
#544=VECTOR('',#892,1.);
#545=VECTOR('',#893,1.);
#546=VECTOR('',#896,1.);
#547=VECTOR('',#897,1.);
#548=VECTOR('',#898,1.);
#549=VECTOR('',#899,1.);
#550=VECTOR('',#902,1.);
#551=VECTOR('',#903,1.);
#552=VECTOR('',#904,1.);
#553=VECTOR('',#905,1.);
#554=VECTOR('',#908,1.);
#555=VECTOR('',#909,1.);
#556=VECTOR('',#910,1.);
#557=VECTOR('',#911,1.);
#558=VECTOR('',#914,1.);
#559=VECTOR('',#915,1.);
#560=VECTOR('',#916,1.);
#561=VECTOR('',#917,1.);
#562=VECTOR('',#936,1.);
#563=VECTOR('',#937,1.);
#564=VECTOR('',#938,1.);
#565=VECTOR('',#939,1.);
#566=VECTOR('',#958,1.);
#567=VECTOR('',#959,1.);
#568=VECTOR('',#960,1.);
#569=VECTOR('',#965,1.);
#570=VECTOR('',#972,1.);
#571=VECTOR('',#973,1.);
#572=VECTOR('',#976,1.);
#573=VECTOR('',#977,1.);
#574=VECTOR('',#980,1.);
#575=VECTOR('',#981,1.);
#576=VECTOR('',#984,1.);
#577=VECTOR('',#985,1.);
#578=VECTOR('',#988,1.);
#579=VECTOR('',#989,1.);
#580=VECTOR('',#992,1.);
#581=VECTOR('',#993,1.);
#582=VECTOR('',#996,1.);
#583=VECTOR('',#997,1.);
#584=VECTOR('',#1000,1.);
#585=VECTOR('',#1001,1.);
#586=VECTOR('',#1004,1.);
#587=VECTOR('',#1041,1.);
#588=VECTOR('',#1042,1.);
#589=EDGE_LOOP('',(#57,#58,#59,#60));
#590=EDGE_LOOP('',(#61,#62,#63,#64));
#591=EDGE_LOOP('',(#65));
#592=EDGE_LOOP('',(#66));
#593=EDGE_LOOP('',(#67));
#594=EDGE_LOOP('',(#68));
#595=EDGE_LOOP('',(#69,#70,#71,#72,#73,#74,#75,#76,#77,#78,#79,#80,#81,
#82));
#596=EDGE_LOOP('',(#83,#84,#85,#86));
#597=EDGE_LOOP('',(#87,#88,#89,#90,#91,#92,#93,#94));
#598=EDGE_LOOP('',(#95,#96,#97,#98));
#599=EDGE_LOOP('',(#99,#100,#101,#102));
#600=EDGE_LOOP('',(#103,#104,#105,#106));
#601=EDGE_LOOP('',(#107,#108,#109,#110));
#602=EDGE_LOOP('',(#111,#112,#113,#114));
#603=EDGE_LOOP('',(#115));
#604=EDGE_LOOP('',(#116));
#605=EDGE_LOOP('',(#117));
#606=EDGE_LOOP('',(#118));
#607=EDGE_LOOP('',(#119));
#608=EDGE_LOOP('',(#120));
#609=EDGE_LOOP('',(#121));
#610=EDGE_LOOP('',(#122));
#611=EDGE_LOOP('',(#123,#124,#125,#126));
#612=EDGE_LOOP('',(#127,#128,#129,#130,#131,#132,#133,#134,#135,#136,#137,
#138,#139,#140));
#613=EDGE_LOOP('',(#141));
#614=EDGE_LOOP('',(#142));
#615=EDGE_LOOP('',(#143));
#616=EDGE_LOOP('',(#144));
#617=EDGE_LOOP('',(#145,#146,#147,#148,#149,#150,#151,#152,#153,#154,#155,
#156));
#618=EDGE_LOOP('',(#157,#158,#159,#160));
#619=EDGE_LOOP('',(#161,#162,#163,#164));
#620=EDGE_LOOP('',(#165,#166,#167,#168));
#621=EDGE_LOOP('',(#169,#170,#171,#172));
#622=EDGE_LOOP('',(#173,#174,#175,#176));
#623=EDGE_LOOP('',(#177,#178,#179,#180));
#624=EDGE_LOOP('',(#181,#182,#183,#184));
#625=EDGE_LOOP('',(#185,#186,#187,#188));
#626=EDGE_LOOP('',(#189,#190,#191,#192));
#627=EDGE_LOOP('',(#193,#194,#195,#196,#197,#198,#199,#200,#201,#202));
#628=EDGE_LOOP('',(#203,#204,#205,#206,#207,#208,#209,#210,#211,#212,#213,
#214,#215,#216));
#629=EDGE_LOOP('',(#217,#218,#219,#220));
#630=EDGE_LOOP('',(#221,#222,#223,#224));
#631=EDGE_LOOP('',(#225,#226,#227,#228));
#632=EDGE_LOOP('',(#229,#230,#231,#232));
#633=EDGE_LOOP('',(#233,#234,#235,#236));
#634=EDGE_LOOP('',(#237,#238,#239,#240));
#635=EDGE_LOOP('',(#241,#242,#243,#244));
#636=EDGE_LOOP('',(#245,#246,#247,#248));
#637=EDGE_LOOP('',(#249,#250,#251,#252));
#638=EDGE_LOOP('',(#253,#254,#255,#256));
#639=EDGE_LOOP('',(#257,#258,#259,#260));
#640=EDGE_LOOP('',(#261,#262,#263,#264));
#641=FACE_BOUND('',#589,.T.);
#642=FACE_BOUND('',#590,.T.);
#643=FACE_BOUND('',#591,.T.);
#644=FACE_BOUND('',#592,.T.);
#645=FACE_BOUND('',#593,.T.);
#646=FACE_BOUND('',#594,.T.);
#647=FACE_BOUND('',#595,.T.);
#648=FACE_BOUND('',#596,.T.);
#649=FACE_BOUND('',#597,.T.);
#650=FACE_BOUND('',#598,.T.);
#651=FACE_BOUND('',#599,.T.);
#652=FACE_BOUND('',#600,.T.);
#653=FACE_BOUND('',#601,.T.);
#654=FACE_BOUND('',#602,.T.);
#655=FACE_BOUND('',#603,.T.);
#656=FACE_BOUND('',#604,.T.);
#657=FACE_BOUND('',#605,.T.);
#658=FACE_BOUND('',#606,.T.);
#659=FACE_BOUND('',#607,.T.);
#660=FACE_BOUND('',#608,.T.);
#661=FACE_BOUND('',#609,.T.);
#662=FACE_BOUND('',#610,.T.);
#663=FACE_BOUND('',#611,.T.);
#664=FACE_BOUND('',#612,.T.);
#665=FACE_BOUND('',#613,.T.);
#666=FACE_BOUND('',#614,.T.);
#667=FACE_BOUND('',#615,.T.);
#668=FACE_BOUND('',#616,.T.);
#669=FACE_BOUND('',#617,.T.);
#670=FACE_BOUND('',#618,.T.);
#671=FACE_BOUND('',#619,.T.);
#672=FACE_BOUND('',#620,.T.);
#673=FACE_BOUND('',#621,.T.);
#674=FACE_BOUND('',#622,.T.);
#675=FACE_BOUND('',#623,.T.);
#676=FACE_BOUND('',#624,.T.);
#677=FACE_BOUND('',#625,.T.);
#678=FACE_BOUND('',#626,.T.);
#679=FACE_BOUND('',#627,.T.);
#680=FACE_BOUND('',#628,.T.);
#681=FACE_BOUND('',#629,.T.);
#682=FACE_BOUND('',#630,.T.);
#683=FACE_BOUND('',#631,.T.);
#684=FACE_BOUND('',#632,.T.);
#685=FACE_BOUND('',#633,.T.);
#686=FACE_BOUND('',#634,.T.);
#687=FACE_BOUND('',#635,.T.);
#688=FACE_BOUND('',#636,.T.);
#689=FACE_BOUND('',#637,.T.);
#690=FACE_BOUND('',#638,.T.);
#691=FACE_BOUND('',#639,.T.);
#692=FACE_BOUND('',#640,.T.);
#693=PLANE('',#767);
#694=PLANE('',#768);
#695=PLANE('',#769);
#696=PLANE('',#774);
#697=PLANE('',#775);
#698=PLANE('',#780);
#699=PLANE('',#781);
#700=PLANE('',#782);
#701=PLANE('',#783);
#702=PLANE('',#792);
#703=PLANE('',#793);
#704=PLANE('',#801);
#705=PLANE('',#806);
#706=PLANE('',#807);
#707=PLANE('',#808);
#708=PLANE('',#809);
#709=PLANE('',#810);
#710=PLANE('',#811);
#711=PLANE('',#812);
#712=PLANE('',#813);
#713=PLANE('',#814);
#714=PLANE('',#815);
#715=PLANE('',#832);
#716=ADVANCED_FACE('',(#641),#693,.F.);
#717=ADVANCED_FACE('',(#642),#694,.T.);
#718=ADVANCED_FACE('',(#643,#644,#645,#646,#647),#695,.T.);
#719=ADVANCED_FACE('',(#648),#696,.T.);
#720=ADVANCED_FACE('',(#649,#650),#697,.T.);
#721=ADVANCED_FACE('',(#651),#698,.F.);
#722=ADVANCED_FACE('',(#652),#699,.T.);
#723=ADVANCED_FACE('',(#653),#700,.T.);
#724=ADVANCED_FACE('',(#654),#701,.T.);
#725=ADVANCED_FACE('',(#655,#656),#12,.F.);
#726=ADVANCED_FACE('',(#657,#658),#13,.F.);
#727=ADVANCED_FACE('',(#659,#660),#14,.F.);
#728=ADVANCED_FACE('',(#661,#662),#15,.F.);
#729=ADVANCED_FACE('',(#663),#702,.T.);
#730=ADVANCED_FACE('',(#664,#665,#666,#667,#668),#703,.F.);
#731=ADVANCED_FACE('',(#669),#704,.F.);
#732=ADVANCED_FACE('',(#670),#705,.F.);
#733=ADVANCED_FACE('',(#671),#706,.F.);
#734=ADVANCED_FACE('',(#672),#707,.F.);
#735=ADVANCED_FACE('',(#673),#708,.F.);
#736=ADVANCED_FACE('',(#674),#709,.F.);
#737=ADVANCED_FACE('',(#675),#710,.F.);
#738=ADVANCED_FACE('',(#676),#711,.F.);
#739=ADVANCED_FACE('',(#677),#712,.F.);
#740=ADVANCED_FACE('',(#678),#713,.F.);
#741=ADVANCED_FACE('',(#679,#680),#714,.T.);
#742=ADVANCED_FACE('',(#681),#16,.T.);
#743=ADVANCED_FACE('',(#682),#17,.T.);
#744=ADVANCED_FACE('',(#683),#18,.T.);
#745=ADVANCED_FACE('',(#684),#19,.T.);
#746=ADVANCED_FACE('',(#685),#20,.T.);
#747=ADVANCED_FACE('',(#686),#21,.T.);
#748=ADVANCED_FACE('',(#687),#22,.T.);
#749=ADVANCED_FACE('',(#688),#23,.F.);
#750=ADVANCED_FACE('',(#689),#24,.F.);
#751=ADVANCED_FACE('',(#690),#715,.F.);
#752=ADVANCED_FACE('',(#691),#25,.F.);
#753=ADVANCED_FACE('',(#692),#26,.F.);
#754=CLOSED_SHELL('',(#716,#717,#718,#719,#720,#721,#722,#723,#724,#725,
#726,#727,#728,#729,#730,#731,#732,#733,#734,#735,#736,#737,#738,#739,#740,
#741,#742,#743,#744,#745,#746,#747,#748,#749,#750,#751,#752,#753));
#755=STYLED_ITEM('',(#756),#763);
#756=PRESENTATION_STYLE_ASSIGNMENT((#757));
#757=SURFACE_STYLE_USAGE(.BOTH.,#758);
#758=SURFACE_SIDE_STYLE('',(#759));
#759=SURFACE_STYLE_FILL_AREA(#760);
#760=FILL_AREA_STYLE('',(#761));
#761=FILL_AREA_STYLE_COLOUR('',#762);
#762=COLOUR_RGB('',0.615686274509804,0.811764705882353,0.929411764705882);
#763=MANIFOLD_SOLID_BREP('Part 1',#754);
#764=SHAPE_DEFINITION_REPRESENTATION(#1268,#765);
#765=SHAPE_REPRESENTATION('Part 1',(#766),#1263);
#766=AXIS2_PLACEMENT_3D('',#1047,#835,#836);
#767=AXIS2_PLACEMENT_3D('',#1048,#837,#838);
#768=AXIS2_PLACEMENT_3D('',#1057,#843,#844);
#769=AXIS2_PLACEMENT_3D('',#1066,#849,#850);
#770=AXIS2_PLACEMENT_3D('',#1067,#851,#852);
#771=AXIS2_PLACEMENT_3D('',#1069,#853,#854);
#772=AXIS2_PLACEMENT_3D('',#1071,#855,#856);
#773=AXIS2_PLACEMENT_3D('',#1073,#857,#858);
#774=AXIS2_PLACEMENT_3D('',#1103,#873,#874);
#775=AXIS2_PLACEMENT_3D('',#1112,#879,#880);
#776=AXIS2_PLACEMENT_3D('',#1116,#882,#883);
#777=AXIS2_PLACEMENT_3D('',#1117,#884,#885);
#778=AXIS2_PLACEMENT_3D('',#1118,#886,#887);
#779=AXIS2_PLACEMENT_3D('',#1119,#888,#889);
#780=AXIS2_PLACEMENT_3D('',#1128,#894,#895);
#781=AXIS2_PLACEMENT_3D('',#1137,#900,#901);
#782=AXIS2_PLACEMENT_3D('',#1146,#906,#907);
#783=AXIS2_PLACEMENT_3D('',#1155,#912,#913);
#784=AXIS2_PLACEMENT_3D('',#1164,#918,#919);
#785=AXIS2_PLACEMENT_3D('',#1165,#920,#921);
#786=AXIS2_PLACEMENT_3D('',#1167,#922,#923);
#787=AXIS2_PLACEMENT_3D('',#1168,#924,#925);
#788=AXIS2_PLACEMENT_3D('',#1170,#926,#927);
#789=AXIS2_PLACEMENT_3D('',#1171,#928,#929);
#790=AXIS2_PLACEMENT_3D('',#1173,#930,#931);
#791=AXIS2_PLACEMENT_3D('',#1174,#932,#933);
#792=AXIS2_PLACEMENT_3D('',#1176,#934,#935);
#793=AXIS2_PLACEMENT_3D('',#1185,#940,#941);
#794=AXIS2_PLACEMENT_3D('',#1186,#942,#943);
#795=AXIS2_PLACEMENT_3D('',#1187,#944,#945);
#796=AXIS2_PLACEMENT_3D('',#1188,#946,#947);
#797=AXIS2_PLACEMENT_3D('',#1189,#948,#949);
#798=AXIS2_PLACEMENT_3D('',#1190,#950,#951);
#799=AXIS2_PLACEMENT_3D('',#1191,#952,#953);
#800=AXIS2_PLACEMENT_3D('',#1192,#954,#955);
#801=AXIS2_PLACEMENT_3D('',#1193,#956,#957);
#802=AXIS2_PLACEMENT_3D('',#1199,#961,#962);
#803=AXIS2_PLACEMENT_3D('',#1200,#963,#964);
#804=AXIS2_PLACEMENT_3D('',#1204,#966,#967);
#805=AXIS2_PLACEMENT_3D('',#1205,#968,#969);
#806=AXIS2_PLACEMENT_3D('',#1206,#970,#971);
#807=AXIS2_PLACEMENT_3D('',#1210,#974,#975);
#808=AXIS2_PLACEMENT_3D('',#1214,#978,#979);
#809=AXIS2_PLACEMENT_3D('',#1218,#982,#983);
#810=AXIS2_PLACEMENT_3D('',#1222,#986,#987);
#811=AXIS2_PLACEMENT_3D('',#1226,#990,#991);
#812=AXIS2_PLACEMENT_3D('',#1230,#994,#995);
#813=AXIS2_PLACEMENT_3D('',#1234,#998,#999);
#814=AXIS2_PLACEMENT_3D('',#1238,#1002,#1003);
#815=AXIS2_PLACEMENT_3D('',#1240,#1005,#1006);
#816=AXIS2_PLACEMENT_3D('',#1241,#1007,#1008);
#817=AXIS2_PLACEMENT_3D('',#1242,#1009,#1010);
#818=AXIS2_PLACEMENT_3D('',#1243,#1011,#1012);
#819=AXIS2_PLACEMENT_3D('',#1244,#1013,#1014);
#820=AXIS2_PLACEMENT_3D('',#1245,#1015,#1016);
#821=AXIS2_PLACEMENT_3D('',#1246,#1017,#1018);
#822=AXIS2_PLACEMENT_3D('',#1247,#1019,#1020);
#823=AXIS2_PLACEMENT_3D('',#1248,#1021,#1022);
#824=AXIS2_PLACEMENT_3D('',#1249,#1023,#1024);
#825=AXIS2_PLACEMENT_3D('',#1250,#1025,#1026);
#826=AXIS2_PLACEMENT_3D('',#1251,#1027,#1028);
#827=AXIS2_PLACEMENT_3D('',#1252,#1029,#1030);
#828=AXIS2_PLACEMENT_3D('',#1253,#1031,#1032);
#829=AXIS2_PLACEMENT_3D('',#1254,#1033,#1034);
#830=AXIS2_PLACEMENT_3D('',#1255,#1035,#1036);
#831=AXIS2_PLACEMENT_3D('',#1256,#1037,#1038);
#832=AXIS2_PLACEMENT_3D('',#1257,#1039,#1040);
#833=AXIS2_PLACEMENT_3D('',#1260,#1043,#1044);
#834=AXIS2_PLACEMENT_3D('',#1261,#1045,#1046);
#835=DIRECTION('',(0.,0.,1.));
#836=DIRECTION('',(1.,0.,0.));
#837=DIRECTION('',(0.,1.,0.));
#838=DIRECTION('',(0.,0.,1.));
#839=DIRECTION('',(0.,0.,-1.));
#840=DIRECTION('',(1.,0.,0.));
#841=DIRECTION('',(0.,0.,-1.));
#842=DIRECTION('',(-1.,0.,0.));
#843=DIRECTION('',(0.,1.,0.));
#844=DIRECTION('',(0.,0.,1.));
#845=DIRECTION('',(0.,0.,-1.));
#846=DIRECTION('',(1.,0.,0.));
#847=DIRECTION('',(0.,0.,-1.));
#848=DIRECTION('',(-1.,0.,0.));
#849=DIRECTION('',(0.,0.,1.));
#850=DIRECTION('',(1.,0.,0.));
#851=DIRECTION('',(0.,0.,1.));
#852=DIRECTION('',(1.,0.,0.));
#853=DIRECTION('',(0.,0.,1.));
#854=DIRECTION('',(1.,0.,0.));
#855=DIRECTION('',(0.,0.,1.));
#856=DIRECTION('',(1.,0.,0.));
#857=DIRECTION('',(0.,0.,1.));
#858=DIRECTION('',(1.,0.,0.));
#859=DIRECTION('',(0.,1.,0.));
#860=DIRECTION('',(-1.,0.,0.));
#861=DIRECTION('',(0.,-1.,0.));
#862=DIRECTION('',(1.,0.,0.));
#863=DIRECTION('',(0.387996945466199,0.921660658978618,0.));
#864=DIRECTION('',(1.,0.,0.));
#865=DIRECTION('',(0.49112065783987,-0.871091556291837,0.));
#866=DIRECTION('',(1.,0.,0.));
#867=DIRECTION('',(0.534942747833795,0.844888310097867,0.));
#868=DIRECTION('',(-0.00880755948438643,0.999961212695737,0.));
#869=DIRECTION('',(-0.994549313432595,0.104267267878056,0.));
#870=DIRECTION('',(-0.995597798278787,-0.0937284591916007,0.));
#871=DIRECTION('',(0.,-1.,0.));
#872=DIRECTION('',(-1.,0.,0.));
#873=DIRECTION('',(-0.112562519933784,0.993644644279914,0.));
#874=DIRECTION('',(-0.993644644279914,-0.112562519933784,0.));
#875=DIRECTION('',(0.993644644279914,0.112562519933784,0.));
#876=DIRECTION('',(0.,0.,-1.));
#877=DIRECTION('',(0.993644644279914,0.112562519933784,0.));
#878=DIRECTION('',(0.,0.,-1.));
#879=DIRECTION('',(-1.,0.,0.));
#880=DIRECTION('',(0.,0.,1.));
#881=DIRECTION('',(0.,1.,0.));
#882=DIRECTION('',(-1.,0.,0.));
#883=DIRECTION('',(0.,0.,1.));
#884=DIRECTION('',(-1.,0.,0.));
#885=DIRECTION('',(0.,0.,1.));
#886=DIRECTION('',(-1.,0.,0.));
#887=DIRECTION('',(0.,0.,1.));
#888=DIRECTION('',(-1.,0.,0.));
#889=DIRECTION('',(0.,0.,1.));
#890=DIRECTION('',(0.,1.,0.));
#891=DIRECTION('',(0.,0.,-1.));
#892=DIRECTION('',(0.,1.,0.));
#893=DIRECTION('',(0.,0.,-1.));
#894=DIRECTION('',(0.707106857629191,0.707106704743896,0.));
#895=DIRECTION('',(-0.707106704743896,0.707106857629191,0.));
#896=DIRECTION('',(0.707106704743896,-0.707106857629191,0.));
#897=DIRECTION('',(0.,0.,-1.));
#898=DIRECTION('',(0.707106704743896,-0.707106857629191,0.));
#899=DIRECTION('',(0.,0.,-1.));
#900=DIRECTION('',(0.,-1.,0.));
#901=DIRECTION('',(0.,0.,-1.));
#902=DIRECTION('',(-1.,0.,0.));
#903=DIRECTION('',(0.,0.,-1.));
#904=DIRECTION('',(-1.,0.,0.));
#905=DIRECTION('',(0.,0.,-1.));
#906=DIRECTION('',(0.844888310097866,-0.534942747833795,0.));
#907=DIRECTION('',(0.534942747833795,0.844888310097867,0.));
#908=DIRECTION('',(-0.534942747833795,-0.844888310097867,0.));
#909=DIRECTION('',(0.,0.,-1.));
#910=DIRECTION('',(-0.534942747833795,-0.844888310097867,0.));
#911=DIRECTION('',(0.,0.,-1.));
#912=DIRECTION('',(0.999961212695737,0.00880755948438649,0.));
#913=DIRECTION('',(-0.00880755948438649,0.999961212695737,0.));
#914=DIRECTION('',(0.00880755948438649,-0.999961212695737,0.));
#915=DIRECTION('',(0.,0.,-1.));
#916=DIRECTION('',(0.00880755948438649,-0.999961212695737,0.));
#917=DIRECTION('',(0.,0.,-1.));
#918=DIRECTION('',(0.,0.,-1.));
#919=DIRECTION('',(-1.,0.,0.));
#920=DIRECTION('',(0.,0.,1.));
#921=DIRECTION('',(1.,0.,0.));
#922=DIRECTION('',(0.,0.,-1.));
#923=DIRECTION('',(-1.,0.,0.));
#924=DIRECTION('',(0.,0.,1.));
#925=DIRECTION('',(1.,0.,0.));
#926=DIRECTION('',(0.,0.,-1.));
#927=DIRECTION('',(-1.,0.,0.));
#928=DIRECTION('',(0.,0.,1.));
#929=DIRECTION('',(1.,0.,0.));
#930=DIRECTION('',(0.,0.,-1.));
#931=DIRECTION('',(-1.,0.,0.));
#932=DIRECTION('',(0.,0.,1.));
#933=DIRECTION('',(1.,0.,0.));
#934=DIRECTION('',(0.111059546613137,0.993813753731595,0.));
#935=DIRECTION('',(-0.993813753731596,0.111059546613138,0.));
#936=DIRECTION('',(0.993813753731596,-0.111059546613138,0.));
#937=DIRECTION('',(0.,0.,-1.));
#938=DIRECTION('',(0.993813753731596,-0.111059546613138,0.));
#939=DIRECTION('',(0.,0.,-1.));
#940=DIRECTION('',(0.,0.,1.));
#941=DIRECTION('',(1.,0.,0.));
#942=DIRECTION('',(0.,0.,1.));
#943=DIRECTION('',(1.,0.,0.));
#944=DIRECTION('',(0.,0.,1.));
#945=DIRECTION('',(1.,0.,0.));
#946=DIRECTION('',(0.,0.,1.));
#947=DIRECTION('',(1.,0.,0.));
#948=DIRECTION('',(0.,0.,1.));
#949=DIRECTION('',(1.,0.,0.));
#950=DIRECTION('',(0.,0.,1.));
#951=DIRECTION('',(1.,0.,0.));
#952=DIRECTION('',(0.,0.,1.));
#953=DIRECTION('',(1.,0.,0.));
#954=DIRECTION('',(0.,0.,1.));
#955=DIRECTION('',(1.,0.,0.));
#956=DIRECTION('',(-1.,0.,0.));
#957=DIRECTION('',(0.,0.,1.));
#958=DIRECTION('',(0.,0.,-1.));
#959=DIRECTION('',(0.,1.,0.));
#960=DIRECTION('',(0.,0.,-1.));
#961=DIRECTION('',(-1.,0.,0.));
#962=DIRECTION('',(0.,0.,1.));
#963=DIRECTION('',(-1.,0.,0.));
#964=DIRECTION('',(0.,0.,1.));
#965=DIRECTION('',(0.,1.,0.));
#966=DIRECTION('',(-1.,0.,0.));
#967=DIRECTION('',(0.,0.,1.));
#968=DIRECTION('',(-1.,0.,0.));
#969=DIRECTION('',(0.,0.,1.));
#970=DIRECTION('',(-0.0937284591916007,0.995597798278787,0.));
#971=DIRECTION('',(-0.995597798278787,-0.0937284591916007,0.));
#972=DIRECTION('',(0.,0.,-1.));
#973=DIRECTION('',(0.995597798278787,0.0937284591916007,0.));
#974=DIRECTION('',(0.104267267878056,0.994549313432595,0.));
#975=DIRECTION('',(-0.994549313432595,0.104267267878056,0.));
#976=DIRECTION('',(0.,0.,-1.));
#977=DIRECTION('',(0.994549313432595,-0.104267267878056,0.));
#978=DIRECTION('',(0.999961212695737,0.00880755948438643,0.));
#979=DIRECTION('',(-0.00880755948438643,0.999961212695737,0.));
#980=DIRECTION('',(0.,0.,-1.));
#981=DIRECTION('',(0.00880755948438643,-0.999961212695737,0.));
#982=DIRECTION('',(0.844888310097867,-0.534942747833795,0.));
#983=DIRECTION('',(0.534942747833795,0.844888310097867,0.));
#984=DIRECTION('',(0.,0.,-1.));
#985=DIRECTION('',(-0.534942747833795,-0.844888310097867,0.));
#986=DIRECTION('',(0.,-1.,0.));
#987=DIRECTION('',(0.,0.,-1.));
#988=DIRECTION('',(0.,0.,-1.));
#989=DIRECTION('',(-1.,0.,0.));
#990=DIRECTION('',(-0.871091556291837,-0.49112065783987,0.));
#991=DIRECTION('',(0.49112065783987,-0.871091556291837,0.));
#992=DIRECTION('',(0.,0.,-1.));
#993=DIRECTION('',(-0.49112065783987,0.871091556291837,0.));
#994=DIRECTION('',(0.,-1.,0.));
#995=DIRECTION('',(0.,0.,-1.));
#996=DIRECTION('',(0.,0.,-1.));
#997=DIRECTION('',(-1.,0.,0.));
#998=DIRECTION('',(0.921660658978618,-0.387996945466199,0.));
#999=DIRECTION('',(0.387996945466199,0.921660658978618,0.));
#1000=DIRECTION('',(0.,0.,-1.));
#1001=DIRECTION('',(-0.387996945466199,-0.921660658978618,0.));
#1002=DIRECTION('',(0.,-1.,0.));
#1003=DIRECTION('',(0.,0.,-1.));
#1004=DIRECTION('',(-1.,0.,0.));
#1005=DIRECTION('',(0.,0.,1.));
#1006=DIRECTION('',(1.,0.,0.));
#1007=DIRECTION('',(0.,0.,1.));
#1008=DIRECTION('',(1.,0.,0.));
#1009=DIRECTION('',(0.,0.,1.));
#1010=DIRECTION('',(1.,0.,0.));
#1011=DIRECTION('',(0.,0.,1.));
#1012=DIRECTION('',(1.,0.,0.));
#1013=DIRECTION('',(0.,0.,1.));
#1014=DIRECTION('',(1.,0.,0.));
#1015=DIRECTION('',(0.,0.,1.));
#1016=DIRECTION('',(1.,0.,0.));
#1017=DIRECTION('',(0.,0.,1.));
#1018=DIRECTION('',(1.,0.,0.));
#1019=DIRECTION('',(0.,0.,1.));
#1020=DIRECTION('',(1.,0.,0.));
#1021=DIRECTION('',(0.,0.,1.));
#1022=DIRECTION('',(1.,0.,0.));
#1023=DIRECTION('',(0.,0.,1.));
#1024=DIRECTION('',(1.,0.,0.));
#1025=DIRECTION('',(0.,0.,-1.));
#1026=DIRECTION('',(-1.,0.,0.));
#1027=DIRECTION('',(0.,0.,-1.));
#1028=DIRECTION('',(-1.,0.,0.));
#1029=DIRECTION('',(0.,0.,-1.));
#1030=DIRECTION('',(-1.,0.,0.));
#1031=DIRECTION('',(0.,0.,-1.));
#1032=DIRECTION('',(-1.,0.,0.));
#1033=DIRECTION('',(0.,0.,-1.));
#1034=DIRECTION('',(-1.,0.,0.));
#1035=DIRECTION('',(-1.,0.,0.));
#1036=DIRECTION('',(0.,0.,1.));
#1037=DIRECTION('',(1.,0.,0.));
#1038=DIRECTION('',(0.,0.,-1.));
#1039=DIRECTION('',(0.,0.,1.));
#1040=DIRECTION('',(1.,0.,0.));
#1041=DIRECTION('',(1.,0.,0.));
#1042=DIRECTION('',(1.,0.,0.));
#1043=DIRECTION('',(-1.,0.,0.));
#1044=DIRECTION('',(0.,0.,1.));
#1045=DIRECTION('',(1.,0.,0.));
#1046=DIRECTION('',(0.,0.,-1.));
#1047=CARTESIAN_POINT('',(0.,0.,0.));
#1048=CARTESIAN_POINT('',(-0.0709110043636354,-0.019883336,0.009));
#1049=CARTESIAN_POINT('',(-0.0685984643636354,-0.019883336,0.009));
#1050=CARTESIAN_POINT('',(-0.0685984643636354,-0.019883336,0.0064614599675739));
#1051=CARTESIAN_POINT('',(-0.0685984643636354,-0.019883336,0.005));
#1052=CARTESIAN_POINT('',(-0.0732235443636354,-0.019883336,0.0064614599675739));
#1053=CARTESIAN_POINT('',(-0.0732235443636354,-0.019883336,0.0064614599675739));
#1054=CARTESIAN_POINT('',(-0.0732235443636354,-0.019883336,0.009));
#1055=CARTESIAN_POINT('',(-0.0732235443636354,-0.019883336,0.005));
#1056=CARTESIAN_POINT('',(-0.0709110043636354,-0.019883336,0.005));
#1057=CARTESIAN_POINT('',(-0.0709110043636354,-0.030991336,0.009));
#1058=CARTESIAN_POINT('',(-0.0732235443636354,-0.030991336,0.009));
#1059=CARTESIAN_POINT('',(-0.0732235443636354,-0.030991336,0.0064614599675739));
#1060=CARTESIAN_POINT('',(-0.0732235443636354,-0.030991336,0.005));
#1061=CARTESIAN_POINT('',(-0.0709110043636354,-0.030991336,0.0064614599675739));
#1062=CARTESIAN_POINT('',(-0.0685984643636354,-0.030991336,0.0064614599675739));
#1063=CARTESIAN_POINT('',(-0.0685984643636354,-0.030991336,0.009));
#1064=CARTESIAN_POINT('',(-0.0685984643636354,-0.030991336,0.005));
#1065=CARTESIAN_POINT('',(-0.0732235443636354,-0.030991336,0.005));
#1066=CARTESIAN_POINT('',(-0.00142366116296359,0.00135095699999998,0.003));
#1067=CARTESIAN_POINT('',(-0.0609336243636354,-0.044037598,0.003));
#1068=CARTESIAN_POINT('',(-0.0594336243636354,-0.044037598,0.003));
#1069=CARTESIAN_POINT('',(-0.0636336243636354,0.044012402,0.003));
#1070=CARTESIAN_POINT('',(-0.0621336243636354,0.044012402,0.003));
#1071=CARTESIAN_POINT('',(0.0535663756363646,-0.030537598,0.003));
#1072=CARTESIAN_POINT('',(0.0550663756363646,-0.030537598,0.003));
#1073=CARTESIAN_POINT('',(0.0650663756363646,0.043462402,0.003));
#1074=CARTESIAN_POINT('',(0.0665663756363646,0.043462402,0.003));
#1075=CARTESIAN_POINT('',(-0.0732235443636354,-0.041671836,0.003));
#1076=CARTESIAN_POINT('',(-0.0732235443636354,-0.028991336,0.003));
#1077=CARTESIAN_POINT('',(-0.0732235443636354,-0.021883336,0.003));
#1078=CARTESIAN_POINT('',(-0.0685984643636354,-0.028991336,0.003));
#1079=CARTESIAN_POINT('',(-0.0685984643636354,-0.028991336,0.003));
#1080=CARTESIAN_POINT('',(-0.0685984643636354,0.00135095699999998,0.003));
#1081=CARTESIAN_POINT('',(-0.0685984643636354,-0.052352336,0.003));
#1082=CARTESIAN_POINT('',(-0.00142366116296359,-0.052352336,0.003));
#1083=CARTESIAN_POINT('',(-0.0325324533636355,-0.052352336,0.003));
#1084=CARTESIAN_POINT('',(-0.00864490585858611,0.00439092714201569,0.003));
#1085=CARTESIAN_POINT('',(-0.0245336923636355,-0.033351817,0.003));
#1086=CARTESIAN_POINT('',(-0.00142366116296359,-0.033351817,0.003));
#1087=CARTESIAN_POINT('',(0.0104228086363646,-0.033351817,0.003));
#1088=CARTESIAN_POINT('',(-0.00728078442879176,-0.00195128397637681,0.003));
#1089=CARTESIAN_POINT('',(0.0211352846363646,-0.052352336,0.003));
#1090=CARTESIAN_POINT('',(-0.00142366116296359,-0.052352336,0.003));
#1091=CARTESIAN_POINT('',(0.0479164746363545,-0.052352336,0.003));
#1092=CARTESIAN_POINT('',(0.058069226145536,-0.0363170853116384,0.003));
#1093=CARTESIAN_POINT('',(0.0707509626363646,-0.016287557,0.003));
#1094=CARTESIAN_POINT('',(0.0705900175911855,0.0019852463616911,0.003));
#1095=CARTESIAN_POINT('',(0.0701871486363646,0.047724742,0.003));
#1096=CARTESIAN_POINT('',(0.00416377977265055,0.0546465468763865,0.003));
#1097=CARTESIAN_POINT('',(0.000274146636364561,0.055054331,0.003));
#1098=CARTESIAN_POINT('',(-0.0064201217447707,0.0544241131933078,0.003));
#1099=CARTESIAN_POINT('',(-0.0685984643636354,0.048570464,0.003));
#1100=CARTESIAN_POINT('',(-0.0685984643636354,0.00135095699999998,0.003));
#1101=CARTESIAN_POINT('',(-0.0685984643636354,-0.021883336,0.003));
#1102=CARTESIAN_POINT('',(-0.00142366116296359,-0.021883336,0.003));
#1103=CARTESIAN_POINT('',(-0.0364746988636354,0.055516331,0.003));
#1104=CARTESIAN_POINT('',(-0.0364746988636354,0.055516331,0.009));
#1105=CARTESIAN_POINT('',(-0.0665677632631388,0.0521073143250371,0.009));
#1106=CARTESIAN_POINT('',(-0.0019618837528951,0.0594260279537726,0.009));
#1107=CARTESIAN_POINT('',(-0.0019618837528951,0.0594260279537726,0.003));
#1108=CARTESIAN_POINT('',(-0.0019618837528951,0.0594260279537726,0.));
#1109=CARTESIAN_POINT('',(-0.0364746988636354,0.055516331,0.));
#1110=CARTESIAN_POINT('',(-0.0665677632631388,0.0521073143250371,0.));
#1111=CARTESIAN_POINT('',(-0.0665677632631388,0.0521073143250371,0.003));
#1112=CARTESIAN_POINT('',(-0.0732235443636354,-0.041671836,0.003));
#1113=CARTESIAN_POINT('',(-0.0732235443636354,-0.030991336,0.0084614599675739));
#1114=CARTESIAN_POINT('',(-0.0732235443636354,-0.028991336,0.0084614599675739));
#1115=CARTESIAN_POINT('',(-0.0732235443636354,-0.021883336,0.0084614599675739));
#1116=CARTESIAN_POINT('',(-0.0732235443636354,-0.028991336,0.0064614599675739));
#1117=CARTESIAN_POINT('',(-0.0732235443636354,-0.028991336,0.005));
#1118=CARTESIAN_POINT('',(-0.0732235443636354,-0.021883336,0.005));
#1119=CARTESIAN_POINT('',(-0.0732235443636354,-0.021883336,0.0064614599675739));
#1120=CARTESIAN_POINT('',(-0.0732235443636354,-0.041671836,0.));
#1121=CARTESIAN_POINT('',(-0.0732235443636354,-0.0492457347571555,0.));
#1122=CARTESIAN_POINT('',(-0.0732235443636354,0.0446549794929378,0.));
#1123=CARTESIAN_POINT('',(-0.0732235443636354,-0.0492457347571555,0.009));
#1124=CARTESIAN_POINT('',(-0.0732235443636354,-0.0492457347571555,0.009));
#1125=CARTESIAN_POINT('',(-0.0732235443636354,0.0157349975,0.009));
#1126=CARTESIAN_POINT('',(-0.0732235443636354,0.0446549794929378,0.009));
#1127=CARTESIAN_POINT('',(-0.0732235443636354,0.0446549794929378,0.003));
#1128=CARTESIAN_POINT('',(-0.0709110043636354,-0.0546648765,0.003));
#1129=CARTESIAN_POINT('',(-0.0709110043636354,-0.0546648765,0.009));
#1130=CARTESIAN_POINT('',(-0.0710268457958544,-0.0545490350427347,0.009));
#1131=CARTESIAN_POINT('',(-0.0707951636031024,-0.0547807172855792,0.009));
#1132=CARTESIAN_POINT('',(-0.0710268457958544,-0.0545490350427347,0.));
#1133=CARTESIAN_POINT('',(-0.0710268457958544,-0.0545490350427347,0.));
#1134=CARTESIAN_POINT('',(-0.0709110043636354,-0.0546648765,0.));
#1135=CARTESIAN_POINT('',(-0.0707951636031024,-0.0547807172855792,0.));
#1136=CARTESIAN_POINT('',(-0.0707951636031024,-0.0547807172855792,0.009));
#1137=CARTESIAN_POINT('',(-0.00949255487273472,-0.056977417,0.003));
#1138=CARTESIAN_POINT('',(-0.00949255487273472,-0.056977417,0.009));
#1139=CARTESIAN_POINT('',(0.0454850818635785,-0.056977417,0.009));
#1140=CARTESIAN_POINT('',(-0.0654918621708835,-0.056977417,0.009));
#1141=CARTESIAN_POINT('',(-0.0654918621708835,-0.056977417,0.));
#1142=CARTESIAN_POINT('',(-0.0654918621708835,-0.056977417,0.));
#1143=CARTESIAN_POINT('',(-0.00949255487273472,-0.056977417,0.));
#1144=CARTESIAN_POINT('',(0.0454850818635785,-0.056977417,0.));
#1145=CARTESIAN_POINT('',(0.0454850818635785,-0.056977417,0.003));
#1146=CARTESIAN_POINT('',(0.0624947883279371,-0.036632487,0.003));
#1147=CARTESIAN_POINT('',(0.0624947883279371,-0.036632487,0.009));
#1148=CARTESIAN_POINT('',(0.0741937057405588,-0.0181552226520863,0.009));
#1149=CARTESIAN_POINT('',(0.0518217441893125,-0.0534894876087535,0.009));
#1150=CARTESIAN_POINT('',(0.0518217441893125,-0.0534894876087535,0.003));
#1151=CARTESIAN_POINT('',(0.0518217441893125,-0.0534894876087535,0.));
#1152=CARTESIAN_POINT('',(0.0624947883279371,-0.036632487,0.));
#1153=CARTESIAN_POINT('',(0.0741937057405588,-0.0181552226520863,0.));
#1154=CARTESIAN_POINT('',(0.0741937057405587,-0.0181552226520863,0.003));
#1155=CARTESIAN_POINT('',(0.0750783355441822,0.0175328151291979,0.003));
#1156=CARTESIAN_POINT('',(0.0750783355441822,0.0175328151291979,0.009));
#1157=CARTESIAN_POINT('',(0.0748390134422908,0.0447041126556518,0.009));
#1158=CARTESIAN_POINT('',(0.0753567525100428,-0.0140770953471999,0.009));
#1159=CARTESIAN_POINT('',(0.0753567525100428,-0.0140770953471999,0.003));
#1160=CARTESIAN_POINT('',(0.0753567525100428,-0.0140770953471999,0.));
#1161=CARTESIAN_POINT('',(0.0750783355441822,0.0175328151291979,0.));
#1162=CARTESIAN_POINT('',(0.0748390134422908,0.0447041126556518,0.));
#1163=CARTESIAN_POINT('',(0.0748390134422908,0.0447041126556518,0.003));
#1164=CARTESIAN_POINT('',(0.0650663756363646,0.043462402,0.003));
#1165=CARTESIAN_POINT('',(0.0650663756363646,0.043462402,0.));
#1166=CARTESIAN_POINT('',(0.0665663756363646,0.043462402,0.));
#1167=CARTESIAN_POINT('',(0.0535663756363646,-0.030537598,0.003));
#1168=CARTESIAN_POINT('',(0.0535663756363646,-0.030537598,0.));
#1169=CARTESIAN_POINT('',(0.0550663756363646,-0.030537598,0.));
#1170=CARTESIAN_POINT('',(-0.0636336243636354,0.044012402,0.003));
#1171=CARTESIAN_POINT('',(-0.0636336243636354,0.044012402,0.));
#1172=CARTESIAN_POINT('',(-0.0621336243636354,0.044012402,0.));
#1173=CARTESIAN_POINT('',(-0.0609336243636354,-0.044037598,0.003));
#1174=CARTESIAN_POINT('',(-0.0609336243636354,-0.044037598,0.));
#1175=CARTESIAN_POINT('',(-0.0594336243636354,-0.044037598,0.));
#1176=CARTESIAN_POINT('',(0.0375272978435103,0.0555162591291979,0.003));
#1177=CARTESIAN_POINT('',(0.0375272978435103,0.0555162591291979,0.));
#1178=CARTESIAN_POINT('',(0.00251055757804332,0.0594294101428063,0.));
#1179=CARTESIAN_POINT('',(0.0681722509466713,0.0520916591125059,0.));
#1180=CARTESIAN_POINT('',(0.00251055757804332,0.0594294101428063,0.003));
#1181=CARTESIAN_POINT('',(0.00251055757804332,0.0594294101428063,0.009));
#1182=CARTESIAN_POINT('',(0.0375272978435103,0.0555162591291979,0.009));
#1183=CARTESIAN_POINT('',(0.0681722509466713,0.0520916591125059,0.009));
#1184=CARTESIAN_POINT('',(0.0681722509466713,0.0520916591125059,0.003));
#1185=CARTESIAN_POINT('',(-0.00142366116296359,0.00135095699999998,0.));
#1186=CARTESIAN_POINT('',(0.000289366645780567,0.0395531350681744,0.));
#1187=CARTESIAN_POINT('',(0.0673393043470728,0.044638055959519,0.));
#1188=CARTESIAN_POINT('',(0.0678570434148248,-0.0141431520433328,0.));
#1189=CARTESIAN_POINT('',(0.0454850818635785,-0.049477417,0.));
#1190=CARTESIAN_POINT('',(-0.0654918621708835,-0.049477417,0.));
#1191=CARTESIAN_POINT('',(-0.0657235443636355,-0.0492457347571555,0.));
#1192=CARTESIAN_POINT('',(-0.0657235443636355,0.0446549794929378,0.));
#1193=CARTESIAN_POINT('',(-0.0685984643636354,0.014343564,0.009));
#1194=CARTESIAN_POINT('',(-0.0685984643636354,0.048570464,0.009));
#1195=CARTESIAN_POINT('',(-0.0685984643636354,0.048570464,0.009));
#1196=CARTESIAN_POINT('',(-0.0685984643636354,0.014343564,0.009));
#1197=CARTESIAN_POINT('',(-0.0685984643636354,-0.052352336,0.009));
#1198=CARTESIAN_POINT('',(-0.0685984643636354,-0.052352336,0.009));
#1199=CARTESIAN_POINT('',(-0.0685984643636354,-0.028991336,0.005));
#1200=CARTESIAN_POINT('',(-0.0685984643636354,-0.028991336,0.0064614599675739));
#1201=CARTESIAN_POINT('',(-0.0685984643636354,-0.028991336,0.0084614599675739));
#1202=CARTESIAN_POINT('',(-0.0685984643636354,-0.030991336,0.0084614599675739));
#1203=CARTESIAN_POINT('',(-0.0685984643636354,-0.021883336,0.0084614599675739));
#1204=CARTESIAN_POINT('',(-0.0685984643636354,-0.021883336,0.0064614599675739));
#1205=CARTESIAN_POINT('',(-0.0685984643636354,-0.021883336,0.005));
#1206=CARTESIAN_POINT('',(-0.0341621588636355,0.0518123975,0.009));
#1207=CARTESIAN_POINT('',(0.000274146636364561,0.055054331,0.009));
#1208=CARTESIAN_POINT('',(0.000274146636364561,0.055054331,0.009));
#1209=CARTESIAN_POINT('',(-0.0341621588636355,0.0518123975,0.009));
#1210=CARTESIAN_POINT('',(0.0352306476363645,0.0513895365,0.009));
#1211=CARTESIAN_POINT('',(0.0701871486363646,0.047724742,0.009));
#1212=CARTESIAN_POINT('',(0.0701871486363646,0.047724742,0.009));
#1213=CARTESIAN_POINT('',(0.0352306476363645,0.0513895365,0.009));
#1214=CARTESIAN_POINT('',(0.0704690556363646,0.0157185924999999,0.009));
#1215=CARTESIAN_POINT('',(0.0707509626363646,-0.016287557,0.009));
#1216=CARTESIAN_POINT('',(0.0707509626363646,-0.016287557,0.009));
#1217=CARTESIAN_POINT('',(0.0704690556363646,0.0157185924999999,0.009));
#1218=CARTESIAN_POINT('',(0.0593337186363595,-0.0343199465,0.009));
#1219=CARTESIAN_POINT('',(0.0479164746363545,-0.052352336,0.009));
#1220=CARTESIAN_POINT('',(0.0479164746363545,-0.052352336,0.009));
#1221=CARTESIAN_POINT('',(0.0593337186363595,-0.0343199465,0.009));
#1222=CARTESIAN_POINT('',(0.0345258796363595,-0.052352336,0.009));
#1223=CARTESIAN_POINT('',(0.0211352846363646,-0.052352336,0.009));
#1224=CARTESIAN_POINT('',(0.0211352846363646,-0.052352336,0.009));
#1225=CARTESIAN_POINT('',(0.0345258796363595,-0.052352336,0.009));
#1226=CARTESIAN_POINT('',(0.0157790466363646,-0.0428520765,0.009));
#1227=CARTESIAN_POINT('',(0.0104228086363646,-0.033351817,0.009));
#1228=CARTESIAN_POINT('',(0.0104228086363646,-0.033351817,0.009));
#1229=CARTESIAN_POINT('',(0.0157790466363646,-0.0428520765,0.009));
#1230=CARTESIAN_POINT('',(-0.00705544186363544,-0.033351817,0.009));
#1231=CARTESIAN_POINT('',(-0.0245336923636355,-0.033351817,0.009));
#1232=CARTESIAN_POINT('',(-0.0245336923636355,-0.033351817,0.009));
#1233=CARTESIAN_POINT('',(-0.00705544186363544,-0.033351817,0.009));
#1234=CARTESIAN_POINT('',(-0.0285330728636355,-0.0428520765,0.009));
#1235=CARTESIAN_POINT('',(-0.0325324533636355,-0.052352336,0.009));
#1236=CARTESIAN_POINT('',(-0.0325324533636355,-0.052352336,0.009));
#1237=CARTESIAN_POINT('',(-0.0285330728636355,-0.0428520765,0.009));
#1238=CARTESIAN_POINT('',(-0.0505654588636354,-0.052352336,0.009));
#1239=CARTESIAN_POINT('',(-0.0505654588636354,-0.052352336,0.009));
#1240=CARTESIAN_POINT('',(-0.00142366116296359,0.00135095699999998,0.009));
#1241=CARTESIAN_POINT('',(0.000289366645780567,0.0395531350681744,0.009));
#1242=CARTESIAN_POINT('',(-0.0657235443636355,0.0446549794929378,0.009));
#1243=CARTESIAN_POINT('',(-0.0657235443636355,-0.0492457347571555,0.009));
#1244=CARTESIAN_POINT('',(-0.0654918621708835,-0.049477417,0.009));
#1245=CARTESIAN_POINT('',(0.0454850818635785,-0.049477417,0.009));
#1246=CARTESIAN_POINT('',(0.0678570434148248,-0.0141431520433328,0.009));
#1247=CARTESIAN_POINT('',(0.0673393043470728,0.044638055959519,0.009));
#1248=CARTESIAN_POINT('',(-0.0657235443636355,-0.0492457347571555,0.003));
#1249=CARTESIAN_POINT('',(-0.0654918621708835,-0.049477417,0.003));
#1250=CARTESIAN_POINT('',(0.0454850818635785,-0.049477417,0.003));
#1251=CARTESIAN_POINT('',(0.0678570434148248,-0.0141431520433328,0.003));
#1252=CARTESIAN_POINT('',(0.0673393043470728,0.044638055959519,0.003));
#1253=CARTESIAN_POINT('',(-0.0657235443636355,0.0446549794929378,0.003));
#1254=CARTESIAN_POINT('',(0.000289366645780567,0.0395531350681744,0.003));
#1255=CARTESIAN_POINT('',(-0.00142366116296359,-0.021883336,0.005));
#1256=CARTESIAN_POINT('',(-0.0709110043636354,-0.028991336,0.005));
#1257=CARTESIAN_POINT('',(-0.0709110043636354,-0.030991336,0.0084614599675739));
#1258=CARTESIAN_POINT('',(-0.0685984643636354,-0.021883336,0.0084614599675739));
#1259=CARTESIAN_POINT('',(-0.0709110043636354,-0.028991336,0.0084614599675739));
#1260=CARTESIAN_POINT('',(-0.0709110043636354,-0.021883336,0.0064614599675739));
#1261=CARTESIAN_POINT('',(-0.0709110043636354,-0.028991336,0.0064614599675739));
#1262=MECHANICAL_DESIGN_GEOMETRIC_PRESENTATION_REPRESENTATION('',(#755),
#1263);
#1263=(
GEOMETRIC_REPRESENTATION_CONTEXT(3)
GLOBAL_UNCERTAINTY_ASSIGNED_CONTEXT((#1264))
GLOBAL_UNIT_ASSIGNED_CONTEXT((#1267,#1266,#1265))
REPRESENTATION_CONTEXT('Part 1','TOP_LEVEL_ASSEMBLY_PART')
);
#1264=UNCERTAINTY_MEASURE_WITH_UNIT(LENGTH_MEASURE(1.E-8),#1267,
'DISTANCE_ACCURACY_VALUE','Maximum Tolerance applied to model');
#1265=(
NAMED_UNIT(*)
SI_UNIT($,.STERADIAN.)
SOLID_ANGLE_UNIT()
);
#1266=(
NAMED_UNIT(*)
PLANE_ANGLE_UNIT()
SI_UNIT($,.RADIAN.)
);
#1267=(
LENGTH_UNIT()
NAMED_UNIT(*)
SI_UNIT($,.METRE.)
);
#1268=PRODUCT_DEFINITION_SHAPE('','',#1269);
#1269=PRODUCT_DEFINITION('','',#1271,#1270);
#1270=PRODUCT_DEFINITION_CONTEXT('',#1277,'design');
#1271=PRODUCT_DEFINITION_FORMATION_WITH_SPECIFIED_SOURCE('','',#1273,
 .NOT_KNOWN.);
#1272=PRODUCT_RELATED_PRODUCT_CATEGORY('','',(#1273));
#1273=PRODUCT('Part 1','Part 1','Part 1',(#1275));
#1274=PRODUCT_CATEGORY('','');
#1275=PRODUCT_CONTEXT('',#1277,'mechanical');
#1276=APPLICATION_PROTOCOL_DEFINITION('international standard',
'ap242_managed_model_based_3d_engineering',2020,#1277);
#1277=APPLICATION_CONTEXT('managed model based 3d engineering');
ENDSEC;
END-ISO-10303-21;
