%TF.GenerationSoftware,KiCad,Pcbnew,9.0.8*%
%TF.CreationDate,2026-07-01T21:16:20+02:00*%
%TF.ProjectId,SplitboardFlipped,53706c69-7462-46f6-9172-64466c697070,rev?*%
%TF.SameCoordinates,Original*%
%TF.FileFunction,Soldermask,Bot*%
%TF.FilePolarity,Negative*%
%FSLAX46Y46*%
G04 Gerber Fmt 4.6, Leading zero omitted, Abs format (unit mm)*
G04 Created by KiCad (PCBNEW 9.0.8) date 2026-07-01 21:16:20*
%MOMM*%
%LPD*%
G01*
G04 APERTURE LIST*
G04 Aperture macros list*
%AMRoundRect*
0 Rectangle with rounded corners*
0 $1 Rounding radius*
0 $2 $3 $4 $5 $6 $7 $8 $9 X,Y pos of 4 corners*
0 Add a 4 corners polygon primitive as box body*
4,1,4,$2,$3,$4,$5,$6,$7,$8,$9,$2,$3,0*
0 Add four circle primitives for the rounded corners*
1,1,$1+$1,$2,$3*
1,1,$1+$1,$4,$5*
1,1,$1+$1,$6,$7*
1,1,$1+$1,$8,$9*
0 Add four rect primitives between the rounded corners*
20,1,$1+$1,$2,$3,$4,$5,0*
20,1,$1+$1,$4,$5,$6,$7,0*
20,1,$1+$1,$6,$7,$8,$9,0*
20,1,$1+$1,$8,$9,$2,$3,0*%
G04 Aperture macros list end*
%ADD10C,1.701800*%
%ADD11C,3.000000*%
%ADD12C,3.987800*%
%ADD13R,2.500000X2.550000*%
%ADD14RoundRect,0.250000X-0.250000X-0.250000X0.250000X-0.250000X0.250000X0.250000X-0.250000X0.250000X0*%
%ADD15RoundRect,0.250000X0.250000X0.250000X-0.250000X0.250000X-0.250000X-0.250000X0.250000X-0.250000X0*%
%ADD16C,1.600000*%
%ADD17R,0.650000X0.800000*%
%ADD18O,2.501600X1.301600*%
%ADD19C,1.574800*%
%ADD20O,2.101600X1.301600*%
%ADD21R,1.700000X1.700000*%
%ADD22O,1.700000X1.700000*%
G04 APERTURE END LIST*
D10*
%TO.C,SW7*%
X213888446Y-86176448D03*
D11*
X211348446Y-84906448D03*
X216428446Y-84906448D03*
D12*
X213888446Y-81096448D03*
D11*
X208808446Y-78556448D03*
X218968446Y-78556448D03*
D10*
X213888446Y-76016448D03*
D13*
X208808446Y-74806448D03*
X211348446Y-88656448D03*
%TD*%
D11*
%TO.C,REF\u002A\u002A*%
X221398202Y-51135608D03*
%TD*%
D10*
%TO.C,SW6*%
X118138446Y-63918583D03*
D11*
X115598446Y-62648583D03*
X120678446Y-62648583D03*
D12*
X118138446Y-58838583D03*
D11*
X113058446Y-56298583D03*
X123218446Y-56298583D03*
D10*
X118138446Y-53758583D03*
D13*
X113058446Y-52548583D03*
X115598446Y-66398583D03*
%TD*%
D10*
%TO.C,SW4*%
X156301032Y-63918583D03*
D11*
X153761032Y-62648583D03*
X158841032Y-62648583D03*
D12*
X156301032Y-58838583D03*
D11*
X151221032Y-56298583D03*
X161381032Y-56298583D03*
D10*
X156301032Y-53758583D03*
D13*
X151221032Y-52548583D03*
X153761032Y-66398583D03*
%TD*%
D10*
%TO.C,SW15*%
X175588446Y-103652876D03*
D11*
X173048446Y-102382876D03*
X178128446Y-102382876D03*
D12*
X175588446Y-98572876D03*
D11*
X170508446Y-96032876D03*
X180668446Y-96032876D03*
D10*
X175588446Y-93492876D03*
D13*
X170508446Y-92282876D03*
X173048446Y-106132876D03*
%TD*%
D14*
%TO.C,U1*%
X201846404Y-125196400D03*
D15*
X200346754Y-125196400D03*
X198847524Y-125196400D03*
D14*
X197347494Y-125196400D03*
D16*
X222194034Y-112978200D03*
D17*
X213938234Y-124586000D03*
D16*
X219654034Y-112978200D03*
D17*
X215362234Y-124586000D03*
D16*
X217114034Y-112978200D03*
X214574034Y-112978200D03*
X212034034Y-112978200D03*
X209494034Y-112978200D03*
X206954034Y-112978200D03*
X204414034Y-112978200D03*
X201874034Y-112978200D03*
X199334034Y-112978200D03*
X196794034Y-112978200D03*
X194254034Y-112978200D03*
X222194044Y-128218210D03*
X219654044Y-128218210D03*
D18*
X224581404Y-126178200D03*
D16*
X217114044Y-128218210D03*
X214574044Y-128218210D03*
X212034044Y-128218210D03*
X209494044Y-128218210D03*
X206954044Y-128218210D03*
X204414044Y-128218210D03*
X201874044Y-128218210D03*
X199334044Y-128218210D03*
X196794044Y-128218210D03*
X194254044Y-128218210D03*
D19*
X197348834Y-116058200D03*
X197348834Y-118598200D03*
X197348834Y-121138200D03*
D16*
X224734034Y-112978200D03*
X224734044Y-128218210D03*
D20*
X220581404Y-115018200D03*
D18*
X224581404Y-115018200D03*
D20*
X220581404Y-126178200D03*
%TD*%
D21*
%TO.C,OLED1*%
X96619643Y-68500000D03*
D22*
X99159643Y-68500000D03*
X101699643Y-68500000D03*
X104239643Y-68500000D03*
%TD*%
D10*
%TO.C,SW20*%
X118096404Y-116330000D03*
D11*
X115556404Y-115060000D03*
X120636404Y-115060000D03*
D12*
X118096404Y-111250000D03*
D11*
X113016404Y-108710000D03*
X123176404Y-108710000D03*
D10*
X118096404Y-106170000D03*
D13*
X113016404Y-104960000D03*
X115556404Y-118810000D03*
%TD*%
D11*
%TO.C,REF\u002A\u002A*%
X218698202Y-139185608D03*
%TD*%
D10*
%TO.C,SW11*%
X137151032Y-86176448D03*
D11*
X134611032Y-84906448D03*
X139691032Y-84906448D03*
D12*
X137151032Y-81096448D03*
D11*
X132071032Y-78556448D03*
X142231032Y-78556448D03*
D10*
X137151032Y-76016448D03*
D13*
X132071032Y-74806448D03*
X134611032Y-88656448D03*
%TD*%
D10*
%TO.C,SW17*%
X137151032Y-103652876D03*
D11*
X134611032Y-102382876D03*
X139691032Y-102382876D03*
D12*
X137151032Y-98572876D03*
D11*
X132071032Y-96032876D03*
X142231032Y-96032876D03*
D10*
X137151032Y-93492876D03*
D13*
X132071032Y-92282876D03*
X134611032Y-106132876D03*
%TD*%
D10*
%TO.C,SW18*%
X118138446Y-98652876D03*
D11*
X115598446Y-97382876D03*
X120678446Y-97382876D03*
D12*
X118138446Y-93572876D03*
D11*
X113058446Y-91032876D03*
X123218446Y-91032876D03*
D10*
X118138446Y-88492876D03*
D13*
X113058446Y-87282876D03*
X115598446Y-101132876D03*
%TD*%
D11*
%TO.C,REF\u002A\u002A*%
X104198202Y-125685608D03*
%TD*%
D10*
%TO.C,SW3*%
X175588446Y-68918583D03*
D11*
X173048446Y-67648583D03*
X178128446Y-67648583D03*
D12*
X175588446Y-63838583D03*
D11*
X170508446Y-61298583D03*
X180668446Y-61298583D03*
D10*
X175588446Y-58758583D03*
D13*
X170508446Y-57548583D03*
X173048446Y-71398583D03*
%TD*%
D10*
%TO.C,SW21*%
X123096404Y-137580000D03*
D11*
X120556404Y-136310000D03*
X125636404Y-136310000D03*
D12*
X123096404Y-132500000D03*
D11*
X118016404Y-129960000D03*
X128176404Y-129960000D03*
D10*
X123096404Y-127420000D03*
D13*
X118016404Y-126210000D03*
X120556404Y-140060000D03*
%TD*%
D10*
%TO.C,SW14*%
X194442690Y-98652876D03*
D11*
X191902690Y-97382876D03*
X196982690Y-97382876D03*
D12*
X194442690Y-93572876D03*
D11*
X189362690Y-91032876D03*
X199522690Y-91032876D03*
D10*
X194442690Y-88492876D03*
D13*
X189362690Y-87282876D03*
X191902690Y-101132876D03*
%TD*%
D10*
%TO.C,SW2*%
X194442690Y-63918583D03*
D11*
X191902690Y-62648583D03*
X196982690Y-62648583D03*
D12*
X194442690Y-58838583D03*
D11*
X189362690Y-56298583D03*
X199522690Y-56298583D03*
D10*
X194442690Y-53758583D03*
D13*
X189362690Y-52548583D03*
X191902690Y-66398583D03*
%TD*%
D10*
%TO.C,SW19*%
X137096404Y-121330000D03*
D11*
X134556404Y-120060000D03*
X139636404Y-120060000D03*
D12*
X137096404Y-116250000D03*
D11*
X132016404Y-113710000D03*
X142176404Y-113710000D03*
D10*
X137096404Y-111170000D03*
D13*
X132016404Y-109960000D03*
X134556404Y-123810000D03*
%TD*%
D10*
%TO.C,SW5*%
X137151032Y-68918583D03*
D11*
X134611032Y-67648583D03*
X139691032Y-67648583D03*
D12*
X137151032Y-63838583D03*
D11*
X132071032Y-61298583D03*
X142231032Y-61298583D03*
D10*
X137151032Y-58758583D03*
D13*
X132071032Y-57548583D03*
X134611032Y-71398583D03*
%TD*%
D10*
%TO.C,SW10*%
X156301032Y-81176448D03*
D11*
X153761032Y-79906448D03*
X158841032Y-79906448D03*
D12*
X156301032Y-76096448D03*
D11*
X151221032Y-73556448D03*
X161381032Y-73556448D03*
D10*
X156301032Y-71016448D03*
D13*
X151221032Y-69806448D03*
X153761032Y-83656448D03*
%TD*%
D11*
%TO.C,REF\u002A\u002A*%
X92698202Y-51685608D03*
%TD*%
D10*
%TO.C,SW1*%
X213888446Y-68918583D03*
D11*
X211348446Y-67648583D03*
X216428446Y-67648583D03*
D12*
X213888446Y-63838583D03*
D11*
X208808446Y-61298583D03*
X218968446Y-61298583D03*
D10*
X213888446Y-58758583D03*
D13*
X208808446Y-57548583D03*
X211348446Y-71398583D03*
%TD*%
D10*
%TO.C,SW16*%
X156301032Y-98652876D03*
D11*
X153761032Y-97382876D03*
X158841032Y-97382876D03*
D12*
X156301032Y-93572876D03*
D11*
X151221032Y-91032876D03*
X161381032Y-91032876D03*
D10*
X156301032Y-88492876D03*
D13*
X151221032Y-87282876D03*
X153761032Y-101132876D03*
%TD*%
D10*
%TO.C,SW8*%
X194442690Y-81176448D03*
D11*
X191902690Y-79906448D03*
X196982690Y-79906448D03*
D12*
X194442690Y-76096448D03*
D11*
X189362690Y-73556448D03*
X199522690Y-73556448D03*
D10*
X194442690Y-71016448D03*
D13*
X189362690Y-69806448D03*
X191902690Y-83656448D03*
%TD*%
D10*
%TO.C,SW13*%
X213888446Y-103652876D03*
D11*
X211348446Y-102382876D03*
X216428446Y-102382876D03*
D12*
X213888446Y-98572876D03*
D11*
X208808446Y-96032876D03*
X218968446Y-96032876D03*
D10*
X213888446Y-93492876D03*
D13*
X208808446Y-92282876D03*
X211348446Y-106132876D03*
%TD*%
D10*
%TO.C,SW12*%
X118138446Y-81176448D03*
D11*
X115598446Y-79906448D03*
X120678446Y-79906448D03*
D12*
X118138446Y-76096448D03*
D11*
X113058446Y-73556448D03*
X123218446Y-73556448D03*
D10*
X118138446Y-71016448D03*
D13*
X113058446Y-69806448D03*
X115598446Y-83656448D03*
%TD*%
D10*
%TO.C,SW9*%
X175588446Y-86176448D03*
D11*
X173048446Y-84906448D03*
X178128446Y-84906448D03*
D12*
X175588446Y-81096448D03*
D11*
X170508446Y-78556448D03*
X180668446Y-78556448D03*
D10*
X175588446Y-76016448D03*
D13*
X170508446Y-74806448D03*
X173048446Y-88656448D03*
%TD*%
M02*
