%TF.GenerationSoftware,KiCad,Pcbnew,9.0.8*%
%TF.CreationDate,2026-07-01T21:16:20+02:00*%
%TF.ProjectId,SplitboardFlipped,53706c69-7462-46f6-9172-64466c697070,rev?*%
%TF.SameCoordinates,Original*%
%TF.FileFunction,Copper,L2,Bot*%
%TF.FilePolarity,Positive*%
%FSLAX46Y46*%
G04 Gerber Fmt 4.6, Leading zero omitted, Abs format (unit mm)*
G04 Created by KiCad (PCBNEW 9.0.8) date 2026-07-01 21:16:20*
%MOMM*%
%LPD*%
G01*
G04 APERTURE LIST*
G04 Aperture macros list*
%AMRoundRect*
0 Rectangle with rounded corners*
0 $1 Rounding radius*
0 $2 $3 $4 $5 $6 $7 $8 $9 X,Y pos of 4 corners*
0 Add a 4 corners polygon primitive as box body*
4,1,4,$2,$3,$4,$5,$6,$7,$8,$9,$2,$3,0*
0 Add four circle primitives for the rounded corners*
1,1,$1+$1,$2,$3*
1,1,$1+$1,$4,$5*
1,1,$1+$1,$6,$7*
1,1,$1+$1,$8,$9*
0 Add four rect primitives between the rounded corners*
20,1,$1+$1,$2,$3,$4,$5,0*
20,1,$1+$1,$4,$5,$6,$7,0*
20,1,$1+$1,$6,$7,$8,$9,0*
20,1,$1+$1,$8,$9,$2,$3,0*%
G04 Aperture macros list end*
%TA.AperFunction,SMDPad,CuDef*%
%ADD10R,2.500000X2.550000*%
%TD*%
%TA.AperFunction,SMDPad,CuDef*%
%ADD11RoundRect,0.250000X-0.250000X-0.250000X0.250000X-0.250000X0.250000X0.250000X-0.250000X0.250000X0*%
%TD*%
%TA.AperFunction,SMDPad,CuDef*%
%ADD12RoundRect,0.250000X0.250000X0.250000X-0.250000X0.250000X-0.250000X-0.250000X0.250000X-0.250000X0*%
%TD*%
%TA.AperFunction,ComponentPad*%
%ADD13C,1.600000*%
%TD*%
%TA.AperFunction,SMDPad,CuDef*%
%ADD14R,0.650000X0.800000*%
%TD*%
%TA.AperFunction,ComponentPad*%
%ADD15O,2.400000X1.200000*%
%TD*%
%TA.AperFunction,ComponentPad*%
%ADD16C,1.574800*%
%TD*%
%TA.AperFunction,ComponentPad*%
%ADD17O,2.000000X1.200000*%
%TD*%
%TA.AperFunction,ComponentPad*%
%ADD18R,1.700000X1.700000*%
%TD*%
%TA.AperFunction,ComponentPad*%
%ADD19O,1.700000X1.700000*%
%TD*%
%TA.AperFunction,ViaPad*%
%ADD20C,0.600000*%
%TD*%
%TA.AperFunction,Conductor*%
%ADD21C,0.200000*%
%TD*%
G04 APERTURE END LIST*
D10*
%TO.P,SW7,1,1*%
%TO.N,L_COL0*%
X208808446Y-74806448D03*
%TO.P,SW7,2,2*%
%TO.N,Net-(D7-A)*%
X211348446Y-88656448D03*
%TD*%
%TO.P,SW6,1,1*%
%TO.N,L_COL5*%
X113058446Y-52548583D03*
%TO.P,SW6,2,2*%
%TO.N,Net-(D6-A)*%
X115598446Y-66398583D03*
%TD*%
%TO.P,SW4,1,1*%
%TO.N,L_COL3*%
X151221032Y-52548583D03*
%TO.P,SW4,2,2*%
%TO.N,Net-(D4-A)*%
X153761032Y-66398583D03*
%TD*%
%TO.P,SW15,1,1*%
%TO.N,L_COL2*%
X170508446Y-92282876D03*
%TO.P,SW15,2,2*%
%TO.N,Net-(D15-A)*%
X173048446Y-106132876D03*
%TD*%
D11*
%TO.P,U1,0*%
%TO.N,N/C*%
X201846404Y-125196400D03*
D12*
X200346754Y-125196400D03*
X198847524Y-125196400D03*
D11*
X197347494Y-125196400D03*
D13*
%TO.P,U1,1,P0.06*%
%TO.N,L_COL0*%
X222194034Y-112978200D03*
D14*
X213938234Y-124586000D03*
D13*
%TO.P,U1,2,P0.08*%
%TO.N,L_COL1*%
X219654034Y-112978200D03*
D14*
X215362234Y-124586000D03*
D13*
%TO.P,U1,3,GND*%
%TO.N,GND*%
X217114034Y-112978200D03*
%TO.P,U1,4,GND*%
X214574034Y-112978200D03*
%TO.P,U1,5,P0.17*%
%TO.N,L_SDA*%
X212034034Y-112978200D03*
%TO.P,U1,6,P0.20*%
%TO.N,L_SCL*%
X209494034Y-112978200D03*
%TO.P,U1,7,P0.22*%
%TO.N,L_COL2*%
X206954034Y-112978200D03*
%TO.P,U1,8,P0.24*%
%TO.N,L_COL3*%
X204414034Y-112978200D03*
%TO.P,U1,9,P1.00*%
%TO.N,L_COL4*%
X201874034Y-112978200D03*
%TO.P,U1,10,P0.11*%
%TO.N,L_COL5*%
X199334034Y-112978200D03*
%TO.P,U1,11,P1.04-LF*%
%TO.N,L_ROW0*%
X196794034Y-112978200D03*
%TO.P,U1,12,P1.06-LF*%
%TO.N,L_ROW1*%
X194254034Y-112978200D03*
%TO.P,U1,13,BAT+*%
%TO.N,unconnected-(U1-BAT+-Pad13)*%
X222194044Y-128218210D03*
%TO.P,U1,14,GND*%
%TO.N,GND*%
X219654044Y-128218210D03*
D15*
%TO.P,U1,15,RST*%
%TO.N,unconnected-(U1-RST-Pad15)*%
X224581404Y-126178200D03*
D13*
X217114044Y-128218210D03*
%TO.P,U1,16,3V3*%
%TO.N,VCC*%
X214574044Y-128218210D03*
%TO.P,U1,17,P0.31-LF*%
%TO.N,unconnected-(U1-P0.31-LF-Pad17)*%
X212034044Y-128218210D03*
%TO.P,U1,18,P0.29-LF*%
%TO.N,unconnected-(U1-P0.29-LF-Pad18)*%
X209494044Y-128218210D03*
%TO.P,U1,19,P0.02-LF*%
%TO.N,unconnected-(U1-P0.02-LF-Pad19)*%
X206954044Y-128218210D03*
%TO.P,U1,20,P1.15-LF*%
%TO.N,L_ROW3*%
X204414044Y-128218210D03*
%TO.P,U1,21,P1.13-LF*%
%TO.N,unconnected-(U1-P1.13-LF-Pad21)*%
X201874044Y-128218210D03*
%TO.P,U1,22,P1.11-LF*%
%TO.N,unconnected-(U1-P1.11-LF-Pad22)*%
X199334044Y-128218210D03*
%TO.P,U1,23,P0.10-LF*%
%TO.N,unconnected-(U1-P0.10-LF-Pad23)*%
X196794044Y-128218210D03*
%TO.P,U1,24,P0.09-LF*%
%TO.N,L_ROW2*%
X194254044Y-128218210D03*
D16*
%TO.P,U1,25,P1.01-LF*%
%TO.N,unconnected-(U1-P1.01-LF-Pad25)*%
X197348834Y-116058200D03*
%TO.P,U1,26,P1.02-LF*%
%TO.N,L_BTSENSE*%
X197348834Y-118598200D03*
%TO.P,U1,27,P1.07-LF*%
%TO.N,unconnected-(U1-P1.07-LF-Pad27)*%
X197348834Y-121138200D03*
D13*
%TO.P,U1,28,GND*%
%TO.N,GND*%
X224734034Y-112978200D03*
%TO.P,U1,29,BAT+*%
%TO.N,L_POWER*%
X224734044Y-128218210D03*
D17*
%TO.P,U1,30*%
%TO.N,N/C*%
X220581404Y-115018200D03*
D15*
%TO.P,U1,31*%
X224581404Y-115018200D03*
D17*
%TO.P,U1,32*%
X220581404Y-126178200D03*
%TD*%
D18*
%TO.P,OLED1,1,Pin_1*%
%TO.N,GND*%
X96619643Y-68500000D03*
D19*
%TO.P,OLED1,2,Pin_2*%
%TO.N,VCC*%
X99159643Y-68500000D03*
%TO.P,OLED1,3,Pin_3*%
%TO.N,L_SCL*%
X101699643Y-68500000D03*
%TO.P,OLED1,4,Pin_4*%
%TO.N,L_SDA*%
X104239643Y-68500000D03*
%TD*%
D10*
%TO.P,SW20,1,1*%
%TO.N,L_COL4*%
X113016404Y-104960000D03*
%TO.P,SW20,2,2*%
%TO.N,Net-(D20-A)*%
X115556404Y-118810000D03*
%TD*%
%TO.P,SW11,1,1*%
%TO.N,L_COL4*%
X132071032Y-74806448D03*
%TO.P,SW11,2,2*%
%TO.N,Net-(D11-A)*%
X134611032Y-88656448D03*
%TD*%
%TO.P,SW17,1,1*%
%TO.N,L_COL4*%
X132071032Y-92282876D03*
%TO.P,SW17,2,2*%
%TO.N,Net-(D17-A)*%
X134611032Y-106132876D03*
%TD*%
%TO.P,SW18,1,1*%
%TO.N,L_COL5*%
X113058446Y-87282876D03*
%TO.P,SW18,2,2*%
%TO.N,Net-(D18-A)*%
X115598446Y-101132876D03*
%TD*%
%TO.P,SW3,1,1*%
%TO.N,L_COL2*%
X170508446Y-57548583D03*
%TO.P,SW3,2,2*%
%TO.N,Net-(D3-A)*%
X173048446Y-71398583D03*
%TD*%
%TO.P,SW21,1,1*%
%TO.N,L_COL5*%
X118016404Y-126210000D03*
%TO.P,SW21,2,2*%
%TO.N,Net-(D21-A)*%
X120556404Y-140060000D03*
%TD*%
%TO.P,SW14,1,1*%
%TO.N,L_COL1*%
X189362690Y-87282876D03*
%TO.P,SW14,2,2*%
%TO.N,Net-(D14-A)*%
X191902690Y-101132876D03*
%TD*%
%TO.P,SW2,1,1*%
%TO.N,L_COL1*%
X189362690Y-52548583D03*
%TO.P,SW2,2,2*%
%TO.N,Net-(D2-A)*%
X191902690Y-66398583D03*
%TD*%
%TO.P,SW19,1,1*%
%TO.N,L_COL3*%
X132016404Y-109960000D03*
%TO.P,SW19,2,2*%
%TO.N,Net-(D19-A)*%
X134556404Y-123810000D03*
%TD*%
%TO.P,SW5,1,1*%
%TO.N,L_COL4*%
X132071032Y-57548583D03*
%TO.P,SW5,2,2*%
%TO.N,Net-(D5-A)*%
X134611032Y-71398583D03*
%TD*%
%TO.P,SW10,1,1*%
%TO.N,L_COL3*%
X151221032Y-69806448D03*
%TO.P,SW10,2,2*%
%TO.N,Net-(D10-A)*%
X153761032Y-83656448D03*
%TD*%
%TO.P,SW1,1,1*%
%TO.N,L_COL0*%
X208808446Y-57548583D03*
%TO.P,SW1,2,2*%
%TO.N,Net-(D1-A)*%
X211348446Y-71398583D03*
%TD*%
%TO.P,SW16,1,1*%
%TO.N,L_COL3*%
X151221032Y-87282876D03*
%TO.P,SW16,2,2*%
%TO.N,Net-(D16-A)*%
X153761032Y-101132876D03*
%TD*%
%TO.P,SW8,1,1*%
%TO.N,L_COL1*%
X189362690Y-69806448D03*
%TO.P,SW8,2,2*%
%TO.N,Net-(D8-A)*%
X191902690Y-83656448D03*
%TD*%
%TO.P,SW13,1,1*%
%TO.N,L_COL0*%
X208808446Y-92282876D03*
%TO.P,SW13,2,2*%
%TO.N,Net-(D13-A)*%
X211348446Y-106132876D03*
%TD*%
%TO.P,SW12,1,1*%
%TO.N,L_COL5*%
X113058446Y-69806448D03*
%TO.P,SW12,2,2*%
%TO.N,Net-(D12-A)*%
X115598446Y-83656448D03*
%TD*%
%TO.P,SW9,1,1*%
%TO.N,L_COL2*%
X170508446Y-74806448D03*
%TO.P,SW9,2,2*%
%TO.N,Net-(D9-A)*%
X173048446Y-88656448D03*
%TD*%
D20*
%TO.N,GND*%
X104927568Y-98847979D03*
X111614701Y-103036623D03*
X206704261Y-123024536D03*
X188773926Y-123906356D03*
X107352572Y-99509344D03*
%TO.N,L_BTSENSE*%
X193660275Y-123143804D03*
X109806182Y-104139278D03*
%TO.N,L_POWER*%
X105482877Y-110894441D03*
%TO.N,L_SDA*%
X181609323Y-117213269D03*
%TO.N,L_SCL*%
X95476782Y-61566420D03*
X187256594Y-127071920D03*
X93081378Y-65026448D03*
%TO.N,L_COL3*%
X197751841Y-108340407D03*
%TO.N,L_COL0*%
X220683936Y-111468102D03*
%TO.N,L_ROW0*%
X199923490Y-110512057D03*
X206177840Y-109730263D03*
%TO.N,L_ROW1*%
X190020770Y-105647562D03*
%TO.N,L_COL4*%
X194016604Y-108687871D03*
%TO.N,L_ROW2*%
X181334173Y-112596840D03*
%TO.N,GND*%
X105942169Y-97930556D03*
%TO.N,Net-(D1-A)*%
X213722951Y-71237303D03*
%TO.N,L_ROW0*%
X211200219Y-108179016D03*
X214766624Y-107947432D03*
%TO.N,Net-(D2-A)*%
X194440490Y-66354328D03*
%TO.N,Net-(D3-A)*%
X175607239Y-71399958D03*
%TO.N,Net-(D4-A)*%
X156268878Y-66454227D03*
%TO.N,Net-(D5-A)*%
X137166530Y-71349818D03*
%TO.N,Net-(D6-A)*%
X118191726Y-66546070D03*
%TO.N,Net-(D7-A)*%
X213588637Y-88832489D03*
%TO.N,L_ROW1*%
X164820289Y-78020364D03*
X184003072Y-82078188D03*
X221632430Y-84960437D03*
X145843818Y-85244908D03*
X189662839Y-104705245D03*
X219951118Y-83359187D03*
X182161635Y-81998126D03*
X162604762Y-78309345D03*
X202257314Y-77594690D03*
X200495939Y-77674753D03*
X143724619Y-82836727D03*
%TO.N,Net-(D8-A)*%
X204979437Y-75993441D03*
X200576002Y-81437688D03*
X194491255Y-83519312D03*
%TO.N,Net-(D9-A)*%
X186485008Y-78075065D03*
X182241698Y-86161374D03*
X175940659Y-88459948D03*
%TO.N,Net-(D10-A)*%
X162797417Y-83607345D03*
X156657868Y-83680928D03*
X167132144Y-77442400D03*
%TO.N,Net-(D11-A)*%
X136982961Y-88522982D03*
X148155673Y-81584472D03*
X143531964Y-88616363D03*
%TO.N,Net-(D12-A)*%
X126388547Y-80210552D03*
X118351851Y-83599375D03*
X124455067Y-81069876D03*
%TO.N,L_ROW2*%
X163026706Y-93767308D03*
X164948205Y-92085996D03*
X145573089Y-99451743D03*
X143171215Y-99211555D03*
%TO.N,Net-(D13-A)*%
X213866371Y-106096927D03*
%TO.N,Net-(D14-A)*%
X194334330Y-101074339D03*
X194475564Y-103833143D03*
X192738600Y-104905974D03*
%TO.N,Net-(D15-A)*%
X175440529Y-105964499D03*
%TO.N,Net-(D16-A)*%
X162706456Y-97690369D03*
X156268878Y-101018769D03*
X164547893Y-95128370D03*
%TO.N,Net-(D17-A)*%
X136772049Y-106133501D03*
%TO.N,Net-(D18-A)*%
X124785145Y-96285099D03*
X126446132Y-94149544D03*
X118351851Y-101052992D03*
%TO.N,Net-(D19-A)*%
X137359978Y-123661051D03*
%TO.N,L_ROW3*%
X187525820Y-123870794D03*
X186805258Y-122109420D03*
%TO.N,Net-(D20-A)*%
X117938525Y-118665314D03*
%TO.N,Net-(D21-A)*%
X123184105Y-140099032D03*
%TO.N,L_BTSENSE*%
X108744355Y-70389068D03*
X106822856Y-62222697D03*
%TO.N,L_COL0*%
X213786308Y-91605621D03*
X214026496Y-74071942D03*
X221528898Y-96599780D03*
X216108120Y-56538262D03*
X221436264Y-105909486D03*
%TO.N,L_COL1*%
X194289683Y-86562488D03*
X206197989Y-88679582D03*
X207587497Y-101879912D03*
X196252629Y-51574389D03*
X194515992Y-68819643D03*
%TO.N,L_COL3*%
X156135471Y-68993454D03*
X158971259Y-51852851D03*
X192812392Y-103130469D03*
X137130101Y-109141136D03*
X196795649Y-105909486D03*
X156060067Y-86411681D03*
%TO.N,L_COL4*%
X144612339Y-73111192D03*
X155619884Y-85205811D03*
X187532260Y-102065179D03*
X164836956Y-85344762D03*
X179889964Y-86363735D03*
X187671211Y-105122098D03*
X184012172Y-85020543D03*
X144772464Y-58860073D03*
X117938525Y-104486463D03*
X124547861Y-101900818D03*
X136907557Y-73970090D03*
X173127690Y-90578577D03*
X139779684Y-57295238D03*
X182066860Y-83723669D03*
X136986880Y-91596599D03*
%TO.N,L_COL5*%
X120835211Y-52227676D03*
X190007757Y-113302549D03*
%TO.N,L_COL2*%
X191469200Y-110726448D03*
X175885089Y-74234028D03*
X178830299Y-57340747D03*
X175773949Y-91405159D03*
X182622664Y-92384938D03*
X186744872Y-105816852D03*
%TD*%
D21*
%TO.N,GND*%
X184200000Y-111200000D02*
X171150000Y-111400000D01*
X211200000Y-124055000D02*
X206704261Y-123024536D01*
X134150000Y-108350000D02*
X125500000Y-102950000D01*
X125500000Y-102950000D02*
X111614701Y-103036623D01*
X188773926Y-123906356D02*
X184200000Y-111200000D01*
X107352572Y-99509344D02*
X104927568Y-98847979D01*
X151450000Y-104950000D02*
X134150000Y-108350000D01*
X171150000Y-111400000D02*
X151450000Y-104950000D01*
%TO.N,L_BTSENSE*%
X108744355Y-70389068D02*
X109806182Y-104139278D01*
X193660275Y-123143804D02*
X197348834Y-118598200D01*
%TO.N,L_POWER*%
X110600000Y-144850000D02*
X107000000Y-111900000D01*
X107000000Y-111900000D02*
X105482877Y-110894441D01*
X181750000Y-124950000D02*
X147800000Y-126050000D01*
X130800000Y-145750000D02*
X110600000Y-144850000D01*
X224550000Y-144200000D02*
X222850000Y-145950000D01*
X222850000Y-145950000D02*
X197250000Y-145550000D01*
X197250000Y-145550000D02*
X186250000Y-134650000D01*
X224734044Y-128218210D02*
X224550000Y-144200000D01*
X186250000Y-134650000D02*
X181750000Y-124950000D01*
X147800000Y-126050000D02*
X130800000Y-145750000D01*
%TO.N,L_SDA*%
X147150000Y-121250000D02*
X181609323Y-117213269D01*
%TO.N,VCC*%
X131000000Y-143350000D02*
X137750000Y-134700000D01*
X131200000Y-143450000D02*
X131000000Y-143350000D01*
X137750000Y-134700000D02*
X138000000Y-133600000D01*
%TO.N,L_SDA*%
X130450000Y-142250000D02*
X147150000Y-121250000D01*
X110100000Y-118400000D02*
X114400000Y-142350000D01*
X104239643Y-68500000D02*
X109250000Y-106500000D01*
X114400000Y-142350000D02*
X130450000Y-142250000D01*
X109250000Y-106500000D02*
X110100000Y-118400000D01*
%TO.N,VCC*%
X131200000Y-143450000D02*
X112850000Y-143550000D01*
X148500000Y-122900000D02*
X138000000Y-133600000D01*
X182500000Y-123000000D02*
X148500000Y-122900000D01*
X211900000Y-143350000D02*
X198250000Y-143550000D01*
X214574044Y-128218210D02*
X214650000Y-140300000D01*
X198250000Y-143550000D02*
X186200000Y-132950000D01*
X214650000Y-140300000D02*
X211900000Y-143350000D01*
X186200000Y-132950000D02*
X182500000Y-123000000D01*
X107150000Y-103650000D02*
X102800000Y-97000000D01*
X112850000Y-143550000D02*
X107150000Y-103650000D01*
X102800000Y-97000000D02*
X99159643Y-68500000D01*
%TO.N,L_SCL*%
X93700000Y-62300000D02*
X95476782Y-61566420D01*
X93081378Y-65026448D02*
X93700000Y-62300000D01*
X209494034Y-112978200D02*
X204000000Y-126450000D01*
X204000000Y-126450000D02*
X187256594Y-127071920D01*
%TO.N,L_COL3*%
X197751841Y-108340407D02*
X198900000Y-110850000D01*
X203200000Y-111550000D02*
X204414034Y-112978200D01*
X200800000Y-111400000D02*
X203200000Y-111550000D01*
X198900000Y-110850000D02*
X200800000Y-111400000D01*
%TO.N,L_COL0*%
X222194034Y-112978200D02*
X220683936Y-111468102D01*
%TO.N,L_ROW0*%
X206177840Y-109730263D02*
X199923490Y-110512057D01*
%TO.N,L_ROW1*%
X190020770Y-105647562D02*
X194254034Y-112978200D01*
%TO.N,L_COL4*%
X194016604Y-108687871D02*
X201874034Y-112978200D01*
%TO.N,L_ROW2*%
X193300000Y-131250000D02*
X194450000Y-130250000D01*
X181334173Y-112596840D02*
X187000000Y-131350000D01*
X194450000Y-130250000D02*
X194254044Y-128218210D01*
X187000000Y-131350000D02*
X193300000Y-131250000D01*
%TO.N,GND*%
X211200000Y-124055000D02*
X213750000Y-126605000D01*
X224734034Y-110589034D02*
X224734034Y-112978200D01*
X218500000Y-127064166D02*
X219654044Y-128218210D01*
X211200000Y-124055000D02*
X214574034Y-120680966D01*
X217100000Y-110455000D02*
X217950000Y-109605000D01*
X213750000Y-126605000D02*
X218500000Y-126605000D01*
X217100000Y-112964166D02*
X217100000Y-110455000D01*
X217114034Y-112978200D02*
X217100000Y-112964166D01*
X217950000Y-109605000D02*
X223750000Y-109605000D01*
X214574034Y-120680966D02*
X214574034Y-112978200D01*
X218500000Y-126605000D02*
X218500000Y-127064166D01*
X223750000Y-109605000D02*
X224734034Y-110589034D01*
X214574034Y-112978200D02*
X217114034Y-112978200D01*
%TO.N,L_COL0*%
X216300000Y-115705000D02*
X216300000Y-122355000D01*
X216300000Y-122355000D02*
X214069000Y-124586000D01*
X218400000Y-111405000D02*
X218400000Y-113605000D01*
X218400000Y-113605000D02*
X216300000Y-115705000D01*
X214069000Y-124586000D02*
X213938234Y-124586000D01*
X219000000Y-110805000D02*
X218400000Y-111405000D01*
X220020834Y-110805000D02*
X219000000Y-110805000D01*
X220683936Y-111468102D02*
X220020834Y-110805000D01*
%TO.N,L_COL1*%
X216800000Y-123505000D02*
X216443234Y-123505000D01*
X219654034Y-112978200D02*
X216800000Y-115832234D01*
X216443234Y-123505000D02*
X215362234Y-124586000D01*
X216800000Y-115832234D02*
X216800000Y-123505000D01*
%TO.N,Net-(D1-A)*%
X211509726Y-71237303D02*
X211348446Y-71398583D01*
X213722951Y-71237303D02*
X211509726Y-71237303D01*
%TO.N,L_ROW0*%
X211431803Y-107947432D02*
X211200219Y-108179016D01*
X214766624Y-107947432D02*
X211431803Y-107947432D01*
%TO.N,Net-(D2-A)*%
X194440490Y-66354328D02*
X191946945Y-66354328D01*
X191946945Y-66354328D02*
X191902690Y-66398583D01*
%TO.N,Net-(D3-A)*%
X173049821Y-71399958D02*
X175607239Y-71399958D01*
X173048446Y-71398583D02*
X173049821Y-71399958D01*
%TO.N,Net-(D4-A)*%
X153761032Y-66398583D02*
X156213234Y-66398583D01*
X156213234Y-66398583D02*
X156268878Y-66454227D01*
%TO.N,Net-(D5-A)*%
X137166530Y-71349818D02*
X134659797Y-71349818D01*
X134659797Y-71349818D02*
X134611032Y-71398583D01*
%TO.N,Net-(D6-A)*%
X118044239Y-66398583D02*
X118191726Y-66546070D01*
X115598446Y-66398583D02*
X118044239Y-66398583D01*
%TO.N,Net-(D7-A)*%
X211524487Y-88832489D02*
X211348446Y-88656448D01*
X213588637Y-88832489D02*
X211524487Y-88832489D01*
%TO.N,L_ROW1*%
X183923010Y-81998126D02*
X184003072Y-82078188D01*
X181050000Y-87200000D02*
X181050000Y-83100000D01*
X187550000Y-93700000D02*
X181050000Y-87200000D01*
X182161635Y-81998126D02*
X183923010Y-81998126D01*
X202177251Y-77674753D02*
X202257314Y-77594690D01*
X187550000Y-99850000D02*
X187550000Y-93700000D01*
X200495939Y-77674753D02*
X202177251Y-77674753D01*
X189662839Y-104705245D02*
X189662839Y-101962839D01*
X143724619Y-82836727D02*
X143724619Y-84074619D01*
X181050000Y-83100000D02*
X181059761Y-83100000D01*
X144900000Y-85250000D02*
X145838726Y-85250000D01*
X145838726Y-85250000D02*
X145843818Y-85244908D01*
X143724619Y-84074619D02*
X144900000Y-85250000D01*
X221552368Y-84960437D02*
X221632430Y-84960437D01*
X181059761Y-83100000D02*
X182161635Y-81998126D01*
X164531308Y-78309345D02*
X164820289Y-78020364D01*
X189662839Y-101962839D02*
X187550000Y-99850000D01*
X162604762Y-78309345D02*
X164531308Y-78309345D01*
X219951118Y-83359187D02*
X221552368Y-84960437D01*
%TO.N,Net-(D8-A)*%
X200576002Y-81437688D02*
X202962312Y-81437688D01*
X204979437Y-79420563D02*
X204979437Y-75993441D01*
X202962312Y-81437688D02*
X204979437Y-79420563D01*
X192039826Y-83519312D02*
X191902690Y-83656448D01*
X194491255Y-83519312D02*
X192039826Y-83519312D01*
%TO.N,Net-(D9-A)*%
X175744159Y-88656448D02*
X175940659Y-88459948D01*
X182241698Y-86161374D02*
X183938626Y-86161374D01*
X186800000Y-78390057D02*
X186485008Y-78075065D01*
X186800000Y-83300000D02*
X186800000Y-78390057D01*
X183938626Y-86161374D02*
X186800000Y-83300000D01*
X173048446Y-88656448D02*
X175744159Y-88656448D01*
%TO.N,Net-(D10-A)*%
X153785512Y-83680928D02*
X156657868Y-83680928D01*
X153761032Y-83656448D02*
X153785512Y-83680928D01*
X165692655Y-83607345D02*
X167400000Y-81900000D01*
X162797417Y-83607345D02*
X165692655Y-83607345D01*
X167400000Y-81900000D02*
X167400000Y-77710256D01*
X167400000Y-77710256D02*
X167132144Y-77442400D01*
%TO.N,Net-(D11-A)*%
X148150000Y-81590145D02*
X148155673Y-81584472D01*
X134744498Y-88522982D02*
X134611032Y-88656448D01*
X136982961Y-88522982D02*
X134744498Y-88522982D01*
X148150000Y-85250000D02*
X148150000Y-81590145D01*
X144783637Y-88616363D02*
X148150000Y-85250000D01*
X143531964Y-88616363D02*
X144783637Y-88616363D01*
%TO.N,Net-(D12-A)*%
X118294778Y-83656448D02*
X118351851Y-83599375D01*
X124455067Y-81069876D02*
X125529223Y-81069876D01*
X125529223Y-81069876D02*
X126388547Y-80210552D01*
X115598446Y-83656448D02*
X118294778Y-83656448D01*
%TO.N,L_ROW2*%
X164708018Y-92085996D02*
X164948205Y-92085996D01*
X163026706Y-93767308D02*
X164708018Y-92085996D01*
X143171215Y-99211555D02*
X145332901Y-99211555D01*
X145332901Y-99211555D02*
X145573089Y-99451743D01*
%TO.N,Net-(D13-A)*%
X211384395Y-106096927D02*
X211348446Y-106132876D01*
X213866371Y-106096927D02*
X211384395Y-106096927D01*
%TO.N,Net-(D14-A)*%
X194275793Y-101132876D02*
X194334330Y-101074339D01*
X193402733Y-104905974D02*
X194475564Y-103833143D01*
X192738600Y-104905974D02*
X193402733Y-104905974D01*
X191902690Y-101132876D02*
X194275793Y-101132876D01*
%TO.N,Net-(D15-A)*%
X173048446Y-106132876D02*
X175272152Y-106132876D01*
X175272152Y-106132876D02*
X175440529Y-105964499D01*
%TO.N,Net-(D16-A)*%
X164547893Y-95848932D02*
X164547893Y-95128370D01*
X153761032Y-101132876D02*
X156154771Y-101132876D01*
X162706456Y-97690369D02*
X164547893Y-95848932D01*
X156154771Y-101132876D02*
X156268878Y-101018769D01*
%TO.N,Net-(D17-A)*%
X134611657Y-106133501D02*
X134611032Y-106132876D01*
X136772049Y-106133501D02*
X134611657Y-106133501D01*
%TO.N,Net-(D18-A)*%
X124785145Y-96285099D02*
X126446132Y-94624112D01*
X126446132Y-94624112D02*
X126446132Y-94149544D01*
X115598446Y-101132876D02*
X118271967Y-101132876D01*
X118271967Y-101132876D02*
X118351851Y-101052992D01*
%TO.N,Net-(D19-A)*%
X137359978Y-123661051D02*
X134705353Y-123661051D01*
X134705353Y-123661051D02*
X134556404Y-123810000D01*
%TO.N,L_ROW3*%
X186805258Y-123150232D02*
X187525820Y-123870794D01*
X186805258Y-122109420D02*
X186805258Y-123150232D01*
%TO.N,Net-(D20-A)*%
X115701090Y-118665314D02*
X115556404Y-118810000D01*
X117938525Y-118665314D02*
X115701090Y-118665314D01*
%TO.N,Net-(D21-A)*%
X123184105Y-140099032D02*
X120595436Y-140099032D01*
X120595436Y-140099032D02*
X120556404Y-140060000D01*
%TO.N,L_BTSENSE*%
X108744355Y-64144196D02*
X108744355Y-70389068D01*
X106822856Y-62222697D02*
X108744355Y-64144196D01*
%TO.N,L_COL0*%
X221528898Y-105816852D02*
X221436264Y-105909486D01*
X213786308Y-91605621D02*
X209485701Y-91605621D01*
X209485701Y-91605621D02*
X208808446Y-92282876D01*
X209542952Y-74071942D02*
X208808446Y-74806448D01*
X209818767Y-56538262D02*
X208808446Y-57548583D01*
X216108120Y-56538262D02*
X209818767Y-56538262D01*
X221528898Y-96599780D02*
X221528898Y-105816852D01*
X214026496Y-74071942D02*
X209542952Y-74071942D01*
%TO.N,L_COL1*%
X190083078Y-86562488D02*
X189362690Y-87282876D01*
X206300000Y-88781593D02*
X206197989Y-88679582D01*
X207587497Y-99637497D02*
X206300000Y-98350000D01*
X206300000Y-98350000D02*
X206300000Y-88781593D01*
X190336884Y-51574389D02*
X189362690Y-52548583D01*
X190349495Y-68819643D02*
X189362690Y-69806448D01*
X196252629Y-51574389D02*
X190336884Y-51574389D01*
X207587497Y-101879912D02*
X207587497Y-99637497D01*
X194289683Y-86562488D02*
X190083078Y-86562488D01*
X194515992Y-68819643D02*
X190349495Y-68819643D01*
%TO.N,L_COL3*%
X137130101Y-109141136D02*
X132835268Y-109141136D01*
X196795649Y-105909486D02*
X196795649Y-104545649D01*
X156060067Y-86411681D02*
X152092227Y-86411681D01*
X156135471Y-68993454D02*
X152034026Y-68993454D01*
X132835268Y-109141136D02*
X132016404Y-109960000D01*
X151916764Y-51852851D02*
X151221032Y-52548583D01*
X196795649Y-104545649D02*
X195380469Y-103130469D01*
X195380469Y-103130469D02*
X192812392Y-103130469D01*
X152034026Y-68993454D02*
X151221032Y-69806448D01*
X152092227Y-86411681D02*
X151221032Y-87282876D01*
X158971259Y-51852851D02*
X151916764Y-51852851D01*
%TO.N,L_COL4*%
X144772464Y-72951067D02*
X144612339Y-73111192D01*
X187671211Y-102204130D02*
X187532260Y-102065179D01*
X124547861Y-101900818D02*
X124547861Y-99806047D01*
X124547861Y-99806047D02*
X132071032Y-92282876D01*
X175675122Y-90578577D02*
X173127690Y-90578577D01*
X184012172Y-85020543D02*
X182715298Y-83723669D01*
X164836956Y-85344762D02*
X155758835Y-85344762D01*
X136986880Y-91596599D02*
X132757309Y-91596599D01*
X132907390Y-73970090D02*
X132071032Y-74806448D01*
X179889964Y-86363735D02*
X175675122Y-90578577D01*
X132324377Y-57295238D02*
X132071032Y-57548583D01*
X144772464Y-58860073D02*
X144772464Y-72951067D01*
X182715298Y-83723669D02*
X182066860Y-83723669D01*
X113489941Y-104486463D02*
X113016404Y-104960000D01*
X155758835Y-85344762D02*
X155619884Y-85205811D01*
X187671211Y-105122098D02*
X187671211Y-102204130D01*
X139779684Y-57295238D02*
X132324377Y-57295238D01*
X136907557Y-73970090D02*
X132907390Y-73970090D01*
X117938525Y-104486463D02*
X113489941Y-104486463D01*
X132757309Y-91596599D02*
X132071032Y-92282876D01*
%TO.N,L_COL5*%
X113058446Y-69806448D02*
X111100000Y-71764894D01*
X120835211Y-52227676D02*
X113058446Y-52548583D01*
X111100000Y-71764894D02*
X111100000Y-85324430D01*
X110700000Y-118893596D02*
X118016404Y-126210000D01*
X110950000Y-67850000D02*
X113058446Y-69806448D01*
X110800000Y-54150000D02*
X110950000Y-67850000D01*
X111100000Y-85324430D02*
X113058446Y-87282876D01*
X113058446Y-87282876D02*
X110700000Y-89641322D01*
X113058446Y-52548583D02*
X110800000Y-54150000D01*
X110700000Y-89641322D02*
X110700000Y-118893596D01*
%TO.N,L_COL2*%
X178622463Y-57548583D02*
X178830299Y-57340747D01*
X171080866Y-74234028D02*
X175885089Y-74234028D01*
X170508446Y-92282876D02*
X171386163Y-91405159D01*
X170508446Y-74806448D02*
X171080866Y-74234028D01*
X170508446Y-57548583D02*
X178622463Y-57548583D01*
X186744872Y-105816852D02*
X186744872Y-96507146D01*
X171386163Y-91405159D02*
X175773949Y-91405159D01*
X186744872Y-96507146D02*
X182622664Y-92384938D01*
%TD*%
M02*
