%TF.GenerationSoftware,KiCad,Pcbnew,9.0.8*%
%TF.CreationDate,2026-07-01T21:16:20+02:00*%
%TF.ProjectId,SplitboardFlipped,53706c69-7462-46f6-9172-64466c697070,rev?*%
%TF.SameCoordinates,Original*%
%TF.FileFunction,Copper,L1,Top*%
%TF.FilePolarity,Positive*%
%FSLAX46Y46*%
G04 Gerber Fmt 4.6, Leading zero omitted, Abs format (unit mm)*
G04 Created by KiCad (PCBNEW 9.0.8) date 2026-07-01 21:16:20*
%MOMM*%
%LPD*%
G01*
G04 APERTURE LIST*
G04 Aperture macros list*
%AMRoundRect*
0 Rectangle with rounded corners*
0 $1 Rounding radius*
0 $2 $3 $4 $5 $6 $7 $8 $9 X,Y pos of 4 corners*
0 Add a 4 corners polygon primitive as box body*
4,1,4,$2,$3,$4,$5,$6,$7,$8,$9,$2,$3,0*
0 Add four circle primitives for the rounded corners*
1,1,$1+$1,$2,$3*
1,1,$1+$1,$4,$5*
1,1,$1+$1,$6,$7*
1,1,$1+$1,$8,$9*
0 Add four rect primitives between the rounded corners*
20,1,$1+$1,$2,$3,$4,$5,0*
20,1,$1+$1,$4,$5,$6,$7,0*
20,1,$1+$1,$6,$7,$8,$9,0*
20,1,$1+$1,$8,$9,$2,$3,0*%
G04 Aperture macros list end*
%TA.AperFunction,SMDPad,CuDef*%
%ADD10R,2.500000X2.550000*%
%TD*%
%TA.AperFunction,SMDPad,CuDef*%
%ADD11RoundRect,0.225000X-0.225000X-0.375000X0.225000X-0.375000X0.225000X0.375000X-0.225000X0.375000X0*%
%TD*%
%TA.AperFunction,SMDPad,CuDef*%
%ADD12C,1.500000*%
%TD*%
%TA.AperFunction,SMDPad,CuDef*%
%ADD13RoundRect,0.225000X0.375000X-0.225000X0.375000X0.225000X-0.375000X0.225000X-0.375000X-0.225000X0*%
%TD*%
%TA.AperFunction,SMDPad,CuDef*%
%ADD14RoundRect,0.250000X0.970000X0.310000X-0.970000X0.310000X-0.970000X-0.310000X0.970000X-0.310000X0*%
%TD*%
%TA.AperFunction,SMDPad,CuDef*%
%ADD15RoundRect,0.225000X0.225000X0.375000X-0.225000X0.375000X-0.225000X-0.375000X0.225000X-0.375000X0*%
%TD*%
%TA.AperFunction,SMDPad,CuDef*%
%ADD16RoundRect,0.200000X0.275000X-0.200000X0.275000X0.200000X-0.275000X0.200000X-0.275000X-0.200000X0*%
%TD*%
%TA.AperFunction,ComponentPad*%
%ADD17C,1.600000*%
%TD*%
%TA.AperFunction,ComponentPad*%
%ADD18O,2.400000X1.200000*%
%TD*%
%TA.AperFunction,ComponentPad*%
%ADD19C,1.574800*%
%TD*%
%TA.AperFunction,ComponentPad*%
%ADD20O,2.000000X1.200000*%
%TD*%
%TA.AperFunction,SMDPad,CuDef*%
%ADD21R,1.000000X0.300000*%
%TD*%
%TA.AperFunction,SMDPad,CuDef*%
%ADD22R,1.000000X0.600000*%
%TD*%
%TA.AperFunction,ComponentPad*%
%ADD23R,1.700000X1.700000*%
%TD*%
%TA.AperFunction,ComponentPad*%
%ADD24O,1.700000X1.700000*%
%TD*%
%TA.AperFunction,SMDPad,CuDef*%
%ADD25RoundRect,0.225000X-0.375000X0.225000X-0.375000X-0.225000X0.375000X-0.225000X0.375000X0.225000X0*%
%TD*%
%TA.AperFunction,ViaPad*%
%ADD26C,0.600000*%
%TD*%
%TA.AperFunction,Conductor*%
%ADD27C,0.200000*%
%TD*%
G04 APERTURE END LIST*
D10*
%TO.P,SW7,1,1*%
%TO.N,L_COL0*%
X218968446Y-74806448D03*
%TO.P,SW7,2,2*%
%TO.N,Net-(D7-A)*%
X216428446Y-88656448D03*
%TD*%
D11*
%TO.P,D20,1,K*%
%TO.N,L_ROW3*%
X116846404Y-122750000D03*
%TO.P,D20,2,A*%
%TO.N,Net-(D20-A)*%
X120146404Y-122750000D03*
%TD*%
D10*
%TO.P,SW6,1,1*%
%TO.N,L_COL5*%
X123218446Y-52548583D03*
%TO.P,SW6,2,2*%
%TO.N,Net-(D6-A)*%
X120678446Y-66398583D03*
%TD*%
%TO.P,SW4,1,1*%
%TO.N,L_COL3*%
X161381032Y-52548583D03*
%TO.P,SW4,2,2*%
%TO.N,Net-(D4-A)*%
X158841032Y-66398583D03*
%TD*%
D12*
%TO.P,B+1,1,1*%
%TO.N,Net-(SW-B1-B)*%
X101854986Y-117233902D03*
%TD*%
D13*
%TO.P,D10,1,K*%
%TO.N,L_ROW1*%
X165791740Y-79281597D03*
%TO.P,D10,2,A*%
%TO.N,Net-(D10-A)*%
X165791740Y-75981597D03*
%TD*%
D11*
%TO.P,D6,1,K*%
%TO.N,L_ROW0*%
X116398902Y-49863540D03*
%TO.P,D6,2,A*%
%TO.N,Net-(D6-A)*%
X119698902Y-49863540D03*
%TD*%
D13*
%TO.P,D11,1,K*%
%TO.N,L_ROW1*%
X146642240Y-82981415D03*
%TO.P,D11,2,A*%
%TO.N,Net-(D11-A)*%
X146642240Y-79681415D03*
%TD*%
D10*
%TO.P,SW15,1,1*%
%TO.N,L_COL2*%
X180668446Y-92282876D03*
%TO.P,SW15,2,2*%
%TO.N,Net-(D15-A)*%
X178128446Y-106132876D03*
%TD*%
D14*
%TO.P,SW-B1,1,A*%
%TO.N,L_POWER*%
X104420076Y-109694039D03*
%TO.P,SW-B1,2,B*%
%TO.N,Net-(SW-B1-B)*%
X95810076Y-109694039D03*
%TD*%
D15*
%TO.P,D2,1,K*%
%TO.N,L_ROW0*%
X195989303Y-49667616D03*
%TO.P,D2,2,A*%
%TO.N,Net-(D2-A)*%
X192689303Y-49667616D03*
%TD*%
D13*
%TO.P,D13,1,K*%
%TO.N,L_ROW2*%
X223738656Y-100486328D03*
%TO.P,D13,2,A*%
%TO.N,Net-(D13-A)*%
X223738656Y-97186328D03*
%TD*%
D16*
%TO.P,R1,1*%
%TO.N,GND*%
X106096404Y-63150000D03*
%TO.P,R1,2*%
%TO.N,L_BTSENSE*%
X106096404Y-61500000D03*
%TD*%
D17*
%TO.P,U1,1,P0.06*%
%TO.N,L_COL0*%
X222194034Y-112978200D03*
%TO.P,U1,2,P0.08*%
%TO.N,L_COL1*%
X219654034Y-112978200D03*
%TO.P,U1,3,GND*%
%TO.N,GND*%
X217114034Y-112978200D03*
%TO.P,U1,4,GND*%
X214574034Y-112978200D03*
%TO.P,U1,5,P0.17*%
%TO.N,L_SDA*%
X212034034Y-112978200D03*
%TO.P,U1,6,P0.20*%
%TO.N,L_SCL*%
X209494034Y-112978200D03*
%TO.P,U1,7,P0.22*%
%TO.N,L_COL2*%
X206954034Y-112978200D03*
%TO.P,U1,8,P0.24*%
%TO.N,L_COL3*%
X204414034Y-112978200D03*
%TO.P,U1,9,P1.00*%
%TO.N,L_COL4*%
X201874034Y-112978200D03*
%TO.P,U1,10,P0.11*%
%TO.N,L_COL5*%
X199334034Y-112978200D03*
%TO.P,U1,11,P1.04-LF*%
%TO.N,L_ROW0*%
X196794034Y-112978200D03*
%TO.P,U1,12,P1.06-LF*%
%TO.N,L_ROW1*%
X194254034Y-112978200D03*
%TO.P,U1,13,BAT+*%
%TO.N,unconnected-(U1-BAT+-Pad13)*%
X222194044Y-128218210D03*
%TO.P,U1,14,GND*%
%TO.N,GND*%
X219654044Y-128218210D03*
D18*
%TO.P,U1,15,RST*%
%TO.N,unconnected-(U1-RST-Pad15)*%
X224581404Y-126178200D03*
D17*
X217114044Y-128218210D03*
%TO.P,U1,16,3V3*%
%TO.N,VCC*%
X214574044Y-128218210D03*
%TO.P,U1,17,P0.31-LF*%
%TO.N,unconnected-(U1-P0.31-LF-Pad17)*%
X212034044Y-128218210D03*
%TO.P,U1,18,P0.29-LF*%
%TO.N,unconnected-(U1-P0.29-LF-Pad18)*%
X209494044Y-128218210D03*
%TO.P,U1,19,P0.02-LF*%
%TO.N,unconnected-(U1-P0.02-LF-Pad19)*%
X206954044Y-128218210D03*
%TO.P,U1,20,P1.15-LF*%
%TO.N,L_ROW3*%
X204414044Y-128218210D03*
%TO.P,U1,21,P1.13-LF*%
%TO.N,unconnected-(U1-P1.13-LF-Pad21)*%
X201874044Y-128218210D03*
%TO.P,U1,22,P1.11-LF*%
%TO.N,unconnected-(U1-P1.11-LF-Pad22)*%
X199334044Y-128218210D03*
%TO.P,U1,23,P0.10-LF*%
%TO.N,unconnected-(U1-P0.10-LF-Pad23)*%
X196794044Y-128218210D03*
%TO.P,U1,24,P0.09-LF*%
%TO.N,L_ROW2*%
X194254044Y-128218210D03*
D19*
%TO.P,U1,25,P1.01-LF*%
%TO.N,unconnected-(U1-P1.01-LF-Pad25)*%
X197348834Y-116058200D03*
%TO.P,U1,26,P1.02-LF*%
%TO.N,L_BTSENSE*%
X197348834Y-118598200D03*
%TO.P,U1,27,P1.07-LF*%
%TO.N,unconnected-(U1-P1.07-LF-Pad27)*%
X197348834Y-121138200D03*
D17*
%TO.P,U1,28,GND*%
%TO.N,GND*%
X224734034Y-112978200D03*
%TO.P,U1,29,BAT+*%
%TO.N,L_POWER*%
X224734044Y-128218210D03*
D20*
%TO.P,U1,30*%
%TO.N,N/C*%
X220581404Y-115018200D03*
D18*
%TO.P,U1,31*%
X224581404Y-115018200D03*
D20*
%TO.P,U1,32*%
X220581404Y-126178200D03*
D21*
%TO.P,U1,A5*%
X219716464Y-121848260D03*
%TO.P,U1,A6*%
X219716464Y-120848260D03*
%TO.P,U1,A7*%
X219716464Y-120348140D03*
%TO.P,U1,A8*%
X219716464Y-119348140D03*
D22*
%TO.P,U1,A9B4*%
X219716464Y-118188120D03*
%TO.P,U1,A12B1*%
X219716464Y-117388280D03*
D21*
%TO.P,U1,B5*%
X219716464Y-118848270D03*
%TO.P,U1,B6*%
X219716464Y-119848270D03*
%TO.P,U1,B7*%
X219716464Y-121348140D03*
%TO.P,U1,B8*%
X219716464Y-122348130D03*
D22*
%TO.P,U1,B9A4*%
X219716464Y-123008280D03*
%TO.P,U1,B12A1*%
X219716464Y-123808130D03*
%TD*%
D23*
%TO.P,OLED1,1,Pin_1*%
%TO.N,GND*%
X96619643Y-68500000D03*
D24*
%TO.P,OLED1,2,Pin_2*%
%TO.N,VCC*%
X99159643Y-68500000D03*
%TO.P,OLED1,3,Pin_3*%
%TO.N,L_SCL*%
X101699643Y-68500000D03*
%TO.P,OLED1,4,Pin_4*%
%TO.N,L_SDA*%
X104239643Y-68500000D03*
%TD*%
D16*
%TO.P,R2,1*%
%TO.N,L_BTSENSE*%
X101846404Y-63650000D03*
%TO.P,R2,2*%
%TO.N,Net-(SW-B1-B)*%
X101846404Y-62000000D03*
%TD*%
D10*
%TO.P,SW20,1,1*%
%TO.N,L_COL4*%
X123176404Y-104960000D03*
%TO.P,SW20,2,2*%
%TO.N,Net-(D20-A)*%
X120636404Y-118810000D03*
%TD*%
D13*
%TO.P,D8,1,K*%
%TO.N,L_ROW1*%
X203495560Y-78624960D03*
%TO.P,D8,2,A*%
%TO.N,Net-(D8-A)*%
X203495560Y-75324960D03*
%TD*%
%TO.P,D7,1,K*%
%TO.N,L_ROW1*%
X222994741Y-83125642D03*
%TO.P,D7,2,A*%
%TO.N,Net-(D7-A)*%
X222994741Y-79825642D03*
%TD*%
D15*
%TO.P,D14,1,K*%
%TO.N,L_ROW2*%
X194726877Y-105255922D03*
%TO.P,D14,2,A*%
%TO.N,Net-(D14-A)*%
X191426877Y-105255922D03*
%TD*%
D10*
%TO.P,SW11,1,1*%
%TO.N,L_COL4*%
X142231032Y-74806448D03*
%TO.P,SW11,2,2*%
%TO.N,Net-(D11-A)*%
X139691032Y-88656448D03*
%TD*%
D13*
%TO.P,D19,1,K*%
%TO.N,L_ROW3*%
X146846404Y-117550000D03*
%TO.P,D19,2,A*%
%TO.N,Net-(D19-A)*%
X146846404Y-114250000D03*
%TD*%
D10*
%TO.P,SW17,1,1*%
%TO.N,L_COL4*%
X142231032Y-92282876D03*
%TO.P,SW17,2,2*%
%TO.N,Net-(D17-A)*%
X139691032Y-106132876D03*
%TD*%
%TO.P,SW18,1,1*%
%TO.N,L_COL5*%
X123218446Y-87282876D03*
%TO.P,SW18,2,2*%
%TO.N,Net-(D18-A)*%
X120678446Y-101132876D03*
%TD*%
D13*
%TO.P,D12,1,K*%
%TO.N,L_ROW1*%
X127643286Y-78832007D03*
%TO.P,D12,2,A*%
%TO.N,Net-(D12-A)*%
X127643286Y-75532007D03*
%TD*%
%TO.P,D9,1,K*%
%TO.N,L_ROW1*%
X185091103Y-80180779D03*
%TO.P,D9,2,A*%
%TO.N,Net-(D9-A)*%
X185091103Y-76880779D03*
%TD*%
D25*
%TO.P,D21,1,K*%
%TO.N,L_ROW3*%
X133596404Y-132600000D03*
%TO.P,D21,2,A*%
%TO.N,Net-(D21-A)*%
X133596404Y-135900000D03*
%TD*%
D13*
%TO.P,D16,1,K*%
%TO.N,L_ROW2*%
X165628111Y-97130242D03*
%TO.P,D16,2,A*%
%TO.N,Net-(D16-A)*%
X165628111Y-93830242D03*
%TD*%
D10*
%TO.P,SW3,1,1*%
%TO.N,L_COL2*%
X180668446Y-57548583D03*
%TO.P,SW3,2,2*%
%TO.N,Net-(D3-A)*%
X178128446Y-71398583D03*
%TD*%
%TO.P,SW21,1,1*%
%TO.N,L_COL5*%
X128176404Y-126210000D03*
%TO.P,SW21,2,2*%
%TO.N,Net-(D21-A)*%
X125636404Y-140060000D03*
%TD*%
%TO.P,SW14,1,1*%
%TO.N,L_COL1*%
X199522690Y-87282876D03*
%TO.P,SW14,2,2*%
%TO.N,Net-(D14-A)*%
X196982690Y-101132876D03*
%TD*%
%TO.P,SW2,1,1*%
%TO.N,L_COL1*%
X199522690Y-52548583D03*
%TO.P,SW2,2,2*%
%TO.N,Net-(D2-A)*%
X196982690Y-66398583D03*
%TD*%
%TO.P,SW19,1,1*%
%TO.N,L_COL3*%
X142176404Y-109960000D03*
%TO.P,SW19,2,2*%
%TO.N,Net-(D19-A)*%
X139636404Y-123810000D03*
%TD*%
D13*
%TO.P,D17,1,K*%
%TO.N,L_ROW2*%
X146544536Y-97789789D03*
%TO.P,D17,2,A*%
%TO.N,Net-(D17-A)*%
X146544536Y-94489789D03*
%TD*%
D10*
%TO.P,SW5,1,1*%
%TO.N,L_COL4*%
X142231032Y-57548583D03*
%TO.P,SW5,2,2*%
%TO.N,Net-(D5-A)*%
X139691032Y-71398583D03*
%TD*%
%TO.P,SW10,1,1*%
%TO.N,L_COL3*%
X161381032Y-69806448D03*
%TO.P,SW10,2,2*%
%TO.N,Net-(D10-A)*%
X158841032Y-83656448D03*
%TD*%
%TO.P,SW1,1,1*%
%TO.N,L_COL0*%
X218968446Y-57548583D03*
%TO.P,SW1,2,2*%
%TO.N,Net-(D1-A)*%
X216428446Y-71398583D03*
%TD*%
D15*
%TO.P,D1,1,K*%
%TO.N,L_ROW0*%
X216085509Y-54729899D03*
%TO.P,D1,2,A*%
%TO.N,Net-(D1-A)*%
X212785509Y-54729899D03*
%TD*%
D11*
%TO.P,D15,1,K*%
%TO.N,L_ROW2*%
X173454366Y-109617711D03*
%TO.P,D15,2,A*%
%TO.N,Net-(D15-A)*%
X176754366Y-109617711D03*
%TD*%
D16*
%TO.P,R4,1*%
%TO.N,VCC*%
X92096404Y-63500000D03*
%TO.P,R4,2*%
%TO.N,L_SDA*%
X92096404Y-61850000D03*
%TD*%
D10*
%TO.P,SW16,1,1*%
%TO.N,L_COL3*%
X161381032Y-87282876D03*
%TO.P,SW16,2,2*%
%TO.N,Net-(D16-A)*%
X158841032Y-101132876D03*
%TD*%
%TO.P,SW8,1,1*%
%TO.N,L_COL1*%
X199522690Y-69806448D03*
%TO.P,SW8,2,2*%
%TO.N,Net-(D8-A)*%
X196982690Y-83656448D03*
%TD*%
%TO.P,SW13,1,1*%
%TO.N,L_COL0*%
X218968446Y-92282876D03*
%TO.P,SW13,2,2*%
%TO.N,Net-(D13-A)*%
X216428446Y-106132876D03*
%TD*%
D15*
%TO.P,D4,1,K*%
%TO.N,L_ROW0*%
X158297898Y-49852941D03*
%TO.P,D4,2,A*%
%TO.N,Net-(D4-A)*%
X154997898Y-49852941D03*
%TD*%
D13*
%TO.P,D18,1,K*%
%TO.N,L_ROW2*%
X127324870Y-95640733D03*
%TO.P,D18,2,A*%
%TO.N,Net-(D18-A)*%
X127324870Y-92340733D03*
%TD*%
D12*
%TO.P,B-1,1,1*%
%TO.N,GND*%
X98304986Y-117233902D03*
%TD*%
D10*
%TO.P,SW12,1,1*%
%TO.N,L_COL5*%
X123218446Y-69806448D03*
%TO.P,SW12,2,2*%
%TO.N,Net-(D12-A)*%
X120678446Y-83656448D03*
%TD*%
D16*
%TO.P,R3,1*%
%TO.N,VCC*%
X97096404Y-62900000D03*
%TO.P,R3,2*%
%TO.N,L_SCL*%
X97096404Y-61250000D03*
%TD*%
D11*
%TO.P,D5,1,K*%
%TO.N,L_ROW0*%
X135236697Y-54828233D03*
%TO.P,D5,2,A*%
%TO.N,Net-(D5-A)*%
X138536697Y-54828233D03*
%TD*%
D10*
%TO.P,SW9,1,1*%
%TO.N,L_COL2*%
X180668446Y-74806448D03*
%TO.P,SW9,2,2*%
%TO.N,Net-(D9-A)*%
X178128446Y-88656448D03*
%TD*%
D11*
%TO.P,D3,1,K*%
%TO.N,L_ROW0*%
X174069326Y-54812603D03*
%TO.P,D3,2,A*%
%TO.N,Net-(D3-A)*%
X177369326Y-54812603D03*
%TD*%
D26*
%TO.N,GND*%
X104927568Y-98847979D03*
X111614701Y-103036623D03*
X206704261Y-123024536D03*
X188773926Y-123906356D03*
X107352572Y-99509344D03*
%TO.N,L_BTSENSE*%
X193660275Y-123143804D03*
X109806182Y-104139278D03*
%TO.N,L_POWER*%
X105482877Y-110894441D03*
%TO.N,L_SDA*%
X181609323Y-117213269D03*
%TO.N,L_SCL*%
X95476782Y-61566420D03*
X187256594Y-127071920D03*
X93081378Y-65026448D03*
%TO.N,L_COL3*%
X197751841Y-108340407D03*
%TO.N,L_COL0*%
X220683936Y-111468102D03*
%TO.N,L_ROW0*%
X199923490Y-110512057D03*
X206177840Y-109730263D03*
%TO.N,L_ROW1*%
X190020770Y-105647562D03*
%TO.N,L_COL4*%
X194016604Y-108687871D03*
%TO.N,L_ROW2*%
X181334173Y-112596840D03*
%TO.N,GND*%
X105942169Y-97930556D03*
%TO.N,Net-(D1-A)*%
X213722951Y-71237303D03*
%TO.N,L_ROW0*%
X211200219Y-108179016D03*
X214766624Y-107947432D03*
%TO.N,Net-(D2-A)*%
X194440490Y-66354328D03*
%TO.N,Net-(D3-A)*%
X175607239Y-71399958D03*
%TO.N,Net-(D4-A)*%
X156268878Y-66454227D03*
%TO.N,Net-(D5-A)*%
X137166530Y-71349818D03*
%TO.N,Net-(D6-A)*%
X118191726Y-66546070D03*
%TO.N,Net-(D7-A)*%
X213588637Y-88832489D03*
%TO.N,L_ROW1*%
X164820289Y-78020364D03*
X184003072Y-82078188D03*
X221632430Y-84960437D03*
X145843818Y-85244908D03*
X189662839Y-104705245D03*
X219951118Y-83359187D03*
X182161635Y-81998126D03*
X162604762Y-78309345D03*
X202257314Y-77594690D03*
X200495939Y-77674753D03*
X143724619Y-82836727D03*
%TO.N,Net-(D8-A)*%
X204979437Y-75993441D03*
X200576002Y-81437688D03*
X194491255Y-83519312D03*
%TO.N,Net-(D9-A)*%
X186485008Y-78075065D03*
X182241698Y-86161374D03*
X175940659Y-88459948D03*
%TO.N,Net-(D10-A)*%
X162797417Y-83607345D03*
X156657868Y-83680928D03*
X167132144Y-77442400D03*
%TO.N,Net-(D11-A)*%
X136982961Y-88522982D03*
X148155673Y-81584472D03*
X143531964Y-88616363D03*
%TO.N,Net-(D12-A)*%
X126388547Y-80210552D03*
X118351851Y-83599375D03*
X124455067Y-81069876D03*
%TO.N,L_ROW2*%
X163026706Y-93767308D03*
X164948205Y-92085996D03*
X145573089Y-99451743D03*
X143171215Y-99211555D03*
%TO.N,Net-(D13-A)*%
X213866371Y-106096927D03*
%TO.N,Net-(D14-A)*%
X194334330Y-101074339D03*
X194475564Y-103833143D03*
X192738600Y-104905974D03*
%TO.N,Net-(D15-A)*%
X175440529Y-105964499D03*
%TO.N,Net-(D16-A)*%
X162706456Y-97690369D03*
X156268878Y-101018769D03*
X164547893Y-95128370D03*
%TO.N,Net-(D17-A)*%
X136772049Y-106133501D03*
%TO.N,Net-(D18-A)*%
X124785145Y-96285099D03*
X126446132Y-94149544D03*
X118351851Y-101052992D03*
%TO.N,Net-(D19-A)*%
X137359978Y-123661051D03*
%TO.N,L_ROW3*%
X187525820Y-123870794D03*
X186805258Y-122109420D03*
%TO.N,Net-(D20-A)*%
X117938525Y-118665314D03*
%TO.N,Net-(D21-A)*%
X123184105Y-140099032D03*
%TO.N,L_BTSENSE*%
X108744355Y-70389068D03*
X106822856Y-62222697D03*
%TO.N,L_COL0*%
X213786308Y-91605621D03*
X214026496Y-74071942D03*
X221528898Y-96599780D03*
X216108120Y-56538262D03*
X221436264Y-105909486D03*
%TO.N,L_COL1*%
X194289683Y-86562488D03*
X206197989Y-88679582D03*
X207587497Y-101879912D03*
X196252629Y-51574389D03*
X194515992Y-68819643D03*
%TO.N,L_COL3*%
X156135471Y-68993454D03*
X158971259Y-51852851D03*
X192812392Y-103130469D03*
X137130101Y-109141136D03*
X196795649Y-105909486D03*
X156060067Y-86411681D03*
%TO.N,L_COL4*%
X144612339Y-73111192D03*
X155619884Y-85205811D03*
X187532260Y-102065179D03*
X164836956Y-85344762D03*
X179889964Y-86363735D03*
X187671211Y-105122098D03*
X184012172Y-85020543D03*
X144772464Y-58860073D03*
X117938525Y-104486463D03*
X124547861Y-101900818D03*
X136907557Y-73970090D03*
X173127690Y-90578577D03*
X139779684Y-57295238D03*
X182066860Y-83723669D03*
X136986880Y-91596599D03*
%TO.N,L_COL5*%
X120835211Y-52227676D03*
X190007757Y-113302549D03*
%TO.N,L_COL2*%
X191469200Y-110726448D03*
X175885089Y-74234028D03*
X178830299Y-57340747D03*
X175773949Y-91405159D03*
X182622664Y-92384938D03*
X186744872Y-105816852D03*
%TD*%
D27*
%TO.N,GND*%
X111614701Y-103036623D02*
X107352572Y-99509344D01*
X206704261Y-123024536D02*
X199300000Y-123900000D01*
X199300000Y-123900000D02*
X188773926Y-123906356D01*
X104927568Y-98847979D02*
X105942169Y-97930556D01*
%TO.N,L_BTSENSE*%
X147350000Y-121950000D02*
X193660275Y-123143804D01*
X109806182Y-104139278D02*
X114150000Y-141700000D01*
X127900000Y-143150000D02*
X138250000Y-132500000D01*
X114150000Y-141700000D02*
X127900000Y-143150000D01*
X138250000Y-132500000D02*
X147350000Y-121950000D01*
%TO.N,L_POWER*%
X105482877Y-110894441D02*
X104420076Y-109694039D01*
%TO.N,L_SDA*%
X195800000Y-122700000D02*
X202950000Y-122900000D01*
X181609323Y-117213269D02*
X195800000Y-122700000D01*
X202950000Y-122900000D02*
X212034034Y-112978200D01*
%TO.N,L_SCL*%
X95476782Y-61566420D02*
X97096404Y-61250000D01*
X146950000Y-124650000D02*
X128750000Y-144650000D01*
X92150000Y-69400000D02*
X93081378Y-65026448D01*
X187256594Y-127071920D02*
X182250000Y-123550000D01*
X109750000Y-139650000D02*
X92350000Y-117250000D01*
X112500000Y-143050000D02*
X109750000Y-139650000D01*
X182250000Y-123550000D02*
X146950000Y-124650000D01*
X128750000Y-144650000D02*
X112500000Y-143050000D01*
X92350000Y-117250000D02*
X92150000Y-69400000D01*
%TO.N,L_COL3*%
X196795649Y-105909486D02*
X197751841Y-108340407D01*
%TO.N,L_COL1*%
X215750000Y-110850000D02*
X218250000Y-110950000D01*
X207587497Y-101879912D02*
X215750000Y-110850000D01*
X218250000Y-110950000D02*
X219654034Y-112978200D01*
%TO.N,L_COL0*%
X221436264Y-105909486D02*
X220683936Y-111468102D01*
%TO.N,L_ROW0*%
X211200219Y-108179016D02*
X206177840Y-109730263D01*
X199923490Y-110512057D02*
X196794034Y-112978200D01*
%TO.N,L_ROW1*%
X189662839Y-104705245D02*
X190020770Y-105647562D01*
%TO.N,L_COL4*%
X187671211Y-105122098D02*
X194016604Y-108687871D01*
%TO.N,L_COL2*%
X194950000Y-109450000D02*
X204550000Y-109550000D01*
X191469200Y-110726448D02*
X194950000Y-109450000D01*
X204550000Y-109550000D02*
X206954034Y-112978200D01*
%TO.N,L_ROW2*%
X180250000Y-111000000D02*
X181334173Y-112596840D01*
%TO.N,L_COL5*%
X194200000Y-114250000D02*
X198800000Y-114350000D01*
X190007757Y-113302549D02*
X194200000Y-114250000D01*
X198800000Y-114350000D02*
X199334034Y-112978200D01*
%TO.N,L_ROW3*%
X202900000Y-134050000D02*
X204450000Y-132250000D01*
X187525820Y-123870794D02*
X190650000Y-133700000D01*
X190650000Y-133700000D02*
X202900000Y-134050000D01*
X204450000Y-132250000D02*
X204414044Y-128218210D01*
%TO.N,unconnected-(U1-RST-Pad15)*%
X223401731Y-129503269D02*
X223401731Y-127357873D01*
X218950834Y-130055000D02*
X222850000Y-130055000D01*
X217114044Y-128218210D02*
X218950834Y-130055000D01*
X223401731Y-127357873D02*
X224581404Y-126178200D01*
X222850000Y-130055000D02*
X223401731Y-129503269D01*
%TO.N,Net-(SW-B1-B)*%
X103746404Y-60100000D02*
X106600000Y-60100000D01*
X106600000Y-60100000D02*
X107500000Y-61000000D01*
X101854986Y-115738949D02*
X95810076Y-109694039D01*
X107500000Y-98004115D02*
X95810076Y-109694039D01*
X107500000Y-61000000D02*
X107500000Y-98004115D01*
X101854986Y-117233902D02*
X101854986Y-115738949D01*
X101846404Y-62000000D02*
X103746404Y-60100000D01*
%TO.N,GND*%
X98304986Y-117233902D02*
X98233902Y-117233902D01*
X98233902Y-117233902D02*
X93250000Y-112250000D01*
X98619643Y-70500000D02*
X96619643Y-68500000D01*
X106096404Y-63150000D02*
X106096404Y-69353596D01*
X106096404Y-97776321D02*
X105942169Y-97930556D01*
X93250000Y-71869643D02*
X96619643Y-68500000D01*
X93250000Y-112250000D02*
X93250000Y-71869643D01*
X106096404Y-69353596D02*
X104950000Y-70500000D01*
X104950000Y-70500000D02*
X98619643Y-70500000D01*
X106096404Y-69353596D02*
X106096404Y-97776321D01*
%TO.N,Net-(D1-A)*%
X216428446Y-71398583D02*
X213884231Y-71398583D01*
X216750000Y-62750000D02*
X219800000Y-65800000D01*
X219800000Y-69800000D02*
X218201417Y-71398583D01*
X219800000Y-65800000D02*
X219800000Y-69800000D01*
X212785509Y-54785509D02*
X216750000Y-58750000D01*
X212785509Y-54729899D02*
X212785509Y-54785509D01*
X218201417Y-71398583D02*
X216428446Y-71398583D01*
X216750000Y-58750000D02*
X216750000Y-62750000D01*
X213884231Y-71398583D02*
X213722951Y-71237303D01*
%TO.N,L_ROW0*%
X172900000Y-47900000D02*
X174069326Y-54812603D01*
X117550000Y-48300000D02*
X132200000Y-48250000D01*
X218202568Y-107947432D02*
X214766624Y-107947432D01*
X225650000Y-61100000D02*
X225650000Y-101100000D01*
X138700000Y-46550000D02*
X156000000Y-46350000D01*
X198350000Y-46350000D02*
X213150000Y-48100000D01*
X172900000Y-47900000D02*
X174400000Y-46150000D01*
X157850000Y-47750000D02*
X159200000Y-46150000D01*
X158297898Y-49852941D02*
X157850000Y-47750000D01*
X225650000Y-101100000D02*
X225050000Y-101100000D01*
X219279899Y-54729899D02*
X225650000Y-61100000D01*
X213150000Y-48100000D02*
X216085509Y-54729899D01*
X170900000Y-46250000D02*
X172900000Y-47900000D01*
X192150000Y-46350000D02*
X195989303Y-49667616D01*
X135350000Y-51000000D02*
X135236697Y-54828233D01*
X135350000Y-51000000D02*
X138700000Y-46550000D01*
X116398902Y-49863540D02*
X117550000Y-48300000D01*
X195989303Y-49667616D02*
X198350000Y-46350000D01*
X225050000Y-101100000D02*
X218202568Y-107947432D01*
X159200000Y-46150000D02*
X170900000Y-46250000D01*
X156000000Y-46350000D02*
X157850000Y-47750000D01*
X216085509Y-54729899D02*
X219279899Y-54729899D01*
X132200000Y-48250000D02*
X135350000Y-51000000D01*
X174400000Y-46150000D02*
X192150000Y-46350000D01*
%TO.N,Net-(D2-A)*%
X196850000Y-53700000D02*
X196850000Y-57050000D01*
X196982690Y-66398583D02*
X196938435Y-66354328D01*
X192689303Y-49667616D02*
X192817616Y-49667616D01*
X192817616Y-49667616D02*
X196850000Y-53700000D01*
X199900000Y-63481273D02*
X196982690Y-66398583D01*
X199900000Y-60100000D02*
X199900000Y-63481273D01*
X196850000Y-57050000D02*
X199900000Y-60100000D01*
X196938435Y-66354328D02*
X194440490Y-66354328D01*
%TO.N,Net-(D3-A)*%
X177369326Y-61019326D02*
X180750000Y-64400000D01*
X175607239Y-71399958D02*
X178127071Y-71399958D01*
X177369326Y-54812603D02*
X177369326Y-61019326D01*
X180750000Y-64400000D02*
X180750000Y-68777029D01*
X178127071Y-71399958D02*
X178128446Y-71398583D01*
X180750000Y-68777029D02*
X178128446Y-71398583D01*
%TO.N,Net-(D4-A)*%
X161250000Y-65650000D02*
X159589615Y-65650000D01*
X158785388Y-66454227D02*
X158841032Y-66398583D01*
X161250000Y-59450000D02*
X161250000Y-65650000D01*
X158250000Y-53150000D02*
X158250000Y-56450000D01*
X159589615Y-65650000D02*
X158841032Y-66398583D01*
X154997898Y-49852941D02*
X154997898Y-49897898D01*
X156268878Y-66454227D02*
X158785388Y-66454227D01*
X158250000Y-56450000D02*
X161250000Y-59450000D01*
X154997898Y-49897898D02*
X158250000Y-53150000D01*
%TO.N,Net-(D5-A)*%
X138536697Y-54828233D02*
X144550000Y-54900000D01*
X145600000Y-55700000D02*
X145650000Y-71000000D01*
X144900000Y-71750000D02*
X139691032Y-71398583D01*
X145650000Y-71000000D02*
X144900000Y-71750000D01*
X137215295Y-71398583D02*
X137166530Y-71349818D01*
X139691032Y-71398583D02*
X137215295Y-71398583D01*
X144550000Y-54900000D02*
X145600000Y-55700000D01*
%TO.N,Net-(D6-A)*%
X119698902Y-49863540D02*
X120050000Y-56300000D01*
X120530959Y-66546070D02*
X120678446Y-66398583D01*
X120050000Y-56300000D02*
X123200000Y-60950000D01*
X118191726Y-66546070D02*
X120530959Y-66546070D01*
X123250000Y-64150000D02*
X120678446Y-66398583D01*
X123200000Y-60950000D02*
X123250000Y-64150000D01*
%TO.N,Net-(D7-A)*%
X222994741Y-79825642D02*
X220750000Y-82070383D01*
X216428446Y-88656448D02*
X213764678Y-88656448D01*
X220750000Y-84334894D02*
X216428446Y-88656448D01*
X220750000Y-82070383D02*
X220750000Y-84334894D01*
X213764678Y-88656448D02*
X213588637Y-88832489D01*
%TO.N,L_ROW1*%
X212500000Y-78150000D02*
X212600000Y-78250000D01*
X155100000Y-73100000D02*
X157395417Y-73100000D01*
X146600000Y-83023655D02*
X146642240Y-82981415D01*
X222489563Y-84960437D02*
X222994741Y-84455259D01*
X208100000Y-81900000D02*
X208800000Y-81900000D01*
X143511346Y-83050000D02*
X143724619Y-82836727D01*
X137800000Y-78000000D02*
X142850000Y-83050000D01*
X203495560Y-78624960D02*
X204824960Y-78624960D01*
X150200000Y-78000000D02*
X155100000Y-73100000D01*
X185091103Y-80180779D02*
X185819221Y-80180779D01*
X136200000Y-78000000D02*
X137800000Y-78000000D01*
X180250000Y-81900000D02*
X182063509Y-81900000D01*
X150200000Y-81400000D02*
X150200000Y-78000000D01*
X145843818Y-85244908D02*
X146600000Y-84488726D01*
X157395417Y-73100000D02*
X162604762Y-78309345D01*
X208800000Y-81900000D02*
X212500000Y-78200000D01*
X195921186Y-73100000D02*
X200495939Y-77674753D01*
X131000000Y-75500000D02*
X133700000Y-75500000D01*
X166381597Y-79281597D02*
X168950000Y-81850000D01*
X221632430Y-84960437D02*
X222489563Y-84960437D01*
X173600000Y-78500000D02*
X176850000Y-78500000D01*
X176850000Y-78500000D02*
X180250000Y-81900000D01*
X212600000Y-78250000D02*
X215400000Y-78250000D01*
X222994741Y-84455259D02*
X222994741Y-83125642D01*
X182063509Y-81900000D02*
X182161635Y-81998126D01*
X170250000Y-81850000D02*
X173600000Y-78500000D01*
X219951118Y-82801118D02*
X219951118Y-83359187D01*
X202257314Y-77594690D02*
X202465290Y-77594690D01*
X127667993Y-78832007D02*
X131000000Y-75500000D01*
X185819221Y-80180779D02*
X192900000Y-73100000D01*
X212500000Y-78200000D02*
X212500000Y-78150000D01*
X184003072Y-82078188D02*
X184003072Y-81268810D01*
X133700000Y-75500000D02*
X136200000Y-78000000D01*
X204824960Y-78624960D02*
X208100000Y-81900000D01*
X192900000Y-73100000D02*
X195921186Y-73100000D01*
X142850000Y-83050000D02*
X143511346Y-83050000D01*
X184003072Y-81268810D02*
X185091103Y-80180779D01*
X202465290Y-77594690D02*
X203495560Y-78624960D01*
X127643286Y-78832007D02*
X127667993Y-78832007D01*
X165791740Y-79281597D02*
X166381597Y-79281597D01*
X148618585Y-82981415D02*
X150200000Y-81400000D01*
X146600000Y-84488726D02*
X146600000Y-83023655D01*
X164820289Y-78310146D02*
X165791740Y-79281597D01*
X146642240Y-82981415D02*
X148618585Y-82981415D01*
X168950000Y-81850000D02*
X170250000Y-81850000D01*
X215400000Y-78250000D02*
X219951118Y-82801118D01*
X164820289Y-78020364D02*
X164820289Y-78310146D01*
%TO.N,Net-(D8-A)*%
X194628391Y-83656448D02*
X194491255Y-83519312D01*
X196982690Y-83656448D02*
X199201450Y-81437688D01*
X199201450Y-81437688D02*
X200576002Y-81437688D01*
X196982690Y-83656448D02*
X194628391Y-83656448D01*
X204979437Y-75993441D02*
X204164041Y-75993441D01*
X204164041Y-75993441D02*
X203495560Y-75324960D01*
%TO.N,Net-(D9-A)*%
X179746624Y-88656448D02*
X182241698Y-86161374D01*
X186285389Y-78075065D02*
X185091103Y-76880779D01*
X186485008Y-78075065D02*
X186285389Y-78075065D01*
X175940659Y-88459948D02*
X177931946Y-88459948D01*
X178128446Y-88656448D02*
X179746624Y-88656448D01*
X177931946Y-88459948D02*
X178128446Y-88656448D01*
%TO.N,Net-(D10-A)*%
X167132144Y-77322001D02*
X165791740Y-75981597D01*
X167132144Y-77442400D02*
X167132144Y-77322001D01*
X162748314Y-83656448D02*
X162797417Y-83607345D01*
X158816552Y-83680928D02*
X158841032Y-83656448D01*
X158841032Y-83656448D02*
X162748314Y-83656448D01*
X156657868Y-83680928D02*
X158816552Y-83680928D01*
%TO.N,Net-(D11-A)*%
X148155673Y-81584472D02*
X148155673Y-81194848D01*
X137116427Y-88656448D02*
X136982961Y-88522982D01*
X139691032Y-88656448D02*
X137116427Y-88656448D01*
X148155673Y-81194848D02*
X146642240Y-79681415D01*
X143491879Y-88656448D02*
X143531964Y-88616363D01*
X139691032Y-88656448D02*
X143491879Y-88656448D01*
%TO.N,Net-(D12-A)*%
X118351851Y-83599375D02*
X120621373Y-83599375D01*
X120621373Y-83599375D02*
X120678446Y-83656448D01*
X126388547Y-76786746D02*
X127643286Y-75532007D01*
X126388547Y-80210552D02*
X126388547Y-76786746D01*
X121868495Y-83656448D02*
X124455067Y-81069876D01*
X120678446Y-83656448D02*
X121868495Y-83656448D01*
%TO.N,L_ROW2*%
X202255922Y-105255922D02*
X194726877Y-105255922D01*
X224200000Y-94900000D02*
X220850000Y-98250000D01*
X223738656Y-100486328D02*
X225150000Y-99074984D01*
X225150000Y-99074984D02*
X225150000Y-95750000D01*
X132800000Y-98650000D02*
X135650000Y-95800000D01*
X145573089Y-98761236D02*
X146544536Y-97789789D01*
X174836655Y-111000000D02*
X180250000Y-111000000D01*
X135650000Y-95800000D02*
X135650000Y-95750000D01*
X166358353Y-96400000D02*
X165628111Y-97130242D01*
X142859660Y-98900000D02*
X143171215Y-99211555D01*
X187300000Y-103950000D02*
X193420955Y-103950000D01*
X148010211Y-97789789D02*
X154850000Y-90950000D01*
X224300000Y-94900000D02*
X224200000Y-94900000D01*
X138750000Y-95750000D02*
X141650000Y-98650000D01*
X215150000Y-95450000D02*
X212350000Y-95450000D01*
X166850000Y-96400000D02*
X166358353Y-96400000D01*
X165628111Y-97130242D02*
X165628111Y-101791456D01*
X220850000Y-98250000D02*
X217950000Y-98250000D01*
X158400000Y-90950000D02*
X161217308Y-93767308D01*
X141650000Y-98900000D02*
X142859660Y-98900000D01*
X202400000Y-105400000D02*
X202255922Y-105255922D01*
X141650000Y-98650000D02*
X141650000Y-98900000D01*
X154850000Y-90950000D02*
X158400000Y-90950000D01*
X217950000Y-98250000D02*
X215150000Y-95450000D01*
X165034201Y-92000000D02*
X166300000Y-92000000D01*
X127990733Y-95640733D02*
X131000000Y-98650000D01*
X146544536Y-97789789D02*
X148010211Y-97789789D01*
X131000000Y-98650000D02*
X132800000Y-98650000D01*
X165628111Y-101791456D02*
X173454366Y-109617711D01*
X161217308Y-93767308D02*
X163026706Y-93767308D01*
X193420955Y-103950000D02*
X194726877Y-105255922D01*
X135650000Y-95750000D02*
X138750000Y-95750000D01*
X180250000Y-111000000D02*
X187300000Y-103950000D01*
X127324870Y-95640733D02*
X127990733Y-95640733D01*
X145573089Y-99451743D02*
X145573089Y-98761236D01*
X164948205Y-92085996D02*
X165034201Y-92000000D01*
X225150000Y-95750000D02*
X224300000Y-94900000D01*
X166300000Y-92000000D02*
X166850000Y-92550000D01*
X173454366Y-109617711D02*
X174836655Y-111000000D01*
X212350000Y-95450000D02*
X202400000Y-105400000D01*
X166850000Y-92550000D02*
X166850000Y-96400000D01*
%TO.N,Net-(D13-A)*%
X219150000Y-101700000D02*
X219150000Y-103411322D01*
X223738656Y-97186328D02*
X219224984Y-101700000D01*
X216428446Y-106132876D02*
X216392497Y-106096927D01*
X216392497Y-106096927D02*
X213866371Y-106096927D01*
X219224984Y-101700000D02*
X219150000Y-101700000D01*
X219150000Y-103411322D02*
X216428446Y-106132876D01*
%TO.N,Net-(D14-A)*%
X196924153Y-101074339D02*
X196982690Y-101132876D01*
X194475564Y-103833143D02*
X194475564Y-101215573D01*
X191776825Y-104905974D02*
X192738600Y-104905974D01*
X194475564Y-101215573D02*
X194334330Y-101074339D01*
X191426877Y-105255922D02*
X191776825Y-104905974D01*
X194334330Y-101074339D02*
X196924153Y-101074339D01*
%TO.N,Net-(D15-A)*%
X176754366Y-107506956D02*
X176754366Y-109617711D01*
X177960069Y-105964499D02*
X178128446Y-106132876D01*
X178128446Y-106132876D02*
X176754366Y-107506956D01*
X175440529Y-105964499D02*
X177960069Y-105964499D01*
%TO.N,Net-(D16-A)*%
X158841032Y-101132876D02*
X162283539Y-97690369D01*
X156268878Y-101018769D02*
X158726925Y-101018769D01*
X162283539Y-97690369D02*
X162706456Y-97690369D01*
X164547893Y-94910460D02*
X165628111Y-93830242D01*
X158726925Y-101018769D02*
X158841032Y-101132876D01*
X164547893Y-95128370D02*
X164547893Y-94910460D01*
%TO.N,Net-(D17-A)*%
X144600000Y-96434325D02*
X144600000Y-103350000D01*
X144600000Y-103350000D02*
X141817124Y-106132876D01*
X136772674Y-106132876D02*
X136772049Y-106133501D01*
X141817124Y-106132876D02*
X139691032Y-106132876D01*
X146544536Y-94489789D02*
X144600000Y-96434325D01*
X139691032Y-106132876D02*
X136772674Y-106132876D01*
%TO.N,Net-(D18-A)*%
X126446132Y-93219471D02*
X127324870Y-92340733D01*
X120678446Y-100391798D02*
X124785145Y-96285099D01*
X120678446Y-101132876D02*
X120678446Y-100391798D01*
X120598562Y-101052992D02*
X120678446Y-101132876D01*
X118351851Y-101052992D02*
X120598562Y-101052992D01*
X126446132Y-94149544D02*
X126446132Y-93219471D01*
%TO.N,Net-(D19-A)*%
X141800000Y-121646404D02*
X139636404Y-123810000D01*
X141800000Y-120100000D02*
X141800000Y-121646404D01*
X137508927Y-123810000D02*
X137359978Y-123661051D01*
X146846404Y-115053596D02*
X141800000Y-120100000D01*
X146846404Y-114250000D02*
X146846404Y-115053596D01*
X139636404Y-123810000D02*
X137508927Y-123810000D01*
%TO.N,L_ROW3*%
X124350000Y-129350000D02*
X127650000Y-132650000D01*
X135150000Y-132600000D02*
X146750000Y-121000000D01*
X146750000Y-117646404D02*
X146846404Y-117550000D01*
X116846404Y-124646404D02*
X121550000Y-129350000D01*
X133596404Y-132600000D02*
X135150000Y-132600000D01*
X146750000Y-121000000D02*
X185695838Y-121000000D01*
X121550000Y-129350000D02*
X124350000Y-129350000D01*
X116846404Y-122750000D02*
X116846404Y-124646404D01*
X185695838Y-121000000D02*
X186805258Y-122109420D01*
X127650000Y-132650000D02*
X133546404Y-132650000D01*
X146750000Y-121000000D02*
X146750000Y-117646404D01*
X133546404Y-132650000D02*
X133596404Y-132600000D01*
%TO.N,Net-(D20-A)*%
X120146404Y-122750000D02*
X120146404Y-119300000D01*
X120491718Y-118665314D02*
X117938525Y-118665314D01*
X120146404Y-119300000D02*
X120636404Y-118810000D01*
X120636404Y-118810000D02*
X120491718Y-118665314D01*
%TO.N,Net-(D21-A)*%
X125636404Y-140060000D02*
X123223137Y-140060000D01*
X133596404Y-135900000D02*
X129796404Y-135900000D01*
X129796404Y-135900000D02*
X125636404Y-140060000D01*
X123223137Y-140060000D02*
X123184105Y-140099032D01*
%TO.N,L_SDA*%
X94300000Y-59700000D02*
X97400000Y-59700000D01*
X99650000Y-62899311D02*
X104239643Y-67488954D01*
X92346404Y-62100000D02*
X92096404Y-61850000D01*
X97400000Y-59700000D02*
X99650000Y-61950000D01*
X92096404Y-61850000D02*
X92150000Y-61850000D01*
X93100000Y-62100000D02*
X92346404Y-62100000D01*
X99650000Y-61950000D02*
X99650000Y-62899311D01*
X104239643Y-67488954D02*
X104239643Y-68500000D01*
X92150000Y-61850000D02*
X94300000Y-59700000D01*
%TO.N,L_SCL*%
X101699643Y-65853239D02*
X101699643Y-68500000D01*
X97096404Y-61250000D02*
X101699643Y-65853239D01*
%TO.N,VCC*%
X94159643Y-63500000D02*
X99159643Y-68500000D01*
X92096404Y-63500000D02*
X94159643Y-63500000D01*
X97096404Y-62900000D02*
X94759643Y-62900000D01*
X94759643Y-62900000D02*
X94159643Y-63500000D01*
%TO.N,L_BTSENSE*%
X101846404Y-63650000D02*
X103996404Y-61500000D01*
X106819101Y-62222697D02*
X106822856Y-62222697D01*
X106096404Y-61500000D02*
X106819101Y-62222697D01*
X103996404Y-61500000D02*
X106096404Y-61500000D01*
%TO.N,L_COL0*%
X221650000Y-60230137D02*
X221650000Y-72124894D01*
X218968446Y-92282876D02*
X221528898Y-94843328D01*
X218968446Y-57548583D02*
X217958125Y-56538262D01*
X218291191Y-91605621D02*
X213786308Y-91605621D01*
X218968446Y-57548583D02*
X221650000Y-60230137D01*
X220867124Y-92282876D02*
X218968446Y-92282876D01*
X218233940Y-74071942D02*
X214026496Y-74071942D01*
X218968446Y-92282876D02*
X218291191Y-91605621D01*
X218968446Y-74806448D02*
X219956448Y-74806448D01*
X221650000Y-72124894D02*
X218968446Y-74806448D01*
X224200000Y-79050000D02*
X224200000Y-88950000D01*
X224200000Y-88950000D02*
X220867124Y-92282876D01*
X218968446Y-74806448D02*
X218233940Y-74071942D01*
X221528898Y-94843328D02*
X221528898Y-96599780D01*
X219956448Y-74806448D02*
X224200000Y-79050000D01*
X217958125Y-56538262D02*
X216108120Y-56538262D01*
%TO.N,L_COL1*%
X199522690Y-69972690D02*
X201500000Y-71950000D01*
X199522690Y-69806448D02*
X198535885Y-68819643D01*
X202600000Y-54750000D02*
X202600000Y-66729138D01*
X201500000Y-71950000D02*
X201500000Y-85305566D01*
X199522690Y-87282876D02*
X198802302Y-86562488D01*
X198535885Y-68819643D02*
X194515992Y-68819643D01*
X199522690Y-52548583D02*
X200398583Y-52548583D01*
X206197989Y-88679582D02*
X204874016Y-88679582D01*
X199522690Y-52548583D02*
X198548496Y-51574389D01*
X202600000Y-66729138D02*
X199522690Y-69806448D01*
X200398583Y-52548583D02*
X202600000Y-54750000D01*
X199522690Y-69806448D02*
X199522690Y-69972690D01*
X198548496Y-51574389D02*
X196252629Y-51574389D01*
X204874016Y-88679582D02*
X201500000Y-85305566D01*
X201500000Y-85305566D02*
X199522690Y-87282876D01*
X198802302Y-86562488D02*
X194289683Y-86562488D01*
%TO.N,L_COL3*%
X160509837Y-86411681D02*
X156060067Y-86411681D01*
X184600000Y-103200000D02*
X176900000Y-95500000D01*
X161381032Y-87282876D02*
X163850000Y-89751844D01*
X162006448Y-69806448D02*
X163900000Y-71700000D01*
X173650000Y-95500000D02*
X167900000Y-89750000D01*
X142176404Y-109960000D02*
X141357540Y-109141136D01*
X141357540Y-109141136D02*
X137130101Y-109141136D01*
X163900000Y-84763908D02*
X161381032Y-87282876D01*
X164650000Y-53900000D02*
X164650000Y-66537480D01*
X162700000Y-103750000D02*
X148386404Y-103750000D01*
X164650000Y-66537480D02*
X161381032Y-69806448D01*
X167900000Y-89750000D02*
X167898156Y-89751844D01*
X161381032Y-87282876D02*
X160509837Y-86411681D01*
X161381032Y-69806448D02*
X160568038Y-68993454D01*
X148386404Y-103750000D02*
X142176404Y-109960000D01*
X192742861Y-103200000D02*
X184600000Y-103200000D01*
X163850000Y-102600000D02*
X162700000Y-103750000D01*
X167898156Y-89751844D02*
X163850000Y-89751844D01*
X192812392Y-103130469D02*
X192742861Y-103200000D01*
X176900000Y-95500000D02*
X173650000Y-95500000D01*
X160568038Y-68993454D02*
X156135471Y-68993454D01*
X163900000Y-71700000D02*
X163900000Y-84763908D01*
X161381032Y-52548583D02*
X160685300Y-51852851D01*
X161381032Y-69806448D02*
X162006448Y-69806448D01*
X161381032Y-52548583D02*
X163298583Y-52548583D01*
X160685300Y-51852851D02*
X158971259Y-51852851D01*
X163850000Y-89751844D02*
X163850000Y-102600000D01*
X163298583Y-52548583D02*
X164650000Y-53900000D01*
%TO.N,L_COL4*%
X147100000Y-86850000D02*
X147100000Y-88250000D01*
X170070771Y-90578577D02*
X164836956Y-85344762D01*
X184012172Y-98545091D02*
X184012172Y-85020543D01*
X143926288Y-73111192D02*
X142231032Y-74806448D01*
X141544755Y-91596599D02*
X136986880Y-91596599D01*
X147100000Y-88250000D02*
X145486092Y-89863908D01*
X123176404Y-104960000D02*
X122702867Y-104486463D01*
X144650000Y-77250000D02*
X144650000Y-89863908D01*
X142231032Y-57548583D02*
X143460974Y-57548583D01*
X142231032Y-92282876D02*
X141544755Y-91596599D01*
X122702867Y-104486463D02*
X117938525Y-104486463D01*
X123176404Y-104960000D02*
X123176404Y-103272275D01*
X142231032Y-74806448D02*
X141394674Y-73970090D01*
X187532260Y-102065179D02*
X184012172Y-98545091D01*
X123176404Y-103272275D02*
X124547861Y-101900818D01*
X182066860Y-83723669D02*
X179889964Y-85900565D01*
X148750000Y-85200000D02*
X147100000Y-86850000D01*
X142231032Y-74806448D02*
X142231032Y-74831032D01*
X155619884Y-85205811D02*
X155614073Y-85200000D01*
X144612339Y-73111192D02*
X143926288Y-73111192D01*
X141394674Y-73970090D02*
X136907557Y-73970090D01*
X145486092Y-89863908D02*
X144650000Y-89863908D01*
X155614073Y-85200000D02*
X148750000Y-85200000D01*
X142231032Y-74831032D02*
X144650000Y-77250000D01*
X144650000Y-89863908D02*
X142231032Y-92282876D01*
X140033029Y-57548583D02*
X139779684Y-57295238D01*
X143460974Y-57548583D02*
X144772464Y-58860073D01*
X142231032Y-57548583D02*
X140033029Y-57548583D01*
X173127690Y-90578577D02*
X170070771Y-90578577D01*
X179889964Y-85900565D02*
X179889964Y-86363735D01*
%TO.N,L_COL5*%
X125400000Y-52500000D02*
X126200000Y-53250000D01*
X125600000Y-84901322D02*
X123218446Y-87282876D01*
X123218446Y-52548583D02*
X120835211Y-52227676D01*
X125511998Y-72100000D02*
X125600000Y-72100000D01*
X135500000Y-113200000D02*
X138100000Y-113200000D01*
X138100000Y-113200000D02*
X141400000Y-116500000D01*
X142600000Y-116500000D02*
X145900000Y-113200000D01*
X126050000Y-68300000D02*
X123218446Y-69806448D01*
X123218446Y-69806448D02*
X125511998Y-72100000D01*
X125600000Y-72100000D02*
X125600000Y-84901322D01*
X132050000Y-122336404D02*
X132050000Y-116650000D01*
X123218446Y-52548583D02*
X125400000Y-52500000D01*
X123218446Y-87282876D02*
X125435570Y-89500000D01*
X145900000Y-113200000D02*
X189905208Y-113200000D01*
X125650000Y-89500000D02*
X125650000Y-123683596D01*
X125435570Y-89500000D02*
X125650000Y-89500000D01*
X128176404Y-126210000D02*
X132050000Y-122336404D01*
X125650000Y-123683596D02*
X128176404Y-126210000D01*
X126200000Y-53250000D02*
X126050000Y-68300000D01*
X189905208Y-113200000D02*
X190007757Y-113302549D01*
X141400000Y-116500000D02*
X142600000Y-116500000D01*
X132050000Y-116650000D02*
X135500000Y-113200000D01*
%TO.N,L_COL2*%
X178830299Y-57340747D02*
X180460610Y-57340747D01*
X183400000Y-60280137D02*
X183400000Y-72074894D01*
X183400000Y-72074894D02*
X180668446Y-74806448D01*
X180668446Y-57548583D02*
X183400000Y-60280137D01*
X182622664Y-92384938D02*
X180770508Y-92384938D01*
X180668446Y-74806448D02*
X183100000Y-77238002D01*
X180096026Y-74234028D02*
X180668446Y-74806448D01*
X183100000Y-89851322D02*
X180668446Y-92282876D01*
X191469200Y-110726448D02*
X191469200Y-110541180D01*
X175885089Y-74234028D02*
X180096026Y-74234028D01*
X191469200Y-110541180D02*
X186744872Y-105816852D01*
X175773949Y-91405159D02*
X179790729Y-91405159D01*
X183100000Y-77238002D02*
X183100000Y-89851322D01*
X180770508Y-92384938D02*
X180668446Y-92282876D01*
X179790729Y-91405159D02*
X180668446Y-92282876D01*
X180460610Y-57340747D02*
X180668446Y-57548583D01*
%TD*%
M02*
