%TF.GenerationSoftware,KiCad,Pcbnew,9.0.8*%
%TF.CreationDate,2026-06-30T19:39:36+02:00*%
%TF.ProjectId,Splitboard,53706c69-7462-46f6-9172-642e6b696361,rev?*%
%TF.SameCoordinates,Original*%
%TF.FileFunction,Soldermask,Top*%
%TF.FilePolarity,Negative*%
%FSLAX46Y46*%
G04 Gerber Fmt 4.6, Leading zero omitted, Abs format (unit mm)*
G04 Created by KiCad (PCBNEW 9.0.8) date 2026-06-30 19:39:36*
%MOMM*%
%LPD*%
G01*
G04 APERTURE LIST*
G04 Aperture macros list*
%AMRoundRect*
0 Rectangle with rounded corners*
0 $1 Rounding radius*
0 $2 $3 $4 $5 $6 $7 $8 $9 X,Y pos of 4 corners*
0 Add a 4 corners polygon primitive as box body*
4,1,4,$2,$3,$4,$5,$6,$7,$8,$9,$2,$3,0*
0 Add four circle primitives for the rounded corners*
1,1,$1+$1,$2,$3*
1,1,$1+$1,$4,$5*
1,1,$1+$1,$6,$7*
1,1,$1+$1,$8,$9*
0 Add four rect primitives between the rounded corners*
20,1,$1+$1,$2,$3,$4,$5,0*
20,1,$1+$1,$4,$5,$6,$7,0*
20,1,$1+$1,$6,$7,$8,$9,0*
20,1,$1+$1,$8,$9,$2,$3,0*%
G04 Aperture macros list end*
%ADD10C,1.701800*%
%ADD11C,3.000000*%
%ADD12C,3.987800*%
%ADD13R,2.500000X2.550000*%
%ADD14RoundRect,0.225000X-0.225000X-0.375000X0.225000X-0.375000X0.225000X0.375000X-0.225000X0.375000X0*%
%ADD15C,1.500000*%
%ADD16RoundRect,0.225000X0.375000X-0.225000X0.375000X0.225000X-0.375000X0.225000X-0.375000X-0.225000X0*%
%ADD17RoundRect,0.250000X0.970000X0.310000X-0.970000X0.310000X-0.970000X-0.310000X0.970000X-0.310000X0*%
%ADD18RoundRect,0.225000X0.225000X0.375000X-0.225000X0.375000X-0.225000X-0.375000X0.225000X-0.375000X0*%
%ADD19RoundRect,0.200000X0.275000X-0.200000X0.275000X0.200000X-0.275000X0.200000X-0.275000X-0.200000X0*%
%ADD20C,1.600000*%
%ADD21O,2.501600X1.301600*%
%ADD22C,1.574800*%
%ADD23O,2.101600X1.301600*%
%ADD24RoundRect,0.050800X-0.500000X0.150000X-0.500000X-0.150000X0.500000X-0.150000X0.500000X0.150000X0*%
%ADD25RoundRect,0.050800X-0.500000X0.300000X-0.500000X-0.300000X0.500000X-0.300000X0.500000X0.300000X0*%
%ADD26RoundRect,0.050800X0.500000X-0.300000X0.500000X0.300000X-0.500000X0.300000X-0.500000X-0.300000X0*%
%ADD27R,1.700000X1.700000*%
%ADD28O,1.700000X1.700000*%
%ADD29RoundRect,0.225000X-0.375000X0.225000X-0.375000X-0.225000X0.375000X-0.225000X0.375000X0.225000X0*%
G04 APERTURE END LIST*
D10*
%TO.C,SW7*%
X100207958Y-86176448D03*
D11*
X97667958Y-84906448D03*
X102747958Y-84906448D03*
D12*
X100207958Y-81096448D03*
D11*
X95127958Y-78556448D03*
X105287958Y-78556448D03*
D10*
X100207958Y-76016448D03*
D13*
X105287958Y-74806448D03*
X102747958Y-88656448D03*
%TD*%
D14*
%TO.C,D20*%
X193950000Y-122750000D03*
X197250000Y-122750000D03*
%TD*%
D11*
%TO.C,REF\u002A\u002A*%
X92698202Y-51135608D03*
%TD*%
D10*
%TO.C,SW6*%
X195957958Y-63918583D03*
D11*
X193417958Y-62648583D03*
X198497958Y-62648583D03*
D12*
X195957958Y-58838583D03*
D11*
X190877958Y-56298583D03*
X201037958Y-56298583D03*
D10*
X195957958Y-53758583D03*
D13*
X201037958Y-52548583D03*
X198497958Y-66398583D03*
%TD*%
D10*
%TO.C,SW4*%
X157795372Y-63918583D03*
D11*
X155255372Y-62648583D03*
X160335372Y-62648583D03*
D12*
X157795372Y-58838583D03*
D11*
X152715372Y-56298583D03*
X162875372Y-56298583D03*
D10*
X157795372Y-53758583D03*
D13*
X162875372Y-52548583D03*
X160335372Y-66398583D03*
%TD*%
D15*
%TO.C,B+1*%
X212241418Y-117233902D03*
%TD*%
D16*
%TO.C,D10*%
X148304664Y-79281597D03*
X148304664Y-75981597D03*
%TD*%
D14*
%TO.C,D6*%
X194397502Y-49863540D03*
X197697502Y-49863540D03*
%TD*%
D16*
%TO.C,D11*%
X167454164Y-82981415D03*
X167454164Y-79681415D03*
%TD*%
D10*
%TO.C,SW15*%
X138507958Y-103652876D03*
D11*
X135967958Y-102382876D03*
X141047958Y-102382876D03*
D12*
X138507958Y-98572876D03*
D11*
X133427958Y-96032876D03*
X143587958Y-96032876D03*
D10*
X138507958Y-93492876D03*
D13*
X143587958Y-92282876D03*
X141047958Y-106132876D03*
%TD*%
D17*
%TO.C,SW-B1*%
X218286328Y-109694039D03*
X209676328Y-109694039D03*
%TD*%
D18*
%TO.C,D2*%
X121407101Y-49667616D03*
X118107101Y-49667616D03*
%TD*%
D16*
%TO.C,D13*%
X90357748Y-100486328D03*
X90357748Y-97186328D03*
%TD*%
D19*
%TO.C,R1*%
X208000000Y-63150000D03*
X208000000Y-61500000D03*
%TD*%
D20*
%TO.C,U1*%
X91902370Y-128218200D03*
X94442370Y-128218200D03*
X96982370Y-128218200D03*
X99522370Y-128218200D03*
X102062370Y-128218200D03*
X104602370Y-128218200D03*
X107142370Y-128218200D03*
X109682370Y-128218200D03*
X112222370Y-128218200D03*
X114762370Y-128218200D03*
X117302370Y-128218200D03*
X119842370Y-128218200D03*
X91902360Y-112978190D03*
X94442360Y-112978190D03*
D21*
X89515000Y-115018200D03*
D20*
X96982360Y-112978190D03*
X99522360Y-112978190D03*
X102062360Y-112978190D03*
X104602360Y-112978190D03*
X107142360Y-112978190D03*
X109682360Y-112978190D03*
X112222360Y-112978190D03*
X114762360Y-112978190D03*
X117302360Y-112978190D03*
X119842360Y-112978190D03*
D22*
X116747570Y-125138200D03*
X116747570Y-122598200D03*
X116747570Y-120058200D03*
D20*
X89362370Y-128218200D03*
X89362360Y-112978190D03*
D23*
X93515000Y-126178200D03*
D21*
X89515000Y-126178200D03*
D23*
X93515000Y-115018200D03*
D24*
X94379940Y-119348140D03*
X94379940Y-120348140D03*
X94379940Y-120848260D03*
X94379940Y-121848260D03*
D25*
X94379940Y-123008280D03*
X94379940Y-123808120D03*
D24*
X94379940Y-122348130D03*
X94379940Y-121348130D03*
X94379940Y-119848260D03*
X94379940Y-118848270D03*
D26*
X94379940Y-118188120D03*
X94379940Y-117388270D03*
%TD*%
D27*
%TO.C,OLED1*%
X209856761Y-68500000D03*
D28*
X212396761Y-68500000D03*
X214936761Y-68500000D03*
X217476761Y-68500000D03*
%TD*%
D19*
%TO.C,R2*%
X212250000Y-63650000D03*
X212250000Y-62000000D03*
%TD*%
D10*
%TO.C,SW20*%
X196000000Y-116330000D03*
D11*
X193460000Y-115060000D03*
X198540000Y-115060000D03*
D12*
X196000000Y-111250000D03*
D11*
X190920000Y-108710000D03*
X201080000Y-108710000D03*
D10*
X196000000Y-106170000D03*
D13*
X201080000Y-104960000D03*
X198540000Y-118810000D03*
%TD*%
D16*
%TO.C,D8*%
X110600844Y-78624960D03*
X110600844Y-75324960D03*
%TD*%
D11*
%TO.C,REF\u002A\u002A*%
X95398202Y-139185608D03*
%TD*%
D16*
%TO.C,D7*%
X91101663Y-83125642D03*
X91101663Y-79825642D03*
%TD*%
D18*
%TO.C,D14*%
X122669527Y-105255922D03*
X119369527Y-105255922D03*
%TD*%
D10*
%TO.C,SW11*%
X176945372Y-86176448D03*
D11*
X174405372Y-84906448D03*
X179485372Y-84906448D03*
D12*
X176945372Y-81096448D03*
D11*
X171865372Y-78556448D03*
X182025372Y-78556448D03*
D10*
X176945372Y-76016448D03*
D13*
X182025372Y-74806448D03*
X179485372Y-88656448D03*
%TD*%
D16*
%TO.C,D19*%
X167250000Y-117550000D03*
X167250000Y-114250000D03*
%TD*%
D10*
%TO.C,SW17*%
X176945372Y-103652876D03*
D11*
X174405372Y-102382876D03*
X179485372Y-102382876D03*
D12*
X176945372Y-98572876D03*
D11*
X171865372Y-96032876D03*
X182025372Y-96032876D03*
D10*
X176945372Y-93492876D03*
D13*
X182025372Y-92282876D03*
X179485372Y-106132876D03*
%TD*%
D10*
%TO.C,SW18*%
X195957958Y-98652876D03*
D11*
X193417958Y-97382876D03*
X198497958Y-97382876D03*
D12*
X195957958Y-93572876D03*
D11*
X190877958Y-91032876D03*
X201037958Y-91032876D03*
D10*
X195957958Y-88492876D03*
D13*
X201037958Y-87282876D03*
X198497958Y-101132876D03*
%TD*%
D11*
%TO.C,REF\u002A\u002A*%
X209898202Y-125685608D03*
%TD*%
D16*
%TO.C,D12*%
X186453118Y-78832007D03*
X186453118Y-75532007D03*
%TD*%
%TO.C,D9*%
X129005301Y-80180779D03*
X129005301Y-76880779D03*
%TD*%
D29*
%TO.C,D21*%
X180500000Y-132600000D03*
X180500000Y-135900000D03*
%TD*%
D16*
%TO.C,D16*%
X148468293Y-97130242D03*
X148468293Y-93830242D03*
%TD*%
D10*
%TO.C,SW3*%
X138507958Y-68918583D03*
D11*
X135967958Y-67648583D03*
X141047958Y-67648583D03*
D12*
X138507958Y-63838583D03*
D11*
X133427958Y-61298583D03*
X143587958Y-61298583D03*
D10*
X138507958Y-58758583D03*
D13*
X143587958Y-57548583D03*
X141047958Y-71398583D03*
%TD*%
D10*
%TO.C,SW21*%
X191000000Y-137580000D03*
D11*
X188460000Y-136310000D03*
X193540000Y-136310000D03*
D12*
X191000000Y-132500000D03*
D11*
X185920000Y-129960000D03*
X196080000Y-129960000D03*
D10*
X191000000Y-127420000D03*
D13*
X196080000Y-126210000D03*
X193540000Y-140060000D03*
%TD*%
D10*
%TO.C,SW14*%
X119653714Y-98652876D03*
D11*
X117113714Y-97382876D03*
X122193714Y-97382876D03*
D12*
X119653714Y-93572876D03*
D11*
X114573714Y-91032876D03*
X124733714Y-91032876D03*
D10*
X119653714Y-88492876D03*
D13*
X124733714Y-87282876D03*
X122193714Y-101132876D03*
%TD*%
D10*
%TO.C,SW2*%
X119653714Y-63918583D03*
D11*
X117113714Y-62648583D03*
X122193714Y-62648583D03*
D12*
X119653714Y-58838583D03*
D11*
X114573714Y-56298583D03*
X124733714Y-56298583D03*
D10*
X119653714Y-53758583D03*
D13*
X124733714Y-52548583D03*
X122193714Y-66398583D03*
%TD*%
D10*
%TO.C,SW19*%
X177000000Y-121330000D03*
D11*
X174460000Y-120060000D03*
X179540000Y-120060000D03*
D12*
X177000000Y-116250000D03*
D11*
X171920000Y-113710000D03*
X182080000Y-113710000D03*
D10*
X177000000Y-111170000D03*
D13*
X182080000Y-109960000D03*
X179540000Y-123810000D03*
%TD*%
D16*
%TO.C,D17*%
X167551868Y-97789789D03*
X167551868Y-94489789D03*
%TD*%
D10*
%TO.C,SW5*%
X176945372Y-68918583D03*
D11*
X174405372Y-67648583D03*
X179485372Y-67648583D03*
D12*
X176945372Y-63838583D03*
D11*
X171865372Y-61298583D03*
X182025372Y-61298583D03*
D10*
X176945372Y-58758583D03*
D13*
X182025372Y-57548583D03*
X179485372Y-71398583D03*
%TD*%
D10*
%TO.C,SW10*%
X157795372Y-81176448D03*
D11*
X155255372Y-79906448D03*
X160335372Y-79906448D03*
D12*
X157795372Y-76096448D03*
D11*
X152715372Y-73556448D03*
X162875372Y-73556448D03*
D10*
X157795372Y-71016448D03*
D13*
X162875372Y-69806448D03*
X160335372Y-83656448D03*
%TD*%
D11*
%TO.C,REF\u002A\u002A*%
X221398202Y-51685608D03*
%TD*%
D10*
%TO.C,SW1*%
X100207958Y-68918583D03*
D11*
X97667958Y-67648583D03*
X102747958Y-67648583D03*
D12*
X100207958Y-63838583D03*
D11*
X95127958Y-61298583D03*
X105287958Y-61298583D03*
D10*
X100207958Y-58758583D03*
D13*
X105287958Y-57548583D03*
X102747958Y-71398583D03*
%TD*%
D18*
%TO.C,D1*%
X101310895Y-54729899D03*
X98010895Y-54729899D03*
%TD*%
D14*
%TO.C,D15*%
X137342038Y-109617711D03*
X140642038Y-109617711D03*
%TD*%
D19*
%TO.C,R4*%
X222000000Y-63500000D03*
X222000000Y-61850000D03*
%TD*%
D10*
%TO.C,SW16*%
X157795372Y-98652876D03*
D11*
X155255372Y-97382876D03*
X160335372Y-97382876D03*
D12*
X157795372Y-93572876D03*
D11*
X152715372Y-91032876D03*
X162875372Y-91032876D03*
D10*
X157795372Y-88492876D03*
D13*
X162875372Y-87282876D03*
X160335372Y-101132876D03*
%TD*%
D10*
%TO.C,SW8*%
X119653714Y-81176448D03*
D11*
X117113714Y-79906448D03*
X122193714Y-79906448D03*
D12*
X119653714Y-76096448D03*
D11*
X114573714Y-73556448D03*
X124733714Y-73556448D03*
D10*
X119653714Y-71016448D03*
D13*
X124733714Y-69806448D03*
X122193714Y-83656448D03*
%TD*%
D10*
%TO.C,SW13*%
X100207958Y-103652876D03*
D11*
X97667958Y-102382876D03*
X102747958Y-102382876D03*
D12*
X100207958Y-98572876D03*
D11*
X95127958Y-96032876D03*
X105287958Y-96032876D03*
D10*
X100207958Y-93492876D03*
D13*
X105287958Y-92282876D03*
X102747958Y-106132876D03*
%TD*%
D18*
%TO.C,D4*%
X159098506Y-49852941D03*
X155798506Y-49852941D03*
%TD*%
D16*
%TO.C,D18*%
X186771534Y-95640733D03*
X186771534Y-92340733D03*
%TD*%
D15*
%TO.C,B-1*%
X215791418Y-117233902D03*
%TD*%
D10*
%TO.C,SW12*%
X195957958Y-81176448D03*
D11*
X193417958Y-79906448D03*
X198497958Y-79906448D03*
D12*
X195957958Y-76096448D03*
D11*
X190877958Y-73556448D03*
X201037958Y-73556448D03*
D10*
X195957958Y-71016448D03*
D13*
X201037958Y-69806448D03*
X198497958Y-83656448D03*
%TD*%
D19*
%TO.C,R3*%
X217000000Y-62900000D03*
X217000000Y-61250000D03*
%TD*%
D14*
%TO.C,D5*%
X175559707Y-54828233D03*
X178859707Y-54828233D03*
%TD*%
D10*
%TO.C,SW9*%
X138507958Y-86176448D03*
D11*
X135967958Y-84906448D03*
X141047958Y-84906448D03*
D12*
X138507958Y-81096448D03*
D11*
X133427958Y-78556448D03*
X143587958Y-78556448D03*
D10*
X138507958Y-76016448D03*
D13*
X143587958Y-74806448D03*
X141047958Y-88656448D03*
%TD*%
D14*
%TO.C,D3*%
X136727078Y-54812603D03*
X140027078Y-54812603D03*
%TD*%
M02*
