%TF.GenerationSoftware,KiCad,Pcbnew,9.0.8*%
%TF.CreationDate,2026-06-30T19:39:36+02:00*%
%TF.ProjectId,Splitboard,53706c69-7462-46f6-9172-642e6b696361,rev?*%
%TF.SameCoordinates,Original*%
%TF.FileFunction,Copper,L2,Bot*%
%TF.FilePolarity,Positive*%
%FSLAX46Y46*%
G04 Gerber Fmt 4.6, Leading zero omitted, Abs format (unit mm)*
G04 Created by KiCad (PCBNEW 9.0.8) date 2026-06-30 19:39:36*
%MOMM*%
%LPD*%
G01*
G04 APERTURE LIST*
G04 Aperture macros list*
%AMRoundRect*
0 Rectangle with rounded corners*
0 $1 Rounding radius*
0 $2 $3 $4 $5 $6 $7 $8 $9 X,Y pos of 4 corners*
0 Add a 4 corners polygon primitive as box body*
4,1,4,$2,$3,$4,$5,$6,$7,$8,$9,$2,$3,0*
0 Add four circle primitives for the rounded corners*
1,1,$1+$1,$2,$3*
1,1,$1+$1,$4,$5*
1,1,$1+$1,$6,$7*
1,1,$1+$1,$8,$9*
0 Add four rect primitives between the rounded corners*
20,1,$1+$1,$2,$3,$4,$5,0*
20,1,$1+$1,$4,$5,$6,$7,0*
20,1,$1+$1,$6,$7,$8,$9,0*
20,1,$1+$1,$8,$9,$2,$3,0*%
G04 Aperture macros list end*
%TA.AperFunction,SMDPad,CuDef*%
%ADD10R,2.500000X2.550000*%
%TD*%
%TA.AperFunction,SMDPad,CuDef*%
%ADD11RoundRect,0.250000X0.250000X0.250000X-0.250000X0.250000X-0.250000X-0.250000X0.250000X-0.250000X0*%
%TD*%
%TA.AperFunction,SMDPad,CuDef*%
%ADD12RoundRect,0.250000X-0.250000X-0.250000X0.250000X-0.250000X0.250000X0.250000X-0.250000X0.250000X0*%
%TD*%
%TA.AperFunction,ComponentPad*%
%ADD13C,1.600000*%
%TD*%
%TA.AperFunction,SMDPad,CuDef*%
%ADD14R,0.650000X0.800000*%
%TD*%
%TA.AperFunction,ComponentPad*%
%ADD15O,2.400000X1.200000*%
%TD*%
%TA.AperFunction,ComponentPad*%
%ADD16C,1.574800*%
%TD*%
%TA.AperFunction,ComponentPad*%
%ADD17O,2.000000X1.200000*%
%TD*%
%TA.AperFunction,ComponentPad*%
%ADD18R,1.700000X1.700000*%
%TD*%
%TA.AperFunction,ComponentPad*%
%ADD19O,1.700000X1.700000*%
%TD*%
%TA.AperFunction,ViaPad*%
%ADD20C,0.600000*%
%TD*%
%TA.AperFunction,ViaPad*%
%ADD21C,0.300000*%
%TD*%
%TA.AperFunction,Conductor*%
%ADD22C,0.200000*%
%TD*%
G04 APERTURE END LIST*
D10*
%TO.P,SW7,1,1*%
%TO.N,L_COL0*%
X95127958Y-74806448D03*
%TO.P,SW7,2,2*%
%TO.N,Net-(D7-A)*%
X97667958Y-88656448D03*
%TD*%
%TO.P,SW6,1,1*%
%TO.N,L_COL5*%
X190877958Y-52548583D03*
%TO.P,SW6,2,2*%
%TO.N,Net-(D6-A)*%
X193417958Y-66398583D03*
%TD*%
%TO.P,SW4,1,1*%
%TO.N,L_COL3*%
X152715372Y-52548583D03*
%TO.P,SW4,2,2*%
%TO.N,Net-(D4-A)*%
X155255372Y-66398583D03*
%TD*%
%TO.P,SW15,1,1*%
%TO.N,L_COL2*%
X133427958Y-92282876D03*
%TO.P,SW15,2,2*%
%TO.N,Net-(D15-A)*%
X135967958Y-106132876D03*
%TD*%
D11*
%TO.P,U1,0*%
%TO.N,N/C*%
X112250000Y-116000000D03*
D12*
X113749650Y-116000000D03*
X115248880Y-116000000D03*
D11*
X116748910Y-116000000D03*
D13*
%TO.P,U1,1,P0.06*%
%TO.N,L_COL0*%
X91902370Y-128218200D03*
D14*
X100158170Y-116610400D03*
D13*
%TO.P,U1,2,P0.08*%
%TO.N,L_COL1*%
X94442370Y-128218200D03*
D14*
X98734170Y-116610400D03*
D13*
%TO.P,U1,3,GND*%
%TO.N,GND*%
X96982370Y-128218200D03*
%TO.P,U1,4,GND*%
X99522370Y-128218200D03*
%TO.P,U1,5,P0.17*%
%TO.N,L_SDA*%
X102062370Y-128218200D03*
%TO.P,U1,6,P0.20*%
%TO.N,L_SCL*%
X104602370Y-128218200D03*
%TO.P,U1,7,P0.22*%
%TO.N,L_COL2*%
X107142370Y-128218200D03*
%TO.P,U1,8,P0.24*%
%TO.N,L_COL3*%
X109682370Y-128218200D03*
%TO.P,U1,9,P1.00*%
%TO.N,L_COL4*%
X112222370Y-128218200D03*
%TO.P,U1,10,P0.11*%
%TO.N,L_COL5*%
X114762370Y-128218200D03*
%TO.P,U1,11,P1.04-LF*%
%TO.N,L_ROW0*%
X117302370Y-128218200D03*
%TO.P,U1,12,P1.06-LF*%
%TO.N,L_ROW1*%
X119842370Y-128218200D03*
%TO.P,U1,13,BAT+*%
%TO.N,unconnected-(U1-BAT+-Pad13)*%
X91902360Y-112978190D03*
%TO.P,U1,14,GND*%
%TO.N,GND*%
X94442360Y-112978190D03*
D15*
%TO.P,U1,15,RST*%
%TO.N,unconnected-(U1-RST-Pad15)*%
X89515000Y-115018200D03*
D13*
X96982360Y-112978190D03*
%TO.P,U1,16,3V3*%
%TO.N,VCC*%
X99522360Y-112978190D03*
%TO.P,U1,17,P0.31-LF*%
%TO.N,unconnected-(U1-P0.31-LF-Pad17)*%
X102062360Y-112978190D03*
%TO.P,U1,18,P0.29-LF*%
%TO.N,unconnected-(U1-P0.29-LF-Pad18)*%
X104602360Y-112978190D03*
%TO.P,U1,19,P0.02-LF*%
%TO.N,unconnected-(U1-P0.02-LF-Pad19)*%
X107142360Y-112978190D03*
%TO.P,U1,20,P1.15-LF*%
%TO.N,L_ROW3*%
X109682360Y-112978190D03*
%TO.P,U1,21,P1.13-LF*%
%TO.N,unconnected-(U1-P1.13-LF-Pad21)*%
X112222360Y-112978190D03*
%TO.P,U1,22,P1.11-LF*%
%TO.N,unconnected-(U1-P1.11-LF-Pad22)*%
X114762360Y-112978190D03*
%TO.P,U1,23,P0.10-LF*%
%TO.N,unconnected-(U1-P0.10-LF-Pad23)*%
X117302360Y-112978190D03*
%TO.P,U1,24,P0.09-LF*%
%TO.N,L_ROW2*%
X119842360Y-112978190D03*
D16*
%TO.P,U1,25,P1.01-LF*%
%TO.N,unconnected-(U1-P1.01-LF-Pad25)*%
X116747570Y-125138200D03*
%TO.P,U1,26,P1.02-LF*%
%TO.N,L_BTSENSE*%
X116747570Y-122598200D03*
%TO.P,U1,27,P1.07-LF*%
%TO.N,unconnected-(U1-P1.07-LF-Pad27)*%
X116747570Y-120058200D03*
D13*
%TO.P,U1,28,GND*%
%TO.N,GND*%
X89362370Y-128218200D03*
%TO.P,U1,29,BAT+*%
%TO.N,L_POWER*%
X89362360Y-112978190D03*
D17*
%TO.P,U1,30*%
%TO.N,N/C*%
X93515000Y-126178200D03*
D15*
%TO.P,U1,31*%
X89515000Y-126178200D03*
D17*
%TO.P,U1,32*%
X93515000Y-115018200D03*
%TD*%
D18*
%TO.P,OLED1,1,Pin_1*%
%TO.N,GND*%
X209856761Y-68500000D03*
D19*
%TO.P,OLED1,2,Pin_2*%
%TO.N,VCC*%
X212396761Y-68500000D03*
%TO.P,OLED1,3,Pin_3*%
%TO.N,L_SCL*%
X214936761Y-68500000D03*
%TO.P,OLED1,4,Pin_4*%
%TO.N,L_SDA*%
X217476761Y-68500000D03*
%TD*%
D10*
%TO.P,SW20,1,1*%
%TO.N,L_COL4*%
X190920000Y-104960000D03*
%TO.P,SW20,2,2*%
%TO.N,Net-(D20-A)*%
X193460000Y-118810000D03*
%TD*%
%TO.P,SW11,1,1*%
%TO.N,L_COL4*%
X171865372Y-74806448D03*
%TO.P,SW11,2,2*%
%TO.N,Net-(D11-A)*%
X174405372Y-88656448D03*
%TD*%
%TO.P,SW17,1,1*%
%TO.N,L_COL4*%
X171865372Y-92282876D03*
%TO.P,SW17,2,2*%
%TO.N,Net-(D17-A)*%
X174405372Y-106132876D03*
%TD*%
%TO.P,SW18,1,1*%
%TO.N,L_COL5*%
X190877958Y-87282876D03*
%TO.P,SW18,2,2*%
%TO.N,Net-(D18-A)*%
X193417958Y-101132876D03*
%TD*%
%TO.P,SW3,1,1*%
%TO.N,L_COL2*%
X133427958Y-57548583D03*
%TO.P,SW3,2,2*%
%TO.N,Net-(D3-A)*%
X135967958Y-71398583D03*
%TD*%
%TO.P,SW21,1,1*%
%TO.N,L_COL5*%
X185920000Y-126210000D03*
%TO.P,SW21,2,2*%
%TO.N,Net-(D21-A)*%
X188460000Y-140060000D03*
%TD*%
%TO.P,SW14,1,1*%
%TO.N,L_COL1*%
X114573714Y-87282876D03*
%TO.P,SW14,2,2*%
%TO.N,Net-(D14-A)*%
X117113714Y-101132876D03*
%TD*%
%TO.P,SW2,1,1*%
%TO.N,L_COL1*%
X114573714Y-52548583D03*
%TO.P,SW2,2,2*%
%TO.N,Net-(D2-A)*%
X117113714Y-66398583D03*
%TD*%
%TO.P,SW19,1,1*%
%TO.N,L_COL3*%
X171920000Y-109960000D03*
%TO.P,SW19,2,2*%
%TO.N,Net-(D19-A)*%
X174460000Y-123810000D03*
%TD*%
%TO.P,SW5,1,1*%
%TO.N,L_COL4*%
X171865372Y-57548583D03*
%TO.P,SW5,2,2*%
%TO.N,Net-(D5-A)*%
X174405372Y-71398583D03*
%TD*%
%TO.P,SW10,1,1*%
%TO.N,L_COL3*%
X152715372Y-69806448D03*
%TO.P,SW10,2,2*%
%TO.N,Net-(D10-A)*%
X155255372Y-83656448D03*
%TD*%
%TO.P,SW1,1,1*%
%TO.N,L_COL0*%
X95127958Y-57548583D03*
%TO.P,SW1,2,2*%
%TO.N,Net-(D1-A)*%
X97667958Y-71398583D03*
%TD*%
%TO.P,SW16,1,1*%
%TO.N,L_COL3*%
X152715372Y-87282876D03*
%TO.P,SW16,2,2*%
%TO.N,Net-(D16-A)*%
X155255372Y-101132876D03*
%TD*%
%TO.P,SW8,1,1*%
%TO.N,L_COL1*%
X114573714Y-69806448D03*
%TO.P,SW8,2,2*%
%TO.N,Net-(D8-A)*%
X117113714Y-83656448D03*
%TD*%
%TO.P,SW13,1,1*%
%TO.N,L_COL0*%
X95127958Y-92282876D03*
%TO.P,SW13,2,2*%
%TO.N,Net-(D13-A)*%
X97667958Y-106132876D03*
%TD*%
%TO.P,SW12,1,1*%
%TO.N,L_COL5*%
X190877958Y-69806448D03*
%TO.P,SW12,2,2*%
%TO.N,Net-(D12-A)*%
X193417958Y-83656448D03*
%TD*%
%TO.P,SW9,1,1*%
%TO.N,L_COL2*%
X133427958Y-74806448D03*
%TO.P,SW9,2,2*%
%TO.N,Net-(D9-A)*%
X135967958Y-88656448D03*
%TD*%
D20*
%TO.N,Net-(D1-A)*%
X93933700Y-69564237D03*
D21*
X100032154Y-71381348D03*
D20*
%TO.N,Net-(D2-A)*%
X119683743Y-66495006D03*
%TO.N,Net-(D3-A)*%
X138498186Y-71512852D03*
D21*
%TO.N,Net-(D4-A)*%
X157724876Y-66520286D03*
D20*
%TO.N,Net-(D5-A)*%
X176938113Y-71388145D03*
%TO.N,Net-(D6-A)*%
X196151613Y-66488057D03*
%TO.N,Net-(D7-A)*%
X100138378Y-88589767D03*
X94044627Y-84650338D03*
%TO.N,L_ROW1*%
X107563194Y-82606765D03*
X124321065Y-134161687D03*
X127960480Y-120958226D03*
X127679342Y-84154161D03*
X132023084Y-125359380D03*
X148440237Y-82477816D03*
X139800610Y-90988493D03*
X166235291Y-85959457D03*
X127875843Y-105638826D03*
X158498311Y-85830507D03*
X118910764Y-84283111D03*
X110271137Y-81446218D03*
%TO.N,Net-(D8-A)*%
X119650819Y-83252207D03*
D21*
%TO.N,Net-(D9-A)*%
X138485535Y-88483542D03*
D20*
%TO.N,Net-(D10-A)*%
X157831101Y-83728705D03*
X151776287Y-83728705D03*
%TO.N,Net-(D11-A)*%
X171651177Y-88538450D03*
X176938113Y-88538450D03*
%TO.N,Net-(D12-A)*%
X195893713Y-83767312D03*
X190786091Y-83711149D03*
%TO.N,L_ROW2*%
X187271985Y-97397667D03*
X119264975Y-110427336D03*
X177284525Y-108124938D03*
X120582901Y-107449819D03*
%TO.N,Net-(D13-A)*%
X100006267Y-106148982D03*
X93822773Y-102065911D03*
%TO.N,Net-(D14-A)*%
X117346798Y-104629713D03*
%TO.N,Net-(D15-A)*%
X138437398Y-106170867D03*
%TO.N,Net-(D16-A)*%
X151753639Y-97738414D03*
X157743708Y-101066231D03*
%TO.N,Net-(D17-A)*%
X176938113Y-106075604D03*
%TO.N,Net-(D18-A)*%
X189690747Y-96296360D03*
X195893713Y-101175517D03*
%TO.N,Net-(D19-A)*%
X176938113Y-123741708D03*
%TO.N,L_ROW3*%
X124140209Y-112849724D03*
X121240653Y-115930502D03*
%TO.N,Net-(D20-A)*%
X195893713Y-118970570D03*
%TO.N,Net-(D21-A)*%
X191122576Y-140118315D03*
%TO.N,L_SDA*%
X102272563Y-146058988D03*
X101581461Y-132352125D03*
%TO.N,L_SCL*%
X133995585Y-125446355D03*
X104361021Y-132571203D03*
X134688958Y-123135109D03*
X215120311Y-72287703D03*
%TO.N,VCC*%
X108985148Y-118954919D03*
X186434297Y-123861200D03*
X124521705Y-118604471D03*
X205965686Y-78532967D03*
X206643502Y-107857379D03*
X215234231Y-65198123D03*
X135502429Y-121758508D03*
X121367667Y-119188552D03*
X118330445Y-118954919D03*
X205900000Y-122650000D03*
X219399551Y-64982286D03*
%TO.N,L_BTSENSE*%
X121428734Y-125325563D03*
X125405222Y-127544998D03*
X123370740Y-127544998D03*
X205027468Y-107477603D03*
%TO.N,L_POWER*%
X109989873Y-108393911D03*
X94324886Y-109085013D03*
X91560477Y-109085013D03*
%TO.N,L_COL0*%
X100185041Y-91858782D03*
X100125451Y-57086638D03*
%TO.N,L_COL1*%
X119617653Y-51887884D03*
X97280021Y-131300804D03*
%TO.N,L_COL2*%
X138253214Y-73838188D03*
X138511113Y-91633242D03*
X129653232Y-123666628D03*
X141219056Y-57461581D03*
X129145406Y-125613292D03*
X107055000Y-132553573D03*
%TO.N,L_COL3*%
X130297591Y-125330793D03*
X128910844Y-127179790D03*
X165461593Y-89183198D03*
X157853563Y-69067051D03*
X176914151Y-109142543D03*
X157853563Y-52045695D03*
X130875403Y-123597359D03*
X157595663Y-86862104D03*
%TO.N,L_COL4*%
X160349039Y-118264406D03*
X190089496Y-102328688D03*
X123962460Y-114434239D03*
X166319593Y-106548603D03*
X168347328Y-102267829D03*
X179517106Y-57461581D03*
X121258813Y-117250538D03*
X195994946Y-104424865D03*
X176938113Y-74096088D03*
X176938113Y-91504292D03*
%TO.N,L_COL5*%
X128250789Y-125665438D03*
X130281476Y-123019392D03*
X135573569Y-118281123D03*
X190476345Y-125152778D03*
X179017958Y-130096027D03*
D21*
X198601656Y-52561494D03*
D20*
X122035657Y-134280473D03*
X195893713Y-69196000D03*
X195798866Y-86450425D03*
%TD*%
D22*
%TO.N,Net-(D1-A)*%
X93933700Y-69564237D02*
X97667958Y-71398583D01*
X97667958Y-71398583D02*
X100032154Y-71381348D01*
%TO.N,Net-(D2-A)*%
X117113714Y-66398583D02*
X119683743Y-66495006D01*
%TO.N,Net-(D3-A)*%
X135967958Y-71398583D02*
X138498186Y-71512852D01*
%TO.N,Net-(D4-A)*%
X155255372Y-66398583D02*
X157724876Y-66520286D01*
%TO.N,Net-(D5-A)*%
X174405372Y-71398583D02*
X176938113Y-71388145D01*
%TO.N,Net-(D6-A)*%
X193417958Y-66398583D02*
X196151613Y-66488057D01*
%TO.N,Net-(D7-A)*%
X94044627Y-84650338D02*
X97667958Y-88656448D01*
X97667958Y-88656448D02*
X100138378Y-88589767D01*
%TO.N,L_ROW1*%
X118910764Y-84283111D02*
X127679342Y-84154161D01*
X148450000Y-86500000D02*
X148440237Y-82477816D01*
X107563194Y-82606765D02*
X109500000Y-82600000D01*
X124321065Y-134161687D02*
X127550000Y-132700000D01*
X132023084Y-125359380D02*
X127550000Y-132700000D01*
X127875843Y-105638826D02*
X127960480Y-120958226D01*
X147300000Y-88550000D02*
X148450000Y-86500000D01*
X139800610Y-90988493D02*
X147300000Y-88550000D01*
X158498311Y-85830507D02*
X166235291Y-85959457D01*
X109500000Y-82600000D02*
X110271137Y-81446218D01*
%TO.N,Net-(D8-A)*%
X117113714Y-83656448D02*
X119650819Y-83252207D01*
%TO.N,Net-(D9-A)*%
X135967958Y-88656448D02*
X138485535Y-88483542D01*
%TO.N,Net-(D10-A)*%
X155255372Y-83656448D02*
X157831101Y-83728705D01*
X155255372Y-83656448D02*
X151776287Y-83728705D01*
%TO.N,Net-(D11-A)*%
X171651177Y-88538450D02*
X174405372Y-88656448D01*
X174405372Y-88656448D02*
X176938113Y-88538450D01*
%TO.N,Net-(D12-A)*%
X190786091Y-83711149D02*
X193417958Y-83656448D01*
X193417958Y-83656448D02*
X195893713Y-83767312D01*
%TO.N,L_ROW2*%
X119264975Y-110427336D02*
X120582901Y-107449819D01*
X184150000Y-108200000D02*
X187271985Y-97397667D01*
X177284525Y-108124938D02*
X184150000Y-108200000D01*
%TO.N,Net-(D13-A)*%
X93822773Y-102065911D02*
X97667958Y-106132876D01*
X100006267Y-106148982D02*
X97667958Y-106132876D01*
%TO.N,Net-(D14-A)*%
X117113714Y-101132876D02*
X117346798Y-104629713D01*
%TO.N,Net-(D15-A)*%
X135967958Y-106132876D02*
X138437398Y-106170867D01*
%TO.N,Net-(D16-A)*%
X157743708Y-101066231D02*
X155255372Y-101132876D01*
X151753639Y-97738414D02*
X155255372Y-101132876D01*
%TO.N,Net-(D17-A)*%
X174405372Y-106132876D02*
X176938113Y-106075604D01*
%TO.N,Net-(D18-A)*%
X193417958Y-101132876D02*
X195893713Y-101175517D01*
X193417958Y-101132876D02*
X189690747Y-96296360D01*
%TO.N,Net-(D19-A)*%
X174460000Y-123810000D02*
X176938113Y-123741708D01*
%TO.N,L_ROW3*%
X124140209Y-112849724D02*
X121240653Y-115930502D01*
%TO.N,Net-(D20-A)*%
X193460000Y-118810000D02*
X195893713Y-118970570D01*
%TO.N,Net-(D21-A)*%
X188460000Y-140060000D02*
X191122576Y-140118315D01*
%TO.N,L_SDA*%
X101000000Y-144350000D02*
X101581461Y-132352125D01*
X102272563Y-146058988D02*
X101000000Y-144350000D01*
%TO.N,L_SCL*%
X215120311Y-72287703D02*
X215100000Y-77500000D01*
X107500000Y-135950000D02*
X104361021Y-132571203D01*
X122850000Y-136400000D02*
X107500000Y-135950000D01*
X201350000Y-142100000D02*
X181500000Y-142100000D01*
X168800000Y-123700000D02*
X134688958Y-123135109D01*
X181500000Y-142100000D02*
X168800000Y-123700000D01*
X204500000Y-79800000D02*
X203550000Y-81050000D01*
X203550000Y-81050000D02*
X203900000Y-137600000D01*
X213750000Y-78850000D02*
X204500000Y-79800000D01*
X203900000Y-137600000D02*
X201350000Y-142100000D01*
X131050000Y-128400000D02*
X127550000Y-134050000D01*
X133995585Y-125446355D02*
X131050000Y-128400000D01*
X127550000Y-134050000D02*
X122850000Y-136400000D01*
X215100000Y-77500000D02*
X213750000Y-78850000D01*
%TO.N,VCC*%
X169050000Y-122100000D02*
X135502429Y-121758508D01*
X212396761Y-68500000D02*
X210850000Y-66150000D01*
X206643502Y-107857379D02*
X206643502Y-121906498D01*
X124521705Y-118604471D02*
X121367667Y-119188552D01*
X219500000Y-70950000D02*
X219399551Y-64982286D01*
X175450000Y-131350000D02*
X169050000Y-122100000D01*
X176750000Y-131450000D02*
X175450000Y-131350000D01*
X115300000Y-118600000D02*
X108985148Y-118954919D01*
X215234231Y-65198123D02*
X212396761Y-68500000D01*
X206643502Y-121906498D02*
X205900000Y-122650000D01*
X212396761Y-68500000D02*
X215200000Y-71300000D01*
X205600000Y-67550000D02*
X205965686Y-78532967D01*
X118330445Y-118954919D02*
X115300000Y-118600000D01*
X206300000Y-66150000D02*
X205600000Y-67550000D01*
X182950000Y-124100000D02*
X176750000Y-131450000D01*
X186434297Y-123861200D02*
X182950000Y-124100000D01*
X210850000Y-66150000D02*
X206300000Y-66150000D01*
X215200000Y-71300000D02*
X219500000Y-70950000D01*
%TO.N,L_BTSENSE*%
X127450000Y-125600000D02*
X125405222Y-127544998D01*
X123370740Y-127544998D02*
X121428734Y-125325563D01*
X201900000Y-143350000D02*
X180700000Y-143100000D01*
X180700000Y-143100000D02*
X168600000Y-125400000D01*
X128550000Y-124500000D02*
X167550000Y-124600000D01*
X205300000Y-138250000D02*
X201900000Y-143350000D01*
X127450000Y-125600000D02*
X128550000Y-124500000D01*
X167550000Y-124600000D02*
X168600000Y-125400000D01*
X205027468Y-107477603D02*
X205300000Y-138250000D01*
%TO.N,L_POWER*%
X109989873Y-108393911D02*
X94324886Y-109085013D01*
X91560477Y-109085013D02*
X89362360Y-112978190D01*
%TO.N,L_COL0*%
X92900000Y-76200000D02*
X92900000Y-91100000D01*
X95127958Y-92282876D02*
X100185041Y-91858782D01*
X94150000Y-111050000D02*
X120700000Y-111200000D01*
X122500000Y-129300000D02*
X121850000Y-130650000D01*
X92900000Y-93500000D02*
X92950000Y-109950000D01*
X120600000Y-118150000D02*
X120450000Y-114650000D01*
X121850000Y-130650000D02*
X93650000Y-130450000D01*
X95127958Y-74806448D02*
X92900000Y-76200000D01*
X95127958Y-57548583D02*
X100125451Y-57086638D01*
X93000000Y-59350000D02*
X92850000Y-73400000D01*
X101400000Y-118100000D02*
X120600000Y-118150000D01*
X120700000Y-111200000D02*
X121450000Y-112800000D01*
X95127958Y-57548583D02*
X93000000Y-59350000D01*
X120450000Y-114650000D02*
X121450000Y-112800000D01*
X92950000Y-109950000D02*
X94150000Y-111050000D01*
X92900000Y-91100000D02*
X95127958Y-92282876D01*
X120850000Y-126550000D02*
X122500000Y-129300000D01*
X95127958Y-92282876D02*
X92900000Y-93500000D01*
X93650000Y-130450000D02*
X91902370Y-128218200D01*
X100158170Y-116610400D02*
X101400000Y-118100000D01*
X120600000Y-118150000D02*
X120850000Y-126550000D01*
X92850000Y-73400000D02*
X95127958Y-74806448D01*
%TO.N,L_COL1*%
X112600000Y-71950000D02*
X112400000Y-85400000D01*
X122150000Y-106650000D02*
X125200000Y-110700000D01*
X112500000Y-54600000D02*
X112250000Y-68050000D01*
X124500000Y-129100000D02*
X123650000Y-129450000D01*
X112250000Y-106700000D02*
X113500000Y-107000000D01*
X114573714Y-69806448D02*
X112600000Y-71950000D01*
X122250000Y-131550000D02*
X97280021Y-131300804D01*
X125300000Y-112400000D02*
X125700000Y-125400000D01*
X112400000Y-85400000D02*
X114573714Y-87282876D01*
X114573714Y-52548583D02*
X119617653Y-51887884D01*
X113500000Y-107000000D02*
X122150000Y-106650000D01*
X124750000Y-126450000D02*
X124500000Y-129100000D01*
X125200000Y-110700000D02*
X125300000Y-112400000D01*
X114573714Y-87282876D02*
X112400000Y-89450000D01*
X112250000Y-68050000D02*
X114573714Y-69806448D01*
X112400000Y-89450000D02*
X112250000Y-106700000D01*
X125700000Y-125400000D02*
X124750000Y-126450000D01*
X94442370Y-128218200D02*
X98734170Y-116610400D01*
X114573714Y-52548583D02*
X112500000Y-54600000D01*
X123650000Y-129450000D02*
X122250000Y-131550000D01*
%TO.N,L_COL2*%
X133427958Y-92282876D02*
X138511113Y-91633242D01*
X133427958Y-74806448D02*
X131450000Y-76850000D01*
X131350000Y-91000000D02*
X130150000Y-92000000D01*
X138253214Y-73838188D02*
X133427958Y-74806448D01*
X131250000Y-59100000D02*
X131250000Y-73350000D01*
X130150000Y-92000000D02*
X129653232Y-123666628D01*
X133427958Y-57548583D02*
X131250000Y-59100000D01*
X109150000Y-135000000D02*
X107055000Y-132553573D01*
X133427958Y-57548583D02*
X141219056Y-57461581D01*
X131350000Y-91000000D02*
X133427958Y-92282876D01*
X131450000Y-76850000D02*
X131350000Y-91000000D01*
X129145406Y-125613292D02*
X122650000Y-135200000D01*
X122650000Y-135200000D02*
X109150000Y-135000000D01*
X131250000Y-73350000D02*
X133427958Y-74806448D01*
%TO.N,L_COL3*%
X171920000Y-109960000D02*
X176914151Y-109142543D01*
X150350000Y-85850000D02*
X152715372Y-87282876D01*
X128910844Y-127179790D02*
X130297591Y-125330793D01*
X171920000Y-109960000D02*
X165700000Y-104900000D01*
X165700000Y-104900000D02*
X165461593Y-89183198D01*
X150250000Y-55250000D02*
X150350000Y-68700000D01*
X152715372Y-87282876D02*
X157595663Y-86862104D01*
X150100000Y-72950000D02*
X150350000Y-85850000D01*
X130875403Y-123597359D02*
X151900000Y-105200000D01*
X152715372Y-69806448D02*
X150100000Y-72950000D01*
X150350000Y-68700000D02*
X152715372Y-69806448D01*
X152715372Y-69806448D02*
X157853563Y-69067051D01*
X151900000Y-105200000D02*
X165700000Y-104900000D01*
X152715372Y-52548583D02*
X150250000Y-55250000D01*
X152715372Y-52548583D02*
X157853563Y-52045695D01*
%TO.N,L_COL4*%
X190920000Y-104960000D02*
X195994946Y-104424865D01*
X171865372Y-74806448D02*
X176938113Y-74096088D01*
X171865372Y-57548583D02*
X169700000Y-59650000D01*
X169600000Y-72550000D02*
X171865372Y-74806448D01*
X168347328Y-102267829D02*
X170500000Y-98350000D01*
X160349039Y-118264406D02*
X162500000Y-115650000D01*
X171865372Y-92282876D02*
X176938113Y-91504292D01*
X179517106Y-57461581D02*
X171865372Y-57548583D01*
X170500000Y-98350000D02*
X168900000Y-95950000D01*
X169450000Y-78600000D02*
X169350000Y-90600000D01*
X171865372Y-74806448D02*
X169450000Y-78600000D01*
X190089496Y-102328688D02*
X190920000Y-104960000D01*
X169350000Y-90600000D02*
X171865372Y-92282876D01*
X169250000Y-94050000D02*
X171865372Y-92282876D01*
X168900000Y-95950000D02*
X169250000Y-94050000D01*
X121258813Y-117250538D02*
X123962460Y-114434239D01*
X162500000Y-115650000D02*
X166319593Y-106548603D01*
X169700000Y-59650000D02*
X169600000Y-72550000D01*
%TO.N,L_COL5*%
X190877958Y-52548583D02*
X198601656Y-52561494D01*
X190877958Y-87282876D02*
X195798866Y-86450425D01*
X188300000Y-85700000D02*
X190877958Y-87282876D01*
X190877958Y-87282876D02*
X188150000Y-90450000D01*
X188650000Y-55650000D02*
X188650000Y-68300000D01*
X190877958Y-52548583D02*
X188650000Y-55650000D01*
X188150000Y-90450000D02*
X187750000Y-123750000D01*
X187750000Y-123750000D02*
X185920000Y-126210000D01*
X190877958Y-69806448D02*
X195893713Y-69196000D01*
X190476345Y-125152778D02*
X185920000Y-126210000D01*
X190877958Y-69806448D02*
X188150000Y-72950000D01*
X130281476Y-123019392D02*
X135573569Y-118281123D01*
X188150000Y-72950000D02*
X188300000Y-85700000D01*
X179017958Y-130096027D02*
X185920000Y-126210000D01*
X122035657Y-134280473D02*
X128250789Y-125665438D01*
X188650000Y-68300000D02*
X190877958Y-69806448D01*
%TD*%
M02*
