%TF.GenerationSoftware,KiCad,Pcbnew,9.0.8*%
%TF.CreationDate,2026-06-30T19:39:36+02:00*%
%TF.ProjectId,Splitboard,53706c69-7462-46f6-9172-642e6b696361,rev?*%
%TF.SameCoordinates,Original*%
%TF.FileFunction,Legend,Bot*%
%TF.FilePolarity,Positive*%
%FSLAX46Y46*%
G04 Gerber Fmt 4.6, Leading zero omitted, Abs format (unit mm)*
G04 Created by KiCad (PCBNEW 9.0.8) date 2026-06-30 19:39:36*
%MOMM*%
%LPD*%
G01*
G04 APERTURE LIST*
%ADD10C,0.150000*%
%ADD11C,0.100000*%
G04 APERTURE END LIST*
D10*
X92360158Y-79763115D02*
X92407777Y-79905972D01*
X92407777Y-79905972D02*
X92407777Y-80144067D01*
X92407777Y-80144067D02*
X92360158Y-80239305D01*
X92360158Y-80239305D02*
X92312538Y-80286924D01*
X92312538Y-80286924D02*
X92217300Y-80334543D01*
X92217300Y-80334543D02*
X92122062Y-80334543D01*
X92122062Y-80334543D02*
X92026824Y-80286924D01*
X92026824Y-80286924D02*
X91979205Y-80239305D01*
X91979205Y-80239305D02*
X91931586Y-80144067D01*
X91931586Y-80144067D02*
X91883967Y-79953591D01*
X91883967Y-79953591D02*
X91836348Y-79858353D01*
X91836348Y-79858353D02*
X91788729Y-79810734D01*
X91788729Y-79810734D02*
X91693491Y-79763115D01*
X91693491Y-79763115D02*
X91598253Y-79763115D01*
X91598253Y-79763115D02*
X91503015Y-79810734D01*
X91503015Y-79810734D02*
X91455396Y-79858353D01*
X91455396Y-79858353D02*
X91407777Y-79953591D01*
X91407777Y-79953591D02*
X91407777Y-80191686D01*
X91407777Y-80191686D02*
X91455396Y-80334543D01*
X91407777Y-80667877D02*
X92407777Y-80905972D01*
X92407777Y-80905972D02*
X91693491Y-81096448D01*
X91693491Y-81096448D02*
X92407777Y-81286924D01*
X92407777Y-81286924D02*
X91407777Y-81525020D01*
X91407777Y-81810734D02*
X91407777Y-82477400D01*
X91407777Y-82477400D02*
X92407777Y-82048829D01*
X188110158Y-57505250D02*
X188157777Y-57648107D01*
X188157777Y-57648107D02*
X188157777Y-57886202D01*
X188157777Y-57886202D02*
X188110158Y-57981440D01*
X188110158Y-57981440D02*
X188062538Y-58029059D01*
X188062538Y-58029059D02*
X187967300Y-58076678D01*
X187967300Y-58076678D02*
X187872062Y-58076678D01*
X187872062Y-58076678D02*
X187776824Y-58029059D01*
X187776824Y-58029059D02*
X187729205Y-57981440D01*
X187729205Y-57981440D02*
X187681586Y-57886202D01*
X187681586Y-57886202D02*
X187633967Y-57695726D01*
X187633967Y-57695726D02*
X187586348Y-57600488D01*
X187586348Y-57600488D02*
X187538729Y-57552869D01*
X187538729Y-57552869D02*
X187443491Y-57505250D01*
X187443491Y-57505250D02*
X187348253Y-57505250D01*
X187348253Y-57505250D02*
X187253015Y-57552869D01*
X187253015Y-57552869D02*
X187205396Y-57600488D01*
X187205396Y-57600488D02*
X187157777Y-57695726D01*
X187157777Y-57695726D02*
X187157777Y-57933821D01*
X187157777Y-57933821D02*
X187205396Y-58076678D01*
X187157777Y-58410012D02*
X188157777Y-58648107D01*
X188157777Y-58648107D02*
X187443491Y-58838583D01*
X187443491Y-58838583D02*
X188157777Y-59029059D01*
X188157777Y-59029059D02*
X187157777Y-59267155D01*
X187157777Y-60076678D02*
X187157777Y-59886202D01*
X187157777Y-59886202D02*
X187205396Y-59790964D01*
X187205396Y-59790964D02*
X187253015Y-59743345D01*
X187253015Y-59743345D02*
X187395872Y-59648107D01*
X187395872Y-59648107D02*
X187586348Y-59600488D01*
X187586348Y-59600488D02*
X187967300Y-59600488D01*
X187967300Y-59600488D02*
X188062538Y-59648107D01*
X188062538Y-59648107D02*
X188110158Y-59695726D01*
X188110158Y-59695726D02*
X188157777Y-59790964D01*
X188157777Y-59790964D02*
X188157777Y-59981440D01*
X188157777Y-59981440D02*
X188110158Y-60076678D01*
X188110158Y-60076678D02*
X188062538Y-60124297D01*
X188062538Y-60124297D02*
X187967300Y-60171916D01*
X187967300Y-60171916D02*
X187729205Y-60171916D01*
X187729205Y-60171916D02*
X187633967Y-60124297D01*
X187633967Y-60124297D02*
X187586348Y-60076678D01*
X187586348Y-60076678D02*
X187538729Y-59981440D01*
X187538729Y-59981440D02*
X187538729Y-59790964D01*
X187538729Y-59790964D02*
X187586348Y-59695726D01*
X187586348Y-59695726D02*
X187633967Y-59648107D01*
X187633967Y-59648107D02*
X187729205Y-59600488D01*
X149947572Y-57505250D02*
X149995191Y-57648107D01*
X149995191Y-57648107D02*
X149995191Y-57886202D01*
X149995191Y-57886202D02*
X149947572Y-57981440D01*
X149947572Y-57981440D02*
X149899952Y-58029059D01*
X149899952Y-58029059D02*
X149804714Y-58076678D01*
X149804714Y-58076678D02*
X149709476Y-58076678D01*
X149709476Y-58076678D02*
X149614238Y-58029059D01*
X149614238Y-58029059D02*
X149566619Y-57981440D01*
X149566619Y-57981440D02*
X149519000Y-57886202D01*
X149519000Y-57886202D02*
X149471381Y-57695726D01*
X149471381Y-57695726D02*
X149423762Y-57600488D01*
X149423762Y-57600488D02*
X149376143Y-57552869D01*
X149376143Y-57552869D02*
X149280905Y-57505250D01*
X149280905Y-57505250D02*
X149185667Y-57505250D01*
X149185667Y-57505250D02*
X149090429Y-57552869D01*
X149090429Y-57552869D02*
X149042810Y-57600488D01*
X149042810Y-57600488D02*
X148995191Y-57695726D01*
X148995191Y-57695726D02*
X148995191Y-57933821D01*
X148995191Y-57933821D02*
X149042810Y-58076678D01*
X148995191Y-58410012D02*
X149995191Y-58648107D01*
X149995191Y-58648107D02*
X149280905Y-58838583D01*
X149280905Y-58838583D02*
X149995191Y-59029059D01*
X149995191Y-59029059D02*
X148995191Y-59267155D01*
X149328524Y-60076678D02*
X149995191Y-60076678D01*
X148947572Y-59838583D02*
X149661857Y-59600488D01*
X149661857Y-59600488D02*
X149661857Y-60219535D01*
X130660158Y-96763352D02*
X130707777Y-96906209D01*
X130707777Y-96906209D02*
X130707777Y-97144304D01*
X130707777Y-97144304D02*
X130660158Y-97239542D01*
X130660158Y-97239542D02*
X130612538Y-97287161D01*
X130612538Y-97287161D02*
X130517300Y-97334780D01*
X130517300Y-97334780D02*
X130422062Y-97334780D01*
X130422062Y-97334780D02*
X130326824Y-97287161D01*
X130326824Y-97287161D02*
X130279205Y-97239542D01*
X130279205Y-97239542D02*
X130231586Y-97144304D01*
X130231586Y-97144304D02*
X130183967Y-96953828D01*
X130183967Y-96953828D02*
X130136348Y-96858590D01*
X130136348Y-96858590D02*
X130088729Y-96810971D01*
X130088729Y-96810971D02*
X129993491Y-96763352D01*
X129993491Y-96763352D02*
X129898253Y-96763352D01*
X129898253Y-96763352D02*
X129803015Y-96810971D01*
X129803015Y-96810971D02*
X129755396Y-96858590D01*
X129755396Y-96858590D02*
X129707777Y-96953828D01*
X129707777Y-96953828D02*
X129707777Y-97191923D01*
X129707777Y-97191923D02*
X129755396Y-97334780D01*
X129707777Y-97668114D02*
X130707777Y-97906209D01*
X130707777Y-97906209D02*
X129993491Y-98096685D01*
X129993491Y-98096685D02*
X130707777Y-98287161D01*
X130707777Y-98287161D02*
X129707777Y-98525257D01*
X130707777Y-99430018D02*
X130707777Y-98858590D01*
X130707777Y-99144304D02*
X129707777Y-99144304D01*
X129707777Y-99144304D02*
X129850634Y-99049066D01*
X129850634Y-99049066D02*
X129945872Y-98953828D01*
X129945872Y-98953828D02*
X129993491Y-98858590D01*
X129707777Y-100334780D02*
X129707777Y-99858590D01*
X129707777Y-99858590D02*
X130183967Y-99810971D01*
X130183967Y-99810971D02*
X130136348Y-99858590D01*
X130136348Y-99858590D02*
X130088729Y-99953828D01*
X130088729Y-99953828D02*
X130088729Y-100191923D01*
X130088729Y-100191923D02*
X130136348Y-100287161D01*
X130136348Y-100287161D02*
X130183967Y-100334780D01*
X130183967Y-100334780D02*
X130279205Y-100382399D01*
X130279205Y-100382399D02*
X130517300Y-100382399D01*
X130517300Y-100382399D02*
X130612538Y-100334780D01*
X130612538Y-100334780D02*
X130660158Y-100287161D01*
X130660158Y-100287161D02*
X130707777Y-100191923D01*
X130707777Y-100191923D02*
X130707777Y-99953828D01*
X130707777Y-99953828D02*
X130660158Y-99858590D01*
X130660158Y-99858590D02*
X130612538Y-99810971D01*
X88323798Y-119203835D02*
X89133321Y-119203835D01*
X89133321Y-119203835D02*
X89228559Y-119251454D01*
X89228559Y-119251454D02*
X89276179Y-119299073D01*
X89276179Y-119299073D02*
X89323798Y-119394311D01*
X89323798Y-119394311D02*
X89323798Y-119584787D01*
X89323798Y-119584787D02*
X89276179Y-119680025D01*
X89276179Y-119680025D02*
X89228559Y-119727644D01*
X89228559Y-119727644D02*
X89133321Y-119775263D01*
X89133321Y-119775263D02*
X88323798Y-119775263D01*
X89276179Y-120203835D02*
X89323798Y-120346692D01*
X89323798Y-120346692D02*
X89323798Y-120584787D01*
X89323798Y-120584787D02*
X89276179Y-120680025D01*
X89276179Y-120680025D02*
X89228559Y-120727644D01*
X89228559Y-120727644D02*
X89133321Y-120775263D01*
X89133321Y-120775263D02*
X89038083Y-120775263D01*
X89038083Y-120775263D02*
X88942845Y-120727644D01*
X88942845Y-120727644D02*
X88895226Y-120680025D01*
X88895226Y-120680025D02*
X88847607Y-120584787D01*
X88847607Y-120584787D02*
X88799988Y-120394311D01*
X88799988Y-120394311D02*
X88752369Y-120299073D01*
X88752369Y-120299073D02*
X88704750Y-120251454D01*
X88704750Y-120251454D02*
X88609512Y-120203835D01*
X88609512Y-120203835D02*
X88514274Y-120203835D01*
X88514274Y-120203835D02*
X88419036Y-120251454D01*
X88419036Y-120251454D02*
X88371417Y-120299073D01*
X88371417Y-120299073D02*
X88323798Y-120394311D01*
X88323798Y-120394311D02*
X88323798Y-120632406D01*
X88323798Y-120632406D02*
X88371417Y-120775263D01*
X88799988Y-121537168D02*
X88847607Y-121680025D01*
X88847607Y-121680025D02*
X88895226Y-121727644D01*
X88895226Y-121727644D02*
X88990464Y-121775263D01*
X88990464Y-121775263D02*
X89133321Y-121775263D01*
X89133321Y-121775263D02*
X89228559Y-121727644D01*
X89228559Y-121727644D02*
X89276179Y-121680025D01*
X89276179Y-121680025D02*
X89323798Y-121584787D01*
X89323798Y-121584787D02*
X89323798Y-121203835D01*
X89323798Y-121203835D02*
X88323798Y-121203835D01*
X88323798Y-121203835D02*
X88323798Y-121537168D01*
X88323798Y-121537168D02*
X88371417Y-121632406D01*
X88371417Y-121632406D02*
X88419036Y-121680025D01*
X88419036Y-121680025D02*
X88514274Y-121727644D01*
X88514274Y-121727644D02*
X88609512Y-121727644D01*
X88609512Y-121727644D02*
X88704750Y-121680025D01*
X88704750Y-121680025D02*
X88752369Y-121632406D01*
X88752369Y-121632406D02*
X88799988Y-121537168D01*
X88799988Y-121537168D02*
X88799988Y-121203835D01*
D11*
X92240784Y-127394624D02*
X92240784Y-126823196D01*
X92240784Y-127108910D02*
X91240784Y-127108910D01*
X91240784Y-127108910D02*
X91383641Y-127013672D01*
X91383641Y-127013672D02*
X91478879Y-126918434D01*
X91478879Y-126918434D02*
X91526498Y-126823196D01*
D10*
X188152200Y-109440476D02*
X188199819Y-109583333D01*
X188199819Y-109583333D02*
X188199819Y-109821428D01*
X188199819Y-109821428D02*
X188152200Y-109916666D01*
X188152200Y-109916666D02*
X188104580Y-109964285D01*
X188104580Y-109964285D02*
X188009342Y-110011904D01*
X188009342Y-110011904D02*
X187914104Y-110011904D01*
X187914104Y-110011904D02*
X187818866Y-109964285D01*
X187818866Y-109964285D02*
X187771247Y-109916666D01*
X187771247Y-109916666D02*
X187723628Y-109821428D01*
X187723628Y-109821428D02*
X187676009Y-109630952D01*
X187676009Y-109630952D02*
X187628390Y-109535714D01*
X187628390Y-109535714D02*
X187580771Y-109488095D01*
X187580771Y-109488095D02*
X187485533Y-109440476D01*
X187485533Y-109440476D02*
X187390295Y-109440476D01*
X187390295Y-109440476D02*
X187295057Y-109488095D01*
X187295057Y-109488095D02*
X187247438Y-109535714D01*
X187247438Y-109535714D02*
X187199819Y-109630952D01*
X187199819Y-109630952D02*
X187199819Y-109869047D01*
X187199819Y-109869047D02*
X187247438Y-110011904D01*
X187199819Y-110345238D02*
X188199819Y-110583333D01*
X188199819Y-110583333D02*
X187485533Y-110773809D01*
X187485533Y-110773809D02*
X188199819Y-110964285D01*
X188199819Y-110964285D02*
X187199819Y-111202381D01*
X187295057Y-111535714D02*
X187247438Y-111583333D01*
X187247438Y-111583333D02*
X187199819Y-111678571D01*
X187199819Y-111678571D02*
X187199819Y-111916666D01*
X187199819Y-111916666D02*
X187247438Y-112011904D01*
X187247438Y-112011904D02*
X187295057Y-112059523D01*
X187295057Y-112059523D02*
X187390295Y-112107142D01*
X187390295Y-112107142D02*
X187485533Y-112107142D01*
X187485533Y-112107142D02*
X187628390Y-112059523D01*
X187628390Y-112059523D02*
X188199819Y-111488095D01*
X188199819Y-111488095D02*
X188199819Y-112107142D01*
X187199819Y-112726190D02*
X187199819Y-112821428D01*
X187199819Y-112821428D02*
X187247438Y-112916666D01*
X187247438Y-112916666D02*
X187295057Y-112964285D01*
X187295057Y-112964285D02*
X187390295Y-113011904D01*
X187390295Y-113011904D02*
X187580771Y-113059523D01*
X187580771Y-113059523D02*
X187818866Y-113059523D01*
X187818866Y-113059523D02*
X188009342Y-113011904D01*
X188009342Y-113011904D02*
X188104580Y-112964285D01*
X188104580Y-112964285D02*
X188152200Y-112916666D01*
X188152200Y-112916666D02*
X188199819Y-112821428D01*
X188199819Y-112821428D02*
X188199819Y-112726190D01*
X188199819Y-112726190D02*
X188152200Y-112630952D01*
X188152200Y-112630952D02*
X188104580Y-112583333D01*
X188104580Y-112583333D02*
X188009342Y-112535714D01*
X188009342Y-112535714D02*
X187818866Y-112488095D01*
X187818866Y-112488095D02*
X187580771Y-112488095D01*
X187580771Y-112488095D02*
X187390295Y-112535714D01*
X187390295Y-112535714D02*
X187295057Y-112583333D01*
X187295057Y-112583333D02*
X187247438Y-112630952D01*
X187247438Y-112630952D02*
X187199819Y-112726190D01*
X169097572Y-79286924D02*
X169145191Y-79429781D01*
X169145191Y-79429781D02*
X169145191Y-79667876D01*
X169145191Y-79667876D02*
X169097572Y-79763114D01*
X169097572Y-79763114D02*
X169049952Y-79810733D01*
X169049952Y-79810733D02*
X168954714Y-79858352D01*
X168954714Y-79858352D02*
X168859476Y-79858352D01*
X168859476Y-79858352D02*
X168764238Y-79810733D01*
X168764238Y-79810733D02*
X168716619Y-79763114D01*
X168716619Y-79763114D02*
X168669000Y-79667876D01*
X168669000Y-79667876D02*
X168621381Y-79477400D01*
X168621381Y-79477400D02*
X168573762Y-79382162D01*
X168573762Y-79382162D02*
X168526143Y-79334543D01*
X168526143Y-79334543D02*
X168430905Y-79286924D01*
X168430905Y-79286924D02*
X168335667Y-79286924D01*
X168335667Y-79286924D02*
X168240429Y-79334543D01*
X168240429Y-79334543D02*
X168192810Y-79382162D01*
X168192810Y-79382162D02*
X168145191Y-79477400D01*
X168145191Y-79477400D02*
X168145191Y-79715495D01*
X168145191Y-79715495D02*
X168192810Y-79858352D01*
X168145191Y-80191686D02*
X169145191Y-80429781D01*
X169145191Y-80429781D02*
X168430905Y-80620257D01*
X168430905Y-80620257D02*
X169145191Y-80810733D01*
X169145191Y-80810733D02*
X168145191Y-81048829D01*
X169145191Y-81953590D02*
X169145191Y-81382162D01*
X169145191Y-81667876D02*
X168145191Y-81667876D01*
X168145191Y-81667876D02*
X168288048Y-81572638D01*
X168288048Y-81572638D02*
X168383286Y-81477400D01*
X168383286Y-81477400D02*
X168430905Y-81382162D01*
X169145191Y-82905971D02*
X169145191Y-82334543D01*
X169145191Y-82620257D02*
X168145191Y-82620257D01*
X168145191Y-82620257D02*
X168288048Y-82525019D01*
X168288048Y-82525019D02*
X168383286Y-82429781D01*
X168383286Y-82429781D02*
X168430905Y-82334543D01*
X169097572Y-96763352D02*
X169145191Y-96906209D01*
X169145191Y-96906209D02*
X169145191Y-97144304D01*
X169145191Y-97144304D02*
X169097572Y-97239542D01*
X169097572Y-97239542D02*
X169049952Y-97287161D01*
X169049952Y-97287161D02*
X168954714Y-97334780D01*
X168954714Y-97334780D02*
X168859476Y-97334780D01*
X168859476Y-97334780D02*
X168764238Y-97287161D01*
X168764238Y-97287161D02*
X168716619Y-97239542D01*
X168716619Y-97239542D02*
X168669000Y-97144304D01*
X168669000Y-97144304D02*
X168621381Y-96953828D01*
X168621381Y-96953828D02*
X168573762Y-96858590D01*
X168573762Y-96858590D02*
X168526143Y-96810971D01*
X168526143Y-96810971D02*
X168430905Y-96763352D01*
X168430905Y-96763352D02*
X168335667Y-96763352D01*
X168335667Y-96763352D02*
X168240429Y-96810971D01*
X168240429Y-96810971D02*
X168192810Y-96858590D01*
X168192810Y-96858590D02*
X168145191Y-96953828D01*
X168145191Y-96953828D02*
X168145191Y-97191923D01*
X168145191Y-97191923D02*
X168192810Y-97334780D01*
X168145191Y-97668114D02*
X169145191Y-97906209D01*
X169145191Y-97906209D02*
X168430905Y-98096685D01*
X168430905Y-98096685D02*
X169145191Y-98287161D01*
X169145191Y-98287161D02*
X168145191Y-98525257D01*
X169145191Y-99430018D02*
X169145191Y-98858590D01*
X169145191Y-99144304D02*
X168145191Y-99144304D01*
X168145191Y-99144304D02*
X168288048Y-99049066D01*
X168288048Y-99049066D02*
X168383286Y-98953828D01*
X168383286Y-98953828D02*
X168430905Y-98858590D01*
X168145191Y-99763352D02*
X168145191Y-100430018D01*
X168145191Y-100430018D02*
X169145191Y-100001447D01*
X188110158Y-91763352D02*
X188157777Y-91906209D01*
X188157777Y-91906209D02*
X188157777Y-92144304D01*
X188157777Y-92144304D02*
X188110158Y-92239542D01*
X188110158Y-92239542D02*
X188062538Y-92287161D01*
X188062538Y-92287161D02*
X187967300Y-92334780D01*
X187967300Y-92334780D02*
X187872062Y-92334780D01*
X187872062Y-92334780D02*
X187776824Y-92287161D01*
X187776824Y-92287161D02*
X187729205Y-92239542D01*
X187729205Y-92239542D02*
X187681586Y-92144304D01*
X187681586Y-92144304D02*
X187633967Y-91953828D01*
X187633967Y-91953828D02*
X187586348Y-91858590D01*
X187586348Y-91858590D02*
X187538729Y-91810971D01*
X187538729Y-91810971D02*
X187443491Y-91763352D01*
X187443491Y-91763352D02*
X187348253Y-91763352D01*
X187348253Y-91763352D02*
X187253015Y-91810971D01*
X187253015Y-91810971D02*
X187205396Y-91858590D01*
X187205396Y-91858590D02*
X187157777Y-91953828D01*
X187157777Y-91953828D02*
X187157777Y-92191923D01*
X187157777Y-92191923D02*
X187205396Y-92334780D01*
X187157777Y-92668114D02*
X188157777Y-92906209D01*
X188157777Y-92906209D02*
X187443491Y-93096685D01*
X187443491Y-93096685D02*
X188157777Y-93287161D01*
X188157777Y-93287161D02*
X187157777Y-93525257D01*
X188157777Y-94430018D02*
X188157777Y-93858590D01*
X188157777Y-94144304D02*
X187157777Y-94144304D01*
X187157777Y-94144304D02*
X187300634Y-94049066D01*
X187300634Y-94049066D02*
X187395872Y-93953828D01*
X187395872Y-93953828D02*
X187443491Y-93858590D01*
X187586348Y-95001447D02*
X187538729Y-94906209D01*
X187538729Y-94906209D02*
X187491110Y-94858590D01*
X187491110Y-94858590D02*
X187395872Y-94810971D01*
X187395872Y-94810971D02*
X187348253Y-94810971D01*
X187348253Y-94810971D02*
X187253015Y-94858590D01*
X187253015Y-94858590D02*
X187205396Y-94906209D01*
X187205396Y-94906209D02*
X187157777Y-95001447D01*
X187157777Y-95001447D02*
X187157777Y-95191923D01*
X187157777Y-95191923D02*
X187205396Y-95287161D01*
X187205396Y-95287161D02*
X187253015Y-95334780D01*
X187253015Y-95334780D02*
X187348253Y-95382399D01*
X187348253Y-95382399D02*
X187395872Y-95382399D01*
X187395872Y-95382399D02*
X187491110Y-95334780D01*
X187491110Y-95334780D02*
X187538729Y-95287161D01*
X187538729Y-95287161D02*
X187586348Y-95191923D01*
X187586348Y-95191923D02*
X187586348Y-95001447D01*
X187586348Y-95001447D02*
X187633967Y-94906209D01*
X187633967Y-94906209D02*
X187681586Y-94858590D01*
X187681586Y-94858590D02*
X187776824Y-94810971D01*
X187776824Y-94810971D02*
X187967300Y-94810971D01*
X187967300Y-94810971D02*
X188062538Y-94858590D01*
X188062538Y-94858590D02*
X188110158Y-94906209D01*
X188110158Y-94906209D02*
X188157777Y-95001447D01*
X188157777Y-95001447D02*
X188157777Y-95191923D01*
X188157777Y-95191923D02*
X188110158Y-95287161D01*
X188110158Y-95287161D02*
X188062538Y-95334780D01*
X188062538Y-95334780D02*
X187967300Y-95382399D01*
X187967300Y-95382399D02*
X187776824Y-95382399D01*
X187776824Y-95382399D02*
X187681586Y-95334780D01*
X187681586Y-95334780D02*
X187633967Y-95287161D01*
X187633967Y-95287161D02*
X187586348Y-95191923D01*
X130660158Y-62505250D02*
X130707777Y-62648107D01*
X130707777Y-62648107D02*
X130707777Y-62886202D01*
X130707777Y-62886202D02*
X130660158Y-62981440D01*
X130660158Y-62981440D02*
X130612538Y-63029059D01*
X130612538Y-63029059D02*
X130517300Y-63076678D01*
X130517300Y-63076678D02*
X130422062Y-63076678D01*
X130422062Y-63076678D02*
X130326824Y-63029059D01*
X130326824Y-63029059D02*
X130279205Y-62981440D01*
X130279205Y-62981440D02*
X130231586Y-62886202D01*
X130231586Y-62886202D02*
X130183967Y-62695726D01*
X130183967Y-62695726D02*
X130136348Y-62600488D01*
X130136348Y-62600488D02*
X130088729Y-62552869D01*
X130088729Y-62552869D02*
X129993491Y-62505250D01*
X129993491Y-62505250D02*
X129898253Y-62505250D01*
X129898253Y-62505250D02*
X129803015Y-62552869D01*
X129803015Y-62552869D02*
X129755396Y-62600488D01*
X129755396Y-62600488D02*
X129707777Y-62695726D01*
X129707777Y-62695726D02*
X129707777Y-62933821D01*
X129707777Y-62933821D02*
X129755396Y-63076678D01*
X129707777Y-63410012D02*
X130707777Y-63648107D01*
X130707777Y-63648107D02*
X129993491Y-63838583D01*
X129993491Y-63838583D02*
X130707777Y-64029059D01*
X130707777Y-64029059D02*
X129707777Y-64267155D01*
X129707777Y-64552869D02*
X129707777Y-65171916D01*
X129707777Y-65171916D02*
X130088729Y-64838583D01*
X130088729Y-64838583D02*
X130088729Y-64981440D01*
X130088729Y-64981440D02*
X130136348Y-65076678D01*
X130136348Y-65076678D02*
X130183967Y-65124297D01*
X130183967Y-65124297D02*
X130279205Y-65171916D01*
X130279205Y-65171916D02*
X130517300Y-65171916D01*
X130517300Y-65171916D02*
X130612538Y-65124297D01*
X130612538Y-65124297D02*
X130660158Y-65076678D01*
X130660158Y-65076678D02*
X130707777Y-64981440D01*
X130707777Y-64981440D02*
X130707777Y-64695726D01*
X130707777Y-64695726D02*
X130660158Y-64600488D01*
X130660158Y-64600488D02*
X130612538Y-64552869D01*
X183152200Y-130690476D02*
X183199819Y-130833333D01*
X183199819Y-130833333D02*
X183199819Y-131071428D01*
X183199819Y-131071428D02*
X183152200Y-131166666D01*
X183152200Y-131166666D02*
X183104580Y-131214285D01*
X183104580Y-131214285D02*
X183009342Y-131261904D01*
X183009342Y-131261904D02*
X182914104Y-131261904D01*
X182914104Y-131261904D02*
X182818866Y-131214285D01*
X182818866Y-131214285D02*
X182771247Y-131166666D01*
X182771247Y-131166666D02*
X182723628Y-131071428D01*
X182723628Y-131071428D02*
X182676009Y-130880952D01*
X182676009Y-130880952D02*
X182628390Y-130785714D01*
X182628390Y-130785714D02*
X182580771Y-130738095D01*
X182580771Y-130738095D02*
X182485533Y-130690476D01*
X182485533Y-130690476D02*
X182390295Y-130690476D01*
X182390295Y-130690476D02*
X182295057Y-130738095D01*
X182295057Y-130738095D02*
X182247438Y-130785714D01*
X182247438Y-130785714D02*
X182199819Y-130880952D01*
X182199819Y-130880952D02*
X182199819Y-131119047D01*
X182199819Y-131119047D02*
X182247438Y-131261904D01*
X182199819Y-131595238D02*
X183199819Y-131833333D01*
X183199819Y-131833333D02*
X182485533Y-132023809D01*
X182485533Y-132023809D02*
X183199819Y-132214285D01*
X183199819Y-132214285D02*
X182199819Y-132452381D01*
X182295057Y-132785714D02*
X182247438Y-132833333D01*
X182247438Y-132833333D02*
X182199819Y-132928571D01*
X182199819Y-132928571D02*
X182199819Y-133166666D01*
X182199819Y-133166666D02*
X182247438Y-133261904D01*
X182247438Y-133261904D02*
X182295057Y-133309523D01*
X182295057Y-133309523D02*
X182390295Y-133357142D01*
X182390295Y-133357142D02*
X182485533Y-133357142D01*
X182485533Y-133357142D02*
X182628390Y-133309523D01*
X182628390Y-133309523D02*
X183199819Y-132738095D01*
X183199819Y-132738095D02*
X183199819Y-133357142D01*
X183199819Y-134309523D02*
X183199819Y-133738095D01*
X183199819Y-134023809D02*
X182199819Y-134023809D01*
X182199819Y-134023809D02*
X182342676Y-133928571D01*
X182342676Y-133928571D02*
X182437914Y-133833333D01*
X182437914Y-133833333D02*
X182485533Y-133738095D01*
X111805914Y-91763352D02*
X111853533Y-91906209D01*
X111853533Y-91906209D02*
X111853533Y-92144304D01*
X111853533Y-92144304D02*
X111805914Y-92239542D01*
X111805914Y-92239542D02*
X111758294Y-92287161D01*
X111758294Y-92287161D02*
X111663056Y-92334780D01*
X111663056Y-92334780D02*
X111567818Y-92334780D01*
X111567818Y-92334780D02*
X111472580Y-92287161D01*
X111472580Y-92287161D02*
X111424961Y-92239542D01*
X111424961Y-92239542D02*
X111377342Y-92144304D01*
X111377342Y-92144304D02*
X111329723Y-91953828D01*
X111329723Y-91953828D02*
X111282104Y-91858590D01*
X111282104Y-91858590D02*
X111234485Y-91810971D01*
X111234485Y-91810971D02*
X111139247Y-91763352D01*
X111139247Y-91763352D02*
X111044009Y-91763352D01*
X111044009Y-91763352D02*
X110948771Y-91810971D01*
X110948771Y-91810971D02*
X110901152Y-91858590D01*
X110901152Y-91858590D02*
X110853533Y-91953828D01*
X110853533Y-91953828D02*
X110853533Y-92191923D01*
X110853533Y-92191923D02*
X110901152Y-92334780D01*
X110853533Y-92668114D02*
X111853533Y-92906209D01*
X111853533Y-92906209D02*
X111139247Y-93096685D01*
X111139247Y-93096685D02*
X111853533Y-93287161D01*
X111853533Y-93287161D02*
X110853533Y-93525257D01*
X111853533Y-94430018D02*
X111853533Y-93858590D01*
X111853533Y-94144304D02*
X110853533Y-94144304D01*
X110853533Y-94144304D02*
X110996390Y-94049066D01*
X110996390Y-94049066D02*
X111091628Y-93953828D01*
X111091628Y-93953828D02*
X111139247Y-93858590D01*
X111186866Y-95287161D02*
X111853533Y-95287161D01*
X110805914Y-95049066D02*
X111520199Y-94810971D01*
X111520199Y-94810971D02*
X111520199Y-95430018D01*
X111805914Y-57505250D02*
X111853533Y-57648107D01*
X111853533Y-57648107D02*
X111853533Y-57886202D01*
X111853533Y-57886202D02*
X111805914Y-57981440D01*
X111805914Y-57981440D02*
X111758294Y-58029059D01*
X111758294Y-58029059D02*
X111663056Y-58076678D01*
X111663056Y-58076678D02*
X111567818Y-58076678D01*
X111567818Y-58076678D02*
X111472580Y-58029059D01*
X111472580Y-58029059D02*
X111424961Y-57981440D01*
X111424961Y-57981440D02*
X111377342Y-57886202D01*
X111377342Y-57886202D02*
X111329723Y-57695726D01*
X111329723Y-57695726D02*
X111282104Y-57600488D01*
X111282104Y-57600488D02*
X111234485Y-57552869D01*
X111234485Y-57552869D02*
X111139247Y-57505250D01*
X111139247Y-57505250D02*
X111044009Y-57505250D01*
X111044009Y-57505250D02*
X110948771Y-57552869D01*
X110948771Y-57552869D02*
X110901152Y-57600488D01*
X110901152Y-57600488D02*
X110853533Y-57695726D01*
X110853533Y-57695726D02*
X110853533Y-57933821D01*
X110853533Y-57933821D02*
X110901152Y-58076678D01*
X110853533Y-58410012D02*
X111853533Y-58648107D01*
X111853533Y-58648107D02*
X111139247Y-58838583D01*
X111139247Y-58838583D02*
X111853533Y-59029059D01*
X111853533Y-59029059D02*
X110853533Y-59267155D01*
X110948771Y-59600488D02*
X110901152Y-59648107D01*
X110901152Y-59648107D02*
X110853533Y-59743345D01*
X110853533Y-59743345D02*
X110853533Y-59981440D01*
X110853533Y-59981440D02*
X110901152Y-60076678D01*
X110901152Y-60076678D02*
X110948771Y-60124297D01*
X110948771Y-60124297D02*
X111044009Y-60171916D01*
X111044009Y-60171916D02*
X111139247Y-60171916D01*
X111139247Y-60171916D02*
X111282104Y-60124297D01*
X111282104Y-60124297D02*
X111853533Y-59552869D01*
X111853533Y-59552869D02*
X111853533Y-60171916D01*
X169152200Y-114440476D02*
X169199819Y-114583333D01*
X169199819Y-114583333D02*
X169199819Y-114821428D01*
X169199819Y-114821428D02*
X169152200Y-114916666D01*
X169152200Y-114916666D02*
X169104580Y-114964285D01*
X169104580Y-114964285D02*
X169009342Y-115011904D01*
X169009342Y-115011904D02*
X168914104Y-115011904D01*
X168914104Y-115011904D02*
X168818866Y-114964285D01*
X168818866Y-114964285D02*
X168771247Y-114916666D01*
X168771247Y-114916666D02*
X168723628Y-114821428D01*
X168723628Y-114821428D02*
X168676009Y-114630952D01*
X168676009Y-114630952D02*
X168628390Y-114535714D01*
X168628390Y-114535714D02*
X168580771Y-114488095D01*
X168580771Y-114488095D02*
X168485533Y-114440476D01*
X168485533Y-114440476D02*
X168390295Y-114440476D01*
X168390295Y-114440476D02*
X168295057Y-114488095D01*
X168295057Y-114488095D02*
X168247438Y-114535714D01*
X168247438Y-114535714D02*
X168199819Y-114630952D01*
X168199819Y-114630952D02*
X168199819Y-114869047D01*
X168199819Y-114869047D02*
X168247438Y-115011904D01*
X168199819Y-115345238D02*
X169199819Y-115583333D01*
X169199819Y-115583333D02*
X168485533Y-115773809D01*
X168485533Y-115773809D02*
X169199819Y-115964285D01*
X169199819Y-115964285D02*
X168199819Y-116202381D01*
X169199819Y-117107142D02*
X169199819Y-116535714D01*
X169199819Y-116821428D02*
X168199819Y-116821428D01*
X168199819Y-116821428D02*
X168342676Y-116726190D01*
X168342676Y-116726190D02*
X168437914Y-116630952D01*
X168437914Y-116630952D02*
X168485533Y-116535714D01*
X169199819Y-117583333D02*
X169199819Y-117773809D01*
X169199819Y-117773809D02*
X169152200Y-117869047D01*
X169152200Y-117869047D02*
X169104580Y-117916666D01*
X169104580Y-117916666D02*
X168961723Y-118011904D01*
X168961723Y-118011904D02*
X168771247Y-118059523D01*
X168771247Y-118059523D02*
X168390295Y-118059523D01*
X168390295Y-118059523D02*
X168295057Y-118011904D01*
X168295057Y-118011904D02*
X168247438Y-117964285D01*
X168247438Y-117964285D02*
X168199819Y-117869047D01*
X168199819Y-117869047D02*
X168199819Y-117678571D01*
X168199819Y-117678571D02*
X168247438Y-117583333D01*
X168247438Y-117583333D02*
X168295057Y-117535714D01*
X168295057Y-117535714D02*
X168390295Y-117488095D01*
X168390295Y-117488095D02*
X168628390Y-117488095D01*
X168628390Y-117488095D02*
X168723628Y-117535714D01*
X168723628Y-117535714D02*
X168771247Y-117583333D01*
X168771247Y-117583333D02*
X168818866Y-117678571D01*
X168818866Y-117678571D02*
X168818866Y-117869047D01*
X168818866Y-117869047D02*
X168771247Y-117964285D01*
X168771247Y-117964285D02*
X168723628Y-118011904D01*
X168723628Y-118011904D02*
X168628390Y-118059523D01*
X169097572Y-62505250D02*
X169145191Y-62648107D01*
X169145191Y-62648107D02*
X169145191Y-62886202D01*
X169145191Y-62886202D02*
X169097572Y-62981440D01*
X169097572Y-62981440D02*
X169049952Y-63029059D01*
X169049952Y-63029059D02*
X168954714Y-63076678D01*
X168954714Y-63076678D02*
X168859476Y-63076678D01*
X168859476Y-63076678D02*
X168764238Y-63029059D01*
X168764238Y-63029059D02*
X168716619Y-62981440D01*
X168716619Y-62981440D02*
X168669000Y-62886202D01*
X168669000Y-62886202D02*
X168621381Y-62695726D01*
X168621381Y-62695726D02*
X168573762Y-62600488D01*
X168573762Y-62600488D02*
X168526143Y-62552869D01*
X168526143Y-62552869D02*
X168430905Y-62505250D01*
X168430905Y-62505250D02*
X168335667Y-62505250D01*
X168335667Y-62505250D02*
X168240429Y-62552869D01*
X168240429Y-62552869D02*
X168192810Y-62600488D01*
X168192810Y-62600488D02*
X168145191Y-62695726D01*
X168145191Y-62695726D02*
X168145191Y-62933821D01*
X168145191Y-62933821D02*
X168192810Y-63076678D01*
X168145191Y-63410012D02*
X169145191Y-63648107D01*
X169145191Y-63648107D02*
X168430905Y-63838583D01*
X168430905Y-63838583D02*
X169145191Y-64029059D01*
X169145191Y-64029059D02*
X168145191Y-64267155D01*
X168145191Y-65124297D02*
X168145191Y-64648107D01*
X168145191Y-64648107D02*
X168621381Y-64600488D01*
X168621381Y-64600488D02*
X168573762Y-64648107D01*
X168573762Y-64648107D02*
X168526143Y-64743345D01*
X168526143Y-64743345D02*
X168526143Y-64981440D01*
X168526143Y-64981440D02*
X168573762Y-65076678D01*
X168573762Y-65076678D02*
X168621381Y-65124297D01*
X168621381Y-65124297D02*
X168716619Y-65171916D01*
X168716619Y-65171916D02*
X168954714Y-65171916D01*
X168954714Y-65171916D02*
X169049952Y-65124297D01*
X169049952Y-65124297D02*
X169097572Y-65076678D01*
X169097572Y-65076678D02*
X169145191Y-64981440D01*
X169145191Y-64981440D02*
X169145191Y-64743345D01*
X169145191Y-64743345D02*
X169097572Y-64648107D01*
X169097572Y-64648107D02*
X169049952Y-64600488D01*
X149947572Y-74286924D02*
X149995191Y-74429781D01*
X149995191Y-74429781D02*
X149995191Y-74667876D01*
X149995191Y-74667876D02*
X149947572Y-74763114D01*
X149947572Y-74763114D02*
X149899952Y-74810733D01*
X149899952Y-74810733D02*
X149804714Y-74858352D01*
X149804714Y-74858352D02*
X149709476Y-74858352D01*
X149709476Y-74858352D02*
X149614238Y-74810733D01*
X149614238Y-74810733D02*
X149566619Y-74763114D01*
X149566619Y-74763114D02*
X149519000Y-74667876D01*
X149519000Y-74667876D02*
X149471381Y-74477400D01*
X149471381Y-74477400D02*
X149423762Y-74382162D01*
X149423762Y-74382162D02*
X149376143Y-74334543D01*
X149376143Y-74334543D02*
X149280905Y-74286924D01*
X149280905Y-74286924D02*
X149185667Y-74286924D01*
X149185667Y-74286924D02*
X149090429Y-74334543D01*
X149090429Y-74334543D02*
X149042810Y-74382162D01*
X149042810Y-74382162D02*
X148995191Y-74477400D01*
X148995191Y-74477400D02*
X148995191Y-74715495D01*
X148995191Y-74715495D02*
X149042810Y-74858352D01*
X148995191Y-75191686D02*
X149995191Y-75429781D01*
X149995191Y-75429781D02*
X149280905Y-75620257D01*
X149280905Y-75620257D02*
X149995191Y-75810733D01*
X149995191Y-75810733D02*
X148995191Y-76048829D01*
X149995191Y-76953590D02*
X149995191Y-76382162D01*
X149995191Y-76667876D02*
X148995191Y-76667876D01*
X148995191Y-76667876D02*
X149138048Y-76572638D01*
X149138048Y-76572638D02*
X149233286Y-76477400D01*
X149233286Y-76477400D02*
X149280905Y-76382162D01*
X148995191Y-77572638D02*
X148995191Y-77667876D01*
X148995191Y-77667876D02*
X149042810Y-77763114D01*
X149042810Y-77763114D02*
X149090429Y-77810733D01*
X149090429Y-77810733D02*
X149185667Y-77858352D01*
X149185667Y-77858352D02*
X149376143Y-77905971D01*
X149376143Y-77905971D02*
X149614238Y-77905971D01*
X149614238Y-77905971D02*
X149804714Y-77858352D01*
X149804714Y-77858352D02*
X149899952Y-77810733D01*
X149899952Y-77810733D02*
X149947572Y-77763114D01*
X149947572Y-77763114D02*
X149995191Y-77667876D01*
X149995191Y-77667876D02*
X149995191Y-77572638D01*
X149995191Y-77572638D02*
X149947572Y-77477400D01*
X149947572Y-77477400D02*
X149899952Y-77429781D01*
X149899952Y-77429781D02*
X149804714Y-77382162D01*
X149804714Y-77382162D02*
X149614238Y-77334543D01*
X149614238Y-77334543D02*
X149376143Y-77334543D01*
X149376143Y-77334543D02*
X149185667Y-77382162D01*
X149185667Y-77382162D02*
X149090429Y-77429781D01*
X149090429Y-77429781D02*
X149042810Y-77477400D01*
X149042810Y-77477400D02*
X148995191Y-77572638D01*
X92360158Y-62505250D02*
X92407777Y-62648107D01*
X92407777Y-62648107D02*
X92407777Y-62886202D01*
X92407777Y-62886202D02*
X92360158Y-62981440D01*
X92360158Y-62981440D02*
X92312538Y-63029059D01*
X92312538Y-63029059D02*
X92217300Y-63076678D01*
X92217300Y-63076678D02*
X92122062Y-63076678D01*
X92122062Y-63076678D02*
X92026824Y-63029059D01*
X92026824Y-63029059D02*
X91979205Y-62981440D01*
X91979205Y-62981440D02*
X91931586Y-62886202D01*
X91931586Y-62886202D02*
X91883967Y-62695726D01*
X91883967Y-62695726D02*
X91836348Y-62600488D01*
X91836348Y-62600488D02*
X91788729Y-62552869D01*
X91788729Y-62552869D02*
X91693491Y-62505250D01*
X91693491Y-62505250D02*
X91598253Y-62505250D01*
X91598253Y-62505250D02*
X91503015Y-62552869D01*
X91503015Y-62552869D02*
X91455396Y-62600488D01*
X91455396Y-62600488D02*
X91407777Y-62695726D01*
X91407777Y-62695726D02*
X91407777Y-62933821D01*
X91407777Y-62933821D02*
X91455396Y-63076678D01*
X91407777Y-63410012D02*
X92407777Y-63648107D01*
X92407777Y-63648107D02*
X91693491Y-63838583D01*
X91693491Y-63838583D02*
X92407777Y-64029059D01*
X92407777Y-64029059D02*
X91407777Y-64267155D01*
X92407777Y-65171916D02*
X92407777Y-64600488D01*
X92407777Y-64886202D02*
X91407777Y-64886202D01*
X91407777Y-64886202D02*
X91550634Y-64790964D01*
X91550634Y-64790964D02*
X91645872Y-64695726D01*
X91645872Y-64695726D02*
X91693491Y-64600488D01*
X149947572Y-91763352D02*
X149995191Y-91906209D01*
X149995191Y-91906209D02*
X149995191Y-92144304D01*
X149995191Y-92144304D02*
X149947572Y-92239542D01*
X149947572Y-92239542D02*
X149899952Y-92287161D01*
X149899952Y-92287161D02*
X149804714Y-92334780D01*
X149804714Y-92334780D02*
X149709476Y-92334780D01*
X149709476Y-92334780D02*
X149614238Y-92287161D01*
X149614238Y-92287161D02*
X149566619Y-92239542D01*
X149566619Y-92239542D02*
X149519000Y-92144304D01*
X149519000Y-92144304D02*
X149471381Y-91953828D01*
X149471381Y-91953828D02*
X149423762Y-91858590D01*
X149423762Y-91858590D02*
X149376143Y-91810971D01*
X149376143Y-91810971D02*
X149280905Y-91763352D01*
X149280905Y-91763352D02*
X149185667Y-91763352D01*
X149185667Y-91763352D02*
X149090429Y-91810971D01*
X149090429Y-91810971D02*
X149042810Y-91858590D01*
X149042810Y-91858590D02*
X148995191Y-91953828D01*
X148995191Y-91953828D02*
X148995191Y-92191923D01*
X148995191Y-92191923D02*
X149042810Y-92334780D01*
X148995191Y-92668114D02*
X149995191Y-92906209D01*
X149995191Y-92906209D02*
X149280905Y-93096685D01*
X149280905Y-93096685D02*
X149995191Y-93287161D01*
X149995191Y-93287161D02*
X148995191Y-93525257D01*
X149995191Y-94430018D02*
X149995191Y-93858590D01*
X149995191Y-94144304D02*
X148995191Y-94144304D01*
X148995191Y-94144304D02*
X149138048Y-94049066D01*
X149138048Y-94049066D02*
X149233286Y-93953828D01*
X149233286Y-93953828D02*
X149280905Y-93858590D01*
X148995191Y-95287161D02*
X148995191Y-95096685D01*
X148995191Y-95096685D02*
X149042810Y-95001447D01*
X149042810Y-95001447D02*
X149090429Y-94953828D01*
X149090429Y-94953828D02*
X149233286Y-94858590D01*
X149233286Y-94858590D02*
X149423762Y-94810971D01*
X149423762Y-94810971D02*
X149804714Y-94810971D01*
X149804714Y-94810971D02*
X149899952Y-94858590D01*
X149899952Y-94858590D02*
X149947572Y-94906209D01*
X149947572Y-94906209D02*
X149995191Y-95001447D01*
X149995191Y-95001447D02*
X149995191Y-95191923D01*
X149995191Y-95191923D02*
X149947572Y-95287161D01*
X149947572Y-95287161D02*
X149899952Y-95334780D01*
X149899952Y-95334780D02*
X149804714Y-95382399D01*
X149804714Y-95382399D02*
X149566619Y-95382399D01*
X149566619Y-95382399D02*
X149471381Y-95334780D01*
X149471381Y-95334780D02*
X149423762Y-95287161D01*
X149423762Y-95287161D02*
X149376143Y-95191923D01*
X149376143Y-95191923D02*
X149376143Y-95001447D01*
X149376143Y-95001447D02*
X149423762Y-94906209D01*
X149423762Y-94906209D02*
X149471381Y-94858590D01*
X149471381Y-94858590D02*
X149566619Y-94810971D01*
X111805914Y-74763115D02*
X111853533Y-74905972D01*
X111853533Y-74905972D02*
X111853533Y-75144067D01*
X111853533Y-75144067D02*
X111805914Y-75239305D01*
X111805914Y-75239305D02*
X111758294Y-75286924D01*
X111758294Y-75286924D02*
X111663056Y-75334543D01*
X111663056Y-75334543D02*
X111567818Y-75334543D01*
X111567818Y-75334543D02*
X111472580Y-75286924D01*
X111472580Y-75286924D02*
X111424961Y-75239305D01*
X111424961Y-75239305D02*
X111377342Y-75144067D01*
X111377342Y-75144067D02*
X111329723Y-74953591D01*
X111329723Y-74953591D02*
X111282104Y-74858353D01*
X111282104Y-74858353D02*
X111234485Y-74810734D01*
X111234485Y-74810734D02*
X111139247Y-74763115D01*
X111139247Y-74763115D02*
X111044009Y-74763115D01*
X111044009Y-74763115D02*
X110948771Y-74810734D01*
X110948771Y-74810734D02*
X110901152Y-74858353D01*
X110901152Y-74858353D02*
X110853533Y-74953591D01*
X110853533Y-74953591D02*
X110853533Y-75191686D01*
X110853533Y-75191686D02*
X110901152Y-75334543D01*
X110853533Y-75667877D02*
X111853533Y-75905972D01*
X111853533Y-75905972D02*
X111139247Y-76096448D01*
X111139247Y-76096448D02*
X111853533Y-76286924D01*
X111853533Y-76286924D02*
X110853533Y-76525020D01*
X111282104Y-77048829D02*
X111234485Y-76953591D01*
X111234485Y-76953591D02*
X111186866Y-76905972D01*
X111186866Y-76905972D02*
X111091628Y-76858353D01*
X111091628Y-76858353D02*
X111044009Y-76858353D01*
X111044009Y-76858353D02*
X110948771Y-76905972D01*
X110948771Y-76905972D02*
X110901152Y-76953591D01*
X110901152Y-76953591D02*
X110853533Y-77048829D01*
X110853533Y-77048829D02*
X110853533Y-77239305D01*
X110853533Y-77239305D02*
X110901152Y-77334543D01*
X110901152Y-77334543D02*
X110948771Y-77382162D01*
X110948771Y-77382162D02*
X111044009Y-77429781D01*
X111044009Y-77429781D02*
X111091628Y-77429781D01*
X111091628Y-77429781D02*
X111186866Y-77382162D01*
X111186866Y-77382162D02*
X111234485Y-77334543D01*
X111234485Y-77334543D02*
X111282104Y-77239305D01*
X111282104Y-77239305D02*
X111282104Y-77048829D01*
X111282104Y-77048829D02*
X111329723Y-76953591D01*
X111329723Y-76953591D02*
X111377342Y-76905972D01*
X111377342Y-76905972D02*
X111472580Y-76858353D01*
X111472580Y-76858353D02*
X111663056Y-76858353D01*
X111663056Y-76858353D02*
X111758294Y-76905972D01*
X111758294Y-76905972D02*
X111805914Y-76953591D01*
X111805914Y-76953591D02*
X111853533Y-77048829D01*
X111853533Y-77048829D02*
X111853533Y-77239305D01*
X111853533Y-77239305D02*
X111805914Y-77334543D01*
X111805914Y-77334543D02*
X111758294Y-77382162D01*
X111758294Y-77382162D02*
X111663056Y-77429781D01*
X111663056Y-77429781D02*
X111472580Y-77429781D01*
X111472580Y-77429781D02*
X111377342Y-77382162D01*
X111377342Y-77382162D02*
X111329723Y-77334543D01*
X111329723Y-77334543D02*
X111282104Y-77239305D01*
X92360158Y-96763352D02*
X92407777Y-96906209D01*
X92407777Y-96906209D02*
X92407777Y-97144304D01*
X92407777Y-97144304D02*
X92360158Y-97239542D01*
X92360158Y-97239542D02*
X92312538Y-97287161D01*
X92312538Y-97287161D02*
X92217300Y-97334780D01*
X92217300Y-97334780D02*
X92122062Y-97334780D01*
X92122062Y-97334780D02*
X92026824Y-97287161D01*
X92026824Y-97287161D02*
X91979205Y-97239542D01*
X91979205Y-97239542D02*
X91931586Y-97144304D01*
X91931586Y-97144304D02*
X91883967Y-96953828D01*
X91883967Y-96953828D02*
X91836348Y-96858590D01*
X91836348Y-96858590D02*
X91788729Y-96810971D01*
X91788729Y-96810971D02*
X91693491Y-96763352D01*
X91693491Y-96763352D02*
X91598253Y-96763352D01*
X91598253Y-96763352D02*
X91503015Y-96810971D01*
X91503015Y-96810971D02*
X91455396Y-96858590D01*
X91455396Y-96858590D02*
X91407777Y-96953828D01*
X91407777Y-96953828D02*
X91407777Y-97191923D01*
X91407777Y-97191923D02*
X91455396Y-97334780D01*
X91407777Y-97668114D02*
X92407777Y-97906209D01*
X92407777Y-97906209D02*
X91693491Y-98096685D01*
X91693491Y-98096685D02*
X92407777Y-98287161D01*
X92407777Y-98287161D02*
X91407777Y-98525257D01*
X92407777Y-99430018D02*
X92407777Y-98858590D01*
X92407777Y-99144304D02*
X91407777Y-99144304D01*
X91407777Y-99144304D02*
X91550634Y-99049066D01*
X91550634Y-99049066D02*
X91645872Y-98953828D01*
X91645872Y-98953828D02*
X91693491Y-98858590D01*
X91407777Y-99763352D02*
X91407777Y-100382399D01*
X91407777Y-100382399D02*
X91788729Y-100049066D01*
X91788729Y-100049066D02*
X91788729Y-100191923D01*
X91788729Y-100191923D02*
X91836348Y-100287161D01*
X91836348Y-100287161D02*
X91883967Y-100334780D01*
X91883967Y-100334780D02*
X91979205Y-100382399D01*
X91979205Y-100382399D02*
X92217300Y-100382399D01*
X92217300Y-100382399D02*
X92312538Y-100334780D01*
X92312538Y-100334780D02*
X92360158Y-100287161D01*
X92360158Y-100287161D02*
X92407777Y-100191923D01*
X92407777Y-100191923D02*
X92407777Y-99906209D01*
X92407777Y-99906209D02*
X92360158Y-99810971D01*
X92360158Y-99810971D02*
X92312538Y-99763352D01*
X188110158Y-74286924D02*
X188157777Y-74429781D01*
X188157777Y-74429781D02*
X188157777Y-74667876D01*
X188157777Y-74667876D02*
X188110158Y-74763114D01*
X188110158Y-74763114D02*
X188062538Y-74810733D01*
X188062538Y-74810733D02*
X187967300Y-74858352D01*
X187967300Y-74858352D02*
X187872062Y-74858352D01*
X187872062Y-74858352D02*
X187776824Y-74810733D01*
X187776824Y-74810733D02*
X187729205Y-74763114D01*
X187729205Y-74763114D02*
X187681586Y-74667876D01*
X187681586Y-74667876D02*
X187633967Y-74477400D01*
X187633967Y-74477400D02*
X187586348Y-74382162D01*
X187586348Y-74382162D02*
X187538729Y-74334543D01*
X187538729Y-74334543D02*
X187443491Y-74286924D01*
X187443491Y-74286924D02*
X187348253Y-74286924D01*
X187348253Y-74286924D02*
X187253015Y-74334543D01*
X187253015Y-74334543D02*
X187205396Y-74382162D01*
X187205396Y-74382162D02*
X187157777Y-74477400D01*
X187157777Y-74477400D02*
X187157777Y-74715495D01*
X187157777Y-74715495D02*
X187205396Y-74858352D01*
X187157777Y-75191686D02*
X188157777Y-75429781D01*
X188157777Y-75429781D02*
X187443491Y-75620257D01*
X187443491Y-75620257D02*
X188157777Y-75810733D01*
X188157777Y-75810733D02*
X187157777Y-76048829D01*
X188157777Y-76953590D02*
X188157777Y-76382162D01*
X188157777Y-76667876D02*
X187157777Y-76667876D01*
X187157777Y-76667876D02*
X187300634Y-76572638D01*
X187300634Y-76572638D02*
X187395872Y-76477400D01*
X187395872Y-76477400D02*
X187443491Y-76382162D01*
X187253015Y-77334543D02*
X187205396Y-77382162D01*
X187205396Y-77382162D02*
X187157777Y-77477400D01*
X187157777Y-77477400D02*
X187157777Y-77715495D01*
X187157777Y-77715495D02*
X187205396Y-77810733D01*
X187205396Y-77810733D02*
X187253015Y-77858352D01*
X187253015Y-77858352D02*
X187348253Y-77905971D01*
X187348253Y-77905971D02*
X187443491Y-77905971D01*
X187443491Y-77905971D02*
X187586348Y-77858352D01*
X187586348Y-77858352D02*
X188157777Y-77286924D01*
X188157777Y-77286924D02*
X188157777Y-77905971D01*
X130660158Y-79763115D02*
X130707777Y-79905972D01*
X130707777Y-79905972D02*
X130707777Y-80144067D01*
X130707777Y-80144067D02*
X130660158Y-80239305D01*
X130660158Y-80239305D02*
X130612538Y-80286924D01*
X130612538Y-80286924D02*
X130517300Y-80334543D01*
X130517300Y-80334543D02*
X130422062Y-80334543D01*
X130422062Y-80334543D02*
X130326824Y-80286924D01*
X130326824Y-80286924D02*
X130279205Y-80239305D01*
X130279205Y-80239305D02*
X130231586Y-80144067D01*
X130231586Y-80144067D02*
X130183967Y-79953591D01*
X130183967Y-79953591D02*
X130136348Y-79858353D01*
X130136348Y-79858353D02*
X130088729Y-79810734D01*
X130088729Y-79810734D02*
X129993491Y-79763115D01*
X129993491Y-79763115D02*
X129898253Y-79763115D01*
X129898253Y-79763115D02*
X129803015Y-79810734D01*
X129803015Y-79810734D02*
X129755396Y-79858353D01*
X129755396Y-79858353D02*
X129707777Y-79953591D01*
X129707777Y-79953591D02*
X129707777Y-80191686D01*
X129707777Y-80191686D02*
X129755396Y-80334543D01*
X129707777Y-80667877D02*
X130707777Y-80905972D01*
X130707777Y-80905972D02*
X129993491Y-81096448D01*
X129993491Y-81096448D02*
X130707777Y-81286924D01*
X130707777Y-81286924D02*
X129707777Y-81525020D01*
X130707777Y-81953591D02*
X130707777Y-82144067D01*
X130707777Y-82144067D02*
X130660158Y-82239305D01*
X130660158Y-82239305D02*
X130612538Y-82286924D01*
X130612538Y-82286924D02*
X130469681Y-82382162D01*
X130469681Y-82382162D02*
X130279205Y-82429781D01*
X130279205Y-82429781D02*
X129898253Y-82429781D01*
X129898253Y-82429781D02*
X129803015Y-82382162D01*
X129803015Y-82382162D02*
X129755396Y-82334543D01*
X129755396Y-82334543D02*
X129707777Y-82239305D01*
X129707777Y-82239305D02*
X129707777Y-82048829D01*
X129707777Y-82048829D02*
X129755396Y-81953591D01*
X129755396Y-81953591D02*
X129803015Y-81905972D01*
X129803015Y-81905972D02*
X129898253Y-81858353D01*
X129898253Y-81858353D02*
X130136348Y-81858353D01*
X130136348Y-81858353D02*
X130231586Y-81905972D01*
X130231586Y-81905972D02*
X130279205Y-81953591D01*
X130279205Y-81953591D02*
X130326824Y-82048829D01*
X130326824Y-82048829D02*
X130326824Y-82239305D01*
X130326824Y-82239305D02*
X130279205Y-82334543D01*
X130279205Y-82334543D02*
X130231586Y-82382162D01*
X130231586Y-82382162D02*
X130136348Y-82429781D01*
%TO.C,SW7*%
X93207958Y-74096448D02*
X93603958Y-74096448D01*
X93207958Y-75096448D02*
X93207958Y-74096448D01*
X93207958Y-88096448D02*
X93207958Y-87096448D01*
X93222958Y-76016448D02*
X93222958Y-84906448D01*
X93603958Y-76016448D02*
X93222958Y-76016448D01*
X94207958Y-88096448D02*
X93207958Y-88096448D01*
X95762958Y-87446448D02*
X96143958Y-87446448D01*
X97667958Y-76016448D02*
X96651958Y-76016448D01*
X97667958Y-81096448D02*
X97667958Y-76016448D01*
X99191958Y-87446448D02*
X99572958Y-87446448D01*
X99572958Y-85287448D02*
X99572958Y-83636448D01*
X99572958Y-87446448D02*
X99572958Y-87065448D01*
X106207958Y-74096448D02*
X107207958Y-74096448D01*
X107207958Y-74096448D02*
X107207958Y-75096448D01*
X107207958Y-87096448D02*
X107207958Y-88096448D01*
X107207958Y-88096448D02*
X106207958Y-88096448D01*
X95762958Y-87446448D02*
G75*
G02*
X93222958Y-84906448I1J2540001D01*
G01*
X99580455Y-83557716D02*
G75*
G02*
X97667958Y-81096448I627503J2461268D01*
G01*
%TO.C,SW6*%
X188957958Y-51838583D02*
X189353958Y-51838583D01*
X188957958Y-52838583D02*
X188957958Y-51838583D01*
X188957958Y-65838583D02*
X188957958Y-64838583D01*
X188972958Y-53758583D02*
X188972958Y-62648583D01*
X189353958Y-53758583D02*
X188972958Y-53758583D01*
X189957958Y-65838583D02*
X188957958Y-65838583D01*
X191512958Y-65188583D02*
X191893958Y-65188583D01*
X193417958Y-53758583D02*
X192401958Y-53758583D01*
X193417958Y-58838583D02*
X193417958Y-53758583D01*
X194941958Y-65188583D02*
X195322958Y-65188583D01*
X195322958Y-63029583D02*
X195322958Y-61378583D01*
X195322958Y-65188583D02*
X195322958Y-64807583D01*
X201957958Y-51838583D02*
X202957958Y-51838583D01*
X202957958Y-51838583D02*
X202957958Y-52838583D01*
X202957958Y-64838583D02*
X202957958Y-65838583D01*
X202957958Y-65838583D02*
X201957958Y-65838583D01*
X191512958Y-65188583D02*
G75*
G02*
X188972958Y-62648583I1J2540001D01*
G01*
X195330455Y-61299851D02*
G75*
G02*
X193417958Y-58838583I627503J2461268D01*
G01*
%TO.C,SW4*%
X150795372Y-51838583D02*
X151191372Y-51838583D01*
X150795372Y-52838583D02*
X150795372Y-51838583D01*
X150795372Y-65838583D02*
X150795372Y-64838583D01*
X150810372Y-53758583D02*
X150810372Y-62648583D01*
X151191372Y-53758583D02*
X150810372Y-53758583D01*
X151795372Y-65838583D02*
X150795372Y-65838583D01*
X153350372Y-65188583D02*
X153731372Y-65188583D01*
X155255372Y-53758583D02*
X154239372Y-53758583D01*
X155255372Y-58838583D02*
X155255372Y-53758583D01*
X156779372Y-65188583D02*
X157160372Y-65188583D01*
X157160372Y-63029583D02*
X157160372Y-61378583D01*
X157160372Y-65188583D02*
X157160372Y-64807583D01*
X163795372Y-51838583D02*
X164795372Y-51838583D01*
X164795372Y-51838583D02*
X164795372Y-52838583D01*
X164795372Y-64838583D02*
X164795372Y-65838583D01*
X164795372Y-65838583D02*
X163795372Y-65838583D01*
X153350372Y-65188583D02*
G75*
G02*
X150810372Y-62648583I1J2540001D01*
G01*
X157167869Y-61299851D02*
G75*
G02*
X155255372Y-58838583I627503J2461268D01*
G01*
%TO.C,SW15*%
X131507958Y-91572876D02*
X131903958Y-91572876D01*
X131507958Y-92572876D02*
X131507958Y-91572876D01*
X131507958Y-105572876D02*
X131507958Y-104572876D01*
X131522958Y-93492876D02*
X131522958Y-102382876D01*
X131903958Y-93492876D02*
X131522958Y-93492876D01*
X132507958Y-105572876D02*
X131507958Y-105572876D01*
X134062958Y-104922876D02*
X134443958Y-104922876D01*
X135967958Y-93492876D02*
X134951958Y-93492876D01*
X135967958Y-98572876D02*
X135967958Y-93492876D01*
X137491958Y-104922876D02*
X137872958Y-104922876D01*
X137872958Y-102763876D02*
X137872958Y-101112876D01*
X137872958Y-104922876D02*
X137872958Y-104541876D01*
X144507958Y-91572876D02*
X145507958Y-91572876D01*
X145507958Y-91572876D02*
X145507958Y-92572876D01*
X145507958Y-104572876D02*
X145507958Y-105572876D01*
X145507958Y-105572876D02*
X144507958Y-105572876D01*
X134062958Y-104922876D02*
G75*
G02*
X131522958Y-102382876I1J2540001D01*
G01*
X137880455Y-101034144D02*
G75*
G02*
X135967958Y-98572876I627503J2461268D01*
G01*
%TO.C,SW20*%
X189000000Y-104250000D02*
X189396000Y-104250000D01*
X189000000Y-105250000D02*
X189000000Y-104250000D01*
X189000000Y-118250000D02*
X189000000Y-117250000D01*
X189015000Y-106170000D02*
X189015000Y-115060000D01*
X189396000Y-106170000D02*
X189015000Y-106170000D01*
X190000000Y-118250000D02*
X189000000Y-118250000D01*
X191555000Y-117600000D02*
X191936000Y-117600000D01*
X193460000Y-106170000D02*
X192444000Y-106170000D01*
X193460000Y-111250000D02*
X193460000Y-106170000D01*
X194984000Y-117600000D02*
X195365000Y-117600000D01*
X195365000Y-115441000D02*
X195365000Y-113790000D01*
X195365000Y-117600000D02*
X195365000Y-117219000D01*
X202000000Y-104250000D02*
X203000000Y-104250000D01*
X203000000Y-104250000D02*
X203000000Y-105250000D01*
X203000000Y-117250000D02*
X203000000Y-118250000D01*
X203000000Y-118250000D02*
X202000000Y-118250000D01*
X191555000Y-117600000D02*
G75*
G02*
X189015000Y-115060000I1J2540001D01*
G01*
X195372497Y-113711268D02*
G75*
G02*
X193460000Y-111250000I627503J2461268D01*
G01*
%TO.C,SW11*%
X169945372Y-74096448D02*
X170341372Y-74096448D01*
X169945372Y-75096448D02*
X169945372Y-74096448D01*
X169945372Y-88096448D02*
X169945372Y-87096448D01*
X169960372Y-76016448D02*
X169960372Y-84906448D01*
X170341372Y-76016448D02*
X169960372Y-76016448D01*
X170945372Y-88096448D02*
X169945372Y-88096448D01*
X172500372Y-87446448D02*
X172881372Y-87446448D01*
X174405372Y-76016448D02*
X173389372Y-76016448D01*
X174405372Y-81096448D02*
X174405372Y-76016448D01*
X175929372Y-87446448D02*
X176310372Y-87446448D01*
X176310372Y-85287448D02*
X176310372Y-83636448D01*
X176310372Y-87446448D02*
X176310372Y-87065448D01*
X182945372Y-74096448D02*
X183945372Y-74096448D01*
X183945372Y-74096448D02*
X183945372Y-75096448D01*
X183945372Y-87096448D02*
X183945372Y-88096448D01*
X183945372Y-88096448D02*
X182945372Y-88096448D01*
X172500372Y-87446448D02*
G75*
G02*
X169960372Y-84906448I1J2540001D01*
G01*
X176317869Y-83557716D02*
G75*
G02*
X174405372Y-81096448I627503J2461268D01*
G01*
%TO.C,SW17*%
X169945372Y-91572876D02*
X170341372Y-91572876D01*
X169945372Y-92572876D02*
X169945372Y-91572876D01*
X169945372Y-105572876D02*
X169945372Y-104572876D01*
X169960372Y-93492876D02*
X169960372Y-102382876D01*
X170341372Y-93492876D02*
X169960372Y-93492876D01*
X170945372Y-105572876D02*
X169945372Y-105572876D01*
X172500372Y-104922876D02*
X172881372Y-104922876D01*
X174405372Y-93492876D02*
X173389372Y-93492876D01*
X174405372Y-98572876D02*
X174405372Y-93492876D01*
X175929372Y-104922876D02*
X176310372Y-104922876D01*
X176310372Y-102763876D02*
X176310372Y-101112876D01*
X176310372Y-104922876D02*
X176310372Y-104541876D01*
X182945372Y-91572876D02*
X183945372Y-91572876D01*
X183945372Y-91572876D02*
X183945372Y-92572876D01*
X183945372Y-104572876D02*
X183945372Y-105572876D01*
X183945372Y-105572876D02*
X182945372Y-105572876D01*
X172500372Y-104922876D02*
G75*
G02*
X169960372Y-102382876I1J2540001D01*
G01*
X176317869Y-101034144D02*
G75*
G02*
X174405372Y-98572876I627503J2461268D01*
G01*
%TO.C,SW18*%
X188957958Y-86572876D02*
X189353958Y-86572876D01*
X188957958Y-87572876D02*
X188957958Y-86572876D01*
X188957958Y-100572876D02*
X188957958Y-99572876D01*
X188972958Y-88492876D02*
X188972958Y-97382876D01*
X189353958Y-88492876D02*
X188972958Y-88492876D01*
X189957958Y-100572876D02*
X188957958Y-100572876D01*
X191512958Y-99922876D02*
X191893958Y-99922876D01*
X193417958Y-88492876D02*
X192401958Y-88492876D01*
X193417958Y-93572876D02*
X193417958Y-88492876D01*
X194941958Y-99922876D02*
X195322958Y-99922876D01*
X195322958Y-97763876D02*
X195322958Y-96112876D01*
X195322958Y-99922876D02*
X195322958Y-99541876D01*
X201957958Y-86572876D02*
X202957958Y-86572876D01*
X202957958Y-86572876D02*
X202957958Y-87572876D01*
X202957958Y-99572876D02*
X202957958Y-100572876D01*
X202957958Y-100572876D02*
X201957958Y-100572876D01*
X191512958Y-99922876D02*
G75*
G02*
X188972958Y-97382876I1J2540001D01*
G01*
X195330455Y-96034144D02*
G75*
G02*
X193417958Y-93572876I627503J2461268D01*
G01*
%TO.C,SW3*%
X131507958Y-56838583D02*
X131903958Y-56838583D01*
X131507958Y-57838583D02*
X131507958Y-56838583D01*
X131507958Y-70838583D02*
X131507958Y-69838583D01*
X131522958Y-58758583D02*
X131522958Y-67648583D01*
X131903958Y-58758583D02*
X131522958Y-58758583D01*
X132507958Y-70838583D02*
X131507958Y-70838583D01*
X134062958Y-70188583D02*
X134443958Y-70188583D01*
X135967958Y-58758583D02*
X134951958Y-58758583D01*
X135967958Y-63838583D02*
X135967958Y-58758583D01*
X137491958Y-70188583D02*
X137872958Y-70188583D01*
X137872958Y-68029583D02*
X137872958Y-66378583D01*
X137872958Y-70188583D02*
X137872958Y-69807583D01*
X144507958Y-56838583D02*
X145507958Y-56838583D01*
X145507958Y-56838583D02*
X145507958Y-57838583D01*
X145507958Y-69838583D02*
X145507958Y-70838583D01*
X145507958Y-70838583D02*
X144507958Y-70838583D01*
X134062958Y-70188583D02*
G75*
G02*
X131522958Y-67648583I1J2540001D01*
G01*
X137880455Y-66299851D02*
G75*
G02*
X135967958Y-63838583I627503J2461268D01*
G01*
%TO.C,SW21*%
X184000000Y-125500000D02*
X184396000Y-125500000D01*
X184000000Y-126500000D02*
X184000000Y-125500000D01*
X184000000Y-139500000D02*
X184000000Y-138500000D01*
X184015000Y-127420000D02*
X184015000Y-136310000D01*
X184396000Y-127420000D02*
X184015000Y-127420000D01*
X185000000Y-139500000D02*
X184000000Y-139500000D01*
X186555000Y-138850000D02*
X186936000Y-138850000D01*
X188460000Y-127420000D02*
X187444000Y-127420000D01*
X188460000Y-132500000D02*
X188460000Y-127420000D01*
X189984000Y-138850000D02*
X190365000Y-138850000D01*
X190365000Y-136691000D02*
X190365000Y-135040000D01*
X190365000Y-138850000D02*
X190365000Y-138469000D01*
X197000000Y-125500000D02*
X198000000Y-125500000D01*
X198000000Y-125500000D02*
X198000000Y-126500000D01*
X198000000Y-138500000D02*
X198000000Y-139500000D01*
X198000000Y-139500000D02*
X197000000Y-139500000D01*
X186555000Y-138850000D02*
G75*
G02*
X184015000Y-136310000I1J2540001D01*
G01*
X190372497Y-134961268D02*
G75*
G02*
X188460000Y-132500000I627503J2461268D01*
G01*
%TO.C,SW14*%
X112653714Y-86572876D02*
X113049714Y-86572876D01*
X112653714Y-87572876D02*
X112653714Y-86572876D01*
X112653714Y-100572876D02*
X112653714Y-99572876D01*
X112668714Y-88492876D02*
X112668714Y-97382876D01*
X113049714Y-88492876D02*
X112668714Y-88492876D01*
X113653714Y-100572876D02*
X112653714Y-100572876D01*
X115208714Y-99922876D02*
X115589714Y-99922876D01*
X117113714Y-88492876D02*
X116097714Y-88492876D01*
X117113714Y-93572876D02*
X117113714Y-88492876D01*
X118637714Y-99922876D02*
X119018714Y-99922876D01*
X119018714Y-97763876D02*
X119018714Y-96112876D01*
X119018714Y-99922876D02*
X119018714Y-99541876D01*
X125653714Y-86572876D02*
X126653714Y-86572876D01*
X126653714Y-86572876D02*
X126653714Y-87572876D01*
X126653714Y-99572876D02*
X126653714Y-100572876D01*
X126653714Y-100572876D02*
X125653714Y-100572876D01*
X115208714Y-99922876D02*
G75*
G02*
X112668714Y-97382876I1J2540001D01*
G01*
X119026211Y-96034144D02*
G75*
G02*
X117113714Y-93572876I627503J2461268D01*
G01*
%TO.C,SW2*%
X112653714Y-51838583D02*
X113049714Y-51838583D01*
X112653714Y-52838583D02*
X112653714Y-51838583D01*
X112653714Y-65838583D02*
X112653714Y-64838583D01*
X112668714Y-53758583D02*
X112668714Y-62648583D01*
X113049714Y-53758583D02*
X112668714Y-53758583D01*
X113653714Y-65838583D02*
X112653714Y-65838583D01*
X115208714Y-65188583D02*
X115589714Y-65188583D01*
X117113714Y-53758583D02*
X116097714Y-53758583D01*
X117113714Y-58838583D02*
X117113714Y-53758583D01*
X118637714Y-65188583D02*
X119018714Y-65188583D01*
X119018714Y-63029583D02*
X119018714Y-61378583D01*
X119018714Y-65188583D02*
X119018714Y-64807583D01*
X125653714Y-51838583D02*
X126653714Y-51838583D01*
X126653714Y-51838583D02*
X126653714Y-52838583D01*
X126653714Y-64838583D02*
X126653714Y-65838583D01*
X126653714Y-65838583D02*
X125653714Y-65838583D01*
X115208714Y-65188583D02*
G75*
G02*
X112668714Y-62648583I1J2540001D01*
G01*
X119026211Y-61299851D02*
G75*
G02*
X117113714Y-58838583I627503J2461268D01*
G01*
%TO.C,SW19*%
X170000000Y-109250000D02*
X170396000Y-109250000D01*
X170000000Y-110250000D02*
X170000000Y-109250000D01*
X170000000Y-123250000D02*
X170000000Y-122250000D01*
X170015000Y-111170000D02*
X170015000Y-120060000D01*
X170396000Y-111170000D02*
X170015000Y-111170000D01*
X171000000Y-123250000D02*
X170000000Y-123250000D01*
X172555000Y-122600000D02*
X172936000Y-122600000D01*
X174460000Y-111170000D02*
X173444000Y-111170000D01*
X174460000Y-116250000D02*
X174460000Y-111170000D01*
X175984000Y-122600000D02*
X176365000Y-122600000D01*
X176365000Y-120441000D02*
X176365000Y-118790000D01*
X176365000Y-122600000D02*
X176365000Y-122219000D01*
X183000000Y-109250000D02*
X184000000Y-109250000D01*
X184000000Y-109250000D02*
X184000000Y-110250000D01*
X184000000Y-122250000D02*
X184000000Y-123250000D01*
X184000000Y-123250000D02*
X183000000Y-123250000D01*
X172555000Y-122600000D02*
G75*
G02*
X170015000Y-120060000I1J2540001D01*
G01*
X176372497Y-118711268D02*
G75*
G02*
X174460000Y-116250000I627503J2461268D01*
G01*
%TO.C,SW5*%
X169945372Y-56838583D02*
X170341372Y-56838583D01*
X169945372Y-57838583D02*
X169945372Y-56838583D01*
X169945372Y-70838583D02*
X169945372Y-69838583D01*
X169960372Y-58758583D02*
X169960372Y-67648583D01*
X170341372Y-58758583D02*
X169960372Y-58758583D01*
X170945372Y-70838583D02*
X169945372Y-70838583D01*
X172500372Y-70188583D02*
X172881372Y-70188583D01*
X174405372Y-58758583D02*
X173389372Y-58758583D01*
X174405372Y-63838583D02*
X174405372Y-58758583D01*
X175929372Y-70188583D02*
X176310372Y-70188583D01*
X176310372Y-68029583D02*
X176310372Y-66378583D01*
X176310372Y-70188583D02*
X176310372Y-69807583D01*
X182945372Y-56838583D02*
X183945372Y-56838583D01*
X183945372Y-56838583D02*
X183945372Y-57838583D01*
X183945372Y-69838583D02*
X183945372Y-70838583D01*
X183945372Y-70838583D02*
X182945372Y-70838583D01*
X172500372Y-70188583D02*
G75*
G02*
X169960372Y-67648583I1J2540001D01*
G01*
X176317869Y-66299851D02*
G75*
G02*
X174405372Y-63838583I627503J2461268D01*
G01*
%TO.C,SW10*%
X150795372Y-69096448D02*
X151191372Y-69096448D01*
X150795372Y-70096448D02*
X150795372Y-69096448D01*
X150795372Y-83096448D02*
X150795372Y-82096448D01*
X150810372Y-71016448D02*
X150810372Y-79906448D01*
X151191372Y-71016448D02*
X150810372Y-71016448D01*
X151795372Y-83096448D02*
X150795372Y-83096448D01*
X153350372Y-82446448D02*
X153731372Y-82446448D01*
X155255372Y-71016448D02*
X154239372Y-71016448D01*
X155255372Y-76096448D02*
X155255372Y-71016448D01*
X156779372Y-82446448D02*
X157160372Y-82446448D01*
X157160372Y-80287448D02*
X157160372Y-78636448D01*
X157160372Y-82446448D02*
X157160372Y-82065448D01*
X163795372Y-69096448D02*
X164795372Y-69096448D01*
X164795372Y-69096448D02*
X164795372Y-70096448D01*
X164795372Y-82096448D02*
X164795372Y-83096448D01*
X164795372Y-83096448D02*
X163795372Y-83096448D01*
X153350372Y-82446448D02*
G75*
G02*
X150810372Y-79906448I1J2540001D01*
G01*
X157167869Y-78557716D02*
G75*
G02*
X155255372Y-76096448I627503J2461268D01*
G01*
%TO.C,SW1*%
X93207958Y-56838583D02*
X93603958Y-56838583D01*
X93207958Y-57838583D02*
X93207958Y-56838583D01*
X93207958Y-70838583D02*
X93207958Y-69838583D01*
X93222958Y-58758583D02*
X93222958Y-67648583D01*
X93603958Y-58758583D02*
X93222958Y-58758583D01*
X94207958Y-70838583D02*
X93207958Y-70838583D01*
X95762958Y-70188583D02*
X96143958Y-70188583D01*
X97667958Y-58758583D02*
X96651958Y-58758583D01*
X97667958Y-63838583D02*
X97667958Y-58758583D01*
X99191958Y-70188583D02*
X99572958Y-70188583D01*
X99572958Y-68029583D02*
X99572958Y-66378583D01*
X99572958Y-70188583D02*
X99572958Y-69807583D01*
X106207958Y-56838583D02*
X107207958Y-56838583D01*
X107207958Y-56838583D02*
X107207958Y-57838583D01*
X107207958Y-69838583D02*
X107207958Y-70838583D01*
X107207958Y-70838583D02*
X106207958Y-70838583D01*
X95762958Y-70188583D02*
G75*
G02*
X93222958Y-67648583I1J2540001D01*
G01*
X99580455Y-66299851D02*
G75*
G02*
X97667958Y-63838583I627503J2461268D01*
G01*
%TO.C,SW16*%
X150795372Y-86572876D02*
X151191372Y-86572876D01*
X150795372Y-87572876D02*
X150795372Y-86572876D01*
X150795372Y-100572876D02*
X150795372Y-99572876D01*
X150810372Y-88492876D02*
X150810372Y-97382876D01*
X151191372Y-88492876D02*
X150810372Y-88492876D01*
X151795372Y-100572876D02*
X150795372Y-100572876D01*
X153350372Y-99922876D02*
X153731372Y-99922876D01*
X155255372Y-88492876D02*
X154239372Y-88492876D01*
X155255372Y-93572876D02*
X155255372Y-88492876D01*
X156779372Y-99922876D02*
X157160372Y-99922876D01*
X157160372Y-97763876D02*
X157160372Y-96112876D01*
X157160372Y-99922876D02*
X157160372Y-99541876D01*
X163795372Y-86572876D02*
X164795372Y-86572876D01*
X164795372Y-86572876D02*
X164795372Y-87572876D01*
X164795372Y-99572876D02*
X164795372Y-100572876D01*
X164795372Y-100572876D02*
X163795372Y-100572876D01*
X153350372Y-99922876D02*
G75*
G02*
X150810372Y-97382876I1J2540001D01*
G01*
X157167869Y-96034144D02*
G75*
G02*
X155255372Y-93572876I627503J2461268D01*
G01*
%TO.C,SW8*%
X112653714Y-69096448D02*
X113049714Y-69096448D01*
X112653714Y-70096448D02*
X112653714Y-69096448D01*
X112653714Y-83096448D02*
X112653714Y-82096448D01*
X112668714Y-71016448D02*
X112668714Y-79906448D01*
X113049714Y-71016448D02*
X112668714Y-71016448D01*
X113653714Y-83096448D02*
X112653714Y-83096448D01*
X115208714Y-82446448D02*
X115589714Y-82446448D01*
X117113714Y-71016448D02*
X116097714Y-71016448D01*
X117113714Y-76096448D02*
X117113714Y-71016448D01*
X118637714Y-82446448D02*
X119018714Y-82446448D01*
X119018714Y-80287448D02*
X119018714Y-78636448D01*
X119018714Y-82446448D02*
X119018714Y-82065448D01*
X125653714Y-69096448D02*
X126653714Y-69096448D01*
X126653714Y-69096448D02*
X126653714Y-70096448D01*
X126653714Y-82096448D02*
X126653714Y-83096448D01*
X126653714Y-83096448D02*
X125653714Y-83096448D01*
X115208714Y-82446448D02*
G75*
G02*
X112668714Y-79906448I1J2540001D01*
G01*
X119026211Y-78557716D02*
G75*
G02*
X117113714Y-76096448I627503J2461268D01*
G01*
%TO.C,SW13*%
X93207958Y-91572876D02*
X93603958Y-91572876D01*
X93207958Y-92572876D02*
X93207958Y-91572876D01*
X93207958Y-105572876D02*
X93207958Y-104572876D01*
X93222958Y-93492876D02*
X93222958Y-102382876D01*
X93603958Y-93492876D02*
X93222958Y-93492876D01*
X94207958Y-105572876D02*
X93207958Y-105572876D01*
X95762958Y-104922876D02*
X96143958Y-104922876D01*
X97667958Y-93492876D02*
X96651958Y-93492876D01*
X97667958Y-98572876D02*
X97667958Y-93492876D01*
X99191958Y-104922876D02*
X99572958Y-104922876D01*
X99572958Y-102763876D02*
X99572958Y-101112876D01*
X99572958Y-104922876D02*
X99572958Y-104541876D01*
X106207958Y-91572876D02*
X107207958Y-91572876D01*
X107207958Y-91572876D02*
X107207958Y-92572876D01*
X107207958Y-104572876D02*
X107207958Y-105572876D01*
X107207958Y-105572876D02*
X106207958Y-105572876D01*
X95762958Y-104922876D02*
G75*
G02*
X93222958Y-102382876I1J2540001D01*
G01*
X99580455Y-101034144D02*
G75*
G02*
X97667958Y-98572876I627503J2461268D01*
G01*
%TO.C,SW12*%
X188957958Y-69096448D02*
X189353958Y-69096448D01*
X188957958Y-70096448D02*
X188957958Y-69096448D01*
X188957958Y-83096448D02*
X188957958Y-82096448D01*
X188972958Y-71016448D02*
X188972958Y-79906448D01*
X189353958Y-71016448D02*
X188972958Y-71016448D01*
X189957958Y-83096448D02*
X188957958Y-83096448D01*
X191512958Y-82446448D02*
X191893958Y-82446448D01*
X193417958Y-71016448D02*
X192401958Y-71016448D01*
X193417958Y-76096448D02*
X193417958Y-71016448D01*
X194941958Y-82446448D02*
X195322958Y-82446448D01*
X195322958Y-80287448D02*
X195322958Y-78636448D01*
X195322958Y-82446448D02*
X195322958Y-82065448D01*
X201957958Y-69096448D02*
X202957958Y-69096448D01*
X202957958Y-69096448D02*
X202957958Y-70096448D01*
X202957958Y-82096448D02*
X202957958Y-83096448D01*
X202957958Y-83096448D02*
X201957958Y-83096448D01*
X191512958Y-82446448D02*
G75*
G02*
X188972958Y-79906448I1J2540001D01*
G01*
X195330455Y-78557716D02*
G75*
G02*
X193417958Y-76096448I627503J2461268D01*
G01*
%TO.C,SW9*%
X131507958Y-74096448D02*
X131903958Y-74096448D01*
X131507958Y-75096448D02*
X131507958Y-74096448D01*
X131507958Y-88096448D02*
X131507958Y-87096448D01*
X131522958Y-76016448D02*
X131522958Y-84906448D01*
X131903958Y-76016448D02*
X131522958Y-76016448D01*
X132507958Y-88096448D02*
X131507958Y-88096448D01*
X134062958Y-87446448D02*
X134443958Y-87446448D01*
X135967958Y-76016448D02*
X134951958Y-76016448D01*
X135967958Y-81096448D02*
X135967958Y-76016448D01*
X137491958Y-87446448D02*
X137872958Y-87446448D01*
X137872958Y-85287448D02*
X137872958Y-83636448D01*
X137872958Y-87446448D02*
X137872958Y-87065448D01*
X144507958Y-74096448D02*
X145507958Y-74096448D01*
X145507958Y-74096448D02*
X145507958Y-75096448D01*
X145507958Y-87096448D02*
X145507958Y-88096448D01*
X145507958Y-88096448D02*
X144507958Y-88096448D01*
X134062958Y-87446448D02*
G75*
G02*
X131522958Y-84906448I1J2540001D01*
G01*
X137880455Y-83557716D02*
G75*
G02*
X135967958Y-81096448I627503J2461268D01*
G01*
%TD*%
M02*
