%TF.GenerationSoftware,KiCad,Pcbnew,9.0.8*%
%TF.CreationDate,2026-06-30T19:39:36+02:00*%
%TF.ProjectId,Splitboard,53706c69-7462-46f6-9172-642e6b696361,rev?*%
%TF.SameCoordinates,Original*%
%TF.FileFunction,Copper,L1,Top*%
%TF.FilePolarity,Positive*%
%FSLAX46Y46*%
G04 Gerber Fmt 4.6, Leading zero omitted, Abs format (unit mm)*
G04 Created by KiCad (PCBNEW 9.0.8) date 2026-06-30 19:39:36*
%MOMM*%
%LPD*%
G01*
G04 APERTURE LIST*
G04 Aperture macros list*
%AMRoundRect*
0 Rectangle with rounded corners*
0 $1 Rounding radius*
0 $2 $3 $4 $5 $6 $7 $8 $9 X,Y pos of 4 corners*
0 Add a 4 corners polygon primitive as box body*
4,1,4,$2,$3,$4,$5,$6,$7,$8,$9,$2,$3,0*
0 Add four circle primitives for the rounded corners*
1,1,$1+$1,$2,$3*
1,1,$1+$1,$4,$5*
1,1,$1+$1,$6,$7*
1,1,$1+$1,$8,$9*
0 Add four rect primitives between the rounded corners*
20,1,$1+$1,$2,$3,$4,$5,0*
20,1,$1+$1,$4,$5,$6,$7,0*
20,1,$1+$1,$6,$7,$8,$9,0*
20,1,$1+$1,$8,$9,$2,$3,0*%
G04 Aperture macros list end*
%TA.AperFunction,SMDPad,CuDef*%
%ADD10R,2.500000X2.550000*%
%TD*%
%TA.AperFunction,SMDPad,CuDef*%
%ADD11RoundRect,0.225000X-0.225000X-0.375000X0.225000X-0.375000X0.225000X0.375000X-0.225000X0.375000X0*%
%TD*%
%TA.AperFunction,SMDPad,CuDef*%
%ADD12C,1.500000*%
%TD*%
%TA.AperFunction,SMDPad,CuDef*%
%ADD13RoundRect,0.225000X0.375000X-0.225000X0.375000X0.225000X-0.375000X0.225000X-0.375000X-0.225000X0*%
%TD*%
%TA.AperFunction,SMDPad,CuDef*%
%ADD14RoundRect,0.250000X0.970000X0.310000X-0.970000X0.310000X-0.970000X-0.310000X0.970000X-0.310000X0*%
%TD*%
%TA.AperFunction,SMDPad,CuDef*%
%ADD15RoundRect,0.225000X0.225000X0.375000X-0.225000X0.375000X-0.225000X-0.375000X0.225000X-0.375000X0*%
%TD*%
%TA.AperFunction,SMDPad,CuDef*%
%ADD16RoundRect,0.200000X0.275000X-0.200000X0.275000X0.200000X-0.275000X0.200000X-0.275000X-0.200000X0*%
%TD*%
%TA.AperFunction,ComponentPad*%
%ADD17C,1.600000*%
%TD*%
%TA.AperFunction,ComponentPad*%
%ADD18O,2.400000X1.200000*%
%TD*%
%TA.AperFunction,ComponentPad*%
%ADD19C,1.574800*%
%TD*%
%TA.AperFunction,ComponentPad*%
%ADD20O,2.000000X1.200000*%
%TD*%
%TA.AperFunction,SMDPad,CuDef*%
%ADD21R,1.000000X0.300000*%
%TD*%
%TA.AperFunction,SMDPad,CuDef*%
%ADD22R,1.000000X0.600000*%
%TD*%
%TA.AperFunction,ComponentPad*%
%ADD23R,1.700000X1.700000*%
%TD*%
%TA.AperFunction,ComponentPad*%
%ADD24O,1.700000X1.700000*%
%TD*%
%TA.AperFunction,SMDPad,CuDef*%
%ADD25RoundRect,0.225000X-0.375000X0.225000X-0.375000X-0.225000X0.375000X-0.225000X0.375000X0.225000X0*%
%TD*%
%TA.AperFunction,ViaPad*%
%ADD26C,0.600000*%
%TD*%
%TA.AperFunction,ViaPad*%
%ADD27C,0.300000*%
%TD*%
%TA.AperFunction,Conductor*%
%ADD28C,0.200000*%
%TD*%
G04 APERTURE END LIST*
D10*
%TO.P,SW7,1,1*%
%TO.N,L_COL0*%
X105287958Y-74806448D03*
%TO.P,SW7,2,2*%
%TO.N,Net-(D7-A)*%
X102747958Y-88656448D03*
%TD*%
D11*
%TO.P,D20,1,K*%
%TO.N,L_ROW3*%
X193950000Y-122750000D03*
%TO.P,D20,2,A*%
%TO.N,Net-(D20-A)*%
X197250000Y-122750000D03*
%TD*%
D10*
%TO.P,SW6,1,1*%
%TO.N,L_COL5*%
X201037958Y-52548583D03*
%TO.P,SW6,2,2*%
%TO.N,Net-(D6-A)*%
X198497958Y-66398583D03*
%TD*%
%TO.P,SW4,1,1*%
%TO.N,L_COL3*%
X162875372Y-52548583D03*
%TO.P,SW4,2,2*%
%TO.N,Net-(D4-A)*%
X160335372Y-66398583D03*
%TD*%
D12*
%TO.P,B+1,1,1*%
%TO.N,Net-(SW-B1-B)*%
X212241418Y-117233902D03*
%TD*%
D13*
%TO.P,D10,1,K*%
%TO.N,L_ROW1*%
X148304664Y-79281597D03*
%TO.P,D10,2,A*%
%TO.N,Net-(D10-A)*%
X148304664Y-75981597D03*
%TD*%
D11*
%TO.P,D6,1,K*%
%TO.N,L_ROW0*%
X194397502Y-49863540D03*
%TO.P,D6,2,A*%
%TO.N,Net-(D6-A)*%
X197697502Y-49863540D03*
%TD*%
D13*
%TO.P,D11,1,K*%
%TO.N,L_ROW1*%
X167454164Y-82981415D03*
%TO.P,D11,2,A*%
%TO.N,Net-(D11-A)*%
X167454164Y-79681415D03*
%TD*%
D10*
%TO.P,SW15,1,1*%
%TO.N,L_COL2*%
X143587958Y-92282876D03*
%TO.P,SW15,2,2*%
%TO.N,Net-(D15-A)*%
X141047958Y-106132876D03*
%TD*%
D14*
%TO.P,SW-B1,1,A*%
%TO.N,L_POWER*%
X218286328Y-109694039D03*
%TO.P,SW-B1,2,B*%
%TO.N,Net-(SW-B1-B)*%
X209676328Y-109694039D03*
%TD*%
D15*
%TO.P,D2,1,K*%
%TO.N,L_ROW0*%
X121407101Y-49667616D03*
%TO.P,D2,2,A*%
%TO.N,Net-(D2-A)*%
X118107101Y-49667616D03*
%TD*%
D13*
%TO.P,D13,1,K*%
%TO.N,L_ROW2*%
X90357748Y-100486328D03*
%TO.P,D13,2,A*%
%TO.N,Net-(D13-A)*%
X90357748Y-97186328D03*
%TD*%
D16*
%TO.P,R1,1*%
%TO.N,GND*%
X208000000Y-63150000D03*
%TO.P,R1,2*%
%TO.N,L_BTSENSE*%
X208000000Y-61500000D03*
%TD*%
D17*
%TO.P,U1,1,P0.06*%
%TO.N,L_COL0*%
X91902370Y-128218200D03*
%TO.P,U1,2,P0.08*%
%TO.N,L_COL1*%
X94442370Y-128218200D03*
%TO.P,U1,3,GND*%
%TO.N,GND*%
X96982370Y-128218200D03*
%TO.P,U1,4,GND*%
X99522370Y-128218200D03*
%TO.P,U1,5,P0.17*%
%TO.N,L_SDA*%
X102062370Y-128218200D03*
%TO.P,U1,6,P0.20*%
%TO.N,L_SCL*%
X104602370Y-128218200D03*
%TO.P,U1,7,P0.22*%
%TO.N,L_COL2*%
X107142370Y-128218200D03*
%TO.P,U1,8,P0.24*%
%TO.N,L_COL3*%
X109682370Y-128218200D03*
%TO.P,U1,9,P1.00*%
%TO.N,L_COL4*%
X112222370Y-128218200D03*
%TO.P,U1,10,P0.11*%
%TO.N,L_COL5*%
X114762370Y-128218200D03*
%TO.P,U1,11,P1.04-LF*%
%TO.N,L_ROW0*%
X117302370Y-128218200D03*
%TO.P,U1,12,P1.06-LF*%
%TO.N,L_ROW1*%
X119842370Y-128218200D03*
%TO.P,U1,13,BAT+*%
%TO.N,unconnected-(U1-BAT+-Pad13)*%
X91902360Y-112978190D03*
%TO.P,U1,14,GND*%
%TO.N,GND*%
X94442360Y-112978190D03*
D18*
%TO.P,U1,15,RST*%
%TO.N,unconnected-(U1-RST-Pad15)*%
X89515000Y-115018200D03*
D17*
X96982360Y-112978190D03*
%TO.P,U1,16,3V3*%
%TO.N,VCC*%
X99522360Y-112978190D03*
%TO.P,U1,17,P0.31-LF*%
%TO.N,unconnected-(U1-P0.31-LF-Pad17)*%
X102062360Y-112978190D03*
%TO.P,U1,18,P0.29-LF*%
%TO.N,unconnected-(U1-P0.29-LF-Pad18)*%
X104602360Y-112978190D03*
%TO.P,U1,19,P0.02-LF*%
%TO.N,unconnected-(U1-P0.02-LF-Pad19)*%
X107142360Y-112978190D03*
%TO.P,U1,20,P1.15-LF*%
%TO.N,L_ROW3*%
X109682360Y-112978190D03*
%TO.P,U1,21,P1.13-LF*%
%TO.N,unconnected-(U1-P1.13-LF-Pad21)*%
X112222360Y-112978190D03*
%TO.P,U1,22,P1.11-LF*%
%TO.N,unconnected-(U1-P1.11-LF-Pad22)*%
X114762360Y-112978190D03*
%TO.P,U1,23,P0.10-LF*%
%TO.N,unconnected-(U1-P0.10-LF-Pad23)*%
X117302360Y-112978190D03*
%TO.P,U1,24,P0.09-LF*%
%TO.N,L_ROW2*%
X119842360Y-112978190D03*
D19*
%TO.P,U1,25,P1.01-LF*%
%TO.N,unconnected-(U1-P1.01-LF-Pad25)*%
X116747570Y-125138200D03*
%TO.P,U1,26,P1.02-LF*%
%TO.N,L_BTSENSE*%
X116747570Y-122598200D03*
%TO.P,U1,27,P1.07-LF*%
%TO.N,unconnected-(U1-P1.07-LF-Pad27)*%
X116747570Y-120058200D03*
D17*
%TO.P,U1,28,GND*%
%TO.N,GND*%
X89362370Y-128218200D03*
%TO.P,U1,29,BAT+*%
%TO.N,L_POWER*%
X89362360Y-112978190D03*
D20*
%TO.P,U1,30*%
%TO.N,N/C*%
X93515000Y-126178200D03*
D18*
%TO.P,U1,31*%
X89515000Y-126178200D03*
D20*
%TO.P,U1,32*%
X93515000Y-115018200D03*
D21*
%TO.P,U1,A5*%
X94379940Y-119348140D03*
%TO.P,U1,A6*%
X94379940Y-120348140D03*
%TO.P,U1,A7*%
X94379940Y-120848260D03*
%TO.P,U1,A8*%
X94379940Y-121848260D03*
D22*
%TO.P,U1,A9B4*%
X94379940Y-123008280D03*
%TO.P,U1,A12B1*%
X94379940Y-123808120D03*
D21*
%TO.P,U1,B5*%
X94379940Y-122348130D03*
%TO.P,U1,B6*%
X94379940Y-121348130D03*
%TO.P,U1,B7*%
X94379940Y-119848260D03*
%TO.P,U1,B8*%
X94379940Y-118848270D03*
D22*
%TO.P,U1,B9A4*%
X94379940Y-118188120D03*
%TO.P,U1,B12A1*%
X94379940Y-117388270D03*
%TD*%
D23*
%TO.P,OLED1,1,Pin_1*%
%TO.N,GND*%
X209856761Y-68500000D03*
D24*
%TO.P,OLED1,2,Pin_2*%
%TO.N,VCC*%
X212396761Y-68500000D03*
%TO.P,OLED1,3,Pin_3*%
%TO.N,L_SCL*%
X214936761Y-68500000D03*
%TO.P,OLED1,4,Pin_4*%
%TO.N,L_SDA*%
X217476761Y-68500000D03*
%TD*%
D16*
%TO.P,R2,1*%
%TO.N,L_BTSENSE*%
X212250000Y-63650000D03*
%TO.P,R2,2*%
%TO.N,Net-(SW-B1-B)*%
X212250000Y-62000000D03*
%TD*%
D10*
%TO.P,SW20,1,1*%
%TO.N,L_COL4*%
X201080000Y-104960000D03*
%TO.P,SW20,2,2*%
%TO.N,Net-(D20-A)*%
X198540000Y-118810000D03*
%TD*%
D13*
%TO.P,D8,1,K*%
%TO.N,L_ROW1*%
X110600844Y-78624960D03*
%TO.P,D8,2,A*%
%TO.N,Net-(D8-A)*%
X110600844Y-75324960D03*
%TD*%
%TO.P,D7,1,K*%
%TO.N,L_ROW1*%
X91101663Y-83125642D03*
%TO.P,D7,2,A*%
%TO.N,Net-(D7-A)*%
X91101663Y-79825642D03*
%TD*%
D15*
%TO.P,D14,1,K*%
%TO.N,L_ROW2*%
X122669527Y-105255922D03*
%TO.P,D14,2,A*%
%TO.N,Net-(D14-A)*%
X119369527Y-105255922D03*
%TD*%
D10*
%TO.P,SW11,1,1*%
%TO.N,L_COL4*%
X182025372Y-74806448D03*
%TO.P,SW11,2,2*%
%TO.N,Net-(D11-A)*%
X179485372Y-88656448D03*
%TD*%
D13*
%TO.P,D19,1,K*%
%TO.N,L_ROW3*%
X167250000Y-117550000D03*
%TO.P,D19,2,A*%
%TO.N,Net-(D19-A)*%
X167250000Y-114250000D03*
%TD*%
D10*
%TO.P,SW17,1,1*%
%TO.N,L_COL4*%
X182025372Y-92282876D03*
%TO.P,SW17,2,2*%
%TO.N,Net-(D17-A)*%
X179485372Y-106132876D03*
%TD*%
%TO.P,SW18,1,1*%
%TO.N,L_COL5*%
X201037958Y-87282876D03*
%TO.P,SW18,2,2*%
%TO.N,Net-(D18-A)*%
X198497958Y-101132876D03*
%TD*%
D13*
%TO.P,D12,1,K*%
%TO.N,L_ROW1*%
X186453118Y-78832007D03*
%TO.P,D12,2,A*%
%TO.N,Net-(D12-A)*%
X186453118Y-75532007D03*
%TD*%
%TO.P,D9,1,K*%
%TO.N,L_ROW1*%
X129005301Y-80180779D03*
%TO.P,D9,2,A*%
%TO.N,Net-(D9-A)*%
X129005301Y-76880779D03*
%TD*%
D25*
%TO.P,D21,1,K*%
%TO.N,L_ROW3*%
X180500000Y-132600000D03*
%TO.P,D21,2,A*%
%TO.N,Net-(D21-A)*%
X180500000Y-135900000D03*
%TD*%
D13*
%TO.P,D16,1,K*%
%TO.N,L_ROW2*%
X148468293Y-97130242D03*
%TO.P,D16,2,A*%
%TO.N,Net-(D16-A)*%
X148468293Y-93830242D03*
%TD*%
D10*
%TO.P,SW3,1,1*%
%TO.N,L_COL2*%
X143587958Y-57548583D03*
%TO.P,SW3,2,2*%
%TO.N,Net-(D3-A)*%
X141047958Y-71398583D03*
%TD*%
%TO.P,SW21,1,1*%
%TO.N,L_COL5*%
X196080000Y-126210000D03*
%TO.P,SW21,2,2*%
%TO.N,Net-(D21-A)*%
X193540000Y-140060000D03*
%TD*%
%TO.P,SW14,1,1*%
%TO.N,L_COL1*%
X124733714Y-87282876D03*
%TO.P,SW14,2,2*%
%TO.N,Net-(D14-A)*%
X122193714Y-101132876D03*
%TD*%
%TO.P,SW2,1,1*%
%TO.N,L_COL1*%
X124733714Y-52548583D03*
%TO.P,SW2,2,2*%
%TO.N,Net-(D2-A)*%
X122193714Y-66398583D03*
%TD*%
%TO.P,SW19,1,1*%
%TO.N,L_COL3*%
X182080000Y-109960000D03*
%TO.P,SW19,2,2*%
%TO.N,Net-(D19-A)*%
X179540000Y-123810000D03*
%TD*%
D13*
%TO.P,D17,1,K*%
%TO.N,L_ROW2*%
X167551868Y-97789789D03*
%TO.P,D17,2,A*%
%TO.N,Net-(D17-A)*%
X167551868Y-94489789D03*
%TD*%
D10*
%TO.P,SW5,1,1*%
%TO.N,L_COL4*%
X182025372Y-57548583D03*
%TO.P,SW5,2,2*%
%TO.N,Net-(D5-A)*%
X179485372Y-71398583D03*
%TD*%
%TO.P,SW10,1,1*%
%TO.N,L_COL3*%
X162875372Y-69806448D03*
%TO.P,SW10,2,2*%
%TO.N,Net-(D10-A)*%
X160335372Y-83656448D03*
%TD*%
%TO.P,SW1,1,1*%
%TO.N,L_COL0*%
X105287958Y-57548583D03*
%TO.P,SW1,2,2*%
%TO.N,Net-(D1-A)*%
X102747958Y-71398583D03*
%TD*%
D15*
%TO.P,D1,1,K*%
%TO.N,L_ROW0*%
X101310895Y-54729899D03*
%TO.P,D1,2,A*%
%TO.N,Net-(D1-A)*%
X98010895Y-54729899D03*
%TD*%
D11*
%TO.P,D15,1,K*%
%TO.N,L_ROW2*%
X137342038Y-109617711D03*
%TO.P,D15,2,A*%
%TO.N,Net-(D15-A)*%
X140642038Y-109617711D03*
%TD*%
D16*
%TO.P,R4,1*%
%TO.N,VCC*%
X222000000Y-63500000D03*
%TO.P,R4,2*%
%TO.N,L_SDA*%
X222000000Y-61850000D03*
%TD*%
D10*
%TO.P,SW16,1,1*%
%TO.N,L_COL3*%
X162875372Y-87282876D03*
%TO.P,SW16,2,2*%
%TO.N,Net-(D16-A)*%
X160335372Y-101132876D03*
%TD*%
%TO.P,SW8,1,1*%
%TO.N,L_COL1*%
X124733714Y-69806448D03*
%TO.P,SW8,2,2*%
%TO.N,Net-(D8-A)*%
X122193714Y-83656448D03*
%TD*%
%TO.P,SW13,1,1*%
%TO.N,L_COL0*%
X105287958Y-92282876D03*
%TO.P,SW13,2,2*%
%TO.N,Net-(D13-A)*%
X102747958Y-106132876D03*
%TD*%
D15*
%TO.P,D4,1,K*%
%TO.N,L_ROW0*%
X159098506Y-49852941D03*
%TO.P,D4,2,A*%
%TO.N,Net-(D4-A)*%
X155798506Y-49852941D03*
%TD*%
D13*
%TO.P,D18,1,K*%
%TO.N,L_ROW2*%
X186771534Y-95640733D03*
%TO.P,D18,2,A*%
%TO.N,Net-(D18-A)*%
X186771534Y-92340733D03*
%TD*%
D12*
%TO.P,B-1,1,1*%
%TO.N,GND*%
X215791418Y-117233902D03*
%TD*%
D10*
%TO.P,SW12,1,1*%
%TO.N,L_COL5*%
X201037958Y-69806448D03*
%TO.P,SW12,2,2*%
%TO.N,Net-(D12-A)*%
X198497958Y-83656448D03*
%TD*%
D16*
%TO.P,R3,1*%
%TO.N,VCC*%
X217000000Y-62900000D03*
%TO.P,R3,2*%
%TO.N,L_SCL*%
X217000000Y-61250000D03*
%TD*%
D11*
%TO.P,D5,1,K*%
%TO.N,L_ROW0*%
X175559707Y-54828233D03*
%TO.P,D5,2,A*%
%TO.N,Net-(D5-A)*%
X178859707Y-54828233D03*
%TD*%
D10*
%TO.P,SW9,1,1*%
%TO.N,L_COL2*%
X143587958Y-74806448D03*
%TO.P,SW9,2,2*%
%TO.N,Net-(D9-A)*%
X141047958Y-88656448D03*
%TD*%
D11*
%TO.P,D3,1,K*%
%TO.N,L_ROW0*%
X136727078Y-54812603D03*
%TO.P,D3,2,A*%
%TO.N,Net-(D3-A)*%
X140027078Y-54812603D03*
%TD*%
D26*
%TO.N,Net-(D1-A)*%
X93933700Y-69564237D03*
D27*
X100032154Y-71381348D03*
D26*
%TO.N,Net-(D2-A)*%
X119683743Y-66495006D03*
%TO.N,Net-(D3-A)*%
X138498186Y-71512852D03*
D27*
%TO.N,Net-(D4-A)*%
X157724876Y-66520286D03*
D26*
%TO.N,Net-(D5-A)*%
X176938113Y-71388145D03*
%TO.N,Net-(D6-A)*%
X196151613Y-66488057D03*
%TO.N,Net-(D7-A)*%
X100138378Y-88589767D03*
X94044627Y-84650338D03*
%TO.N,L_ROW1*%
X107563194Y-82606765D03*
X124321065Y-134161687D03*
X127960480Y-120958226D03*
X127679342Y-84154161D03*
X132023084Y-125359380D03*
X148440237Y-82477816D03*
X139800610Y-90988493D03*
X166235291Y-85959457D03*
X127875843Y-105638826D03*
X158498311Y-85830507D03*
X118910764Y-84283111D03*
X110271137Y-81446218D03*
%TO.N,Net-(D8-A)*%
X119650819Y-83252207D03*
D27*
%TO.N,Net-(D9-A)*%
X138485535Y-88483542D03*
D26*
%TO.N,Net-(D10-A)*%
X157831101Y-83728705D03*
X151776287Y-83728705D03*
%TO.N,Net-(D11-A)*%
X171651177Y-88538450D03*
X176938113Y-88538450D03*
%TO.N,Net-(D12-A)*%
X195893713Y-83767312D03*
X190786091Y-83711149D03*
%TO.N,L_ROW2*%
X187271985Y-97397667D03*
X119264975Y-110427336D03*
X177284525Y-108124938D03*
X120582901Y-107449819D03*
%TO.N,Net-(D13-A)*%
X100006267Y-106148982D03*
X93822773Y-102065911D03*
%TO.N,Net-(D14-A)*%
X117346798Y-104629713D03*
%TO.N,Net-(D15-A)*%
X138437398Y-106170867D03*
%TO.N,Net-(D16-A)*%
X151753639Y-97738414D03*
X157743708Y-101066231D03*
%TO.N,Net-(D17-A)*%
X176938113Y-106075604D03*
%TO.N,Net-(D18-A)*%
X189690747Y-96296360D03*
X195893713Y-101175517D03*
%TO.N,Net-(D19-A)*%
X176938113Y-123741708D03*
%TO.N,L_ROW3*%
X124140209Y-112849724D03*
X121240653Y-115930502D03*
%TO.N,Net-(D20-A)*%
X195893713Y-118970570D03*
%TO.N,Net-(D21-A)*%
X191122576Y-140118315D03*
%TO.N,L_SDA*%
X102272563Y-146058988D03*
X101581461Y-132352125D03*
%TO.N,L_SCL*%
X133995585Y-125446355D03*
X104361021Y-132571203D03*
X134688958Y-123135109D03*
X215120311Y-72287703D03*
%TO.N,VCC*%
X108985148Y-118954919D03*
X186434297Y-123861200D03*
X124521705Y-118604471D03*
X205965686Y-78532967D03*
X206643502Y-107857379D03*
X215234231Y-65198123D03*
X135502429Y-121758508D03*
X121367667Y-119188552D03*
X118330445Y-118954919D03*
X205900000Y-122650000D03*
X219399551Y-64982286D03*
%TO.N,L_BTSENSE*%
X121428734Y-125325563D03*
X125405222Y-127544998D03*
X123370740Y-127544998D03*
X205027468Y-107477603D03*
%TO.N,L_POWER*%
X109989873Y-108393911D03*
X94324886Y-109085013D03*
X91560477Y-109085013D03*
%TO.N,L_COL0*%
X100185041Y-91858782D03*
X100125451Y-57086638D03*
%TO.N,L_COL1*%
X119617653Y-51887884D03*
X97280021Y-131300804D03*
%TO.N,L_COL2*%
X138253214Y-73838188D03*
X138511113Y-91633242D03*
X129653232Y-123666628D03*
X141219056Y-57461581D03*
X129145406Y-125613292D03*
X107055000Y-132553573D03*
%TO.N,L_COL3*%
X130297591Y-125330793D03*
X128910844Y-127179790D03*
X165461593Y-89183198D03*
X157853563Y-69067051D03*
X176914151Y-109142543D03*
X157853563Y-52045695D03*
X130875403Y-123597359D03*
X157595663Y-86862104D03*
%TO.N,L_COL4*%
X160349039Y-118264406D03*
X190089496Y-102328688D03*
X123962460Y-114434239D03*
X166319593Y-106548603D03*
X168347328Y-102267829D03*
X179517106Y-57461581D03*
X121258813Y-117250538D03*
X195994946Y-104424865D03*
X176938113Y-74096088D03*
X176938113Y-91504292D03*
%TO.N,L_COL5*%
X128250789Y-125665438D03*
X130281476Y-123019392D03*
X135573569Y-118281123D03*
X190476345Y-125152778D03*
X179017958Y-130096027D03*
D27*
X198601656Y-52561494D03*
D26*
X122035657Y-134280473D03*
X195893713Y-69196000D03*
X195798866Y-86450425D03*
%TD*%
D28*
%TO.N,Net-(SW-B1-B)*%
X209676328Y-109694039D02*
X212241418Y-117233902D01*
X208900000Y-59400000D02*
X205550000Y-59400000D01*
X205800000Y-109700000D02*
X209676328Y-109694039D01*
X212250000Y-62000000D02*
X208900000Y-59400000D01*
X205550000Y-59400000D02*
X204250000Y-60400000D01*
X204250000Y-60400000D02*
X204150000Y-107600000D01*
X204150000Y-107600000D02*
X205800000Y-109700000D01*
%TO.N,GND*%
X178250000Y-145400000D02*
X203500000Y-145650000D01*
X219250000Y-117500000D02*
X215791418Y-117233902D01*
X220550000Y-116550000D02*
X219250000Y-117500000D01*
X92850000Y-133150000D02*
X98000000Y-133300000D01*
X89362370Y-128218200D02*
X92850000Y-133150000D01*
X209856761Y-68500000D02*
X209950000Y-72000000D01*
X90950000Y-145000000D02*
X121350000Y-145300000D01*
X99550000Y-130950000D02*
X99522370Y-128218200D01*
X216250000Y-125550000D02*
X215791418Y-117233902D01*
X208000000Y-63150000D02*
X208250000Y-67000000D01*
X121350000Y-145300000D02*
X130150000Y-127100000D01*
X168050000Y-126950000D02*
X178250000Y-145400000D01*
X209950000Y-72000000D02*
X210750000Y-73050000D01*
X203500000Y-145650000D02*
X216250000Y-125550000D01*
X96982370Y-128218200D02*
X99522370Y-128218200D01*
X89100000Y-142550000D02*
X90950000Y-145000000D01*
X221700000Y-74550000D02*
X220550000Y-116550000D01*
X96982370Y-128218200D02*
X96750000Y-115500000D01*
X208250000Y-67000000D02*
X209856761Y-68500000D01*
X220300000Y-73150000D02*
X221700000Y-74550000D01*
X210750000Y-73050000D02*
X220300000Y-73150000D01*
X89362370Y-128218200D02*
X89100000Y-142550000D01*
X98000000Y-133300000D02*
X99550000Y-130950000D01*
X96750000Y-115500000D02*
X94442360Y-112978190D01*
X130150000Y-127100000D02*
X168050000Y-126950000D01*
%TO.N,Net-(D1-A)*%
X96800000Y-64450000D02*
X93950000Y-67250000D01*
X100032154Y-71381348D02*
X102747958Y-71398583D01*
X93950000Y-67250000D02*
X93933700Y-69564237D01*
X98010895Y-54729899D02*
X96800000Y-64450000D01*
%TO.N,L_ROW0*%
X117400000Y-130050000D02*
X117302370Y-128218200D01*
X109500000Y-109650000D02*
X119950000Y-109750000D01*
X175000000Y-49250000D02*
X175559707Y-54828233D01*
X120050000Y-47850000D02*
X121407101Y-49667616D01*
X134550000Y-48900000D02*
X136000000Y-50150000D01*
X121407101Y-49667616D02*
X123650000Y-48700000D01*
X159098506Y-49852941D02*
X160850000Y-48100000D01*
X108600000Y-56100000D02*
X109150000Y-108950000D01*
X118550000Y-130600000D02*
X117400000Y-130050000D01*
X122050000Y-111400000D02*
X122250000Y-129600000D01*
X136000000Y-50150000D02*
X136727078Y-54812603D01*
X122250000Y-129600000D02*
X121550000Y-130500000D01*
X136727078Y-54812603D02*
X138100000Y-50050000D01*
X139250000Y-48700000D02*
X157250000Y-47750000D01*
X173600000Y-48100000D02*
X175000000Y-49250000D01*
X119950000Y-109750000D02*
X122050000Y-111400000D01*
X103800000Y-47750000D02*
X120050000Y-47850000D01*
X109150000Y-108950000D02*
X109500000Y-109650000D01*
X121550000Y-130500000D02*
X118550000Y-130600000D01*
X160850000Y-48100000D02*
X173600000Y-48100000D01*
X157250000Y-47750000D02*
X159098506Y-49852941D01*
X101400000Y-50200000D02*
X103800000Y-47750000D01*
X101310895Y-54729899D02*
X107450000Y-54700000D01*
X107450000Y-54700000D02*
X108600000Y-56100000D01*
X175000000Y-49250000D02*
X194397502Y-49863540D01*
X123650000Y-48700000D02*
X134550000Y-48900000D01*
X101310895Y-54729899D02*
X101400000Y-50200000D01*
X138100000Y-50050000D02*
X139250000Y-48700000D01*
%TO.N,Net-(D2-A)*%
X111300000Y-66550000D02*
X113200000Y-68250000D01*
X112900000Y-49600000D02*
X111300000Y-51000000D01*
X118107101Y-49667616D02*
X112900000Y-49600000D01*
X111300000Y-51000000D02*
X111300000Y-66550000D01*
X120700000Y-68350000D02*
X122193714Y-66398583D01*
X113200000Y-68250000D02*
X120700000Y-68350000D01*
X119683743Y-66495006D02*
X122193714Y-66398583D01*
%TO.N,Net-(D3-A)*%
X140027078Y-54812603D02*
X140550000Y-61950000D01*
X138498186Y-71512852D02*
X141047958Y-71398583D01*
X143450000Y-66100000D02*
X143450000Y-69400000D01*
X141300000Y-63800000D02*
X143450000Y-66100000D01*
X143450000Y-69400000D02*
X141047958Y-71398583D01*
X140550000Y-61950000D02*
X141300000Y-63800000D01*
%TO.N,Net-(D4-A)*%
X162850000Y-61150000D02*
X162850000Y-65200000D01*
X155798506Y-49852941D02*
X155700000Y-54450000D01*
X157724876Y-66520286D02*
X160335372Y-66398583D01*
X157200000Y-55850000D02*
X159950000Y-55950000D01*
X159950000Y-55950000D02*
X160900000Y-57550000D01*
X155700000Y-54450000D02*
X157200000Y-55850000D01*
X162850000Y-65200000D02*
X160335372Y-66398583D01*
X160900000Y-57550000D02*
X160900000Y-59450000D01*
X160900000Y-59450000D02*
X162850000Y-61150000D01*
%TO.N,Net-(D5-A)*%
X176938113Y-71388145D02*
X179485372Y-71398583D01*
X182450000Y-66250000D02*
X182450000Y-70000000D01*
X178750000Y-61200000D02*
X179900000Y-64150000D01*
X179900000Y-64150000D02*
X182450000Y-66250000D01*
X178859707Y-54828233D02*
X178750000Y-61200000D01*
X182450000Y-70000000D02*
X179485372Y-71398583D01*
%TO.N,Net-(D6-A)*%
X199250000Y-58300000D02*
X199400000Y-60300000D01*
X197800000Y-56350000D02*
X199250000Y-58300000D01*
X196151613Y-66488057D02*
X198497958Y-66398583D01*
X200750000Y-62000000D02*
X200550000Y-64750000D01*
X199400000Y-60300000D02*
X200750000Y-62000000D01*
X197697502Y-49863540D02*
X197300000Y-55150000D01*
X197300000Y-55150000D02*
X197800000Y-56350000D01*
X200550000Y-64750000D02*
X198497958Y-66398583D01*
%TO.N,Net-(D7-A)*%
X91101663Y-79825642D02*
X94044627Y-84650338D01*
X100138378Y-88589767D02*
X102747958Y-88656448D01*
%TO.N,L_ROW1*%
X124321065Y-134161687D02*
X116050000Y-130100000D01*
X151800000Y-85700000D02*
X158498311Y-85830507D01*
X104750000Y-82600000D02*
X107563194Y-82606765D01*
X93250000Y-85950000D02*
X94550000Y-85950000D01*
X98550000Y-78350000D02*
X102000000Y-78350000D01*
X167500000Y-84650000D02*
X167454164Y-82981415D01*
X148440237Y-82477816D02*
X148304664Y-79281597D01*
X148440237Y-82477816D02*
X151800000Y-85700000D01*
X178750000Y-78050000D02*
X180800000Y-80950000D01*
X128200000Y-94550000D02*
X127875843Y-105638826D01*
X114150000Y-84400000D02*
X118910764Y-84283111D01*
X116050000Y-130100000D02*
X115950000Y-127050000D01*
X127960480Y-120958226D02*
X131850000Y-123150000D01*
X129250000Y-82350000D02*
X129005301Y-80180779D01*
X167300000Y-75950000D02*
X173750000Y-76050000D01*
X133350000Y-90450000D02*
X139800610Y-90988493D01*
X115950000Y-127050000D02*
X116700000Y-126550000D01*
X180800000Y-80950000D02*
X184600000Y-81050000D01*
X91101663Y-83125642D02*
X93250000Y-85950000D01*
X118800000Y-126550000D02*
X119842370Y-128218200D01*
X129250000Y-82350000D02*
X133350000Y-90450000D01*
X175800000Y-77800000D02*
X178750000Y-78050000D01*
X184600000Y-81050000D02*
X186453118Y-78832007D01*
X167454164Y-82981415D02*
X165700000Y-79900000D01*
X94550000Y-85950000D02*
X98550000Y-78350000D01*
X102000000Y-78350000D02*
X104750000Y-82600000D01*
X110600844Y-78624960D02*
X114150000Y-84400000D01*
X173750000Y-76050000D02*
X175800000Y-77800000D01*
X131850000Y-123150000D02*
X132023084Y-125359380D01*
X110271137Y-81446218D02*
X110600844Y-78624960D01*
X133350000Y-90450000D02*
X128200000Y-94550000D01*
X116700000Y-126550000D02*
X118800000Y-126550000D01*
X127679342Y-84154161D02*
X129250000Y-82350000D01*
X165700000Y-79900000D02*
X165700000Y-77150000D01*
X166235291Y-85959457D02*
X167500000Y-84650000D01*
X165700000Y-77150000D02*
X167300000Y-75950000D01*
%TO.N,Net-(D8-A)*%
X115900000Y-76600000D02*
X117850000Y-73350000D01*
X117850000Y-73350000D02*
X121750000Y-73350000D01*
X111900000Y-76950000D02*
X115900000Y-76600000D01*
X125800000Y-78950000D02*
X125700000Y-82350000D01*
X123450000Y-76850000D02*
X125800000Y-78950000D01*
X119650819Y-83252207D02*
X122193714Y-83656448D01*
X110600844Y-75324960D02*
X111900000Y-76950000D01*
X125700000Y-82350000D02*
X122193714Y-83656448D01*
X121750000Y-73350000D02*
X123450000Y-76850000D01*
%TO.N,Net-(D9-A)*%
X134850000Y-81300000D02*
X136300000Y-78550000D01*
X131950000Y-81300000D02*
X134850000Y-81300000D01*
X129005301Y-76880779D02*
X131950000Y-81300000D01*
X136300000Y-78550000D02*
X140450000Y-78300000D01*
X143200000Y-82350000D02*
X143300000Y-86900000D01*
X143300000Y-86900000D02*
X141047958Y-88656448D01*
X140450000Y-78300000D02*
X143200000Y-82350000D01*
X138485535Y-88483542D02*
X141047958Y-88656448D01*
%TO.N,Net-(D10-A)*%
X157831101Y-83728705D02*
X160335372Y-83656448D01*
X151776287Y-83728705D02*
X148304664Y-75981597D01*
%TO.N,Net-(D11-A)*%
X176938113Y-88538450D02*
X179485372Y-88656448D01*
X167454164Y-79681415D02*
X171651177Y-88538450D01*
%TO.N,Net-(D12-A)*%
X186453118Y-75532007D02*
X190786091Y-83711149D01*
X195893713Y-83767312D02*
X198497958Y-83656448D01*
%TO.N,L_ROW2*%
X133100000Y-99600000D02*
X136600000Y-95900000D01*
X156700000Y-90200000D02*
X159250000Y-90200000D01*
X163650000Y-94600000D02*
X165200000Y-94450000D01*
X122669527Y-105255922D02*
X137342038Y-109617711D01*
X119350000Y-111500000D02*
X119264975Y-110427336D01*
X117450000Y-110600000D02*
X119350000Y-111500000D01*
X171850000Y-107850000D02*
X177284525Y-108124938D01*
X147000000Y-98600000D02*
X148468293Y-97130242D01*
X90357748Y-100486328D02*
X90450000Y-109450000D01*
X137342038Y-109617711D02*
X132950000Y-102050000D01*
X148468293Y-97130242D02*
X146500000Y-93050000D01*
X159250000Y-90200000D02*
X163650000Y-94600000D01*
X167551868Y-97789789D02*
X165200000Y-94450000D01*
X140200000Y-95600000D02*
X142650000Y-98600000D01*
X90450000Y-109450000D02*
X90700000Y-109850000D01*
X148550000Y-87100000D02*
X154250000Y-87500000D01*
X154250000Y-87500000D02*
X156700000Y-90200000D01*
X119350000Y-111500000D02*
X119842360Y-112978190D01*
X136600000Y-95900000D02*
X140200000Y-95600000D01*
X122669527Y-105255922D02*
X120582901Y-107449819D01*
X146500000Y-93050000D02*
X146650000Y-88900000D01*
X142650000Y-98600000D02*
X147000000Y-98600000D01*
X116100000Y-110150000D02*
X117450000Y-110600000D01*
X167551868Y-97789789D02*
X171850000Y-107850000D01*
X132950000Y-102050000D02*
X133100000Y-99600000D01*
X146650000Y-88900000D02*
X148550000Y-87100000D01*
X90700000Y-109850000D02*
X116100000Y-110150000D01*
X187271985Y-97397667D02*
X186771534Y-95640733D01*
%TO.N,Net-(D13-A)*%
X102747958Y-106132876D02*
X100006267Y-106148982D01*
X90357748Y-97186328D02*
X93822773Y-102065911D01*
%TO.N,Net-(D14-A)*%
X117346798Y-104629713D02*
X119369527Y-105255922D01*
X119369527Y-105255922D02*
X122193714Y-101132876D01*
%TO.N,Net-(D15-A)*%
X141047958Y-106132876D02*
X140642038Y-109617711D01*
X138437398Y-106170867D02*
X141047958Y-106132876D01*
%TO.N,Net-(D16-A)*%
X148468293Y-93830242D02*
X151753639Y-97738414D01*
X160335372Y-101132876D02*
X157743708Y-101066231D01*
%TO.N,Net-(D17-A)*%
X173150000Y-92450000D02*
X175350000Y-95650000D01*
X182600000Y-100500000D02*
X182600000Y-104300000D01*
X182600000Y-104300000D02*
X179485372Y-106132876D01*
X168650000Y-92550000D02*
X173150000Y-92450000D01*
X178450000Y-95900000D02*
X182600000Y-100500000D01*
X176938113Y-106075604D02*
X179485372Y-106132876D01*
X175350000Y-95650000D02*
X178450000Y-95900000D01*
X167551868Y-94489789D02*
X168650000Y-92550000D01*
%TO.N,Net-(D18-A)*%
X189690747Y-96296360D02*
X186771534Y-92340733D01*
X195893713Y-101175517D02*
X198497958Y-101132876D01*
%TO.N,Net-(D19-A)*%
X171650000Y-118700000D02*
X172400000Y-125800000D01*
X178750000Y-126950000D02*
X179540000Y-123810000D01*
X173700000Y-126950000D02*
X178750000Y-126950000D01*
X172400000Y-125800000D02*
X173700000Y-126950000D01*
X176938113Y-123741708D02*
X179540000Y-123810000D01*
X167250000Y-114250000D02*
X171650000Y-118700000D01*
%TO.N,L_ROW3*%
X116800000Y-114750000D02*
X111450000Y-114550000D01*
X170500000Y-120250000D02*
X171250000Y-126300000D01*
X171250000Y-126300000D02*
X173350000Y-128000000D01*
X179650000Y-129300000D02*
X180500000Y-132600000D01*
X186100000Y-123100000D02*
X193950000Y-122750000D01*
X111450000Y-114550000D02*
X109682360Y-112978190D01*
X177850000Y-128250000D02*
X179650000Y-129300000D01*
X121240653Y-115930502D02*
X116800000Y-114750000D01*
X173350000Y-128000000D02*
X177850000Y-128250000D01*
X180500000Y-132600000D02*
X186100000Y-123100000D01*
X167250000Y-117550000D02*
X124140209Y-112849724D01*
X167250000Y-117550000D02*
X170500000Y-120250000D01*
%TO.N,Net-(D20-A)*%
X195893713Y-118970570D02*
X198540000Y-118810000D01*
X197250000Y-122750000D02*
X198540000Y-118810000D01*
%TO.N,Net-(D21-A)*%
X192300000Y-142850000D02*
X193540000Y-140060000D01*
X191122576Y-140118315D02*
X193540000Y-140060000D01*
X180500000Y-135900000D02*
X186200000Y-142950000D01*
X186200000Y-142950000D02*
X192300000Y-142850000D01*
%TO.N,L_SDA*%
X217476761Y-68500000D02*
X222950000Y-74200000D01*
X216750000Y-124850000D02*
X217000000Y-126000000D01*
X101581461Y-132352125D02*
X102062370Y-128218200D01*
X130850000Y-127750000D02*
X121850000Y-145950000D01*
X219500000Y-118750000D02*
X217450000Y-118750000D01*
X203850000Y-146400000D02*
X177500000Y-146050000D01*
X216850000Y-119450000D02*
X216750000Y-124850000D01*
X121850000Y-145950000D02*
X102272563Y-146058988D01*
X167450000Y-127750000D02*
X130850000Y-127750000D01*
X177500000Y-146050000D02*
X167450000Y-127750000D01*
X223350000Y-66600000D02*
X221950000Y-68400000D01*
X222950000Y-74200000D02*
X221950000Y-116350000D01*
X217000000Y-126000000D02*
X203850000Y-146400000D01*
X221950000Y-68400000D02*
X217476761Y-68500000D01*
X222000000Y-61850000D02*
X223250000Y-62850000D01*
X223250000Y-62850000D02*
X223350000Y-66600000D01*
X217450000Y-118750000D02*
X216850000Y-119450000D01*
X221950000Y-116350000D02*
X219500000Y-118750000D01*
%TO.N,L_SCL*%
X215100000Y-61200000D02*
X214050000Y-62350000D01*
X214936761Y-68500000D02*
X215120311Y-72287703D01*
X104361021Y-132571203D02*
X104602370Y-128218200D01*
X214050000Y-62350000D02*
X214936761Y-68500000D01*
X217000000Y-61250000D02*
X215100000Y-61200000D01*
X134688958Y-123135109D02*
X133995585Y-125446355D01*
%TO.N,VCC*%
X219399551Y-64982286D02*
X218760000Y-63150000D01*
X197400000Y-124450000D02*
X186434297Y-123861200D01*
X202100000Y-124900000D02*
X197400000Y-124450000D01*
X121367667Y-119188552D02*
X118330445Y-118954919D01*
X217000000Y-62900000D02*
X215234231Y-65198123D01*
X203650000Y-124900000D02*
X202100000Y-124900000D01*
X222000000Y-63500000D02*
X217000000Y-62900000D01*
X135502429Y-121758508D02*
X124521705Y-118604471D01*
X108985148Y-118954919D02*
X106050000Y-116250000D01*
X205900000Y-122650000D02*
X203650000Y-124900000D01*
X106050000Y-116250000D02*
X100350000Y-115100000D01*
X100350000Y-115100000D02*
X99522360Y-112978190D01*
X205965686Y-78532967D02*
X206643502Y-107857379D01*
%TO.N,L_BTSENSE*%
X121428734Y-125325563D02*
X116747570Y-122598200D01*
X208000000Y-61500000D02*
X205650000Y-61700000D01*
X205650000Y-61700000D02*
X205100000Y-63450000D01*
X125405222Y-127544998D02*
X123370740Y-127544998D01*
X208000000Y-61500000D02*
X212250000Y-63650000D01*
X205100000Y-63450000D02*
X205027468Y-107477603D01*
%TO.N,L_POWER*%
X218286328Y-109694039D02*
X218250000Y-114400000D01*
X214800000Y-115400000D02*
X213750000Y-116100000D01*
X203300000Y-144000000D02*
X215500000Y-125300000D01*
X121400000Y-108600000D02*
X109989873Y-108393911D01*
X218250000Y-114400000D02*
X217250000Y-115400000D01*
X123950000Y-124050000D02*
X123100000Y-125200000D01*
X168600000Y-126150000D02*
X124500000Y-126350000D01*
X94324886Y-109085013D02*
X91560477Y-109085013D01*
X217250000Y-115400000D02*
X214800000Y-115400000D01*
X203300000Y-144000000D02*
X179350000Y-143850000D01*
X215500000Y-125300000D02*
X213750000Y-116100000D01*
X179350000Y-143850000D02*
X168600000Y-126150000D01*
X123000000Y-110450000D02*
X121400000Y-108600000D01*
X123000000Y-110450000D02*
X123950000Y-124050000D01*
X124500000Y-126350000D02*
X123100000Y-125200000D01*
%TO.N,L_COL0*%
X100125451Y-57086638D02*
X105287958Y-57548583D01*
X107750000Y-73550000D02*
X105287958Y-74806448D01*
X105287958Y-57548583D02*
X107950000Y-59350000D01*
X107950000Y-59350000D02*
X107750000Y-73550000D01*
X100185041Y-91858782D02*
X105287958Y-92282876D01*
%TO.N,L_COL1*%
X124733714Y-52548583D02*
X126850000Y-54350000D01*
X94650000Y-130050000D02*
X94442370Y-128218200D01*
X124733714Y-69806448D02*
X126900000Y-72050000D01*
X126650000Y-84700000D02*
X124733714Y-87282876D01*
X126900000Y-72050000D02*
X126650000Y-84700000D01*
X119617653Y-51887884D02*
X124733714Y-52548583D01*
X126850000Y-54350000D02*
X127000000Y-67800000D01*
X97280021Y-131300804D02*
X94650000Y-130050000D01*
X127000000Y-67800000D02*
X124733714Y-69806448D01*
%TO.N,L_COL2*%
X138511113Y-91633242D02*
X143587958Y-92282876D01*
X107055000Y-132553573D02*
X107142370Y-128218200D01*
X143587958Y-74806448D02*
X138253214Y-73838188D01*
X129653232Y-123666628D02*
X129145406Y-125613292D01*
X141219056Y-57461581D02*
X143587958Y-57548583D01*
%TO.N,L_COL3*%
X157853563Y-52045695D02*
X162875372Y-52548583D01*
X119750000Y-144050000D02*
X128910844Y-127179790D01*
X110400000Y-142550000D02*
X111750000Y-144350000D01*
X157595663Y-86862104D02*
X162875372Y-87282876D01*
X176914151Y-109142543D02*
X182080000Y-109960000D01*
X157853563Y-69067051D02*
X162875372Y-69806448D01*
X111750000Y-144350000D02*
X119750000Y-144050000D01*
X109682370Y-128218200D02*
X110400000Y-142550000D01*
X130297591Y-125330793D02*
X130875403Y-123597359D01*
X165461593Y-89183198D02*
X162875372Y-87282876D01*
%TO.N,L_COL4*%
X123962460Y-114434239D02*
X160349039Y-118264406D01*
X114850000Y-117600000D02*
X121258813Y-117250538D01*
X182025372Y-57548583D02*
X179517106Y-57461581D01*
X176938113Y-74096088D02*
X182025372Y-74806448D01*
X166319593Y-106548603D02*
X168347328Y-102267829D01*
X176938113Y-91504292D02*
X182025372Y-92282876D01*
X195994946Y-104424865D02*
X201080000Y-104960000D01*
X112250000Y-120500000D02*
X114850000Y-117600000D01*
X112222370Y-128218200D02*
X112250000Y-120500000D01*
X182025372Y-92282876D02*
X190089496Y-102328688D01*
%TO.N,L_COL5*%
X168350000Y-121500000D02*
X171000000Y-128700000D01*
X114762370Y-128218200D02*
X114900000Y-133750000D01*
X195798866Y-86450425D02*
X201037958Y-87282876D01*
X135573569Y-118281123D02*
X167200000Y-120500000D01*
X128750000Y-122900000D02*
X130281476Y-123019392D01*
X167200000Y-120500000D02*
X168350000Y-121500000D01*
X115750000Y-134400000D02*
X122035657Y-134280473D01*
X114900000Y-133750000D02*
X115750000Y-134400000D01*
X196080000Y-126210000D02*
X190476345Y-125152778D01*
X171000000Y-128700000D02*
X179017958Y-130096027D01*
X198601656Y-52561494D02*
X201037958Y-52548583D01*
X128250789Y-125665438D02*
X128750000Y-122900000D01*
X195893713Y-69196000D02*
X201037958Y-69806448D01*
%TO.N,unconnected-(U1-RST-Pad15)*%
X91200000Y-111700000D02*
X90300000Y-113900000D01*
X95950000Y-111600000D02*
X91200000Y-111700000D01*
X90300000Y-113900000D02*
X89515000Y-115018200D01*
X96982360Y-112978190D02*
X95950000Y-111600000D01*
%TD*%
M02*
