%TF.GenerationSoftware,KiCad,Pcbnew,9.0.8*%
%TF.CreationDate,2026-06-30T19:39:36+02:00*%
%TF.ProjectId,Splitboard,53706c69-7462-46f6-9172-642e6b696361,rev?*%
%TF.SameCoordinates,Original*%
%TF.FileFunction,Legend,Top*%
%TF.FilePolarity,Positive*%
%FSLAX46Y46*%
G04 Gerber Fmt 4.6, Leading zero omitted, Abs format (unit mm)*
G04 Created by KiCad (PCBNEW 9.0.8) date 2026-06-30 19:39:36*
%MOMM*%
%LPD*%
G01*
G04 APERTURE LIST*
%ADD10C,0.150000*%
%ADD11C,0.100000*%
%ADD12C,0.120000*%
%ADD13C,0.254000*%
%ADD14C,0.200000*%
%ADD15C,0.040000*%
G04 APERTURE END LIST*
D10*
X92360158Y-82429780D02*
X92407777Y-82286923D01*
X92407777Y-82286923D02*
X92407777Y-82048828D01*
X92407777Y-82048828D02*
X92360158Y-81953590D01*
X92360158Y-81953590D02*
X92312538Y-81905971D01*
X92312538Y-81905971D02*
X92217300Y-81858352D01*
X92217300Y-81858352D02*
X92122062Y-81858352D01*
X92122062Y-81858352D02*
X92026824Y-81905971D01*
X92026824Y-81905971D02*
X91979205Y-81953590D01*
X91979205Y-81953590D02*
X91931586Y-82048828D01*
X91931586Y-82048828D02*
X91883967Y-82239304D01*
X91883967Y-82239304D02*
X91836348Y-82334542D01*
X91836348Y-82334542D02*
X91788729Y-82382161D01*
X91788729Y-82382161D02*
X91693491Y-82429780D01*
X91693491Y-82429780D02*
X91598253Y-82429780D01*
X91598253Y-82429780D02*
X91503015Y-82382161D01*
X91503015Y-82382161D02*
X91455396Y-82334542D01*
X91455396Y-82334542D02*
X91407777Y-82239304D01*
X91407777Y-82239304D02*
X91407777Y-82001209D01*
X91407777Y-82001209D02*
X91455396Y-81858352D01*
X91407777Y-81525018D02*
X92407777Y-81286923D01*
X92407777Y-81286923D02*
X91693491Y-81096447D01*
X91693491Y-81096447D02*
X92407777Y-80905971D01*
X92407777Y-80905971D02*
X91407777Y-80667876D01*
X91407777Y-80382161D02*
X91407777Y-79715495D01*
X91407777Y-79715495D02*
X92407777Y-80144066D01*
X194385714Y-121204819D02*
X194385714Y-120204819D01*
X194385714Y-120204819D02*
X194623809Y-120204819D01*
X194623809Y-120204819D02*
X194766666Y-120252438D01*
X194766666Y-120252438D02*
X194861904Y-120347676D01*
X194861904Y-120347676D02*
X194909523Y-120442914D01*
X194909523Y-120442914D02*
X194957142Y-120633390D01*
X194957142Y-120633390D02*
X194957142Y-120776247D01*
X194957142Y-120776247D02*
X194909523Y-120966723D01*
X194909523Y-120966723D02*
X194861904Y-121061961D01*
X194861904Y-121061961D02*
X194766666Y-121157200D01*
X194766666Y-121157200D02*
X194623809Y-121204819D01*
X194623809Y-121204819D02*
X194385714Y-121204819D01*
X195338095Y-120300057D02*
X195385714Y-120252438D01*
X195385714Y-120252438D02*
X195480952Y-120204819D01*
X195480952Y-120204819D02*
X195719047Y-120204819D01*
X195719047Y-120204819D02*
X195814285Y-120252438D01*
X195814285Y-120252438D02*
X195861904Y-120300057D01*
X195861904Y-120300057D02*
X195909523Y-120395295D01*
X195909523Y-120395295D02*
X195909523Y-120490533D01*
X195909523Y-120490533D02*
X195861904Y-120633390D01*
X195861904Y-120633390D02*
X195290476Y-121204819D01*
X195290476Y-121204819D02*
X195909523Y-121204819D01*
X196528571Y-120204819D02*
X196623809Y-120204819D01*
X196623809Y-120204819D02*
X196719047Y-120252438D01*
X196719047Y-120252438D02*
X196766666Y-120300057D01*
X196766666Y-120300057D02*
X196814285Y-120395295D01*
X196814285Y-120395295D02*
X196861904Y-120585771D01*
X196861904Y-120585771D02*
X196861904Y-120823866D01*
X196861904Y-120823866D02*
X196814285Y-121014342D01*
X196814285Y-121014342D02*
X196766666Y-121109580D01*
X196766666Y-121109580D02*
X196719047Y-121157200D01*
X196719047Y-121157200D02*
X196623809Y-121204819D01*
X196623809Y-121204819D02*
X196528571Y-121204819D01*
X196528571Y-121204819D02*
X196433333Y-121157200D01*
X196433333Y-121157200D02*
X196385714Y-121109580D01*
X196385714Y-121109580D02*
X196338095Y-121014342D01*
X196338095Y-121014342D02*
X196290476Y-120823866D01*
X196290476Y-120823866D02*
X196290476Y-120585771D01*
X196290476Y-120585771D02*
X196338095Y-120395295D01*
X196338095Y-120395295D02*
X196385714Y-120300057D01*
X196385714Y-120300057D02*
X196433333Y-120252438D01*
X196433333Y-120252438D02*
X196528571Y-120204819D01*
X91364868Y-47640427D02*
X91031535Y-47164236D01*
X90793440Y-47640427D02*
X90793440Y-46640427D01*
X90793440Y-46640427D02*
X91174392Y-46640427D01*
X91174392Y-46640427D02*
X91269630Y-46688046D01*
X91269630Y-46688046D02*
X91317249Y-46735665D01*
X91317249Y-46735665D02*
X91364868Y-46830903D01*
X91364868Y-46830903D02*
X91364868Y-46973760D01*
X91364868Y-46973760D02*
X91317249Y-47068998D01*
X91317249Y-47068998D02*
X91269630Y-47116617D01*
X91269630Y-47116617D02*
X91174392Y-47164236D01*
X91174392Y-47164236D02*
X90793440Y-47164236D01*
X91793440Y-47116617D02*
X92126773Y-47116617D01*
X92269630Y-47640427D02*
X91793440Y-47640427D01*
X91793440Y-47640427D02*
X91793440Y-46640427D01*
X91793440Y-46640427D02*
X92269630Y-46640427D01*
X93031535Y-47116617D02*
X92698202Y-47116617D01*
X92698202Y-47640427D02*
X92698202Y-46640427D01*
X92698202Y-46640427D02*
X93174392Y-46640427D01*
X93698202Y-46640427D02*
X93698202Y-46878522D01*
X93460107Y-46783284D02*
X93698202Y-46878522D01*
X93698202Y-46878522D02*
X93936297Y-46783284D01*
X93555345Y-47068998D02*
X93698202Y-46878522D01*
X93698202Y-46878522D02*
X93841059Y-47068998D01*
X94460107Y-46640427D02*
X94460107Y-46878522D01*
X94222012Y-46783284D02*
X94460107Y-46878522D01*
X94460107Y-46878522D02*
X94698202Y-46783284D01*
X94317250Y-47068998D02*
X94460107Y-46878522D01*
X94460107Y-46878522D02*
X94602964Y-47068998D01*
X188110158Y-60171915D02*
X188157777Y-60029058D01*
X188157777Y-60029058D02*
X188157777Y-59790963D01*
X188157777Y-59790963D02*
X188110158Y-59695725D01*
X188110158Y-59695725D02*
X188062538Y-59648106D01*
X188062538Y-59648106D02*
X187967300Y-59600487D01*
X187967300Y-59600487D02*
X187872062Y-59600487D01*
X187872062Y-59600487D02*
X187776824Y-59648106D01*
X187776824Y-59648106D02*
X187729205Y-59695725D01*
X187729205Y-59695725D02*
X187681586Y-59790963D01*
X187681586Y-59790963D02*
X187633967Y-59981439D01*
X187633967Y-59981439D02*
X187586348Y-60076677D01*
X187586348Y-60076677D02*
X187538729Y-60124296D01*
X187538729Y-60124296D02*
X187443491Y-60171915D01*
X187443491Y-60171915D02*
X187348253Y-60171915D01*
X187348253Y-60171915D02*
X187253015Y-60124296D01*
X187253015Y-60124296D02*
X187205396Y-60076677D01*
X187205396Y-60076677D02*
X187157777Y-59981439D01*
X187157777Y-59981439D02*
X187157777Y-59743344D01*
X187157777Y-59743344D02*
X187205396Y-59600487D01*
X187157777Y-59267153D02*
X188157777Y-59029058D01*
X188157777Y-59029058D02*
X187443491Y-58838582D01*
X187443491Y-58838582D02*
X188157777Y-58648106D01*
X188157777Y-58648106D02*
X187157777Y-58410011D01*
X187157777Y-57600487D02*
X187157777Y-57790963D01*
X187157777Y-57790963D02*
X187205396Y-57886201D01*
X187205396Y-57886201D02*
X187253015Y-57933820D01*
X187253015Y-57933820D02*
X187395872Y-58029058D01*
X187395872Y-58029058D02*
X187586348Y-58076677D01*
X187586348Y-58076677D02*
X187967300Y-58076677D01*
X187967300Y-58076677D02*
X188062538Y-58029058D01*
X188062538Y-58029058D02*
X188110158Y-57981439D01*
X188110158Y-57981439D02*
X188157777Y-57886201D01*
X188157777Y-57886201D02*
X188157777Y-57695725D01*
X188157777Y-57695725D02*
X188110158Y-57600487D01*
X188110158Y-57600487D02*
X188062538Y-57552868D01*
X188062538Y-57552868D02*
X187967300Y-57505249D01*
X187967300Y-57505249D02*
X187729205Y-57505249D01*
X187729205Y-57505249D02*
X187633967Y-57552868D01*
X187633967Y-57552868D02*
X187586348Y-57600487D01*
X187586348Y-57600487D02*
X187538729Y-57695725D01*
X187538729Y-57695725D02*
X187538729Y-57886201D01*
X187538729Y-57886201D02*
X187586348Y-57981439D01*
X187586348Y-57981439D02*
X187633967Y-58029058D01*
X187633967Y-58029058D02*
X187729205Y-58076677D01*
X149947572Y-60171915D02*
X149995191Y-60029058D01*
X149995191Y-60029058D02*
X149995191Y-59790963D01*
X149995191Y-59790963D02*
X149947572Y-59695725D01*
X149947572Y-59695725D02*
X149899952Y-59648106D01*
X149899952Y-59648106D02*
X149804714Y-59600487D01*
X149804714Y-59600487D02*
X149709476Y-59600487D01*
X149709476Y-59600487D02*
X149614238Y-59648106D01*
X149614238Y-59648106D02*
X149566619Y-59695725D01*
X149566619Y-59695725D02*
X149519000Y-59790963D01*
X149519000Y-59790963D02*
X149471381Y-59981439D01*
X149471381Y-59981439D02*
X149423762Y-60076677D01*
X149423762Y-60076677D02*
X149376143Y-60124296D01*
X149376143Y-60124296D02*
X149280905Y-60171915D01*
X149280905Y-60171915D02*
X149185667Y-60171915D01*
X149185667Y-60171915D02*
X149090429Y-60124296D01*
X149090429Y-60124296D02*
X149042810Y-60076677D01*
X149042810Y-60076677D02*
X148995191Y-59981439D01*
X148995191Y-59981439D02*
X148995191Y-59743344D01*
X148995191Y-59743344D02*
X149042810Y-59600487D01*
X148995191Y-59267153D02*
X149995191Y-59029058D01*
X149995191Y-59029058D02*
X149280905Y-58838582D01*
X149280905Y-58838582D02*
X149995191Y-58648106D01*
X149995191Y-58648106D02*
X148995191Y-58410011D01*
X149328524Y-57600487D02*
X149995191Y-57600487D01*
X148947572Y-57838582D02*
X149661857Y-58076677D01*
X149661857Y-58076677D02*
X149661857Y-57457630D01*
X210524427Y-118257711D02*
X210572046Y-118114854D01*
X210572046Y-118114854D02*
X210619665Y-118067235D01*
X210619665Y-118067235D02*
X210714903Y-118019616D01*
X210714903Y-118019616D02*
X210857760Y-118019616D01*
X210857760Y-118019616D02*
X210952998Y-118067235D01*
X210952998Y-118067235D02*
X211000618Y-118114854D01*
X211000618Y-118114854D02*
X211048237Y-118210092D01*
X211048237Y-118210092D02*
X211048237Y-118591044D01*
X211048237Y-118591044D02*
X210048237Y-118591044D01*
X210048237Y-118591044D02*
X210048237Y-118257711D01*
X210048237Y-118257711D02*
X210095856Y-118162473D01*
X210095856Y-118162473D02*
X210143475Y-118114854D01*
X210143475Y-118114854D02*
X210238713Y-118067235D01*
X210238713Y-118067235D02*
X210333951Y-118067235D01*
X210333951Y-118067235D02*
X210429189Y-118114854D01*
X210429189Y-118114854D02*
X210476808Y-118162473D01*
X210476808Y-118162473D02*
X210524427Y-118257711D01*
X210524427Y-118257711D02*
X210524427Y-118591044D01*
X210667284Y-117591044D02*
X210667284Y-116829140D01*
X211048237Y-117210092D02*
X210286332Y-117210092D01*
X211048237Y-115829140D02*
X211048237Y-116400568D01*
X211048237Y-116114854D02*
X210048237Y-116114854D01*
X210048237Y-116114854D02*
X210191094Y-116210092D01*
X210191094Y-116210092D02*
X210286332Y-116305330D01*
X210286332Y-116305330D02*
X210333951Y-116400568D01*
X146759483Y-78845882D02*
X145759483Y-78845882D01*
X145759483Y-78845882D02*
X145759483Y-78607787D01*
X145759483Y-78607787D02*
X145807102Y-78464930D01*
X145807102Y-78464930D02*
X145902340Y-78369692D01*
X145902340Y-78369692D02*
X145997578Y-78322073D01*
X145997578Y-78322073D02*
X146188054Y-78274454D01*
X146188054Y-78274454D02*
X146330911Y-78274454D01*
X146330911Y-78274454D02*
X146521387Y-78322073D01*
X146521387Y-78322073D02*
X146616625Y-78369692D01*
X146616625Y-78369692D02*
X146711864Y-78464930D01*
X146711864Y-78464930D02*
X146759483Y-78607787D01*
X146759483Y-78607787D02*
X146759483Y-78845882D01*
X146759483Y-77322073D02*
X146759483Y-77893501D01*
X146759483Y-77607787D02*
X145759483Y-77607787D01*
X145759483Y-77607787D02*
X145902340Y-77703025D01*
X145902340Y-77703025D02*
X145997578Y-77798263D01*
X145997578Y-77798263D02*
X146045197Y-77893501D01*
X145759483Y-76703025D02*
X145759483Y-76607787D01*
X145759483Y-76607787D02*
X145807102Y-76512549D01*
X145807102Y-76512549D02*
X145854721Y-76464930D01*
X145854721Y-76464930D02*
X145949959Y-76417311D01*
X145949959Y-76417311D02*
X146140435Y-76369692D01*
X146140435Y-76369692D02*
X146378530Y-76369692D01*
X146378530Y-76369692D02*
X146569006Y-76417311D01*
X146569006Y-76417311D02*
X146664244Y-76464930D01*
X146664244Y-76464930D02*
X146711864Y-76512549D01*
X146711864Y-76512549D02*
X146759483Y-76607787D01*
X146759483Y-76607787D02*
X146759483Y-76703025D01*
X146759483Y-76703025D02*
X146711864Y-76798263D01*
X146711864Y-76798263D02*
X146664244Y-76845882D01*
X146664244Y-76845882D02*
X146569006Y-76893501D01*
X146569006Y-76893501D02*
X146378530Y-76941120D01*
X146378530Y-76941120D02*
X146140435Y-76941120D01*
X146140435Y-76941120D02*
X145949959Y-76893501D01*
X145949959Y-76893501D02*
X145854721Y-76845882D01*
X145854721Y-76845882D02*
X145807102Y-76798263D01*
X145807102Y-76798263D02*
X145759483Y-76703025D01*
X195309407Y-48318359D02*
X195309407Y-47318359D01*
X195309407Y-47318359D02*
X195547502Y-47318359D01*
X195547502Y-47318359D02*
X195690359Y-47365978D01*
X195690359Y-47365978D02*
X195785597Y-47461216D01*
X195785597Y-47461216D02*
X195833216Y-47556454D01*
X195833216Y-47556454D02*
X195880835Y-47746930D01*
X195880835Y-47746930D02*
X195880835Y-47889787D01*
X195880835Y-47889787D02*
X195833216Y-48080263D01*
X195833216Y-48080263D02*
X195785597Y-48175501D01*
X195785597Y-48175501D02*
X195690359Y-48270740D01*
X195690359Y-48270740D02*
X195547502Y-48318359D01*
X195547502Y-48318359D02*
X195309407Y-48318359D01*
X196737978Y-47318359D02*
X196547502Y-47318359D01*
X196547502Y-47318359D02*
X196452264Y-47365978D01*
X196452264Y-47365978D02*
X196404645Y-47413597D01*
X196404645Y-47413597D02*
X196309407Y-47556454D01*
X196309407Y-47556454D02*
X196261788Y-47746930D01*
X196261788Y-47746930D02*
X196261788Y-48127882D01*
X196261788Y-48127882D02*
X196309407Y-48223120D01*
X196309407Y-48223120D02*
X196357026Y-48270740D01*
X196357026Y-48270740D02*
X196452264Y-48318359D01*
X196452264Y-48318359D02*
X196642740Y-48318359D01*
X196642740Y-48318359D02*
X196737978Y-48270740D01*
X196737978Y-48270740D02*
X196785597Y-48223120D01*
X196785597Y-48223120D02*
X196833216Y-48127882D01*
X196833216Y-48127882D02*
X196833216Y-47889787D01*
X196833216Y-47889787D02*
X196785597Y-47794549D01*
X196785597Y-47794549D02*
X196737978Y-47746930D01*
X196737978Y-47746930D02*
X196642740Y-47699311D01*
X196642740Y-47699311D02*
X196452264Y-47699311D01*
X196452264Y-47699311D02*
X196357026Y-47746930D01*
X196357026Y-47746930D02*
X196309407Y-47794549D01*
X196309407Y-47794549D02*
X196261788Y-47889787D01*
X165908983Y-82545700D02*
X164908983Y-82545700D01*
X164908983Y-82545700D02*
X164908983Y-82307605D01*
X164908983Y-82307605D02*
X164956602Y-82164748D01*
X164956602Y-82164748D02*
X165051840Y-82069510D01*
X165051840Y-82069510D02*
X165147078Y-82021891D01*
X165147078Y-82021891D02*
X165337554Y-81974272D01*
X165337554Y-81974272D02*
X165480411Y-81974272D01*
X165480411Y-81974272D02*
X165670887Y-82021891D01*
X165670887Y-82021891D02*
X165766125Y-82069510D01*
X165766125Y-82069510D02*
X165861364Y-82164748D01*
X165861364Y-82164748D02*
X165908983Y-82307605D01*
X165908983Y-82307605D02*
X165908983Y-82545700D01*
X165908983Y-81021891D02*
X165908983Y-81593319D01*
X165908983Y-81307605D02*
X164908983Y-81307605D01*
X164908983Y-81307605D02*
X165051840Y-81402843D01*
X165051840Y-81402843D02*
X165147078Y-81498081D01*
X165147078Y-81498081D02*
X165194697Y-81593319D01*
X165908983Y-80069510D02*
X165908983Y-80640938D01*
X165908983Y-80355224D02*
X164908983Y-80355224D01*
X164908983Y-80355224D02*
X165051840Y-80450462D01*
X165051840Y-80450462D02*
X165147078Y-80545700D01*
X165147078Y-80545700D02*
X165194697Y-80640938D01*
X130660158Y-100382399D02*
X130707777Y-100239542D01*
X130707777Y-100239542D02*
X130707777Y-100001447D01*
X130707777Y-100001447D02*
X130660158Y-99906209D01*
X130660158Y-99906209D02*
X130612538Y-99858590D01*
X130612538Y-99858590D02*
X130517300Y-99810971D01*
X130517300Y-99810971D02*
X130422062Y-99810971D01*
X130422062Y-99810971D02*
X130326824Y-99858590D01*
X130326824Y-99858590D02*
X130279205Y-99906209D01*
X130279205Y-99906209D02*
X130231586Y-100001447D01*
X130231586Y-100001447D02*
X130183967Y-100191923D01*
X130183967Y-100191923D02*
X130136348Y-100287161D01*
X130136348Y-100287161D02*
X130088729Y-100334780D01*
X130088729Y-100334780D02*
X129993491Y-100382399D01*
X129993491Y-100382399D02*
X129898253Y-100382399D01*
X129898253Y-100382399D02*
X129803015Y-100334780D01*
X129803015Y-100334780D02*
X129755396Y-100287161D01*
X129755396Y-100287161D02*
X129707777Y-100191923D01*
X129707777Y-100191923D02*
X129707777Y-99953828D01*
X129707777Y-99953828D02*
X129755396Y-99810971D01*
X129707777Y-99477637D02*
X130707777Y-99239542D01*
X130707777Y-99239542D02*
X129993491Y-99049066D01*
X129993491Y-99049066D02*
X130707777Y-98858590D01*
X130707777Y-98858590D02*
X129707777Y-98620495D01*
X130707777Y-97715733D02*
X130707777Y-98287161D01*
X130707777Y-98001447D02*
X129707777Y-98001447D01*
X129707777Y-98001447D02*
X129850634Y-98096685D01*
X129850634Y-98096685D02*
X129945872Y-98191923D01*
X129945872Y-98191923D02*
X129993491Y-98287161D01*
X129707777Y-96810971D02*
X129707777Y-97287161D01*
X129707777Y-97287161D02*
X130183967Y-97334780D01*
X130183967Y-97334780D02*
X130136348Y-97287161D01*
X130136348Y-97287161D02*
X130088729Y-97191923D01*
X130088729Y-97191923D02*
X130088729Y-96953828D01*
X130088729Y-96953828D02*
X130136348Y-96858590D01*
X130136348Y-96858590D02*
X130183967Y-96810971D01*
X130183967Y-96810971D02*
X130279205Y-96763352D01*
X130279205Y-96763352D02*
X130517300Y-96763352D01*
X130517300Y-96763352D02*
X130612538Y-96810971D01*
X130612538Y-96810971D02*
X130660158Y-96858590D01*
X130660158Y-96858590D02*
X130707777Y-96953828D01*
X130707777Y-96953828D02*
X130707777Y-97191923D01*
X130707777Y-97191923D02*
X130660158Y-97287161D01*
X130660158Y-97287161D02*
X130612538Y-97334780D01*
X211528947Y-113521239D02*
X211671804Y-113568858D01*
X211671804Y-113568858D02*
X211909899Y-113568858D01*
X211909899Y-113568858D02*
X212005137Y-113521239D01*
X212005137Y-113521239D02*
X212052756Y-113473619D01*
X212052756Y-113473619D02*
X212100375Y-113378381D01*
X212100375Y-113378381D02*
X212100375Y-113283143D01*
X212100375Y-113283143D02*
X212052756Y-113187905D01*
X212052756Y-113187905D02*
X212005137Y-113140286D01*
X212005137Y-113140286D02*
X211909899Y-113092667D01*
X211909899Y-113092667D02*
X211719423Y-113045048D01*
X211719423Y-113045048D02*
X211624185Y-112997429D01*
X211624185Y-112997429D02*
X211576566Y-112949810D01*
X211576566Y-112949810D02*
X211528947Y-112854572D01*
X211528947Y-112854572D02*
X211528947Y-112759334D01*
X211528947Y-112759334D02*
X211576566Y-112664096D01*
X211576566Y-112664096D02*
X211624185Y-112616477D01*
X211624185Y-112616477D02*
X211719423Y-112568858D01*
X211719423Y-112568858D02*
X211957518Y-112568858D01*
X211957518Y-112568858D02*
X212100375Y-112616477D01*
X212433709Y-112568858D02*
X212671804Y-113568858D01*
X212671804Y-113568858D02*
X212862280Y-112854572D01*
X212862280Y-112854572D02*
X213052756Y-113568858D01*
X213052756Y-113568858D02*
X213290852Y-112568858D01*
X213671804Y-113187905D02*
X214433709Y-113187905D01*
X215243232Y-113045048D02*
X215386089Y-113092667D01*
X215386089Y-113092667D02*
X215433708Y-113140286D01*
X215433708Y-113140286D02*
X215481327Y-113235524D01*
X215481327Y-113235524D02*
X215481327Y-113378381D01*
X215481327Y-113378381D02*
X215433708Y-113473619D01*
X215433708Y-113473619D02*
X215386089Y-113521239D01*
X215386089Y-113521239D02*
X215290851Y-113568858D01*
X215290851Y-113568858D02*
X214909899Y-113568858D01*
X214909899Y-113568858D02*
X214909899Y-112568858D01*
X214909899Y-112568858D02*
X215243232Y-112568858D01*
X215243232Y-112568858D02*
X215338470Y-112616477D01*
X215338470Y-112616477D02*
X215386089Y-112664096D01*
X215386089Y-112664096D02*
X215433708Y-112759334D01*
X215433708Y-112759334D02*
X215433708Y-112854572D01*
X215433708Y-112854572D02*
X215386089Y-112949810D01*
X215386089Y-112949810D02*
X215338470Y-112997429D01*
X215338470Y-112997429D02*
X215243232Y-113045048D01*
X215243232Y-113045048D02*
X214909899Y-113045048D01*
X216433708Y-113568858D02*
X215862280Y-113568858D01*
X216147994Y-113568858D02*
X216147994Y-112568858D01*
X216147994Y-112568858D02*
X216052756Y-112711715D01*
X216052756Y-112711715D02*
X215957518Y-112806953D01*
X215957518Y-112806953D02*
X215862280Y-112854572D01*
X119019006Y-52122435D02*
X119019006Y-51122435D01*
X119019006Y-51122435D02*
X119257101Y-51122435D01*
X119257101Y-51122435D02*
X119399958Y-51170054D01*
X119399958Y-51170054D02*
X119495196Y-51265292D01*
X119495196Y-51265292D02*
X119542815Y-51360530D01*
X119542815Y-51360530D02*
X119590434Y-51551006D01*
X119590434Y-51551006D02*
X119590434Y-51693863D01*
X119590434Y-51693863D02*
X119542815Y-51884339D01*
X119542815Y-51884339D02*
X119495196Y-51979577D01*
X119495196Y-51979577D02*
X119399958Y-52074816D01*
X119399958Y-52074816D02*
X119257101Y-52122435D01*
X119257101Y-52122435D02*
X119019006Y-52122435D01*
X119971387Y-51217673D02*
X120019006Y-51170054D01*
X120019006Y-51170054D02*
X120114244Y-51122435D01*
X120114244Y-51122435D02*
X120352339Y-51122435D01*
X120352339Y-51122435D02*
X120447577Y-51170054D01*
X120447577Y-51170054D02*
X120495196Y-51217673D01*
X120495196Y-51217673D02*
X120542815Y-51312911D01*
X120542815Y-51312911D02*
X120542815Y-51408149D01*
X120542815Y-51408149D02*
X120495196Y-51551006D01*
X120495196Y-51551006D02*
X119923768Y-52122435D01*
X119923768Y-52122435D02*
X120542815Y-52122435D01*
X88812567Y-100050613D02*
X87812567Y-100050613D01*
X87812567Y-100050613D02*
X87812567Y-99812518D01*
X87812567Y-99812518D02*
X87860186Y-99669661D01*
X87860186Y-99669661D02*
X87955424Y-99574423D01*
X87955424Y-99574423D02*
X88050662Y-99526804D01*
X88050662Y-99526804D02*
X88241138Y-99479185D01*
X88241138Y-99479185D02*
X88383995Y-99479185D01*
X88383995Y-99479185D02*
X88574471Y-99526804D01*
X88574471Y-99526804D02*
X88669709Y-99574423D01*
X88669709Y-99574423D02*
X88764948Y-99669661D01*
X88764948Y-99669661D02*
X88812567Y-99812518D01*
X88812567Y-99812518D02*
X88812567Y-100050613D01*
X88812567Y-98526804D02*
X88812567Y-99098232D01*
X88812567Y-98812518D02*
X87812567Y-98812518D01*
X87812567Y-98812518D02*
X87955424Y-98907756D01*
X87955424Y-98907756D02*
X88050662Y-99002994D01*
X88050662Y-99002994D02*
X88098281Y-99098232D01*
X87812567Y-98193470D02*
X87812567Y-97574423D01*
X87812567Y-97574423D02*
X88193519Y-97907756D01*
X88193519Y-97907756D02*
X88193519Y-97764899D01*
X88193519Y-97764899D02*
X88241138Y-97669661D01*
X88241138Y-97669661D02*
X88288757Y-97622042D01*
X88288757Y-97622042D02*
X88383995Y-97574423D01*
X88383995Y-97574423D02*
X88622090Y-97574423D01*
X88622090Y-97574423D02*
X88717328Y-97622042D01*
X88717328Y-97622042D02*
X88764948Y-97669661D01*
X88764948Y-97669661D02*
X88812567Y-97764899D01*
X88812567Y-97764899D02*
X88812567Y-98050613D01*
X88812567Y-98050613D02*
X88764948Y-98145851D01*
X88764948Y-98145851D02*
X88717328Y-98193470D01*
X207024819Y-62491666D02*
X206548628Y-62824999D01*
X207024819Y-63063094D02*
X206024819Y-63063094D01*
X206024819Y-63063094D02*
X206024819Y-62682142D01*
X206024819Y-62682142D02*
X206072438Y-62586904D01*
X206072438Y-62586904D02*
X206120057Y-62539285D01*
X206120057Y-62539285D02*
X206215295Y-62491666D01*
X206215295Y-62491666D02*
X206358152Y-62491666D01*
X206358152Y-62491666D02*
X206453390Y-62539285D01*
X206453390Y-62539285D02*
X206501009Y-62586904D01*
X206501009Y-62586904D02*
X206548628Y-62682142D01*
X206548628Y-62682142D02*
X206548628Y-63063094D01*
X207024819Y-61539285D02*
X207024819Y-62110713D01*
X207024819Y-61824999D02*
X206024819Y-61824999D01*
X206024819Y-61824999D02*
X206167676Y-61920237D01*
X206167676Y-61920237D02*
X206262914Y-62015475D01*
X206262914Y-62015475D02*
X206310533Y-62110713D01*
X90057131Y-123084787D02*
X90057131Y-122703835D01*
X89723798Y-122941930D02*
X90580940Y-122941930D01*
X90580940Y-122941930D02*
X90676179Y-122894311D01*
X90676179Y-122894311D02*
X90723798Y-122799073D01*
X90723798Y-122799073D02*
X90723798Y-122703835D01*
X90723798Y-122227644D02*
X90676179Y-122322882D01*
X90676179Y-122322882D02*
X90628559Y-122370501D01*
X90628559Y-122370501D02*
X90533321Y-122418120D01*
X90533321Y-122418120D02*
X90247607Y-122418120D01*
X90247607Y-122418120D02*
X90152369Y-122370501D01*
X90152369Y-122370501D02*
X90104750Y-122322882D01*
X90104750Y-122322882D02*
X90057131Y-122227644D01*
X90057131Y-122227644D02*
X90057131Y-122084787D01*
X90057131Y-122084787D02*
X90104750Y-121989549D01*
X90104750Y-121989549D02*
X90152369Y-121941930D01*
X90152369Y-121941930D02*
X90247607Y-121894311D01*
X90247607Y-121894311D02*
X90533321Y-121894311D01*
X90533321Y-121894311D02*
X90628559Y-121941930D01*
X90628559Y-121941930D02*
X90676179Y-121989549D01*
X90676179Y-121989549D02*
X90723798Y-122084787D01*
X90723798Y-122084787D02*
X90723798Y-122227644D01*
X90057131Y-121465739D02*
X91057131Y-121465739D01*
X90104750Y-121465739D02*
X90057131Y-121370501D01*
X90057131Y-121370501D02*
X90057131Y-121180025D01*
X90057131Y-121180025D02*
X90104750Y-121084787D01*
X90104750Y-121084787D02*
X90152369Y-121037168D01*
X90152369Y-121037168D02*
X90247607Y-120989549D01*
X90247607Y-120989549D02*
X90533321Y-120989549D01*
X90533321Y-120989549D02*
X90628559Y-121037168D01*
X90628559Y-121037168D02*
X90676179Y-121084787D01*
X90676179Y-121084787D02*
X90723798Y-121180025D01*
X90723798Y-121180025D02*
X90723798Y-121370501D01*
X90723798Y-121370501D02*
X90676179Y-121465739D01*
X90676179Y-120608596D02*
X90723798Y-120513358D01*
X90723798Y-120513358D02*
X90723798Y-120322882D01*
X90723798Y-120322882D02*
X90676179Y-120227644D01*
X90676179Y-120227644D02*
X90580940Y-120180025D01*
X90580940Y-120180025D02*
X90533321Y-120180025D01*
X90533321Y-120180025D02*
X90438083Y-120227644D01*
X90438083Y-120227644D02*
X90390464Y-120322882D01*
X90390464Y-120322882D02*
X90390464Y-120465739D01*
X90390464Y-120465739D02*
X90342845Y-120560977D01*
X90342845Y-120560977D02*
X90247607Y-120608596D01*
X90247607Y-120608596D02*
X90199988Y-120608596D01*
X90199988Y-120608596D02*
X90104750Y-120560977D01*
X90104750Y-120560977D02*
X90057131Y-120465739D01*
X90057131Y-120465739D02*
X90057131Y-120322882D01*
X90057131Y-120322882D02*
X90104750Y-120227644D01*
X90723798Y-119751453D02*
X90057131Y-119751453D01*
X89723798Y-119751453D02*
X89771417Y-119799072D01*
X89771417Y-119799072D02*
X89819036Y-119751453D01*
X89819036Y-119751453D02*
X89771417Y-119703834D01*
X89771417Y-119703834D02*
X89723798Y-119751453D01*
X89723798Y-119751453D02*
X89819036Y-119751453D01*
X90723798Y-118846692D02*
X89723798Y-118846692D01*
X90676179Y-118846692D02*
X90723798Y-118941930D01*
X90723798Y-118941930D02*
X90723798Y-119132406D01*
X90723798Y-119132406D02*
X90676179Y-119227644D01*
X90676179Y-119227644D02*
X90628559Y-119275263D01*
X90628559Y-119275263D02*
X90533321Y-119322882D01*
X90533321Y-119322882D02*
X90247607Y-119322882D01*
X90247607Y-119322882D02*
X90152369Y-119275263D01*
X90152369Y-119275263D02*
X90104750Y-119227644D01*
X90104750Y-119227644D02*
X90057131Y-119132406D01*
X90057131Y-119132406D02*
X90057131Y-118941930D01*
X90057131Y-118941930D02*
X90104750Y-118846692D01*
X90676179Y-117989549D02*
X90723798Y-118084787D01*
X90723798Y-118084787D02*
X90723798Y-118275263D01*
X90723798Y-118275263D02*
X90676179Y-118370501D01*
X90676179Y-118370501D02*
X90580940Y-118418120D01*
X90580940Y-118418120D02*
X90199988Y-118418120D01*
X90199988Y-118418120D02*
X90104750Y-118370501D01*
X90104750Y-118370501D02*
X90057131Y-118275263D01*
X90057131Y-118275263D02*
X90057131Y-118084787D01*
X90057131Y-118084787D02*
X90104750Y-117989549D01*
X90104750Y-117989549D02*
X90199988Y-117941930D01*
X90199988Y-117941930D02*
X90295226Y-117941930D01*
X90295226Y-117941930D02*
X90390464Y-118418120D01*
X88323798Y-121727644D02*
X89133321Y-121727644D01*
X89133321Y-121727644D02*
X89228559Y-121680025D01*
X89228559Y-121680025D02*
X89276179Y-121632406D01*
X89276179Y-121632406D02*
X89323798Y-121537168D01*
X89323798Y-121537168D02*
X89323798Y-121346692D01*
X89323798Y-121346692D02*
X89276179Y-121251454D01*
X89276179Y-121251454D02*
X89228559Y-121203835D01*
X89228559Y-121203835D02*
X89133321Y-121156216D01*
X89133321Y-121156216D02*
X88323798Y-121156216D01*
X89276179Y-120727644D02*
X89323798Y-120584787D01*
X89323798Y-120584787D02*
X89323798Y-120346692D01*
X89323798Y-120346692D02*
X89276179Y-120251454D01*
X89276179Y-120251454D02*
X89228559Y-120203835D01*
X89228559Y-120203835D02*
X89133321Y-120156216D01*
X89133321Y-120156216D02*
X89038083Y-120156216D01*
X89038083Y-120156216D02*
X88942845Y-120203835D01*
X88942845Y-120203835D02*
X88895226Y-120251454D01*
X88895226Y-120251454D02*
X88847607Y-120346692D01*
X88847607Y-120346692D02*
X88799988Y-120537168D01*
X88799988Y-120537168D02*
X88752369Y-120632406D01*
X88752369Y-120632406D02*
X88704750Y-120680025D01*
X88704750Y-120680025D02*
X88609512Y-120727644D01*
X88609512Y-120727644D02*
X88514274Y-120727644D01*
X88514274Y-120727644D02*
X88419036Y-120680025D01*
X88419036Y-120680025D02*
X88371417Y-120632406D01*
X88371417Y-120632406D02*
X88323798Y-120537168D01*
X88323798Y-120537168D02*
X88323798Y-120299073D01*
X88323798Y-120299073D02*
X88371417Y-120156216D01*
X88799988Y-119394311D02*
X88847607Y-119251454D01*
X88847607Y-119251454D02*
X88895226Y-119203835D01*
X88895226Y-119203835D02*
X88990464Y-119156216D01*
X88990464Y-119156216D02*
X89133321Y-119156216D01*
X89133321Y-119156216D02*
X89228559Y-119203835D01*
X89228559Y-119203835D02*
X89276179Y-119251454D01*
X89276179Y-119251454D02*
X89323798Y-119346692D01*
X89323798Y-119346692D02*
X89323798Y-119727644D01*
X89323798Y-119727644D02*
X88323798Y-119727644D01*
X88323798Y-119727644D02*
X88323798Y-119394311D01*
X88323798Y-119394311D02*
X88371417Y-119299073D01*
X88371417Y-119299073D02*
X88419036Y-119251454D01*
X88419036Y-119251454D02*
X88514274Y-119203835D01*
X88514274Y-119203835D02*
X88609512Y-119203835D01*
X88609512Y-119203835D02*
X88704750Y-119251454D01*
X88704750Y-119251454D02*
X88752369Y-119299073D01*
X88752369Y-119299073D02*
X88799988Y-119394311D01*
X88799988Y-119394311D02*
X88799988Y-119727644D01*
D11*
X92241807Y-126527038D02*
X92241807Y-127098466D01*
X92241807Y-126812752D02*
X91241807Y-126812752D01*
X91241807Y-126812752D02*
X91384664Y-126907990D01*
X91384664Y-126907990D02*
X91479902Y-127003228D01*
X91479902Y-127003228D02*
X91527521Y-127098466D01*
D10*
X211648189Y-102554819D02*
X211838665Y-102554819D01*
X211838665Y-102554819D02*
X211933903Y-102602438D01*
X211933903Y-102602438D02*
X212029141Y-102697676D01*
X212029141Y-102697676D02*
X212076760Y-102888152D01*
X212076760Y-102888152D02*
X212076760Y-103221485D01*
X212076760Y-103221485D02*
X212029141Y-103411961D01*
X212029141Y-103411961D02*
X211933903Y-103507200D01*
X211933903Y-103507200D02*
X211838665Y-103554819D01*
X211838665Y-103554819D02*
X211648189Y-103554819D01*
X211648189Y-103554819D02*
X211552951Y-103507200D01*
X211552951Y-103507200D02*
X211457713Y-103411961D01*
X211457713Y-103411961D02*
X211410094Y-103221485D01*
X211410094Y-103221485D02*
X211410094Y-102888152D01*
X211410094Y-102888152D02*
X211457713Y-102697676D01*
X211457713Y-102697676D02*
X211552951Y-102602438D01*
X211552951Y-102602438D02*
X211648189Y-102554819D01*
X212981522Y-103554819D02*
X212505332Y-103554819D01*
X212505332Y-103554819D02*
X212505332Y-102554819D01*
X213314856Y-103031009D02*
X213648189Y-103031009D01*
X213791046Y-103554819D02*
X213314856Y-103554819D01*
X213314856Y-103554819D02*
X213314856Y-102554819D01*
X213314856Y-102554819D02*
X213791046Y-102554819D01*
X214219618Y-103554819D02*
X214219618Y-102554819D01*
X214219618Y-102554819D02*
X214457713Y-102554819D01*
X214457713Y-102554819D02*
X214600570Y-102602438D01*
X214600570Y-102602438D02*
X214695808Y-102697676D01*
X214695808Y-102697676D02*
X214743427Y-102792914D01*
X214743427Y-102792914D02*
X214791046Y-102983390D01*
X214791046Y-102983390D02*
X214791046Y-103126247D01*
X214791046Y-103126247D02*
X214743427Y-103316723D01*
X214743427Y-103316723D02*
X214695808Y-103411961D01*
X214695808Y-103411961D02*
X214600570Y-103507200D01*
X214600570Y-103507200D02*
X214457713Y-103554819D01*
X214457713Y-103554819D02*
X214219618Y-103554819D01*
X215743427Y-103554819D02*
X215171999Y-103554819D01*
X215457713Y-103554819D02*
X215457713Y-102554819D01*
X215457713Y-102554819D02*
X215362475Y-102697676D01*
X215362475Y-102697676D02*
X215267237Y-102792914D01*
X215267237Y-102792914D02*
X215171999Y-102840533D01*
X209285332Y-70124878D02*
X209213904Y-70089164D01*
X209213904Y-70089164D02*
X209106761Y-70089164D01*
X209106761Y-70089164D02*
X208999618Y-70124878D01*
X208999618Y-70124878D02*
X208928189Y-70196307D01*
X208928189Y-70196307D02*
X208892475Y-70267735D01*
X208892475Y-70267735D02*
X208856761Y-70410592D01*
X208856761Y-70410592D02*
X208856761Y-70517735D01*
X208856761Y-70517735D02*
X208892475Y-70660592D01*
X208892475Y-70660592D02*
X208928189Y-70732021D01*
X208928189Y-70732021D02*
X208999618Y-70803450D01*
X208999618Y-70803450D02*
X209106761Y-70839164D01*
X209106761Y-70839164D02*
X209178189Y-70839164D01*
X209178189Y-70839164D02*
X209285332Y-70803450D01*
X209285332Y-70803450D02*
X209321046Y-70767735D01*
X209321046Y-70767735D02*
X209321046Y-70517735D01*
X209321046Y-70517735D02*
X209178189Y-70517735D01*
X209642475Y-70839164D02*
X209642475Y-70089164D01*
X209642475Y-70089164D02*
X210071046Y-70839164D01*
X210071046Y-70839164D02*
X210071046Y-70089164D01*
X210428189Y-70839164D02*
X210428189Y-70089164D01*
X210428189Y-70089164D02*
X210606760Y-70089164D01*
X210606760Y-70089164D02*
X210713903Y-70124878D01*
X210713903Y-70124878D02*
X210785332Y-70196307D01*
X210785332Y-70196307D02*
X210821046Y-70267735D01*
X210821046Y-70267735D02*
X210856760Y-70410592D01*
X210856760Y-70410592D02*
X210856760Y-70517735D01*
X210856760Y-70517735D02*
X210821046Y-70660592D01*
X210821046Y-70660592D02*
X210785332Y-70732021D01*
X210785332Y-70732021D02*
X210713903Y-70803450D01*
X210713903Y-70803450D02*
X210606760Y-70839164D01*
X210606760Y-70839164D02*
X210428189Y-70839164D01*
X214043904Y-70803450D02*
X214151047Y-70839164D01*
X214151047Y-70839164D02*
X214329618Y-70839164D01*
X214329618Y-70839164D02*
X214401047Y-70803450D01*
X214401047Y-70803450D02*
X214436761Y-70767735D01*
X214436761Y-70767735D02*
X214472475Y-70696307D01*
X214472475Y-70696307D02*
X214472475Y-70624878D01*
X214472475Y-70624878D02*
X214436761Y-70553450D01*
X214436761Y-70553450D02*
X214401047Y-70517735D01*
X214401047Y-70517735D02*
X214329618Y-70482021D01*
X214329618Y-70482021D02*
X214186761Y-70446307D01*
X214186761Y-70446307D02*
X214115332Y-70410592D01*
X214115332Y-70410592D02*
X214079618Y-70374878D01*
X214079618Y-70374878D02*
X214043904Y-70303450D01*
X214043904Y-70303450D02*
X214043904Y-70232021D01*
X214043904Y-70232021D02*
X214079618Y-70160592D01*
X214079618Y-70160592D02*
X214115332Y-70124878D01*
X214115332Y-70124878D02*
X214186761Y-70089164D01*
X214186761Y-70089164D02*
X214365332Y-70089164D01*
X214365332Y-70089164D02*
X214472475Y-70124878D01*
X215222475Y-70767735D02*
X215186761Y-70803450D01*
X215186761Y-70803450D02*
X215079618Y-70839164D01*
X215079618Y-70839164D02*
X215008190Y-70839164D01*
X215008190Y-70839164D02*
X214901047Y-70803450D01*
X214901047Y-70803450D02*
X214829618Y-70732021D01*
X214829618Y-70732021D02*
X214793904Y-70660592D01*
X214793904Y-70660592D02*
X214758190Y-70517735D01*
X214758190Y-70517735D02*
X214758190Y-70410592D01*
X214758190Y-70410592D02*
X214793904Y-70267735D01*
X214793904Y-70267735D02*
X214829618Y-70196307D01*
X214829618Y-70196307D02*
X214901047Y-70124878D01*
X214901047Y-70124878D02*
X215008190Y-70089164D01*
X215008190Y-70089164D02*
X215079618Y-70089164D01*
X215079618Y-70089164D02*
X215186761Y-70124878D01*
X215186761Y-70124878D02*
X215222475Y-70160592D01*
X215901047Y-70839164D02*
X215543904Y-70839164D01*
X215543904Y-70839164D02*
X215543904Y-70089164D01*
X216566047Y-70803450D02*
X216673190Y-70839164D01*
X216673190Y-70839164D02*
X216851761Y-70839164D01*
X216851761Y-70839164D02*
X216923190Y-70803450D01*
X216923190Y-70803450D02*
X216958904Y-70767735D01*
X216958904Y-70767735D02*
X216994618Y-70696307D01*
X216994618Y-70696307D02*
X216994618Y-70624878D01*
X216994618Y-70624878D02*
X216958904Y-70553450D01*
X216958904Y-70553450D02*
X216923190Y-70517735D01*
X216923190Y-70517735D02*
X216851761Y-70482021D01*
X216851761Y-70482021D02*
X216708904Y-70446307D01*
X216708904Y-70446307D02*
X216637475Y-70410592D01*
X216637475Y-70410592D02*
X216601761Y-70374878D01*
X216601761Y-70374878D02*
X216566047Y-70303450D01*
X216566047Y-70303450D02*
X216566047Y-70232021D01*
X216566047Y-70232021D02*
X216601761Y-70160592D01*
X216601761Y-70160592D02*
X216637475Y-70124878D01*
X216637475Y-70124878D02*
X216708904Y-70089164D01*
X216708904Y-70089164D02*
X216887475Y-70089164D01*
X216887475Y-70089164D02*
X216994618Y-70124878D01*
X217316047Y-70839164D02*
X217316047Y-70089164D01*
X217316047Y-70089164D02*
X217494618Y-70089164D01*
X217494618Y-70089164D02*
X217601761Y-70124878D01*
X217601761Y-70124878D02*
X217673190Y-70196307D01*
X217673190Y-70196307D02*
X217708904Y-70267735D01*
X217708904Y-70267735D02*
X217744618Y-70410592D01*
X217744618Y-70410592D02*
X217744618Y-70517735D01*
X217744618Y-70517735D02*
X217708904Y-70660592D01*
X217708904Y-70660592D02*
X217673190Y-70732021D01*
X217673190Y-70732021D02*
X217601761Y-70803450D01*
X217601761Y-70803450D02*
X217494618Y-70839164D01*
X217494618Y-70839164D02*
X217316047Y-70839164D01*
X218030333Y-70624878D02*
X218387476Y-70624878D01*
X217958904Y-70839164D02*
X218208904Y-70089164D01*
X218208904Y-70089164D02*
X218458904Y-70839164D01*
X211396761Y-70089164D02*
X211646761Y-70839164D01*
X211646761Y-70839164D02*
X211896761Y-70089164D01*
X212575332Y-70767735D02*
X212539618Y-70803450D01*
X212539618Y-70803450D02*
X212432475Y-70839164D01*
X212432475Y-70839164D02*
X212361047Y-70839164D01*
X212361047Y-70839164D02*
X212253904Y-70803450D01*
X212253904Y-70803450D02*
X212182475Y-70732021D01*
X212182475Y-70732021D02*
X212146761Y-70660592D01*
X212146761Y-70660592D02*
X212111047Y-70517735D01*
X212111047Y-70517735D02*
X212111047Y-70410592D01*
X212111047Y-70410592D02*
X212146761Y-70267735D01*
X212146761Y-70267735D02*
X212182475Y-70196307D01*
X212182475Y-70196307D02*
X212253904Y-70124878D01*
X212253904Y-70124878D02*
X212361047Y-70089164D01*
X212361047Y-70089164D02*
X212432475Y-70089164D01*
X212432475Y-70089164D02*
X212539618Y-70124878D01*
X212539618Y-70124878D02*
X212575332Y-70160592D01*
X213325332Y-70767735D02*
X213289618Y-70803450D01*
X213289618Y-70803450D02*
X213182475Y-70839164D01*
X213182475Y-70839164D02*
X213111047Y-70839164D01*
X213111047Y-70839164D02*
X213003904Y-70803450D01*
X213003904Y-70803450D02*
X212932475Y-70732021D01*
X212932475Y-70732021D02*
X212896761Y-70660592D01*
X212896761Y-70660592D02*
X212861047Y-70517735D01*
X212861047Y-70517735D02*
X212861047Y-70410592D01*
X212861047Y-70410592D02*
X212896761Y-70267735D01*
X212896761Y-70267735D02*
X212932475Y-70196307D01*
X212932475Y-70196307D02*
X213003904Y-70124878D01*
X213003904Y-70124878D02*
X213111047Y-70089164D01*
X213111047Y-70089164D02*
X213182475Y-70089164D01*
X213182475Y-70089164D02*
X213289618Y-70124878D01*
X213289618Y-70124878D02*
X213325332Y-70160592D01*
X213121580Y-89928571D02*
X213121580Y-89738095D01*
X213121580Y-89738095D02*
X213169199Y-89642857D01*
X213169199Y-89642857D02*
X213264437Y-89547619D01*
X213264437Y-89547619D02*
X213454913Y-89500000D01*
X213454913Y-89500000D02*
X213788246Y-89500000D01*
X213788246Y-89500000D02*
X213978722Y-89547619D01*
X213978722Y-89547619D02*
X214073961Y-89642857D01*
X214073961Y-89642857D02*
X214121580Y-89738095D01*
X214121580Y-89738095D02*
X214121580Y-89928571D01*
X214121580Y-89928571D02*
X214073961Y-90023809D01*
X214073961Y-90023809D02*
X213978722Y-90119047D01*
X213978722Y-90119047D02*
X213788246Y-90166666D01*
X213788246Y-90166666D02*
X213454913Y-90166666D01*
X213454913Y-90166666D02*
X213264437Y-90119047D01*
X213264437Y-90119047D02*
X213169199Y-90023809D01*
X213169199Y-90023809D02*
X213121580Y-89928571D01*
X214121580Y-88595238D02*
X214121580Y-89071428D01*
X214121580Y-89071428D02*
X213121580Y-89071428D01*
X213597770Y-88261904D02*
X213597770Y-87928571D01*
X214121580Y-87785714D02*
X214121580Y-88261904D01*
X214121580Y-88261904D02*
X213121580Y-88261904D01*
X213121580Y-88261904D02*
X213121580Y-87785714D01*
X214121580Y-87357142D02*
X213121580Y-87357142D01*
X213121580Y-87357142D02*
X213121580Y-87119047D01*
X213121580Y-87119047D02*
X213169199Y-86976190D01*
X213169199Y-86976190D02*
X213264437Y-86880952D01*
X213264437Y-86880952D02*
X213359675Y-86833333D01*
X213359675Y-86833333D02*
X213550151Y-86785714D01*
X213550151Y-86785714D02*
X213693008Y-86785714D01*
X213693008Y-86785714D02*
X213883484Y-86833333D01*
X213883484Y-86833333D02*
X213978722Y-86880952D01*
X213978722Y-86880952D02*
X214073961Y-86976190D01*
X214073961Y-86976190D02*
X214121580Y-87119047D01*
X214121580Y-87119047D02*
X214121580Y-87357142D01*
X214121580Y-85595237D02*
X213121580Y-85595237D01*
X213121580Y-85595237D02*
X213121580Y-85214285D01*
X213121580Y-85214285D02*
X213169199Y-85119047D01*
X213169199Y-85119047D02*
X213216818Y-85071428D01*
X213216818Y-85071428D02*
X213312056Y-85023809D01*
X213312056Y-85023809D02*
X213454913Y-85023809D01*
X213454913Y-85023809D02*
X213550151Y-85071428D01*
X213550151Y-85071428D02*
X213597770Y-85119047D01*
X213597770Y-85119047D02*
X213645389Y-85214285D01*
X213645389Y-85214285D02*
X213645389Y-85595237D01*
X214121580Y-84166666D02*
X213597770Y-84166666D01*
X213597770Y-84166666D02*
X213502532Y-84214285D01*
X213502532Y-84214285D02*
X213454913Y-84309523D01*
X213454913Y-84309523D02*
X213454913Y-84499999D01*
X213454913Y-84499999D02*
X213502532Y-84595237D01*
X214073961Y-84166666D02*
X214121580Y-84261904D01*
X214121580Y-84261904D02*
X214121580Y-84499999D01*
X214121580Y-84499999D02*
X214073961Y-84595237D01*
X214073961Y-84595237D02*
X213978722Y-84642856D01*
X213978722Y-84642856D02*
X213883484Y-84642856D01*
X213883484Y-84642856D02*
X213788246Y-84595237D01*
X213788246Y-84595237D02*
X213740627Y-84499999D01*
X213740627Y-84499999D02*
X213740627Y-84261904D01*
X213740627Y-84261904D02*
X213693008Y-84166666D01*
X213454913Y-83690475D02*
X214121580Y-83690475D01*
X213550151Y-83690475D02*
X213502532Y-83642856D01*
X213502532Y-83642856D02*
X213454913Y-83547618D01*
X213454913Y-83547618D02*
X213454913Y-83404761D01*
X213454913Y-83404761D02*
X213502532Y-83309523D01*
X213502532Y-83309523D02*
X213597770Y-83261904D01*
X213597770Y-83261904D02*
X214121580Y-83261904D01*
X214073961Y-82404761D02*
X214121580Y-82499999D01*
X214121580Y-82499999D02*
X214121580Y-82690475D01*
X214121580Y-82690475D02*
X214073961Y-82785713D01*
X214073961Y-82785713D02*
X213978722Y-82833332D01*
X213978722Y-82833332D02*
X213597770Y-82833332D01*
X213597770Y-82833332D02*
X213502532Y-82785713D01*
X213502532Y-82785713D02*
X213454913Y-82690475D01*
X213454913Y-82690475D02*
X213454913Y-82499999D01*
X213454913Y-82499999D02*
X213502532Y-82404761D01*
X213502532Y-82404761D02*
X213597770Y-82357142D01*
X213597770Y-82357142D02*
X213693008Y-82357142D01*
X213693008Y-82357142D02*
X213788246Y-82833332D01*
X214121580Y-81785713D02*
X214073961Y-81880951D01*
X214073961Y-81880951D02*
X213978722Y-81928570D01*
X213978722Y-81928570D02*
X213121580Y-81928570D01*
X211274819Y-62991666D02*
X210798628Y-63324999D01*
X211274819Y-63563094D02*
X210274819Y-63563094D01*
X210274819Y-63563094D02*
X210274819Y-63182142D01*
X210274819Y-63182142D02*
X210322438Y-63086904D01*
X210322438Y-63086904D02*
X210370057Y-63039285D01*
X210370057Y-63039285D02*
X210465295Y-62991666D01*
X210465295Y-62991666D02*
X210608152Y-62991666D01*
X210608152Y-62991666D02*
X210703390Y-63039285D01*
X210703390Y-63039285D02*
X210751009Y-63086904D01*
X210751009Y-63086904D02*
X210798628Y-63182142D01*
X210798628Y-63182142D02*
X210798628Y-63563094D01*
X210370057Y-62610713D02*
X210322438Y-62563094D01*
X210322438Y-62563094D02*
X210274819Y-62467856D01*
X210274819Y-62467856D02*
X210274819Y-62229761D01*
X210274819Y-62229761D02*
X210322438Y-62134523D01*
X210322438Y-62134523D02*
X210370057Y-62086904D01*
X210370057Y-62086904D02*
X210465295Y-62039285D01*
X210465295Y-62039285D02*
X210560533Y-62039285D01*
X210560533Y-62039285D02*
X210703390Y-62086904D01*
X210703390Y-62086904D02*
X211274819Y-62658332D01*
X211274819Y-62658332D02*
X211274819Y-62039285D01*
X188152200Y-113059523D02*
X188199819Y-112916666D01*
X188199819Y-112916666D02*
X188199819Y-112678571D01*
X188199819Y-112678571D02*
X188152200Y-112583333D01*
X188152200Y-112583333D02*
X188104580Y-112535714D01*
X188104580Y-112535714D02*
X188009342Y-112488095D01*
X188009342Y-112488095D02*
X187914104Y-112488095D01*
X187914104Y-112488095D02*
X187818866Y-112535714D01*
X187818866Y-112535714D02*
X187771247Y-112583333D01*
X187771247Y-112583333D02*
X187723628Y-112678571D01*
X187723628Y-112678571D02*
X187676009Y-112869047D01*
X187676009Y-112869047D02*
X187628390Y-112964285D01*
X187628390Y-112964285D02*
X187580771Y-113011904D01*
X187580771Y-113011904D02*
X187485533Y-113059523D01*
X187485533Y-113059523D02*
X187390295Y-113059523D01*
X187390295Y-113059523D02*
X187295057Y-113011904D01*
X187295057Y-113011904D02*
X187247438Y-112964285D01*
X187247438Y-112964285D02*
X187199819Y-112869047D01*
X187199819Y-112869047D02*
X187199819Y-112630952D01*
X187199819Y-112630952D02*
X187247438Y-112488095D01*
X187199819Y-112154761D02*
X188199819Y-111916666D01*
X188199819Y-111916666D02*
X187485533Y-111726190D01*
X187485533Y-111726190D02*
X188199819Y-111535714D01*
X188199819Y-111535714D02*
X187199819Y-111297619D01*
X187295057Y-110964285D02*
X187247438Y-110916666D01*
X187247438Y-110916666D02*
X187199819Y-110821428D01*
X187199819Y-110821428D02*
X187199819Y-110583333D01*
X187199819Y-110583333D02*
X187247438Y-110488095D01*
X187247438Y-110488095D02*
X187295057Y-110440476D01*
X187295057Y-110440476D02*
X187390295Y-110392857D01*
X187390295Y-110392857D02*
X187485533Y-110392857D01*
X187485533Y-110392857D02*
X187628390Y-110440476D01*
X187628390Y-110440476D02*
X188199819Y-111011904D01*
X188199819Y-111011904D02*
X188199819Y-110392857D01*
X187199819Y-109773809D02*
X187199819Y-109678571D01*
X187199819Y-109678571D02*
X187247438Y-109583333D01*
X187247438Y-109583333D02*
X187295057Y-109535714D01*
X187295057Y-109535714D02*
X187390295Y-109488095D01*
X187390295Y-109488095D02*
X187580771Y-109440476D01*
X187580771Y-109440476D02*
X187818866Y-109440476D01*
X187818866Y-109440476D02*
X188009342Y-109488095D01*
X188009342Y-109488095D02*
X188104580Y-109535714D01*
X188104580Y-109535714D02*
X188152200Y-109583333D01*
X188152200Y-109583333D02*
X188199819Y-109678571D01*
X188199819Y-109678571D02*
X188199819Y-109773809D01*
X188199819Y-109773809D02*
X188152200Y-109869047D01*
X188152200Y-109869047D02*
X188104580Y-109916666D01*
X188104580Y-109916666D02*
X188009342Y-109964285D01*
X188009342Y-109964285D02*
X187818866Y-110011904D01*
X187818866Y-110011904D02*
X187580771Y-110011904D01*
X187580771Y-110011904D02*
X187390295Y-109964285D01*
X187390295Y-109964285D02*
X187295057Y-109916666D01*
X187295057Y-109916666D02*
X187247438Y-109869047D01*
X187247438Y-109869047D02*
X187199819Y-109773809D01*
X109055663Y-77713054D02*
X108055663Y-77713054D01*
X108055663Y-77713054D02*
X108055663Y-77474959D01*
X108055663Y-77474959D02*
X108103282Y-77332102D01*
X108103282Y-77332102D02*
X108198520Y-77236864D01*
X108198520Y-77236864D02*
X108293758Y-77189245D01*
X108293758Y-77189245D02*
X108484234Y-77141626D01*
X108484234Y-77141626D02*
X108627091Y-77141626D01*
X108627091Y-77141626D02*
X108817567Y-77189245D01*
X108817567Y-77189245D02*
X108912805Y-77236864D01*
X108912805Y-77236864D02*
X109008044Y-77332102D01*
X109008044Y-77332102D02*
X109055663Y-77474959D01*
X109055663Y-77474959D02*
X109055663Y-77713054D01*
X108484234Y-76570197D02*
X108436615Y-76665435D01*
X108436615Y-76665435D02*
X108388996Y-76713054D01*
X108388996Y-76713054D02*
X108293758Y-76760673D01*
X108293758Y-76760673D02*
X108246139Y-76760673D01*
X108246139Y-76760673D02*
X108150901Y-76713054D01*
X108150901Y-76713054D02*
X108103282Y-76665435D01*
X108103282Y-76665435D02*
X108055663Y-76570197D01*
X108055663Y-76570197D02*
X108055663Y-76379721D01*
X108055663Y-76379721D02*
X108103282Y-76284483D01*
X108103282Y-76284483D02*
X108150901Y-76236864D01*
X108150901Y-76236864D02*
X108246139Y-76189245D01*
X108246139Y-76189245D02*
X108293758Y-76189245D01*
X108293758Y-76189245D02*
X108388996Y-76236864D01*
X108388996Y-76236864D02*
X108436615Y-76284483D01*
X108436615Y-76284483D02*
X108484234Y-76379721D01*
X108484234Y-76379721D02*
X108484234Y-76570197D01*
X108484234Y-76570197D02*
X108531853Y-76665435D01*
X108531853Y-76665435D02*
X108579472Y-76713054D01*
X108579472Y-76713054D02*
X108674710Y-76760673D01*
X108674710Y-76760673D02*
X108865186Y-76760673D01*
X108865186Y-76760673D02*
X108960424Y-76713054D01*
X108960424Y-76713054D02*
X109008044Y-76665435D01*
X109008044Y-76665435D02*
X109055663Y-76570197D01*
X109055663Y-76570197D02*
X109055663Y-76379721D01*
X109055663Y-76379721D02*
X109008044Y-76284483D01*
X109008044Y-76284483D02*
X108960424Y-76236864D01*
X108960424Y-76236864D02*
X108865186Y-76189245D01*
X108865186Y-76189245D02*
X108674710Y-76189245D01*
X108674710Y-76189245D02*
X108579472Y-76236864D01*
X108579472Y-76236864D02*
X108531853Y-76284483D01*
X108531853Y-76284483D02*
X108484234Y-76379721D01*
X94064868Y-135690427D02*
X93731535Y-135214236D01*
X93493440Y-135690427D02*
X93493440Y-134690427D01*
X93493440Y-134690427D02*
X93874392Y-134690427D01*
X93874392Y-134690427D02*
X93969630Y-134738046D01*
X93969630Y-134738046D02*
X94017249Y-134785665D01*
X94017249Y-134785665D02*
X94064868Y-134880903D01*
X94064868Y-134880903D02*
X94064868Y-135023760D01*
X94064868Y-135023760D02*
X94017249Y-135118998D01*
X94017249Y-135118998D02*
X93969630Y-135166617D01*
X93969630Y-135166617D02*
X93874392Y-135214236D01*
X93874392Y-135214236D02*
X93493440Y-135214236D01*
X94493440Y-135166617D02*
X94826773Y-135166617D01*
X94969630Y-135690427D02*
X94493440Y-135690427D01*
X94493440Y-135690427D02*
X94493440Y-134690427D01*
X94493440Y-134690427D02*
X94969630Y-134690427D01*
X95731535Y-135166617D02*
X95398202Y-135166617D01*
X95398202Y-135690427D02*
X95398202Y-134690427D01*
X95398202Y-134690427D02*
X95874392Y-134690427D01*
X96398202Y-134690427D02*
X96398202Y-134928522D01*
X96160107Y-134833284D02*
X96398202Y-134928522D01*
X96398202Y-134928522D02*
X96636297Y-134833284D01*
X96255345Y-135118998D02*
X96398202Y-134928522D01*
X96398202Y-134928522D02*
X96541059Y-135118998D01*
X97160107Y-134690427D02*
X97160107Y-134928522D01*
X96922012Y-134833284D02*
X97160107Y-134928522D01*
X97160107Y-134928522D02*
X97398202Y-134833284D01*
X97017250Y-135118998D02*
X97160107Y-134928522D01*
X97160107Y-134928522D02*
X97302964Y-135118998D01*
X89556482Y-82213736D02*
X88556482Y-82213736D01*
X88556482Y-82213736D02*
X88556482Y-81975641D01*
X88556482Y-81975641D02*
X88604101Y-81832784D01*
X88604101Y-81832784D02*
X88699339Y-81737546D01*
X88699339Y-81737546D02*
X88794577Y-81689927D01*
X88794577Y-81689927D02*
X88985053Y-81642308D01*
X88985053Y-81642308D02*
X89127910Y-81642308D01*
X89127910Y-81642308D02*
X89318386Y-81689927D01*
X89318386Y-81689927D02*
X89413624Y-81737546D01*
X89413624Y-81737546D02*
X89508863Y-81832784D01*
X89508863Y-81832784D02*
X89556482Y-81975641D01*
X89556482Y-81975641D02*
X89556482Y-82213736D01*
X88556482Y-81308974D02*
X88556482Y-80642308D01*
X88556482Y-80642308D02*
X89556482Y-81070879D01*
X119805241Y-107710741D02*
X119805241Y-106710741D01*
X119805241Y-106710741D02*
X120043336Y-106710741D01*
X120043336Y-106710741D02*
X120186193Y-106758360D01*
X120186193Y-106758360D02*
X120281431Y-106853598D01*
X120281431Y-106853598D02*
X120329050Y-106948836D01*
X120329050Y-106948836D02*
X120376669Y-107139312D01*
X120376669Y-107139312D02*
X120376669Y-107282169D01*
X120376669Y-107282169D02*
X120329050Y-107472645D01*
X120329050Y-107472645D02*
X120281431Y-107567883D01*
X120281431Y-107567883D02*
X120186193Y-107663122D01*
X120186193Y-107663122D02*
X120043336Y-107710741D01*
X120043336Y-107710741D02*
X119805241Y-107710741D01*
X121329050Y-107710741D02*
X120757622Y-107710741D01*
X121043336Y-107710741D02*
X121043336Y-106710741D01*
X121043336Y-106710741D02*
X120948098Y-106853598D01*
X120948098Y-106853598D02*
X120852860Y-106948836D01*
X120852860Y-106948836D02*
X120757622Y-106996455D01*
X122186193Y-107044074D02*
X122186193Y-107710741D01*
X121948098Y-106663122D02*
X121710003Y-107377407D01*
X121710003Y-107377407D02*
X122329050Y-107377407D01*
X169097572Y-82905971D02*
X169145191Y-82763114D01*
X169145191Y-82763114D02*
X169145191Y-82525019D01*
X169145191Y-82525019D02*
X169097572Y-82429781D01*
X169097572Y-82429781D02*
X169049952Y-82382162D01*
X169049952Y-82382162D02*
X168954714Y-82334543D01*
X168954714Y-82334543D02*
X168859476Y-82334543D01*
X168859476Y-82334543D02*
X168764238Y-82382162D01*
X168764238Y-82382162D02*
X168716619Y-82429781D01*
X168716619Y-82429781D02*
X168669000Y-82525019D01*
X168669000Y-82525019D02*
X168621381Y-82715495D01*
X168621381Y-82715495D02*
X168573762Y-82810733D01*
X168573762Y-82810733D02*
X168526143Y-82858352D01*
X168526143Y-82858352D02*
X168430905Y-82905971D01*
X168430905Y-82905971D02*
X168335667Y-82905971D01*
X168335667Y-82905971D02*
X168240429Y-82858352D01*
X168240429Y-82858352D02*
X168192810Y-82810733D01*
X168192810Y-82810733D02*
X168145191Y-82715495D01*
X168145191Y-82715495D02*
X168145191Y-82477400D01*
X168145191Y-82477400D02*
X168192810Y-82334543D01*
X168145191Y-82001209D02*
X169145191Y-81763114D01*
X169145191Y-81763114D02*
X168430905Y-81572638D01*
X168430905Y-81572638D02*
X169145191Y-81382162D01*
X169145191Y-81382162D02*
X168145191Y-81144067D01*
X169145191Y-80239305D02*
X169145191Y-80810733D01*
X169145191Y-80525019D02*
X168145191Y-80525019D01*
X168145191Y-80525019D02*
X168288048Y-80620257D01*
X168288048Y-80620257D02*
X168383286Y-80715495D01*
X168383286Y-80715495D02*
X168430905Y-80810733D01*
X169145191Y-79286924D02*
X169145191Y-79858352D01*
X169145191Y-79572638D02*
X168145191Y-79572638D01*
X168145191Y-79572638D02*
X168288048Y-79667876D01*
X168288048Y-79667876D02*
X168383286Y-79763114D01*
X168383286Y-79763114D02*
X168430905Y-79858352D01*
X165704819Y-117114285D02*
X164704819Y-117114285D01*
X164704819Y-117114285D02*
X164704819Y-116876190D01*
X164704819Y-116876190D02*
X164752438Y-116733333D01*
X164752438Y-116733333D02*
X164847676Y-116638095D01*
X164847676Y-116638095D02*
X164942914Y-116590476D01*
X164942914Y-116590476D02*
X165133390Y-116542857D01*
X165133390Y-116542857D02*
X165276247Y-116542857D01*
X165276247Y-116542857D02*
X165466723Y-116590476D01*
X165466723Y-116590476D02*
X165561961Y-116638095D01*
X165561961Y-116638095D02*
X165657200Y-116733333D01*
X165657200Y-116733333D02*
X165704819Y-116876190D01*
X165704819Y-116876190D02*
X165704819Y-117114285D01*
X165704819Y-115590476D02*
X165704819Y-116161904D01*
X165704819Y-115876190D02*
X164704819Y-115876190D01*
X164704819Y-115876190D02*
X164847676Y-115971428D01*
X164847676Y-115971428D02*
X164942914Y-116066666D01*
X164942914Y-116066666D02*
X164990533Y-116161904D01*
X165704819Y-115114285D02*
X165704819Y-114923809D01*
X165704819Y-114923809D02*
X165657200Y-114828571D01*
X165657200Y-114828571D02*
X165609580Y-114780952D01*
X165609580Y-114780952D02*
X165466723Y-114685714D01*
X165466723Y-114685714D02*
X165276247Y-114638095D01*
X165276247Y-114638095D02*
X164895295Y-114638095D01*
X164895295Y-114638095D02*
X164800057Y-114685714D01*
X164800057Y-114685714D02*
X164752438Y-114733333D01*
X164752438Y-114733333D02*
X164704819Y-114828571D01*
X164704819Y-114828571D02*
X164704819Y-115019047D01*
X164704819Y-115019047D02*
X164752438Y-115114285D01*
X164752438Y-115114285D02*
X164800057Y-115161904D01*
X164800057Y-115161904D02*
X164895295Y-115209523D01*
X164895295Y-115209523D02*
X165133390Y-115209523D01*
X165133390Y-115209523D02*
X165228628Y-115161904D01*
X165228628Y-115161904D02*
X165276247Y-115114285D01*
X165276247Y-115114285D02*
X165323866Y-115019047D01*
X165323866Y-115019047D02*
X165323866Y-114828571D01*
X165323866Y-114828571D02*
X165276247Y-114733333D01*
X165276247Y-114733333D02*
X165228628Y-114685714D01*
X165228628Y-114685714D02*
X165133390Y-114638095D01*
X169097572Y-100382399D02*
X169145191Y-100239542D01*
X169145191Y-100239542D02*
X169145191Y-100001447D01*
X169145191Y-100001447D02*
X169097572Y-99906209D01*
X169097572Y-99906209D02*
X169049952Y-99858590D01*
X169049952Y-99858590D02*
X168954714Y-99810971D01*
X168954714Y-99810971D02*
X168859476Y-99810971D01*
X168859476Y-99810971D02*
X168764238Y-99858590D01*
X168764238Y-99858590D02*
X168716619Y-99906209D01*
X168716619Y-99906209D02*
X168669000Y-100001447D01*
X168669000Y-100001447D02*
X168621381Y-100191923D01*
X168621381Y-100191923D02*
X168573762Y-100287161D01*
X168573762Y-100287161D02*
X168526143Y-100334780D01*
X168526143Y-100334780D02*
X168430905Y-100382399D01*
X168430905Y-100382399D02*
X168335667Y-100382399D01*
X168335667Y-100382399D02*
X168240429Y-100334780D01*
X168240429Y-100334780D02*
X168192810Y-100287161D01*
X168192810Y-100287161D02*
X168145191Y-100191923D01*
X168145191Y-100191923D02*
X168145191Y-99953828D01*
X168145191Y-99953828D02*
X168192810Y-99810971D01*
X168145191Y-99477637D02*
X169145191Y-99239542D01*
X169145191Y-99239542D02*
X168430905Y-99049066D01*
X168430905Y-99049066D02*
X169145191Y-98858590D01*
X169145191Y-98858590D02*
X168145191Y-98620495D01*
X169145191Y-97715733D02*
X169145191Y-98287161D01*
X169145191Y-98001447D02*
X168145191Y-98001447D01*
X168145191Y-98001447D02*
X168288048Y-98096685D01*
X168288048Y-98096685D02*
X168383286Y-98191923D01*
X168383286Y-98191923D02*
X168430905Y-98287161D01*
X168145191Y-97382399D02*
X168145191Y-96715733D01*
X168145191Y-96715733D02*
X169145191Y-97144304D01*
X188110158Y-95382399D02*
X188157777Y-95239542D01*
X188157777Y-95239542D02*
X188157777Y-95001447D01*
X188157777Y-95001447D02*
X188110158Y-94906209D01*
X188110158Y-94906209D02*
X188062538Y-94858590D01*
X188062538Y-94858590D02*
X187967300Y-94810971D01*
X187967300Y-94810971D02*
X187872062Y-94810971D01*
X187872062Y-94810971D02*
X187776824Y-94858590D01*
X187776824Y-94858590D02*
X187729205Y-94906209D01*
X187729205Y-94906209D02*
X187681586Y-95001447D01*
X187681586Y-95001447D02*
X187633967Y-95191923D01*
X187633967Y-95191923D02*
X187586348Y-95287161D01*
X187586348Y-95287161D02*
X187538729Y-95334780D01*
X187538729Y-95334780D02*
X187443491Y-95382399D01*
X187443491Y-95382399D02*
X187348253Y-95382399D01*
X187348253Y-95382399D02*
X187253015Y-95334780D01*
X187253015Y-95334780D02*
X187205396Y-95287161D01*
X187205396Y-95287161D02*
X187157777Y-95191923D01*
X187157777Y-95191923D02*
X187157777Y-94953828D01*
X187157777Y-94953828D02*
X187205396Y-94810971D01*
X187157777Y-94477637D02*
X188157777Y-94239542D01*
X188157777Y-94239542D02*
X187443491Y-94049066D01*
X187443491Y-94049066D02*
X188157777Y-93858590D01*
X188157777Y-93858590D02*
X187157777Y-93620495D01*
X188157777Y-92715733D02*
X188157777Y-93287161D01*
X188157777Y-93001447D02*
X187157777Y-93001447D01*
X187157777Y-93001447D02*
X187300634Y-93096685D01*
X187300634Y-93096685D02*
X187395872Y-93191923D01*
X187395872Y-93191923D02*
X187443491Y-93287161D01*
X187586348Y-92144304D02*
X187538729Y-92239542D01*
X187538729Y-92239542D02*
X187491110Y-92287161D01*
X187491110Y-92287161D02*
X187395872Y-92334780D01*
X187395872Y-92334780D02*
X187348253Y-92334780D01*
X187348253Y-92334780D02*
X187253015Y-92287161D01*
X187253015Y-92287161D02*
X187205396Y-92239542D01*
X187205396Y-92239542D02*
X187157777Y-92144304D01*
X187157777Y-92144304D02*
X187157777Y-91953828D01*
X187157777Y-91953828D02*
X187205396Y-91858590D01*
X187205396Y-91858590D02*
X187253015Y-91810971D01*
X187253015Y-91810971D02*
X187348253Y-91763352D01*
X187348253Y-91763352D02*
X187395872Y-91763352D01*
X187395872Y-91763352D02*
X187491110Y-91810971D01*
X187491110Y-91810971D02*
X187538729Y-91858590D01*
X187538729Y-91858590D02*
X187586348Y-91953828D01*
X187586348Y-91953828D02*
X187586348Y-92144304D01*
X187586348Y-92144304D02*
X187633967Y-92239542D01*
X187633967Y-92239542D02*
X187681586Y-92287161D01*
X187681586Y-92287161D02*
X187776824Y-92334780D01*
X187776824Y-92334780D02*
X187967300Y-92334780D01*
X187967300Y-92334780D02*
X188062538Y-92287161D01*
X188062538Y-92287161D02*
X188110158Y-92239542D01*
X188110158Y-92239542D02*
X188157777Y-92144304D01*
X188157777Y-92144304D02*
X188157777Y-91953828D01*
X188157777Y-91953828D02*
X188110158Y-91858590D01*
X188110158Y-91858590D02*
X188062538Y-91810971D01*
X188062538Y-91810971D02*
X187967300Y-91763352D01*
X187967300Y-91763352D02*
X187776824Y-91763352D01*
X187776824Y-91763352D02*
X187681586Y-91810971D01*
X187681586Y-91810971D02*
X187633967Y-91858590D01*
X187633967Y-91858590D02*
X187586348Y-91953828D01*
X208564868Y-122190427D02*
X208231535Y-121714236D01*
X207993440Y-122190427D02*
X207993440Y-121190427D01*
X207993440Y-121190427D02*
X208374392Y-121190427D01*
X208374392Y-121190427D02*
X208469630Y-121238046D01*
X208469630Y-121238046D02*
X208517249Y-121285665D01*
X208517249Y-121285665D02*
X208564868Y-121380903D01*
X208564868Y-121380903D02*
X208564868Y-121523760D01*
X208564868Y-121523760D02*
X208517249Y-121618998D01*
X208517249Y-121618998D02*
X208469630Y-121666617D01*
X208469630Y-121666617D02*
X208374392Y-121714236D01*
X208374392Y-121714236D02*
X207993440Y-121714236D01*
X208993440Y-121666617D02*
X209326773Y-121666617D01*
X209469630Y-122190427D02*
X208993440Y-122190427D01*
X208993440Y-122190427D02*
X208993440Y-121190427D01*
X208993440Y-121190427D02*
X209469630Y-121190427D01*
X210231535Y-121666617D02*
X209898202Y-121666617D01*
X209898202Y-122190427D02*
X209898202Y-121190427D01*
X209898202Y-121190427D02*
X210374392Y-121190427D01*
X210898202Y-121190427D02*
X210898202Y-121428522D01*
X210660107Y-121333284D02*
X210898202Y-121428522D01*
X210898202Y-121428522D02*
X211136297Y-121333284D01*
X210755345Y-121618998D02*
X210898202Y-121428522D01*
X210898202Y-121428522D02*
X211041059Y-121618998D01*
X211660107Y-121190427D02*
X211660107Y-121428522D01*
X211422012Y-121333284D02*
X211660107Y-121428522D01*
X211660107Y-121428522D02*
X211898202Y-121333284D01*
X211517250Y-121618998D02*
X211660107Y-121428522D01*
X211660107Y-121428522D02*
X211802964Y-121618998D01*
X184907937Y-78396292D02*
X183907937Y-78396292D01*
X183907937Y-78396292D02*
X183907937Y-78158197D01*
X183907937Y-78158197D02*
X183955556Y-78015340D01*
X183955556Y-78015340D02*
X184050794Y-77920102D01*
X184050794Y-77920102D02*
X184146032Y-77872483D01*
X184146032Y-77872483D02*
X184336508Y-77824864D01*
X184336508Y-77824864D02*
X184479365Y-77824864D01*
X184479365Y-77824864D02*
X184669841Y-77872483D01*
X184669841Y-77872483D02*
X184765079Y-77920102D01*
X184765079Y-77920102D02*
X184860318Y-78015340D01*
X184860318Y-78015340D02*
X184907937Y-78158197D01*
X184907937Y-78158197D02*
X184907937Y-78396292D01*
X184907937Y-76872483D02*
X184907937Y-77443911D01*
X184907937Y-77158197D02*
X183907937Y-77158197D01*
X183907937Y-77158197D02*
X184050794Y-77253435D01*
X184050794Y-77253435D02*
X184146032Y-77348673D01*
X184146032Y-77348673D02*
X184193651Y-77443911D01*
X184003175Y-76491530D02*
X183955556Y-76443911D01*
X183955556Y-76443911D02*
X183907937Y-76348673D01*
X183907937Y-76348673D02*
X183907937Y-76110578D01*
X183907937Y-76110578D02*
X183955556Y-76015340D01*
X183955556Y-76015340D02*
X184003175Y-75967721D01*
X184003175Y-75967721D02*
X184098413Y-75920102D01*
X184098413Y-75920102D02*
X184193651Y-75920102D01*
X184193651Y-75920102D02*
X184336508Y-75967721D01*
X184336508Y-75967721D02*
X184907937Y-76539149D01*
X184907937Y-76539149D02*
X184907937Y-75920102D01*
X127460120Y-79268873D02*
X126460120Y-79268873D01*
X126460120Y-79268873D02*
X126460120Y-79030778D01*
X126460120Y-79030778D02*
X126507739Y-78887921D01*
X126507739Y-78887921D02*
X126602977Y-78792683D01*
X126602977Y-78792683D02*
X126698215Y-78745064D01*
X126698215Y-78745064D02*
X126888691Y-78697445D01*
X126888691Y-78697445D02*
X127031548Y-78697445D01*
X127031548Y-78697445D02*
X127222024Y-78745064D01*
X127222024Y-78745064D02*
X127317262Y-78792683D01*
X127317262Y-78792683D02*
X127412501Y-78887921D01*
X127412501Y-78887921D02*
X127460120Y-79030778D01*
X127460120Y-79030778D02*
X127460120Y-79268873D01*
X127460120Y-78221254D02*
X127460120Y-78030778D01*
X127460120Y-78030778D02*
X127412501Y-77935540D01*
X127412501Y-77935540D02*
X127364881Y-77887921D01*
X127364881Y-77887921D02*
X127222024Y-77792683D01*
X127222024Y-77792683D02*
X127031548Y-77745064D01*
X127031548Y-77745064D02*
X126650596Y-77745064D01*
X126650596Y-77745064D02*
X126555358Y-77792683D01*
X126555358Y-77792683D02*
X126507739Y-77840302D01*
X126507739Y-77840302D02*
X126460120Y-77935540D01*
X126460120Y-77935540D02*
X126460120Y-78126016D01*
X126460120Y-78126016D02*
X126507739Y-78221254D01*
X126507739Y-78221254D02*
X126555358Y-78268873D01*
X126555358Y-78268873D02*
X126650596Y-78316492D01*
X126650596Y-78316492D02*
X126888691Y-78316492D01*
X126888691Y-78316492D02*
X126983929Y-78268873D01*
X126983929Y-78268873D02*
X127031548Y-78221254D01*
X127031548Y-78221254D02*
X127079167Y-78126016D01*
X127079167Y-78126016D02*
X127079167Y-77935540D01*
X127079167Y-77935540D02*
X127031548Y-77840302D01*
X127031548Y-77840302D02*
X126983929Y-77792683D01*
X126983929Y-77792683D02*
X126888691Y-77745064D01*
X182954819Y-135464285D02*
X181954819Y-135464285D01*
X181954819Y-135464285D02*
X181954819Y-135226190D01*
X181954819Y-135226190D02*
X182002438Y-135083333D01*
X182002438Y-135083333D02*
X182097676Y-134988095D01*
X182097676Y-134988095D02*
X182192914Y-134940476D01*
X182192914Y-134940476D02*
X182383390Y-134892857D01*
X182383390Y-134892857D02*
X182526247Y-134892857D01*
X182526247Y-134892857D02*
X182716723Y-134940476D01*
X182716723Y-134940476D02*
X182811961Y-134988095D01*
X182811961Y-134988095D02*
X182907200Y-135083333D01*
X182907200Y-135083333D02*
X182954819Y-135226190D01*
X182954819Y-135226190D02*
X182954819Y-135464285D01*
X182050057Y-134511904D02*
X182002438Y-134464285D01*
X182002438Y-134464285D02*
X181954819Y-134369047D01*
X181954819Y-134369047D02*
X181954819Y-134130952D01*
X181954819Y-134130952D02*
X182002438Y-134035714D01*
X182002438Y-134035714D02*
X182050057Y-133988095D01*
X182050057Y-133988095D02*
X182145295Y-133940476D01*
X182145295Y-133940476D02*
X182240533Y-133940476D01*
X182240533Y-133940476D02*
X182383390Y-133988095D01*
X182383390Y-133988095D02*
X182954819Y-134559523D01*
X182954819Y-134559523D02*
X182954819Y-133940476D01*
X182954819Y-132988095D02*
X182954819Y-133559523D01*
X182954819Y-133273809D02*
X181954819Y-133273809D01*
X181954819Y-133273809D02*
X182097676Y-133369047D01*
X182097676Y-133369047D02*
X182192914Y-133464285D01*
X182192914Y-133464285D02*
X182240533Y-133559523D01*
X146923112Y-96694527D02*
X145923112Y-96694527D01*
X145923112Y-96694527D02*
X145923112Y-96456432D01*
X145923112Y-96456432D02*
X145970731Y-96313575D01*
X145970731Y-96313575D02*
X146065969Y-96218337D01*
X146065969Y-96218337D02*
X146161207Y-96170718D01*
X146161207Y-96170718D02*
X146351683Y-96123099D01*
X146351683Y-96123099D02*
X146494540Y-96123099D01*
X146494540Y-96123099D02*
X146685016Y-96170718D01*
X146685016Y-96170718D02*
X146780254Y-96218337D01*
X146780254Y-96218337D02*
X146875493Y-96313575D01*
X146875493Y-96313575D02*
X146923112Y-96456432D01*
X146923112Y-96456432D02*
X146923112Y-96694527D01*
X146923112Y-95170718D02*
X146923112Y-95742146D01*
X146923112Y-95456432D02*
X145923112Y-95456432D01*
X145923112Y-95456432D02*
X146065969Y-95551670D01*
X146065969Y-95551670D02*
X146161207Y-95646908D01*
X146161207Y-95646908D02*
X146208826Y-95742146D01*
X145923112Y-94313575D02*
X145923112Y-94504051D01*
X145923112Y-94504051D02*
X145970731Y-94599289D01*
X145970731Y-94599289D02*
X146018350Y-94646908D01*
X146018350Y-94646908D02*
X146161207Y-94742146D01*
X146161207Y-94742146D02*
X146351683Y-94789765D01*
X146351683Y-94789765D02*
X146732635Y-94789765D01*
X146732635Y-94789765D02*
X146827873Y-94742146D01*
X146827873Y-94742146D02*
X146875493Y-94694527D01*
X146875493Y-94694527D02*
X146923112Y-94599289D01*
X146923112Y-94599289D02*
X146923112Y-94408813D01*
X146923112Y-94408813D02*
X146875493Y-94313575D01*
X146875493Y-94313575D02*
X146827873Y-94265956D01*
X146827873Y-94265956D02*
X146732635Y-94218337D01*
X146732635Y-94218337D02*
X146494540Y-94218337D01*
X146494540Y-94218337D02*
X146399302Y-94265956D01*
X146399302Y-94265956D02*
X146351683Y-94313575D01*
X146351683Y-94313575D02*
X146304064Y-94408813D01*
X146304064Y-94408813D02*
X146304064Y-94599289D01*
X146304064Y-94599289D02*
X146351683Y-94694527D01*
X146351683Y-94694527D02*
X146399302Y-94742146D01*
X146399302Y-94742146D02*
X146494540Y-94789765D01*
X130660158Y-65171915D02*
X130707777Y-65029058D01*
X130707777Y-65029058D02*
X130707777Y-64790963D01*
X130707777Y-64790963D02*
X130660158Y-64695725D01*
X130660158Y-64695725D02*
X130612538Y-64648106D01*
X130612538Y-64648106D02*
X130517300Y-64600487D01*
X130517300Y-64600487D02*
X130422062Y-64600487D01*
X130422062Y-64600487D02*
X130326824Y-64648106D01*
X130326824Y-64648106D02*
X130279205Y-64695725D01*
X130279205Y-64695725D02*
X130231586Y-64790963D01*
X130231586Y-64790963D02*
X130183967Y-64981439D01*
X130183967Y-64981439D02*
X130136348Y-65076677D01*
X130136348Y-65076677D02*
X130088729Y-65124296D01*
X130088729Y-65124296D02*
X129993491Y-65171915D01*
X129993491Y-65171915D02*
X129898253Y-65171915D01*
X129898253Y-65171915D02*
X129803015Y-65124296D01*
X129803015Y-65124296D02*
X129755396Y-65076677D01*
X129755396Y-65076677D02*
X129707777Y-64981439D01*
X129707777Y-64981439D02*
X129707777Y-64743344D01*
X129707777Y-64743344D02*
X129755396Y-64600487D01*
X129707777Y-64267153D02*
X130707777Y-64029058D01*
X130707777Y-64029058D02*
X129993491Y-63838582D01*
X129993491Y-63838582D02*
X130707777Y-63648106D01*
X130707777Y-63648106D02*
X129707777Y-63410011D01*
X129707777Y-63124296D02*
X129707777Y-62505249D01*
X129707777Y-62505249D02*
X130088729Y-62838582D01*
X130088729Y-62838582D02*
X130088729Y-62695725D01*
X130088729Y-62695725D02*
X130136348Y-62600487D01*
X130136348Y-62600487D02*
X130183967Y-62552868D01*
X130183967Y-62552868D02*
X130279205Y-62505249D01*
X130279205Y-62505249D02*
X130517300Y-62505249D01*
X130517300Y-62505249D02*
X130612538Y-62552868D01*
X130612538Y-62552868D02*
X130660158Y-62600487D01*
X130660158Y-62600487D02*
X130707777Y-62695725D01*
X130707777Y-62695725D02*
X130707777Y-62981439D01*
X130707777Y-62981439D02*
X130660158Y-63076677D01*
X130660158Y-63076677D02*
X130612538Y-63124296D01*
X183152200Y-134309523D02*
X183199819Y-134166666D01*
X183199819Y-134166666D02*
X183199819Y-133928571D01*
X183199819Y-133928571D02*
X183152200Y-133833333D01*
X183152200Y-133833333D02*
X183104580Y-133785714D01*
X183104580Y-133785714D02*
X183009342Y-133738095D01*
X183009342Y-133738095D02*
X182914104Y-133738095D01*
X182914104Y-133738095D02*
X182818866Y-133785714D01*
X182818866Y-133785714D02*
X182771247Y-133833333D01*
X182771247Y-133833333D02*
X182723628Y-133928571D01*
X182723628Y-133928571D02*
X182676009Y-134119047D01*
X182676009Y-134119047D02*
X182628390Y-134214285D01*
X182628390Y-134214285D02*
X182580771Y-134261904D01*
X182580771Y-134261904D02*
X182485533Y-134309523D01*
X182485533Y-134309523D02*
X182390295Y-134309523D01*
X182390295Y-134309523D02*
X182295057Y-134261904D01*
X182295057Y-134261904D02*
X182247438Y-134214285D01*
X182247438Y-134214285D02*
X182199819Y-134119047D01*
X182199819Y-134119047D02*
X182199819Y-133880952D01*
X182199819Y-133880952D02*
X182247438Y-133738095D01*
X182199819Y-133404761D02*
X183199819Y-133166666D01*
X183199819Y-133166666D02*
X182485533Y-132976190D01*
X182485533Y-132976190D02*
X183199819Y-132785714D01*
X183199819Y-132785714D02*
X182199819Y-132547619D01*
X182295057Y-132214285D02*
X182247438Y-132166666D01*
X182247438Y-132166666D02*
X182199819Y-132071428D01*
X182199819Y-132071428D02*
X182199819Y-131833333D01*
X182199819Y-131833333D02*
X182247438Y-131738095D01*
X182247438Y-131738095D02*
X182295057Y-131690476D01*
X182295057Y-131690476D02*
X182390295Y-131642857D01*
X182390295Y-131642857D02*
X182485533Y-131642857D01*
X182485533Y-131642857D02*
X182628390Y-131690476D01*
X182628390Y-131690476D02*
X183199819Y-132261904D01*
X183199819Y-132261904D02*
X183199819Y-131642857D01*
X183199819Y-130690476D02*
X183199819Y-131261904D01*
X183199819Y-130976190D02*
X182199819Y-130976190D01*
X182199819Y-130976190D02*
X182342676Y-131071428D01*
X182342676Y-131071428D02*
X182437914Y-131166666D01*
X182437914Y-131166666D02*
X182485533Y-131261904D01*
X111805914Y-95382399D02*
X111853533Y-95239542D01*
X111853533Y-95239542D02*
X111853533Y-95001447D01*
X111853533Y-95001447D02*
X111805914Y-94906209D01*
X111805914Y-94906209D02*
X111758294Y-94858590D01*
X111758294Y-94858590D02*
X111663056Y-94810971D01*
X111663056Y-94810971D02*
X111567818Y-94810971D01*
X111567818Y-94810971D02*
X111472580Y-94858590D01*
X111472580Y-94858590D02*
X111424961Y-94906209D01*
X111424961Y-94906209D02*
X111377342Y-95001447D01*
X111377342Y-95001447D02*
X111329723Y-95191923D01*
X111329723Y-95191923D02*
X111282104Y-95287161D01*
X111282104Y-95287161D02*
X111234485Y-95334780D01*
X111234485Y-95334780D02*
X111139247Y-95382399D01*
X111139247Y-95382399D02*
X111044009Y-95382399D01*
X111044009Y-95382399D02*
X110948771Y-95334780D01*
X110948771Y-95334780D02*
X110901152Y-95287161D01*
X110901152Y-95287161D02*
X110853533Y-95191923D01*
X110853533Y-95191923D02*
X110853533Y-94953828D01*
X110853533Y-94953828D02*
X110901152Y-94810971D01*
X110853533Y-94477637D02*
X111853533Y-94239542D01*
X111853533Y-94239542D02*
X111139247Y-94049066D01*
X111139247Y-94049066D02*
X111853533Y-93858590D01*
X111853533Y-93858590D02*
X110853533Y-93620495D01*
X111853533Y-92715733D02*
X111853533Y-93287161D01*
X111853533Y-93001447D02*
X110853533Y-93001447D01*
X110853533Y-93001447D02*
X110996390Y-93096685D01*
X110996390Y-93096685D02*
X111091628Y-93191923D01*
X111091628Y-93191923D02*
X111139247Y-93287161D01*
X111186866Y-91858590D02*
X111853533Y-91858590D01*
X110805914Y-92096685D02*
X111520199Y-92334780D01*
X111520199Y-92334780D02*
X111520199Y-91715733D01*
X111805914Y-60171915D02*
X111853533Y-60029058D01*
X111853533Y-60029058D02*
X111853533Y-59790963D01*
X111853533Y-59790963D02*
X111805914Y-59695725D01*
X111805914Y-59695725D02*
X111758294Y-59648106D01*
X111758294Y-59648106D02*
X111663056Y-59600487D01*
X111663056Y-59600487D02*
X111567818Y-59600487D01*
X111567818Y-59600487D02*
X111472580Y-59648106D01*
X111472580Y-59648106D02*
X111424961Y-59695725D01*
X111424961Y-59695725D02*
X111377342Y-59790963D01*
X111377342Y-59790963D02*
X111329723Y-59981439D01*
X111329723Y-59981439D02*
X111282104Y-60076677D01*
X111282104Y-60076677D02*
X111234485Y-60124296D01*
X111234485Y-60124296D02*
X111139247Y-60171915D01*
X111139247Y-60171915D02*
X111044009Y-60171915D01*
X111044009Y-60171915D02*
X110948771Y-60124296D01*
X110948771Y-60124296D02*
X110901152Y-60076677D01*
X110901152Y-60076677D02*
X110853533Y-59981439D01*
X110853533Y-59981439D02*
X110853533Y-59743344D01*
X110853533Y-59743344D02*
X110901152Y-59600487D01*
X110853533Y-59267153D02*
X111853533Y-59029058D01*
X111853533Y-59029058D02*
X111139247Y-58838582D01*
X111139247Y-58838582D02*
X111853533Y-58648106D01*
X111853533Y-58648106D02*
X110853533Y-58410011D01*
X110948771Y-58076677D02*
X110901152Y-58029058D01*
X110901152Y-58029058D02*
X110853533Y-57933820D01*
X110853533Y-57933820D02*
X110853533Y-57695725D01*
X110853533Y-57695725D02*
X110901152Y-57600487D01*
X110901152Y-57600487D02*
X110948771Y-57552868D01*
X110948771Y-57552868D02*
X111044009Y-57505249D01*
X111044009Y-57505249D02*
X111139247Y-57505249D01*
X111139247Y-57505249D02*
X111282104Y-57552868D01*
X111282104Y-57552868D02*
X111853533Y-58124296D01*
X111853533Y-58124296D02*
X111853533Y-57505249D01*
X169152200Y-118059523D02*
X169199819Y-117916666D01*
X169199819Y-117916666D02*
X169199819Y-117678571D01*
X169199819Y-117678571D02*
X169152200Y-117583333D01*
X169152200Y-117583333D02*
X169104580Y-117535714D01*
X169104580Y-117535714D02*
X169009342Y-117488095D01*
X169009342Y-117488095D02*
X168914104Y-117488095D01*
X168914104Y-117488095D02*
X168818866Y-117535714D01*
X168818866Y-117535714D02*
X168771247Y-117583333D01*
X168771247Y-117583333D02*
X168723628Y-117678571D01*
X168723628Y-117678571D02*
X168676009Y-117869047D01*
X168676009Y-117869047D02*
X168628390Y-117964285D01*
X168628390Y-117964285D02*
X168580771Y-118011904D01*
X168580771Y-118011904D02*
X168485533Y-118059523D01*
X168485533Y-118059523D02*
X168390295Y-118059523D01*
X168390295Y-118059523D02*
X168295057Y-118011904D01*
X168295057Y-118011904D02*
X168247438Y-117964285D01*
X168247438Y-117964285D02*
X168199819Y-117869047D01*
X168199819Y-117869047D02*
X168199819Y-117630952D01*
X168199819Y-117630952D02*
X168247438Y-117488095D01*
X168199819Y-117154761D02*
X169199819Y-116916666D01*
X169199819Y-116916666D02*
X168485533Y-116726190D01*
X168485533Y-116726190D02*
X169199819Y-116535714D01*
X169199819Y-116535714D02*
X168199819Y-116297619D01*
X169199819Y-115392857D02*
X169199819Y-115964285D01*
X169199819Y-115678571D02*
X168199819Y-115678571D01*
X168199819Y-115678571D02*
X168342676Y-115773809D01*
X168342676Y-115773809D02*
X168437914Y-115869047D01*
X168437914Y-115869047D02*
X168485533Y-115964285D01*
X169199819Y-114916666D02*
X169199819Y-114726190D01*
X169199819Y-114726190D02*
X169152200Y-114630952D01*
X169152200Y-114630952D02*
X169104580Y-114583333D01*
X169104580Y-114583333D02*
X168961723Y-114488095D01*
X168961723Y-114488095D02*
X168771247Y-114440476D01*
X168771247Y-114440476D02*
X168390295Y-114440476D01*
X168390295Y-114440476D02*
X168295057Y-114488095D01*
X168295057Y-114488095D02*
X168247438Y-114535714D01*
X168247438Y-114535714D02*
X168199819Y-114630952D01*
X168199819Y-114630952D02*
X168199819Y-114821428D01*
X168199819Y-114821428D02*
X168247438Y-114916666D01*
X168247438Y-114916666D02*
X168295057Y-114964285D01*
X168295057Y-114964285D02*
X168390295Y-115011904D01*
X168390295Y-115011904D02*
X168628390Y-115011904D01*
X168628390Y-115011904D02*
X168723628Y-114964285D01*
X168723628Y-114964285D02*
X168771247Y-114916666D01*
X168771247Y-114916666D02*
X168818866Y-114821428D01*
X168818866Y-114821428D02*
X168818866Y-114630952D01*
X168818866Y-114630952D02*
X168771247Y-114535714D01*
X168771247Y-114535714D02*
X168723628Y-114488095D01*
X168723628Y-114488095D02*
X168628390Y-114440476D01*
X166006687Y-97354074D02*
X165006687Y-97354074D01*
X165006687Y-97354074D02*
X165006687Y-97115979D01*
X165006687Y-97115979D02*
X165054306Y-96973122D01*
X165054306Y-96973122D02*
X165149544Y-96877884D01*
X165149544Y-96877884D02*
X165244782Y-96830265D01*
X165244782Y-96830265D02*
X165435258Y-96782646D01*
X165435258Y-96782646D02*
X165578115Y-96782646D01*
X165578115Y-96782646D02*
X165768591Y-96830265D01*
X165768591Y-96830265D02*
X165863829Y-96877884D01*
X165863829Y-96877884D02*
X165959068Y-96973122D01*
X165959068Y-96973122D02*
X166006687Y-97115979D01*
X166006687Y-97115979D02*
X166006687Y-97354074D01*
X166006687Y-95830265D02*
X166006687Y-96401693D01*
X166006687Y-96115979D02*
X165006687Y-96115979D01*
X165006687Y-96115979D02*
X165149544Y-96211217D01*
X165149544Y-96211217D02*
X165244782Y-96306455D01*
X165244782Y-96306455D02*
X165292401Y-96401693D01*
X165006687Y-95496931D02*
X165006687Y-94830265D01*
X165006687Y-94830265D02*
X166006687Y-95258836D01*
X169097572Y-65171915D02*
X169145191Y-65029058D01*
X169145191Y-65029058D02*
X169145191Y-64790963D01*
X169145191Y-64790963D02*
X169097572Y-64695725D01*
X169097572Y-64695725D02*
X169049952Y-64648106D01*
X169049952Y-64648106D02*
X168954714Y-64600487D01*
X168954714Y-64600487D02*
X168859476Y-64600487D01*
X168859476Y-64600487D02*
X168764238Y-64648106D01*
X168764238Y-64648106D02*
X168716619Y-64695725D01*
X168716619Y-64695725D02*
X168669000Y-64790963D01*
X168669000Y-64790963D02*
X168621381Y-64981439D01*
X168621381Y-64981439D02*
X168573762Y-65076677D01*
X168573762Y-65076677D02*
X168526143Y-65124296D01*
X168526143Y-65124296D02*
X168430905Y-65171915D01*
X168430905Y-65171915D02*
X168335667Y-65171915D01*
X168335667Y-65171915D02*
X168240429Y-65124296D01*
X168240429Y-65124296D02*
X168192810Y-65076677D01*
X168192810Y-65076677D02*
X168145191Y-64981439D01*
X168145191Y-64981439D02*
X168145191Y-64743344D01*
X168145191Y-64743344D02*
X168192810Y-64600487D01*
X168145191Y-64267153D02*
X169145191Y-64029058D01*
X169145191Y-64029058D02*
X168430905Y-63838582D01*
X168430905Y-63838582D02*
X169145191Y-63648106D01*
X169145191Y-63648106D02*
X168145191Y-63410011D01*
X168145191Y-62552868D02*
X168145191Y-63029058D01*
X168145191Y-63029058D02*
X168621381Y-63076677D01*
X168621381Y-63076677D02*
X168573762Y-63029058D01*
X168573762Y-63029058D02*
X168526143Y-62933820D01*
X168526143Y-62933820D02*
X168526143Y-62695725D01*
X168526143Y-62695725D02*
X168573762Y-62600487D01*
X168573762Y-62600487D02*
X168621381Y-62552868D01*
X168621381Y-62552868D02*
X168716619Y-62505249D01*
X168716619Y-62505249D02*
X168954714Y-62505249D01*
X168954714Y-62505249D02*
X169049952Y-62552868D01*
X169049952Y-62552868D02*
X169097572Y-62600487D01*
X169097572Y-62600487D02*
X169145191Y-62695725D01*
X169145191Y-62695725D02*
X169145191Y-62933820D01*
X169145191Y-62933820D02*
X169097572Y-63029058D01*
X169097572Y-63029058D02*
X169049952Y-63076677D01*
X149947572Y-77905971D02*
X149995191Y-77763114D01*
X149995191Y-77763114D02*
X149995191Y-77525019D01*
X149995191Y-77525019D02*
X149947572Y-77429781D01*
X149947572Y-77429781D02*
X149899952Y-77382162D01*
X149899952Y-77382162D02*
X149804714Y-77334543D01*
X149804714Y-77334543D02*
X149709476Y-77334543D01*
X149709476Y-77334543D02*
X149614238Y-77382162D01*
X149614238Y-77382162D02*
X149566619Y-77429781D01*
X149566619Y-77429781D02*
X149519000Y-77525019D01*
X149519000Y-77525019D02*
X149471381Y-77715495D01*
X149471381Y-77715495D02*
X149423762Y-77810733D01*
X149423762Y-77810733D02*
X149376143Y-77858352D01*
X149376143Y-77858352D02*
X149280905Y-77905971D01*
X149280905Y-77905971D02*
X149185667Y-77905971D01*
X149185667Y-77905971D02*
X149090429Y-77858352D01*
X149090429Y-77858352D02*
X149042810Y-77810733D01*
X149042810Y-77810733D02*
X148995191Y-77715495D01*
X148995191Y-77715495D02*
X148995191Y-77477400D01*
X148995191Y-77477400D02*
X149042810Y-77334543D01*
X148995191Y-77001209D02*
X149995191Y-76763114D01*
X149995191Y-76763114D02*
X149280905Y-76572638D01*
X149280905Y-76572638D02*
X149995191Y-76382162D01*
X149995191Y-76382162D02*
X148995191Y-76144067D01*
X149995191Y-75239305D02*
X149995191Y-75810733D01*
X149995191Y-75525019D02*
X148995191Y-75525019D01*
X148995191Y-75525019D02*
X149138048Y-75620257D01*
X149138048Y-75620257D02*
X149233286Y-75715495D01*
X149233286Y-75715495D02*
X149280905Y-75810733D01*
X148995191Y-74620257D02*
X148995191Y-74525019D01*
X148995191Y-74525019D02*
X149042810Y-74429781D01*
X149042810Y-74429781D02*
X149090429Y-74382162D01*
X149090429Y-74382162D02*
X149185667Y-74334543D01*
X149185667Y-74334543D02*
X149376143Y-74286924D01*
X149376143Y-74286924D02*
X149614238Y-74286924D01*
X149614238Y-74286924D02*
X149804714Y-74334543D01*
X149804714Y-74334543D02*
X149899952Y-74382162D01*
X149899952Y-74382162D02*
X149947572Y-74429781D01*
X149947572Y-74429781D02*
X149995191Y-74525019D01*
X149995191Y-74525019D02*
X149995191Y-74620257D01*
X149995191Y-74620257D02*
X149947572Y-74715495D01*
X149947572Y-74715495D02*
X149899952Y-74763114D01*
X149899952Y-74763114D02*
X149804714Y-74810733D01*
X149804714Y-74810733D02*
X149614238Y-74858352D01*
X149614238Y-74858352D02*
X149376143Y-74858352D01*
X149376143Y-74858352D02*
X149185667Y-74810733D01*
X149185667Y-74810733D02*
X149090429Y-74763114D01*
X149090429Y-74763114D02*
X149042810Y-74715495D01*
X149042810Y-74715495D02*
X148995191Y-74620257D01*
X220064868Y-48190427D02*
X219731535Y-47714236D01*
X219493440Y-48190427D02*
X219493440Y-47190427D01*
X219493440Y-47190427D02*
X219874392Y-47190427D01*
X219874392Y-47190427D02*
X219969630Y-47238046D01*
X219969630Y-47238046D02*
X220017249Y-47285665D01*
X220017249Y-47285665D02*
X220064868Y-47380903D01*
X220064868Y-47380903D02*
X220064868Y-47523760D01*
X220064868Y-47523760D02*
X220017249Y-47618998D01*
X220017249Y-47618998D02*
X219969630Y-47666617D01*
X219969630Y-47666617D02*
X219874392Y-47714236D01*
X219874392Y-47714236D02*
X219493440Y-47714236D01*
X220493440Y-47666617D02*
X220826773Y-47666617D01*
X220969630Y-48190427D02*
X220493440Y-48190427D01*
X220493440Y-48190427D02*
X220493440Y-47190427D01*
X220493440Y-47190427D02*
X220969630Y-47190427D01*
X221731535Y-47666617D02*
X221398202Y-47666617D01*
X221398202Y-48190427D02*
X221398202Y-47190427D01*
X221398202Y-47190427D02*
X221874392Y-47190427D01*
X222398202Y-47190427D02*
X222398202Y-47428522D01*
X222160107Y-47333284D02*
X222398202Y-47428522D01*
X222398202Y-47428522D02*
X222636297Y-47333284D01*
X222255345Y-47618998D02*
X222398202Y-47428522D01*
X222398202Y-47428522D02*
X222541059Y-47618998D01*
X223160107Y-47190427D02*
X223160107Y-47428522D01*
X222922012Y-47333284D02*
X223160107Y-47428522D01*
X223160107Y-47428522D02*
X223398202Y-47333284D01*
X223017250Y-47618998D02*
X223160107Y-47428522D01*
X223160107Y-47428522D02*
X223302964Y-47618998D01*
X92360158Y-65171915D02*
X92407777Y-65029058D01*
X92407777Y-65029058D02*
X92407777Y-64790963D01*
X92407777Y-64790963D02*
X92360158Y-64695725D01*
X92360158Y-64695725D02*
X92312538Y-64648106D01*
X92312538Y-64648106D02*
X92217300Y-64600487D01*
X92217300Y-64600487D02*
X92122062Y-64600487D01*
X92122062Y-64600487D02*
X92026824Y-64648106D01*
X92026824Y-64648106D02*
X91979205Y-64695725D01*
X91979205Y-64695725D02*
X91931586Y-64790963D01*
X91931586Y-64790963D02*
X91883967Y-64981439D01*
X91883967Y-64981439D02*
X91836348Y-65076677D01*
X91836348Y-65076677D02*
X91788729Y-65124296D01*
X91788729Y-65124296D02*
X91693491Y-65171915D01*
X91693491Y-65171915D02*
X91598253Y-65171915D01*
X91598253Y-65171915D02*
X91503015Y-65124296D01*
X91503015Y-65124296D02*
X91455396Y-65076677D01*
X91455396Y-65076677D02*
X91407777Y-64981439D01*
X91407777Y-64981439D02*
X91407777Y-64743344D01*
X91407777Y-64743344D02*
X91455396Y-64600487D01*
X91407777Y-64267153D02*
X92407777Y-64029058D01*
X92407777Y-64029058D02*
X91693491Y-63838582D01*
X91693491Y-63838582D02*
X92407777Y-63648106D01*
X92407777Y-63648106D02*
X91407777Y-63410011D01*
X92407777Y-62505249D02*
X92407777Y-63076677D01*
X92407777Y-62790963D02*
X91407777Y-62790963D01*
X91407777Y-62790963D02*
X91550634Y-62886201D01*
X91550634Y-62886201D02*
X91645872Y-62981439D01*
X91645872Y-62981439D02*
X91693491Y-63076677D01*
X98922800Y-57184718D02*
X98922800Y-56184718D01*
X98922800Y-56184718D02*
X99160895Y-56184718D01*
X99160895Y-56184718D02*
X99303752Y-56232337D01*
X99303752Y-56232337D02*
X99398990Y-56327575D01*
X99398990Y-56327575D02*
X99446609Y-56422813D01*
X99446609Y-56422813D02*
X99494228Y-56613289D01*
X99494228Y-56613289D02*
X99494228Y-56756146D01*
X99494228Y-56756146D02*
X99446609Y-56946622D01*
X99446609Y-56946622D02*
X99398990Y-57041860D01*
X99398990Y-57041860D02*
X99303752Y-57137099D01*
X99303752Y-57137099D02*
X99160895Y-57184718D01*
X99160895Y-57184718D02*
X98922800Y-57184718D01*
X100446609Y-57184718D02*
X99875181Y-57184718D01*
X100160895Y-57184718D02*
X100160895Y-56184718D01*
X100160895Y-56184718D02*
X100065657Y-56327575D01*
X100065657Y-56327575D02*
X99970419Y-56422813D01*
X99970419Y-56422813D02*
X99875181Y-56470432D01*
X137777752Y-108072530D02*
X137777752Y-107072530D01*
X137777752Y-107072530D02*
X138015847Y-107072530D01*
X138015847Y-107072530D02*
X138158704Y-107120149D01*
X138158704Y-107120149D02*
X138253942Y-107215387D01*
X138253942Y-107215387D02*
X138301561Y-107310625D01*
X138301561Y-107310625D02*
X138349180Y-107501101D01*
X138349180Y-107501101D02*
X138349180Y-107643958D01*
X138349180Y-107643958D02*
X138301561Y-107834434D01*
X138301561Y-107834434D02*
X138253942Y-107929672D01*
X138253942Y-107929672D02*
X138158704Y-108024911D01*
X138158704Y-108024911D02*
X138015847Y-108072530D01*
X138015847Y-108072530D02*
X137777752Y-108072530D01*
X139301561Y-108072530D02*
X138730133Y-108072530D01*
X139015847Y-108072530D02*
X139015847Y-107072530D01*
X139015847Y-107072530D02*
X138920609Y-107215387D01*
X138920609Y-107215387D02*
X138825371Y-107310625D01*
X138825371Y-107310625D02*
X138730133Y-107358244D01*
X140206323Y-107072530D02*
X139730133Y-107072530D01*
X139730133Y-107072530D02*
X139682514Y-107548720D01*
X139682514Y-107548720D02*
X139730133Y-107501101D01*
X139730133Y-107501101D02*
X139825371Y-107453482D01*
X139825371Y-107453482D02*
X140063466Y-107453482D01*
X140063466Y-107453482D02*
X140158704Y-107501101D01*
X140158704Y-107501101D02*
X140206323Y-107548720D01*
X140206323Y-107548720D02*
X140253942Y-107643958D01*
X140253942Y-107643958D02*
X140253942Y-107882053D01*
X140253942Y-107882053D02*
X140206323Y-107977291D01*
X140206323Y-107977291D02*
X140158704Y-108024911D01*
X140158704Y-108024911D02*
X140063466Y-108072530D01*
X140063466Y-108072530D02*
X139825371Y-108072530D01*
X139825371Y-108072530D02*
X139730133Y-108024911D01*
X139730133Y-108024911D02*
X139682514Y-107977291D01*
X221024819Y-62841666D02*
X220548628Y-63174999D01*
X221024819Y-63413094D02*
X220024819Y-63413094D01*
X220024819Y-63413094D02*
X220024819Y-63032142D01*
X220024819Y-63032142D02*
X220072438Y-62936904D01*
X220072438Y-62936904D02*
X220120057Y-62889285D01*
X220120057Y-62889285D02*
X220215295Y-62841666D01*
X220215295Y-62841666D02*
X220358152Y-62841666D01*
X220358152Y-62841666D02*
X220453390Y-62889285D01*
X220453390Y-62889285D02*
X220501009Y-62936904D01*
X220501009Y-62936904D02*
X220548628Y-63032142D01*
X220548628Y-63032142D02*
X220548628Y-63413094D01*
X220358152Y-61984523D02*
X221024819Y-61984523D01*
X219977200Y-62222618D02*
X220691485Y-62460713D01*
X220691485Y-62460713D02*
X220691485Y-61841666D01*
X149947572Y-95382399D02*
X149995191Y-95239542D01*
X149995191Y-95239542D02*
X149995191Y-95001447D01*
X149995191Y-95001447D02*
X149947572Y-94906209D01*
X149947572Y-94906209D02*
X149899952Y-94858590D01*
X149899952Y-94858590D02*
X149804714Y-94810971D01*
X149804714Y-94810971D02*
X149709476Y-94810971D01*
X149709476Y-94810971D02*
X149614238Y-94858590D01*
X149614238Y-94858590D02*
X149566619Y-94906209D01*
X149566619Y-94906209D02*
X149519000Y-95001447D01*
X149519000Y-95001447D02*
X149471381Y-95191923D01*
X149471381Y-95191923D02*
X149423762Y-95287161D01*
X149423762Y-95287161D02*
X149376143Y-95334780D01*
X149376143Y-95334780D02*
X149280905Y-95382399D01*
X149280905Y-95382399D02*
X149185667Y-95382399D01*
X149185667Y-95382399D02*
X149090429Y-95334780D01*
X149090429Y-95334780D02*
X149042810Y-95287161D01*
X149042810Y-95287161D02*
X148995191Y-95191923D01*
X148995191Y-95191923D02*
X148995191Y-94953828D01*
X148995191Y-94953828D02*
X149042810Y-94810971D01*
X148995191Y-94477637D02*
X149995191Y-94239542D01*
X149995191Y-94239542D02*
X149280905Y-94049066D01*
X149280905Y-94049066D02*
X149995191Y-93858590D01*
X149995191Y-93858590D02*
X148995191Y-93620495D01*
X149995191Y-92715733D02*
X149995191Y-93287161D01*
X149995191Y-93001447D02*
X148995191Y-93001447D01*
X148995191Y-93001447D02*
X149138048Y-93096685D01*
X149138048Y-93096685D02*
X149233286Y-93191923D01*
X149233286Y-93191923D02*
X149280905Y-93287161D01*
X148995191Y-91858590D02*
X148995191Y-92049066D01*
X148995191Y-92049066D02*
X149042810Y-92144304D01*
X149042810Y-92144304D02*
X149090429Y-92191923D01*
X149090429Y-92191923D02*
X149233286Y-92287161D01*
X149233286Y-92287161D02*
X149423762Y-92334780D01*
X149423762Y-92334780D02*
X149804714Y-92334780D01*
X149804714Y-92334780D02*
X149899952Y-92287161D01*
X149899952Y-92287161D02*
X149947572Y-92239542D01*
X149947572Y-92239542D02*
X149995191Y-92144304D01*
X149995191Y-92144304D02*
X149995191Y-91953828D01*
X149995191Y-91953828D02*
X149947572Y-91858590D01*
X149947572Y-91858590D02*
X149899952Y-91810971D01*
X149899952Y-91810971D02*
X149804714Y-91763352D01*
X149804714Y-91763352D02*
X149566619Y-91763352D01*
X149566619Y-91763352D02*
X149471381Y-91810971D01*
X149471381Y-91810971D02*
X149423762Y-91858590D01*
X149423762Y-91858590D02*
X149376143Y-91953828D01*
X149376143Y-91953828D02*
X149376143Y-92144304D01*
X149376143Y-92144304D02*
X149423762Y-92239542D01*
X149423762Y-92239542D02*
X149471381Y-92287161D01*
X149471381Y-92287161D02*
X149566619Y-92334780D01*
X111805914Y-77429780D02*
X111853533Y-77286923D01*
X111853533Y-77286923D02*
X111853533Y-77048828D01*
X111853533Y-77048828D02*
X111805914Y-76953590D01*
X111805914Y-76953590D02*
X111758294Y-76905971D01*
X111758294Y-76905971D02*
X111663056Y-76858352D01*
X111663056Y-76858352D02*
X111567818Y-76858352D01*
X111567818Y-76858352D02*
X111472580Y-76905971D01*
X111472580Y-76905971D02*
X111424961Y-76953590D01*
X111424961Y-76953590D02*
X111377342Y-77048828D01*
X111377342Y-77048828D02*
X111329723Y-77239304D01*
X111329723Y-77239304D02*
X111282104Y-77334542D01*
X111282104Y-77334542D02*
X111234485Y-77382161D01*
X111234485Y-77382161D02*
X111139247Y-77429780D01*
X111139247Y-77429780D02*
X111044009Y-77429780D01*
X111044009Y-77429780D02*
X110948771Y-77382161D01*
X110948771Y-77382161D02*
X110901152Y-77334542D01*
X110901152Y-77334542D02*
X110853533Y-77239304D01*
X110853533Y-77239304D02*
X110853533Y-77001209D01*
X110853533Y-77001209D02*
X110901152Y-76858352D01*
X110853533Y-76525018D02*
X111853533Y-76286923D01*
X111853533Y-76286923D02*
X111139247Y-76096447D01*
X111139247Y-76096447D02*
X111853533Y-75905971D01*
X111853533Y-75905971D02*
X110853533Y-75667876D01*
X111282104Y-75144066D02*
X111234485Y-75239304D01*
X111234485Y-75239304D02*
X111186866Y-75286923D01*
X111186866Y-75286923D02*
X111091628Y-75334542D01*
X111091628Y-75334542D02*
X111044009Y-75334542D01*
X111044009Y-75334542D02*
X110948771Y-75286923D01*
X110948771Y-75286923D02*
X110901152Y-75239304D01*
X110901152Y-75239304D02*
X110853533Y-75144066D01*
X110853533Y-75144066D02*
X110853533Y-74953590D01*
X110853533Y-74953590D02*
X110901152Y-74858352D01*
X110901152Y-74858352D02*
X110948771Y-74810733D01*
X110948771Y-74810733D02*
X111044009Y-74763114D01*
X111044009Y-74763114D02*
X111091628Y-74763114D01*
X111091628Y-74763114D02*
X111186866Y-74810733D01*
X111186866Y-74810733D02*
X111234485Y-74858352D01*
X111234485Y-74858352D02*
X111282104Y-74953590D01*
X111282104Y-74953590D02*
X111282104Y-75144066D01*
X111282104Y-75144066D02*
X111329723Y-75239304D01*
X111329723Y-75239304D02*
X111377342Y-75286923D01*
X111377342Y-75286923D02*
X111472580Y-75334542D01*
X111472580Y-75334542D02*
X111663056Y-75334542D01*
X111663056Y-75334542D02*
X111758294Y-75286923D01*
X111758294Y-75286923D02*
X111805914Y-75239304D01*
X111805914Y-75239304D02*
X111853533Y-75144066D01*
X111853533Y-75144066D02*
X111853533Y-74953590D01*
X111853533Y-74953590D02*
X111805914Y-74858352D01*
X111805914Y-74858352D02*
X111758294Y-74810733D01*
X111758294Y-74810733D02*
X111663056Y-74763114D01*
X111663056Y-74763114D02*
X111472580Y-74763114D01*
X111472580Y-74763114D02*
X111377342Y-74810733D01*
X111377342Y-74810733D02*
X111329723Y-74858352D01*
X111329723Y-74858352D02*
X111282104Y-74953590D01*
X92360158Y-100382399D02*
X92407777Y-100239542D01*
X92407777Y-100239542D02*
X92407777Y-100001447D01*
X92407777Y-100001447D02*
X92360158Y-99906209D01*
X92360158Y-99906209D02*
X92312538Y-99858590D01*
X92312538Y-99858590D02*
X92217300Y-99810971D01*
X92217300Y-99810971D02*
X92122062Y-99810971D01*
X92122062Y-99810971D02*
X92026824Y-99858590D01*
X92026824Y-99858590D02*
X91979205Y-99906209D01*
X91979205Y-99906209D02*
X91931586Y-100001447D01*
X91931586Y-100001447D02*
X91883967Y-100191923D01*
X91883967Y-100191923D02*
X91836348Y-100287161D01*
X91836348Y-100287161D02*
X91788729Y-100334780D01*
X91788729Y-100334780D02*
X91693491Y-100382399D01*
X91693491Y-100382399D02*
X91598253Y-100382399D01*
X91598253Y-100382399D02*
X91503015Y-100334780D01*
X91503015Y-100334780D02*
X91455396Y-100287161D01*
X91455396Y-100287161D02*
X91407777Y-100191923D01*
X91407777Y-100191923D02*
X91407777Y-99953828D01*
X91407777Y-99953828D02*
X91455396Y-99810971D01*
X91407777Y-99477637D02*
X92407777Y-99239542D01*
X92407777Y-99239542D02*
X91693491Y-99049066D01*
X91693491Y-99049066D02*
X92407777Y-98858590D01*
X92407777Y-98858590D02*
X91407777Y-98620495D01*
X92407777Y-97715733D02*
X92407777Y-98287161D01*
X92407777Y-98001447D02*
X91407777Y-98001447D01*
X91407777Y-98001447D02*
X91550634Y-98096685D01*
X91550634Y-98096685D02*
X91645872Y-98191923D01*
X91645872Y-98191923D02*
X91693491Y-98287161D01*
X91407777Y-97382399D02*
X91407777Y-96763352D01*
X91407777Y-96763352D02*
X91788729Y-97096685D01*
X91788729Y-97096685D02*
X91788729Y-96953828D01*
X91788729Y-96953828D02*
X91836348Y-96858590D01*
X91836348Y-96858590D02*
X91883967Y-96810971D01*
X91883967Y-96810971D02*
X91979205Y-96763352D01*
X91979205Y-96763352D02*
X92217300Y-96763352D01*
X92217300Y-96763352D02*
X92312538Y-96810971D01*
X92312538Y-96810971D02*
X92360158Y-96858590D01*
X92360158Y-96858590D02*
X92407777Y-96953828D01*
X92407777Y-96953828D02*
X92407777Y-97239542D01*
X92407777Y-97239542D02*
X92360158Y-97334780D01*
X92360158Y-97334780D02*
X92312538Y-97382399D01*
X156710411Y-52307760D02*
X156710411Y-51307760D01*
X156710411Y-51307760D02*
X156948506Y-51307760D01*
X156948506Y-51307760D02*
X157091363Y-51355379D01*
X157091363Y-51355379D02*
X157186601Y-51450617D01*
X157186601Y-51450617D02*
X157234220Y-51545855D01*
X157234220Y-51545855D02*
X157281839Y-51736331D01*
X157281839Y-51736331D02*
X157281839Y-51879188D01*
X157281839Y-51879188D02*
X157234220Y-52069664D01*
X157234220Y-52069664D02*
X157186601Y-52164902D01*
X157186601Y-52164902D02*
X157091363Y-52260141D01*
X157091363Y-52260141D02*
X156948506Y-52307760D01*
X156948506Y-52307760D02*
X156710411Y-52307760D01*
X158138982Y-51641093D02*
X158138982Y-52307760D01*
X157900887Y-51260141D02*
X157662792Y-51974426D01*
X157662792Y-51974426D02*
X158281839Y-51974426D01*
X185226353Y-95205018D02*
X184226353Y-95205018D01*
X184226353Y-95205018D02*
X184226353Y-94966923D01*
X184226353Y-94966923D02*
X184273972Y-94824066D01*
X184273972Y-94824066D02*
X184369210Y-94728828D01*
X184369210Y-94728828D02*
X184464448Y-94681209D01*
X184464448Y-94681209D02*
X184654924Y-94633590D01*
X184654924Y-94633590D02*
X184797781Y-94633590D01*
X184797781Y-94633590D02*
X184988257Y-94681209D01*
X184988257Y-94681209D02*
X185083495Y-94728828D01*
X185083495Y-94728828D02*
X185178734Y-94824066D01*
X185178734Y-94824066D02*
X185226353Y-94966923D01*
X185226353Y-94966923D02*
X185226353Y-95205018D01*
X185226353Y-93681209D02*
X185226353Y-94252637D01*
X185226353Y-93966923D02*
X184226353Y-93966923D01*
X184226353Y-93966923D02*
X184369210Y-94062161D01*
X184369210Y-94062161D02*
X184464448Y-94157399D01*
X184464448Y-94157399D02*
X184512067Y-94252637D01*
X184654924Y-93109780D02*
X184607305Y-93205018D01*
X184607305Y-93205018D02*
X184559686Y-93252637D01*
X184559686Y-93252637D02*
X184464448Y-93300256D01*
X184464448Y-93300256D02*
X184416829Y-93300256D01*
X184416829Y-93300256D02*
X184321591Y-93252637D01*
X184321591Y-93252637D02*
X184273972Y-93205018D01*
X184273972Y-93205018D02*
X184226353Y-93109780D01*
X184226353Y-93109780D02*
X184226353Y-92919304D01*
X184226353Y-92919304D02*
X184273972Y-92824066D01*
X184273972Y-92824066D02*
X184321591Y-92776447D01*
X184321591Y-92776447D02*
X184416829Y-92728828D01*
X184416829Y-92728828D02*
X184464448Y-92728828D01*
X184464448Y-92728828D02*
X184559686Y-92776447D01*
X184559686Y-92776447D02*
X184607305Y-92824066D01*
X184607305Y-92824066D02*
X184654924Y-92919304D01*
X184654924Y-92919304D02*
X184654924Y-93109780D01*
X184654924Y-93109780D02*
X184702543Y-93205018D01*
X184702543Y-93205018D02*
X184750162Y-93252637D01*
X184750162Y-93252637D02*
X184845400Y-93300256D01*
X184845400Y-93300256D02*
X185035876Y-93300256D01*
X185035876Y-93300256D02*
X185131114Y-93252637D01*
X185131114Y-93252637D02*
X185178734Y-93205018D01*
X185178734Y-93205018D02*
X185226353Y-93109780D01*
X185226353Y-93109780D02*
X185226353Y-92919304D01*
X185226353Y-92919304D02*
X185178734Y-92824066D01*
X185178734Y-92824066D02*
X185131114Y-92776447D01*
X185131114Y-92776447D02*
X185035876Y-92728828D01*
X185035876Y-92728828D02*
X184845400Y-92728828D01*
X184845400Y-92728828D02*
X184750162Y-92776447D01*
X184750162Y-92776447D02*
X184702543Y-92824066D01*
X184702543Y-92824066D02*
X184654924Y-92919304D01*
X214074427Y-118257711D02*
X214122046Y-118114854D01*
X214122046Y-118114854D02*
X214169665Y-118067235D01*
X214169665Y-118067235D02*
X214264903Y-118019616D01*
X214264903Y-118019616D02*
X214407760Y-118019616D01*
X214407760Y-118019616D02*
X214502998Y-118067235D01*
X214502998Y-118067235D02*
X214550618Y-118114854D01*
X214550618Y-118114854D02*
X214598237Y-118210092D01*
X214598237Y-118210092D02*
X214598237Y-118591044D01*
X214598237Y-118591044D02*
X213598237Y-118591044D01*
X213598237Y-118591044D02*
X213598237Y-118257711D01*
X213598237Y-118257711D02*
X213645856Y-118162473D01*
X213645856Y-118162473D02*
X213693475Y-118114854D01*
X213693475Y-118114854D02*
X213788713Y-118067235D01*
X213788713Y-118067235D02*
X213883951Y-118067235D01*
X213883951Y-118067235D02*
X213979189Y-118114854D01*
X213979189Y-118114854D02*
X214026808Y-118162473D01*
X214026808Y-118162473D02*
X214074427Y-118257711D01*
X214074427Y-118257711D02*
X214074427Y-118591044D01*
X214217284Y-117591044D02*
X214217284Y-116829140D01*
X214598237Y-115829140D02*
X214598237Y-116400568D01*
X214598237Y-116114854D02*
X213598237Y-116114854D01*
X213598237Y-116114854D02*
X213741094Y-116210092D01*
X213741094Y-116210092D02*
X213836332Y-116305330D01*
X213836332Y-116305330D02*
X213883951Y-116400568D01*
X188110158Y-77905971D02*
X188157777Y-77763114D01*
X188157777Y-77763114D02*
X188157777Y-77525019D01*
X188157777Y-77525019D02*
X188110158Y-77429781D01*
X188110158Y-77429781D02*
X188062538Y-77382162D01*
X188062538Y-77382162D02*
X187967300Y-77334543D01*
X187967300Y-77334543D02*
X187872062Y-77334543D01*
X187872062Y-77334543D02*
X187776824Y-77382162D01*
X187776824Y-77382162D02*
X187729205Y-77429781D01*
X187729205Y-77429781D02*
X187681586Y-77525019D01*
X187681586Y-77525019D02*
X187633967Y-77715495D01*
X187633967Y-77715495D02*
X187586348Y-77810733D01*
X187586348Y-77810733D02*
X187538729Y-77858352D01*
X187538729Y-77858352D02*
X187443491Y-77905971D01*
X187443491Y-77905971D02*
X187348253Y-77905971D01*
X187348253Y-77905971D02*
X187253015Y-77858352D01*
X187253015Y-77858352D02*
X187205396Y-77810733D01*
X187205396Y-77810733D02*
X187157777Y-77715495D01*
X187157777Y-77715495D02*
X187157777Y-77477400D01*
X187157777Y-77477400D02*
X187205396Y-77334543D01*
X187157777Y-77001209D02*
X188157777Y-76763114D01*
X188157777Y-76763114D02*
X187443491Y-76572638D01*
X187443491Y-76572638D02*
X188157777Y-76382162D01*
X188157777Y-76382162D02*
X187157777Y-76144067D01*
X188157777Y-75239305D02*
X188157777Y-75810733D01*
X188157777Y-75525019D02*
X187157777Y-75525019D01*
X187157777Y-75525019D02*
X187300634Y-75620257D01*
X187300634Y-75620257D02*
X187395872Y-75715495D01*
X187395872Y-75715495D02*
X187443491Y-75810733D01*
X187253015Y-74858352D02*
X187205396Y-74810733D01*
X187205396Y-74810733D02*
X187157777Y-74715495D01*
X187157777Y-74715495D02*
X187157777Y-74477400D01*
X187157777Y-74477400D02*
X187205396Y-74382162D01*
X187205396Y-74382162D02*
X187253015Y-74334543D01*
X187253015Y-74334543D02*
X187348253Y-74286924D01*
X187348253Y-74286924D02*
X187443491Y-74286924D01*
X187443491Y-74286924D02*
X187586348Y-74334543D01*
X187586348Y-74334543D02*
X188157777Y-74905971D01*
X188157777Y-74905971D02*
X188157777Y-74286924D01*
X216024819Y-62241666D02*
X215548628Y-62574999D01*
X216024819Y-62813094D02*
X215024819Y-62813094D01*
X215024819Y-62813094D02*
X215024819Y-62432142D01*
X215024819Y-62432142D02*
X215072438Y-62336904D01*
X215072438Y-62336904D02*
X215120057Y-62289285D01*
X215120057Y-62289285D02*
X215215295Y-62241666D01*
X215215295Y-62241666D02*
X215358152Y-62241666D01*
X215358152Y-62241666D02*
X215453390Y-62289285D01*
X215453390Y-62289285D02*
X215501009Y-62336904D01*
X215501009Y-62336904D02*
X215548628Y-62432142D01*
X215548628Y-62432142D02*
X215548628Y-62813094D01*
X215024819Y-61908332D02*
X215024819Y-61289285D01*
X215024819Y-61289285D02*
X215405771Y-61622618D01*
X215405771Y-61622618D02*
X215405771Y-61479761D01*
X215405771Y-61479761D02*
X215453390Y-61384523D01*
X215453390Y-61384523D02*
X215501009Y-61336904D01*
X215501009Y-61336904D02*
X215596247Y-61289285D01*
X215596247Y-61289285D02*
X215834342Y-61289285D01*
X215834342Y-61289285D02*
X215929580Y-61336904D01*
X215929580Y-61336904D02*
X215977200Y-61384523D01*
X215977200Y-61384523D02*
X216024819Y-61479761D01*
X216024819Y-61479761D02*
X216024819Y-61765475D01*
X216024819Y-61765475D02*
X215977200Y-61860713D01*
X215977200Y-61860713D02*
X215929580Y-61908332D01*
X176471612Y-53283052D02*
X176471612Y-52283052D01*
X176471612Y-52283052D02*
X176709707Y-52283052D01*
X176709707Y-52283052D02*
X176852564Y-52330671D01*
X176852564Y-52330671D02*
X176947802Y-52425909D01*
X176947802Y-52425909D02*
X176995421Y-52521147D01*
X176995421Y-52521147D02*
X177043040Y-52711623D01*
X177043040Y-52711623D02*
X177043040Y-52854480D01*
X177043040Y-52854480D02*
X176995421Y-53044956D01*
X176995421Y-53044956D02*
X176947802Y-53140194D01*
X176947802Y-53140194D02*
X176852564Y-53235433D01*
X176852564Y-53235433D02*
X176709707Y-53283052D01*
X176709707Y-53283052D02*
X176471612Y-53283052D01*
X177947802Y-52283052D02*
X177471612Y-52283052D01*
X177471612Y-52283052D02*
X177423993Y-52759242D01*
X177423993Y-52759242D02*
X177471612Y-52711623D01*
X177471612Y-52711623D02*
X177566850Y-52664004D01*
X177566850Y-52664004D02*
X177804945Y-52664004D01*
X177804945Y-52664004D02*
X177900183Y-52711623D01*
X177900183Y-52711623D02*
X177947802Y-52759242D01*
X177947802Y-52759242D02*
X177995421Y-52854480D01*
X177995421Y-52854480D02*
X177995421Y-53092575D01*
X177995421Y-53092575D02*
X177947802Y-53187813D01*
X177947802Y-53187813D02*
X177900183Y-53235433D01*
X177900183Y-53235433D02*
X177804945Y-53283052D01*
X177804945Y-53283052D02*
X177566850Y-53283052D01*
X177566850Y-53283052D02*
X177471612Y-53235433D01*
X177471612Y-53235433D02*
X177423993Y-53187813D01*
X130660158Y-82429780D02*
X130707777Y-82286923D01*
X130707777Y-82286923D02*
X130707777Y-82048828D01*
X130707777Y-82048828D02*
X130660158Y-81953590D01*
X130660158Y-81953590D02*
X130612538Y-81905971D01*
X130612538Y-81905971D02*
X130517300Y-81858352D01*
X130517300Y-81858352D02*
X130422062Y-81858352D01*
X130422062Y-81858352D02*
X130326824Y-81905971D01*
X130326824Y-81905971D02*
X130279205Y-81953590D01*
X130279205Y-81953590D02*
X130231586Y-82048828D01*
X130231586Y-82048828D02*
X130183967Y-82239304D01*
X130183967Y-82239304D02*
X130136348Y-82334542D01*
X130136348Y-82334542D02*
X130088729Y-82382161D01*
X130088729Y-82382161D02*
X129993491Y-82429780D01*
X129993491Y-82429780D02*
X129898253Y-82429780D01*
X129898253Y-82429780D02*
X129803015Y-82382161D01*
X129803015Y-82382161D02*
X129755396Y-82334542D01*
X129755396Y-82334542D02*
X129707777Y-82239304D01*
X129707777Y-82239304D02*
X129707777Y-82001209D01*
X129707777Y-82001209D02*
X129755396Y-81858352D01*
X129707777Y-81525018D02*
X130707777Y-81286923D01*
X130707777Y-81286923D02*
X129993491Y-81096447D01*
X129993491Y-81096447D02*
X130707777Y-80905971D01*
X130707777Y-80905971D02*
X129707777Y-80667876D01*
X130707777Y-80239304D02*
X130707777Y-80048828D01*
X130707777Y-80048828D02*
X130660158Y-79953590D01*
X130660158Y-79953590D02*
X130612538Y-79905971D01*
X130612538Y-79905971D02*
X130469681Y-79810733D01*
X130469681Y-79810733D02*
X130279205Y-79763114D01*
X130279205Y-79763114D02*
X129898253Y-79763114D01*
X129898253Y-79763114D02*
X129803015Y-79810733D01*
X129803015Y-79810733D02*
X129755396Y-79858352D01*
X129755396Y-79858352D02*
X129707777Y-79953590D01*
X129707777Y-79953590D02*
X129707777Y-80144066D01*
X129707777Y-80144066D02*
X129755396Y-80239304D01*
X129755396Y-80239304D02*
X129803015Y-80286923D01*
X129803015Y-80286923D02*
X129898253Y-80334542D01*
X129898253Y-80334542D02*
X130136348Y-80334542D01*
X130136348Y-80334542D02*
X130231586Y-80286923D01*
X130231586Y-80286923D02*
X130279205Y-80239304D01*
X130279205Y-80239304D02*
X130326824Y-80144066D01*
X130326824Y-80144066D02*
X130326824Y-79953590D01*
X130326824Y-79953590D02*
X130279205Y-79858352D01*
X130279205Y-79858352D02*
X130231586Y-79810733D01*
X130231586Y-79810733D02*
X130136348Y-79763114D01*
X137638983Y-53267422D02*
X137638983Y-52267422D01*
X137638983Y-52267422D02*
X137877078Y-52267422D01*
X137877078Y-52267422D02*
X138019935Y-52315041D01*
X138019935Y-52315041D02*
X138115173Y-52410279D01*
X138115173Y-52410279D02*
X138162792Y-52505517D01*
X138162792Y-52505517D02*
X138210411Y-52695993D01*
X138210411Y-52695993D02*
X138210411Y-52838850D01*
X138210411Y-52838850D02*
X138162792Y-53029326D01*
X138162792Y-53029326D02*
X138115173Y-53124564D01*
X138115173Y-53124564D02*
X138019935Y-53219803D01*
X138019935Y-53219803D02*
X137877078Y-53267422D01*
X137877078Y-53267422D02*
X137638983Y-53267422D01*
X138543745Y-52267422D02*
X139162792Y-52267422D01*
X139162792Y-52267422D02*
X138829459Y-52648374D01*
X138829459Y-52648374D02*
X138972316Y-52648374D01*
X138972316Y-52648374D02*
X139067554Y-52695993D01*
X139067554Y-52695993D02*
X139115173Y-52743612D01*
X139115173Y-52743612D02*
X139162792Y-52838850D01*
X139162792Y-52838850D02*
X139162792Y-53076945D01*
X139162792Y-53076945D02*
X139115173Y-53172183D01*
X139115173Y-53172183D02*
X139067554Y-53219803D01*
X139067554Y-53219803D02*
X138972316Y-53267422D01*
X138972316Y-53267422D02*
X138686602Y-53267422D01*
X138686602Y-53267422D02*
X138591364Y-53219803D01*
X138591364Y-53219803D02*
X138543745Y-53172183D01*
%TO.C,SW7*%
X93207958Y-74096448D02*
X94207958Y-74096448D01*
X93207958Y-75096448D02*
X93207958Y-74096448D01*
X93207958Y-88096448D02*
X93207958Y-87096448D01*
X94207958Y-88096448D02*
X93207958Y-88096448D01*
X100842958Y-85287448D02*
X100842957Y-83636447D01*
X100842958Y-87446448D02*
X100842958Y-87065448D01*
X101223958Y-87446448D02*
X100842958Y-87446448D01*
X102747958Y-76016448D02*
X103763958Y-76016448D01*
X102747958Y-81096448D02*
X102747958Y-76016448D01*
X104652958Y-87446448D02*
X104271958Y-87446448D01*
X106811958Y-74096448D02*
X107207958Y-74096448D01*
X106811958Y-76016448D02*
X107192958Y-76016448D01*
X107192958Y-76016448D02*
X107192958Y-84906448D01*
X107207958Y-74096448D02*
X107207958Y-75096448D01*
X107207958Y-87096448D02*
X107207958Y-88096448D01*
X107207958Y-88096448D02*
X106207958Y-88096448D01*
X102826129Y-81096449D02*
G75*
G02*
X100842957Y-83636447I-2618171J1D01*
G01*
X107192958Y-84906448D02*
G75*
G02*
X104652958Y-87446448I-2540001J1D01*
G01*
D12*
%TO.C,D20*%
X193240000Y-121750000D02*
X193240000Y-123750000D01*
X193240000Y-121750000D02*
X197250000Y-121750000D01*
X193240000Y-123750000D02*
X197250000Y-123750000D01*
D10*
%TO.C,SW6*%
X188957958Y-51838583D02*
X189957958Y-51838583D01*
X188957958Y-52838583D02*
X188957958Y-51838583D01*
X188957958Y-65838583D02*
X188957958Y-64838583D01*
X189957958Y-65838583D02*
X188957958Y-65838583D01*
X196592958Y-63029583D02*
X196592957Y-61378582D01*
X196592958Y-65188583D02*
X196592958Y-64807583D01*
X196973958Y-65188583D02*
X196592958Y-65188583D01*
X198497958Y-53758583D02*
X199513958Y-53758583D01*
X198497958Y-58838583D02*
X198497958Y-53758583D01*
X200402958Y-65188583D02*
X200021958Y-65188583D01*
X202561958Y-51838583D02*
X202957958Y-51838583D01*
X202561958Y-53758583D02*
X202942958Y-53758583D01*
X202942958Y-53758583D02*
X202942958Y-62648583D01*
X202957958Y-51838583D02*
X202957958Y-52838583D01*
X202957958Y-64838583D02*
X202957958Y-65838583D01*
X202957958Y-65838583D02*
X201957958Y-65838583D01*
X198576129Y-58838584D02*
G75*
G02*
X196592957Y-61378582I-2618171J1D01*
G01*
X202942958Y-62648583D02*
G75*
G02*
X200402958Y-65188583I-2540001J1D01*
G01*
%TO.C,SW4*%
X150795372Y-51838583D02*
X151795372Y-51838583D01*
X150795372Y-52838583D02*
X150795372Y-51838583D01*
X150795372Y-65838583D02*
X150795372Y-64838583D01*
X151795372Y-65838583D02*
X150795372Y-65838583D01*
X158430372Y-63029583D02*
X158430371Y-61378582D01*
X158430372Y-65188583D02*
X158430372Y-64807583D01*
X158811372Y-65188583D02*
X158430372Y-65188583D01*
X160335372Y-53758583D02*
X161351372Y-53758583D01*
X160335372Y-58838583D02*
X160335372Y-53758583D01*
X162240372Y-65188583D02*
X161859372Y-65188583D01*
X164399372Y-51838583D02*
X164795372Y-51838583D01*
X164399372Y-53758583D02*
X164780372Y-53758583D01*
X164780372Y-53758583D02*
X164780372Y-62648583D01*
X164795372Y-51838583D02*
X164795372Y-52838583D01*
X164795372Y-64838583D02*
X164795372Y-65838583D01*
X164795372Y-65838583D02*
X163795372Y-65838583D01*
X160413543Y-58838584D02*
G75*
G02*
X158430371Y-61378582I-2618171J1D01*
G01*
X164780372Y-62648583D02*
G75*
G02*
X162240372Y-65188583I-2540001J1D01*
G01*
D12*
%TO.C,B+1*%
X211291418Y-116283902D02*
X213191418Y-116283902D01*
X211291418Y-118183902D02*
X211291418Y-116283902D01*
X213191418Y-116283902D02*
X213191418Y-118183902D01*
X213191418Y-118183902D02*
X211291418Y-118183902D01*
%TO.C,D10*%
X147304664Y-79991597D02*
X147304664Y-75981597D01*
X147304664Y-79991597D02*
X149304664Y-79991597D01*
X149304664Y-79991597D02*
X149304664Y-75981597D01*
%TO.C,D6*%
X193687502Y-48863540D02*
X193687502Y-50863540D01*
X193687502Y-48863540D02*
X197697502Y-48863540D01*
X193687502Y-50863540D02*
X197697502Y-50863540D01*
%TO.C,D11*%
X166454164Y-83691415D02*
X166454164Y-79681415D01*
X166454164Y-83691415D02*
X168454164Y-83691415D01*
X168454164Y-83691415D02*
X168454164Y-79681415D01*
D10*
%TO.C,SW15*%
X131507958Y-91572876D02*
X132507958Y-91572876D01*
X131507958Y-92572876D02*
X131507958Y-91572876D01*
X131507958Y-105572876D02*
X131507958Y-104572876D01*
X132507958Y-105572876D02*
X131507958Y-105572876D01*
X139142958Y-102763876D02*
X139142957Y-101112875D01*
X139142958Y-104922876D02*
X139142958Y-104541876D01*
X139523958Y-104922876D02*
X139142958Y-104922876D01*
X141047958Y-93492876D02*
X142063958Y-93492876D01*
X141047958Y-98572876D02*
X141047958Y-93492876D01*
X142952958Y-104922876D02*
X142571958Y-104922876D01*
X145111958Y-91572876D02*
X145507958Y-91572876D01*
X145111958Y-93492876D02*
X145492958Y-93492876D01*
X145492958Y-93492876D02*
X145492958Y-102382876D01*
X145507958Y-91572876D02*
X145507958Y-92572876D01*
X145507958Y-104572876D02*
X145507958Y-105572876D01*
X145507958Y-105572876D02*
X144507958Y-105572876D01*
X141126129Y-98572877D02*
G75*
G02*
X139142957Y-101112875I-2618171J1D01*
G01*
X145492958Y-102382876D02*
G75*
G02*
X142952958Y-104922876I-2540001J1D01*
G01*
D12*
%TO.C,SW-B1*%
X209031328Y-108894039D02*
X209031328Y-107274039D01*
X209031328Y-112114039D02*
X209031328Y-110494039D01*
X214657995Y-110329039D02*
X214657995Y-109059039D01*
X218931328Y-107274039D02*
X209031328Y-107274039D01*
X218931328Y-108894039D02*
X218931328Y-107274039D01*
X218931328Y-112114039D02*
X209031328Y-112114039D01*
X218931328Y-112114039D02*
X218931328Y-110494039D01*
X219171328Y-112354039D02*
X217788328Y-112354039D01*
X219171328Y-112354039D02*
X219171328Y-110971039D01*
X216011328Y-110329039D02*
X211951328Y-110329039D01*
X211951328Y-109059039D01*
X216011328Y-109059039D01*
X216011328Y-110329039D01*
X216011328Y-110329039D02*
X214657995Y-110329039D01*
X214657995Y-109059039D01*
X216011328Y-109059039D01*
X216011328Y-110329039D01*
G36*
X216011328Y-110329039D02*
G01*
X214657995Y-110329039D01*
X214657995Y-109059039D01*
X216011328Y-109059039D01*
X216011328Y-110329039D01*
G37*
%TO.C,D2*%
X122117101Y-48667616D02*
X118107101Y-48667616D01*
X122117101Y-50667616D02*
X118107101Y-50667616D01*
X122117101Y-50667616D02*
X122117101Y-48667616D01*
%TO.C,D13*%
X89357748Y-101196328D02*
X89357748Y-97186328D01*
X89357748Y-101196328D02*
X91357748Y-101196328D01*
X91357748Y-101196328D02*
X91357748Y-97186328D01*
%TO.C,R1*%
X207477500Y-62562258D02*
X207477500Y-62087742D01*
X208522500Y-62562258D02*
X208522500Y-62087742D01*
D13*
%TO.C,U1*%
X87409930Y-116098210D02*
X93909920Y-116098210D01*
X87409930Y-116098210D02*
X93909920Y-116098210D01*
X87409930Y-125048200D02*
X87409930Y-116098210D01*
X87409930Y-125048200D02*
X87409930Y-116098210D01*
X87409930Y-125098190D02*
X87409930Y-125048200D01*
X87409930Y-125098190D02*
X87409930Y-125048200D01*
X87409930Y-125098190D02*
X93909920Y-125098190D01*
X87409930Y-125098190D02*
X93909920Y-125098190D01*
X93054930Y-117685710D02*
X93497270Y-117685710D01*
X93054930Y-117685710D02*
X93497270Y-117685710D01*
X93054930Y-119435720D02*
X93054930Y-117685710D01*
X93054930Y-119435720D02*
X93054930Y-117685710D01*
X93054930Y-119435720D02*
X93498790Y-119435720D01*
X93054930Y-119435720D02*
X93498790Y-119435720D01*
X93057060Y-121932610D02*
X93498790Y-121932610D01*
X93057060Y-121932610D02*
X93498790Y-121932610D01*
X93057060Y-123682620D02*
X93057060Y-121932610D01*
X93057060Y-123682620D02*
X93057060Y-121932610D01*
X93057060Y-123682620D02*
X93498790Y-123682620D01*
X93057060Y-123682620D02*
X93498790Y-123682620D01*
X93909920Y-116857010D02*
X93909920Y-116098210D01*
X93909920Y-116857010D02*
X93909920Y-116098210D01*
X93909920Y-124393720D02*
X93909920Y-124339260D01*
X93909920Y-124393720D02*
X93909920Y-124339260D01*
X93909920Y-125102660D02*
X93909920Y-124393720D01*
X93909920Y-125102660D02*
X93909920Y-124393720D01*
D14*
X87873979Y-111575740D02*
X121212360Y-111575740D01*
X121212360Y-129620641D01*
X87873979Y-129620641D01*
X87873979Y-111575740D01*
D15*
%TO.C,OLED1*%
X207666761Y-67000000D02*
X207666761Y-105000000D01*
X207666761Y-72000000D02*
X219666761Y-72000000D01*
X207666761Y-101500000D02*
X219666761Y-101500000D01*
X207666761Y-105000000D02*
X219666761Y-105000000D01*
X219666761Y-67000000D02*
X207666761Y-67000000D01*
X219666761Y-105000000D02*
X219666761Y-67000000D01*
D12*
%TO.C,R2*%
X211727500Y-63062258D02*
X211727500Y-62587742D01*
X212772500Y-63062258D02*
X212772500Y-62587742D01*
D10*
%TO.C,SW20*%
X189000000Y-104250000D02*
X190000000Y-104250000D01*
X189000000Y-105250000D02*
X189000000Y-104250000D01*
X189000000Y-118250000D02*
X189000000Y-117250000D01*
X190000000Y-118250000D02*
X189000000Y-118250000D01*
X196635000Y-115441000D02*
X196634999Y-113789999D01*
X196635000Y-117600000D02*
X196635000Y-117219000D01*
X197016000Y-117600000D02*
X196635000Y-117600000D01*
X198540000Y-106170000D02*
X199556000Y-106170000D01*
X198540000Y-111250000D02*
X198540000Y-106170000D01*
X200445000Y-117600000D02*
X200064000Y-117600000D01*
X202604000Y-104250000D02*
X203000000Y-104250000D01*
X202604000Y-106170000D02*
X202985000Y-106170000D01*
X202985000Y-106170000D02*
X202985000Y-115060000D01*
X203000000Y-104250000D02*
X203000000Y-105250000D01*
X203000000Y-117250000D02*
X203000000Y-118250000D01*
X203000000Y-118250000D02*
X202000000Y-118250000D01*
X198618171Y-111250001D02*
G75*
G02*
X196634999Y-113789999I-2618171J1D01*
G01*
X202985000Y-115060000D02*
G75*
G02*
X200445000Y-117600000I-2540001J1D01*
G01*
D12*
%TO.C,D8*%
X109600844Y-79334960D02*
X109600844Y-75324960D01*
X109600844Y-79334960D02*
X111600844Y-79334960D01*
X111600844Y-79334960D02*
X111600844Y-75324960D01*
%TO.C,D7*%
X90101663Y-83835642D02*
X90101663Y-79825642D01*
X90101663Y-83835642D02*
X92101663Y-83835642D01*
X92101663Y-83835642D02*
X92101663Y-79825642D01*
%TO.C,D14*%
X123379527Y-104255922D02*
X119369527Y-104255922D01*
X123379527Y-106255922D02*
X119369527Y-106255922D01*
X123379527Y-106255922D02*
X123379527Y-104255922D01*
D10*
%TO.C,SW11*%
X169945372Y-74096448D02*
X170945372Y-74096448D01*
X169945372Y-75096448D02*
X169945372Y-74096448D01*
X169945372Y-88096448D02*
X169945372Y-87096448D01*
X170945372Y-88096448D02*
X169945372Y-88096448D01*
X177580372Y-85287448D02*
X177580371Y-83636447D01*
X177580372Y-87446448D02*
X177580372Y-87065448D01*
X177961372Y-87446448D02*
X177580372Y-87446448D01*
X179485372Y-76016448D02*
X180501372Y-76016448D01*
X179485372Y-81096448D02*
X179485372Y-76016448D01*
X181390372Y-87446448D02*
X181009372Y-87446448D01*
X183549372Y-74096448D02*
X183945372Y-74096448D01*
X183549372Y-76016448D02*
X183930372Y-76016448D01*
X183930372Y-76016448D02*
X183930372Y-84906448D01*
X183945372Y-74096448D02*
X183945372Y-75096448D01*
X183945372Y-87096448D02*
X183945372Y-88096448D01*
X183945372Y-88096448D02*
X182945372Y-88096448D01*
X179563543Y-81096449D02*
G75*
G02*
X177580371Y-83636447I-2618171J1D01*
G01*
X183930372Y-84906448D02*
G75*
G02*
X181390372Y-87446448I-2540001J1D01*
G01*
D12*
%TO.C,D19*%
X166250000Y-118260000D02*
X166250000Y-114250000D01*
X166250000Y-118260000D02*
X168250000Y-118260000D01*
X168250000Y-118260000D02*
X168250000Y-114250000D01*
D10*
%TO.C,SW17*%
X169945372Y-91572876D02*
X170945372Y-91572876D01*
X169945372Y-92572876D02*
X169945372Y-91572876D01*
X169945372Y-105572876D02*
X169945372Y-104572876D01*
X170945372Y-105572876D02*
X169945372Y-105572876D01*
X177580372Y-102763876D02*
X177580371Y-101112875D01*
X177580372Y-104922876D02*
X177580372Y-104541876D01*
X177961372Y-104922876D02*
X177580372Y-104922876D01*
X179485372Y-93492876D02*
X180501372Y-93492876D01*
X179485372Y-98572876D02*
X179485372Y-93492876D01*
X181390372Y-104922876D02*
X181009372Y-104922876D01*
X183549372Y-91572876D02*
X183945372Y-91572876D01*
X183549372Y-93492876D02*
X183930372Y-93492876D01*
X183930372Y-93492876D02*
X183930372Y-102382876D01*
X183945372Y-91572876D02*
X183945372Y-92572876D01*
X183945372Y-104572876D02*
X183945372Y-105572876D01*
X183945372Y-105572876D02*
X182945372Y-105572876D01*
X179563543Y-98572877D02*
G75*
G02*
X177580371Y-101112875I-2618171J1D01*
G01*
X183930372Y-102382876D02*
G75*
G02*
X181390372Y-104922876I-2540001J1D01*
G01*
%TO.C,SW18*%
X188957958Y-86572876D02*
X189957958Y-86572876D01*
X188957958Y-87572876D02*
X188957958Y-86572876D01*
X188957958Y-100572876D02*
X188957958Y-99572876D01*
X189957958Y-100572876D02*
X188957958Y-100572876D01*
X196592958Y-97763876D02*
X196592957Y-96112875D01*
X196592958Y-99922876D02*
X196592958Y-99541876D01*
X196973958Y-99922876D02*
X196592958Y-99922876D01*
X198497958Y-88492876D02*
X199513958Y-88492876D01*
X198497958Y-93572876D02*
X198497958Y-88492876D01*
X200402958Y-99922876D02*
X200021958Y-99922876D01*
X202561958Y-86572876D02*
X202957958Y-86572876D01*
X202561958Y-88492876D02*
X202942958Y-88492876D01*
X202942958Y-88492876D02*
X202942958Y-97382876D01*
X202957958Y-86572876D02*
X202957958Y-87572876D01*
X202957958Y-99572876D02*
X202957958Y-100572876D01*
X202957958Y-100572876D02*
X201957958Y-100572876D01*
X198576129Y-93572877D02*
G75*
G02*
X196592957Y-96112875I-2618171J1D01*
G01*
X202942958Y-97382876D02*
G75*
G02*
X200402958Y-99922876I-2540001J1D01*
G01*
D12*
%TO.C,D12*%
X185453118Y-79542007D02*
X185453118Y-75532007D01*
X185453118Y-79542007D02*
X187453118Y-79542007D01*
X187453118Y-79542007D02*
X187453118Y-75532007D01*
%TO.C,D9*%
X128005301Y-80890779D02*
X128005301Y-76880779D01*
X128005301Y-80890779D02*
X130005301Y-80890779D01*
X130005301Y-80890779D02*
X130005301Y-76880779D01*
%TO.C,D21*%
X179500000Y-131890000D02*
X179500000Y-135900000D01*
X181500000Y-131890000D02*
X179500000Y-131890000D01*
X181500000Y-131890000D02*
X181500000Y-135900000D01*
%TO.C,D16*%
X147468293Y-97840242D02*
X147468293Y-93830242D01*
X147468293Y-97840242D02*
X149468293Y-97840242D01*
X149468293Y-97840242D02*
X149468293Y-93830242D01*
D10*
%TO.C,SW3*%
X131507958Y-56838583D02*
X132507958Y-56838583D01*
X131507958Y-57838583D02*
X131507958Y-56838583D01*
X131507958Y-70838583D02*
X131507958Y-69838583D01*
X132507958Y-70838583D02*
X131507958Y-70838583D01*
X139142958Y-68029583D02*
X139142957Y-66378582D01*
X139142958Y-70188583D02*
X139142958Y-69807583D01*
X139523958Y-70188583D02*
X139142958Y-70188583D01*
X141047958Y-58758583D02*
X142063958Y-58758583D01*
X141047958Y-63838583D02*
X141047958Y-58758583D01*
X142952958Y-70188583D02*
X142571958Y-70188583D01*
X145111958Y-56838583D02*
X145507958Y-56838583D01*
X145111958Y-58758583D02*
X145492958Y-58758583D01*
X145492958Y-58758583D02*
X145492958Y-67648583D01*
X145507958Y-56838583D02*
X145507958Y-57838583D01*
X145507958Y-69838583D02*
X145507958Y-70838583D01*
X145507958Y-70838583D02*
X144507958Y-70838583D01*
X141126129Y-63838584D02*
G75*
G02*
X139142957Y-66378582I-2618171J1D01*
G01*
X145492958Y-67648583D02*
G75*
G02*
X142952958Y-70188583I-2540001J1D01*
G01*
%TO.C,SW21*%
X184000000Y-125500000D02*
X185000000Y-125500000D01*
X184000000Y-126500000D02*
X184000000Y-125500000D01*
X184000000Y-139500000D02*
X184000000Y-138500000D01*
X185000000Y-139500000D02*
X184000000Y-139500000D01*
X191635000Y-136691000D02*
X191634999Y-135039999D01*
X191635000Y-138850000D02*
X191635000Y-138469000D01*
X192016000Y-138850000D02*
X191635000Y-138850000D01*
X193540000Y-127420000D02*
X194556000Y-127420000D01*
X193540000Y-132500000D02*
X193540000Y-127420000D01*
X195445000Y-138850000D02*
X195064000Y-138850000D01*
X197604000Y-125500000D02*
X198000000Y-125500000D01*
X197604000Y-127420000D02*
X197985000Y-127420000D01*
X197985000Y-127420000D02*
X197985000Y-136310000D01*
X198000000Y-125500000D02*
X198000000Y-126500000D01*
X198000000Y-138500000D02*
X198000000Y-139500000D01*
X198000000Y-139500000D02*
X197000000Y-139500000D01*
X193618171Y-132500001D02*
G75*
G02*
X191634999Y-135039999I-2618171J1D01*
G01*
X197985000Y-136310000D02*
G75*
G02*
X195445000Y-138850000I-2540001J1D01*
G01*
%TO.C,SW14*%
X112653714Y-86572876D02*
X113653714Y-86572876D01*
X112653714Y-87572876D02*
X112653714Y-86572876D01*
X112653714Y-100572876D02*
X112653714Y-99572876D01*
X113653714Y-100572876D02*
X112653714Y-100572876D01*
X120288714Y-97763876D02*
X120288713Y-96112875D01*
X120288714Y-99922876D02*
X120288714Y-99541876D01*
X120669714Y-99922876D02*
X120288714Y-99922876D01*
X122193714Y-88492876D02*
X123209714Y-88492876D01*
X122193714Y-93572876D02*
X122193714Y-88492876D01*
X124098714Y-99922876D02*
X123717714Y-99922876D01*
X126257714Y-86572876D02*
X126653714Y-86572876D01*
X126257714Y-88492876D02*
X126638714Y-88492876D01*
X126638714Y-88492876D02*
X126638714Y-97382876D01*
X126653714Y-86572876D02*
X126653714Y-87572876D01*
X126653714Y-99572876D02*
X126653714Y-100572876D01*
X126653714Y-100572876D02*
X125653714Y-100572876D01*
X122271885Y-93572877D02*
G75*
G02*
X120288713Y-96112875I-2618171J1D01*
G01*
X126638714Y-97382876D02*
G75*
G02*
X124098714Y-99922876I-2540001J1D01*
G01*
%TO.C,SW2*%
X112653714Y-51838583D02*
X113653714Y-51838583D01*
X112653714Y-52838583D02*
X112653714Y-51838583D01*
X112653714Y-65838583D02*
X112653714Y-64838583D01*
X113653714Y-65838583D02*
X112653714Y-65838583D01*
X120288714Y-63029583D02*
X120288713Y-61378582D01*
X120288714Y-65188583D02*
X120288714Y-64807583D01*
X120669714Y-65188583D02*
X120288714Y-65188583D01*
X122193714Y-53758583D02*
X123209714Y-53758583D01*
X122193714Y-58838583D02*
X122193714Y-53758583D01*
X124098714Y-65188583D02*
X123717714Y-65188583D01*
X126257714Y-51838583D02*
X126653714Y-51838583D01*
X126257714Y-53758583D02*
X126638714Y-53758583D01*
X126638714Y-53758583D02*
X126638714Y-62648583D01*
X126653714Y-51838583D02*
X126653714Y-52838583D01*
X126653714Y-64838583D02*
X126653714Y-65838583D01*
X126653714Y-65838583D02*
X125653714Y-65838583D01*
X122271885Y-58838584D02*
G75*
G02*
X120288713Y-61378582I-2618171J1D01*
G01*
X126638714Y-62648583D02*
G75*
G02*
X124098714Y-65188583I-2540001J1D01*
G01*
%TO.C,SW19*%
X170000000Y-109250000D02*
X171000000Y-109250000D01*
X170000000Y-110250000D02*
X170000000Y-109250000D01*
X170000000Y-123250000D02*
X170000000Y-122250000D01*
X171000000Y-123250000D02*
X170000000Y-123250000D01*
X177635000Y-120441000D02*
X177634999Y-118789999D01*
X177635000Y-122600000D02*
X177635000Y-122219000D01*
X178016000Y-122600000D02*
X177635000Y-122600000D01*
X179540000Y-111170000D02*
X180556000Y-111170000D01*
X179540000Y-116250000D02*
X179540000Y-111170000D01*
X181445000Y-122600000D02*
X181064000Y-122600000D01*
X183604000Y-109250000D02*
X184000000Y-109250000D01*
X183604000Y-111170000D02*
X183985000Y-111170000D01*
X183985000Y-111170000D02*
X183985000Y-120060000D01*
X184000000Y-109250000D02*
X184000000Y-110250000D01*
X184000000Y-122250000D02*
X184000000Y-123250000D01*
X184000000Y-123250000D02*
X183000000Y-123250000D01*
X179618171Y-116250001D02*
G75*
G02*
X177634999Y-118789999I-2618171J1D01*
G01*
X183985000Y-120060000D02*
G75*
G02*
X181445000Y-122600000I-2540001J1D01*
G01*
D12*
%TO.C,D17*%
X166551868Y-98499789D02*
X166551868Y-94489789D01*
X166551868Y-98499789D02*
X168551868Y-98499789D01*
X168551868Y-98499789D02*
X168551868Y-94489789D01*
D10*
%TO.C,SW5*%
X169945372Y-56838583D02*
X170945372Y-56838583D01*
X169945372Y-57838583D02*
X169945372Y-56838583D01*
X169945372Y-70838583D02*
X169945372Y-69838583D01*
X170945372Y-70838583D02*
X169945372Y-70838583D01*
X177580372Y-68029583D02*
X177580371Y-66378582D01*
X177580372Y-70188583D02*
X177580372Y-69807583D01*
X177961372Y-70188583D02*
X177580372Y-70188583D01*
X179485372Y-58758583D02*
X180501372Y-58758583D01*
X179485372Y-63838583D02*
X179485372Y-58758583D01*
X181390372Y-70188583D02*
X181009372Y-70188583D01*
X183549372Y-56838583D02*
X183945372Y-56838583D01*
X183549372Y-58758583D02*
X183930372Y-58758583D01*
X183930372Y-58758583D02*
X183930372Y-67648583D01*
X183945372Y-56838583D02*
X183945372Y-57838583D01*
X183945372Y-69838583D02*
X183945372Y-70838583D01*
X183945372Y-70838583D02*
X182945372Y-70838583D01*
X179563543Y-63838584D02*
G75*
G02*
X177580371Y-66378582I-2618171J1D01*
G01*
X183930372Y-67648583D02*
G75*
G02*
X181390372Y-70188583I-2540001J1D01*
G01*
%TO.C,SW10*%
X150795372Y-69096448D02*
X151795372Y-69096448D01*
X150795372Y-70096448D02*
X150795372Y-69096448D01*
X150795372Y-83096448D02*
X150795372Y-82096448D01*
X151795372Y-83096448D02*
X150795372Y-83096448D01*
X158430372Y-80287448D02*
X158430371Y-78636447D01*
X158430372Y-82446448D02*
X158430372Y-82065448D01*
X158811372Y-82446448D02*
X158430372Y-82446448D01*
X160335372Y-71016448D02*
X161351372Y-71016448D01*
X160335372Y-76096448D02*
X160335372Y-71016448D01*
X162240372Y-82446448D02*
X161859372Y-82446448D01*
X164399372Y-69096448D02*
X164795372Y-69096448D01*
X164399372Y-71016448D02*
X164780372Y-71016448D01*
X164780372Y-71016448D02*
X164780372Y-79906448D01*
X164795372Y-69096448D02*
X164795372Y-70096448D01*
X164795372Y-82096448D02*
X164795372Y-83096448D01*
X164795372Y-83096448D02*
X163795372Y-83096448D01*
X160413543Y-76096449D02*
G75*
G02*
X158430371Y-78636447I-2618171J1D01*
G01*
X164780372Y-79906448D02*
G75*
G02*
X162240372Y-82446448I-2540001J1D01*
G01*
%TO.C,SW1*%
X93207958Y-56838583D02*
X94207958Y-56838583D01*
X93207958Y-57838583D02*
X93207958Y-56838583D01*
X93207958Y-70838583D02*
X93207958Y-69838583D01*
X94207958Y-70838583D02*
X93207958Y-70838583D01*
X100842958Y-68029583D02*
X100842957Y-66378582D01*
X100842958Y-70188583D02*
X100842958Y-69807583D01*
X101223958Y-70188583D02*
X100842958Y-70188583D01*
X102747958Y-58758583D02*
X103763958Y-58758583D01*
X102747958Y-63838583D02*
X102747958Y-58758583D01*
X104652958Y-70188583D02*
X104271958Y-70188583D01*
X106811958Y-56838583D02*
X107207958Y-56838583D01*
X106811958Y-58758583D02*
X107192958Y-58758583D01*
X107192958Y-58758583D02*
X107192958Y-67648583D01*
X107207958Y-56838583D02*
X107207958Y-57838583D01*
X107207958Y-69838583D02*
X107207958Y-70838583D01*
X107207958Y-70838583D02*
X106207958Y-70838583D01*
X102826129Y-63838584D02*
G75*
G02*
X100842957Y-66378582I-2618171J1D01*
G01*
X107192958Y-67648583D02*
G75*
G02*
X104652958Y-70188583I-2540001J1D01*
G01*
D12*
%TO.C,D1*%
X102020895Y-53729899D02*
X98010895Y-53729899D01*
X102020895Y-55729899D02*
X98010895Y-55729899D01*
X102020895Y-55729899D02*
X102020895Y-53729899D01*
%TO.C,D15*%
X136632038Y-108617711D02*
X136632038Y-110617711D01*
X136632038Y-108617711D02*
X140642038Y-108617711D01*
X136632038Y-110617711D02*
X140642038Y-110617711D01*
%TO.C,R4*%
X221477500Y-62912258D02*
X221477500Y-62437742D01*
X222522500Y-62912258D02*
X222522500Y-62437742D01*
D10*
%TO.C,SW16*%
X150795372Y-86572876D02*
X151795372Y-86572876D01*
X150795372Y-87572876D02*
X150795372Y-86572876D01*
X150795372Y-100572876D02*
X150795372Y-99572876D01*
X151795372Y-100572876D02*
X150795372Y-100572876D01*
X158430372Y-97763876D02*
X158430371Y-96112875D01*
X158430372Y-99922876D02*
X158430372Y-99541876D01*
X158811372Y-99922876D02*
X158430372Y-99922876D01*
X160335372Y-88492876D02*
X161351372Y-88492876D01*
X160335372Y-93572876D02*
X160335372Y-88492876D01*
X162240372Y-99922876D02*
X161859372Y-99922876D01*
X164399372Y-86572876D02*
X164795372Y-86572876D01*
X164399372Y-88492876D02*
X164780372Y-88492876D01*
X164780372Y-88492876D02*
X164780372Y-97382876D01*
X164795372Y-86572876D02*
X164795372Y-87572876D01*
X164795372Y-99572876D02*
X164795372Y-100572876D01*
X164795372Y-100572876D02*
X163795372Y-100572876D01*
X160413543Y-93572877D02*
G75*
G02*
X158430371Y-96112875I-2618171J1D01*
G01*
X164780372Y-97382876D02*
G75*
G02*
X162240372Y-99922876I-2540001J1D01*
G01*
%TO.C,SW8*%
X112653714Y-69096448D02*
X113653714Y-69096448D01*
X112653714Y-70096448D02*
X112653714Y-69096448D01*
X112653714Y-83096448D02*
X112653714Y-82096448D01*
X113653714Y-83096448D02*
X112653714Y-83096448D01*
X120288714Y-80287448D02*
X120288713Y-78636447D01*
X120288714Y-82446448D02*
X120288714Y-82065448D01*
X120669714Y-82446448D02*
X120288714Y-82446448D01*
X122193714Y-71016448D02*
X123209714Y-71016448D01*
X122193714Y-76096448D02*
X122193714Y-71016448D01*
X124098714Y-82446448D02*
X123717714Y-82446448D01*
X126257714Y-69096448D02*
X126653714Y-69096448D01*
X126257714Y-71016448D02*
X126638714Y-71016448D01*
X126638714Y-71016448D02*
X126638714Y-79906448D01*
X126653714Y-69096448D02*
X126653714Y-70096448D01*
X126653714Y-82096448D02*
X126653714Y-83096448D01*
X126653714Y-83096448D02*
X125653714Y-83096448D01*
X122271885Y-76096449D02*
G75*
G02*
X120288713Y-78636447I-2618171J1D01*
G01*
X126638714Y-79906448D02*
G75*
G02*
X124098714Y-82446448I-2540001J1D01*
G01*
%TO.C,SW13*%
X93207958Y-91572876D02*
X94207958Y-91572876D01*
X93207958Y-92572876D02*
X93207958Y-91572876D01*
X93207958Y-105572876D02*
X93207958Y-104572876D01*
X94207958Y-105572876D02*
X93207958Y-105572876D01*
X100842958Y-102763876D02*
X100842957Y-101112875D01*
X100842958Y-104922876D02*
X100842958Y-104541876D01*
X101223958Y-104922876D02*
X100842958Y-104922876D01*
X102747958Y-93492876D02*
X103763958Y-93492876D01*
X102747958Y-98572876D02*
X102747958Y-93492876D01*
X104652958Y-104922876D02*
X104271958Y-104922876D01*
X106811958Y-91572876D02*
X107207958Y-91572876D01*
X106811958Y-93492876D02*
X107192958Y-93492876D01*
X107192958Y-93492876D02*
X107192958Y-102382876D01*
X107207958Y-91572876D02*
X107207958Y-92572876D01*
X107207958Y-104572876D02*
X107207958Y-105572876D01*
X107207958Y-105572876D02*
X106207958Y-105572876D01*
X102826129Y-98572877D02*
G75*
G02*
X100842957Y-101112875I-2618171J1D01*
G01*
X107192958Y-102382876D02*
G75*
G02*
X104652958Y-104922876I-2540001J1D01*
G01*
D12*
%TO.C,D4*%
X159808506Y-48852941D02*
X155798506Y-48852941D01*
X159808506Y-50852941D02*
X155798506Y-50852941D01*
X159808506Y-50852941D02*
X159808506Y-48852941D01*
%TO.C,D18*%
X185771534Y-96350733D02*
X185771534Y-92340733D01*
X185771534Y-96350733D02*
X187771534Y-96350733D01*
X187771534Y-96350733D02*
X187771534Y-92340733D01*
%TO.C,B-1*%
X214841418Y-116283902D02*
X216741418Y-116283902D01*
X214841418Y-118183902D02*
X214841418Y-116283902D01*
X216741418Y-116283902D02*
X216741418Y-118183902D01*
X216741418Y-118183902D02*
X214841418Y-118183902D01*
D10*
%TO.C,SW12*%
X188957958Y-69096448D02*
X189957958Y-69096448D01*
X188957958Y-70096448D02*
X188957958Y-69096448D01*
X188957958Y-83096448D02*
X188957958Y-82096448D01*
X189957958Y-83096448D02*
X188957958Y-83096448D01*
X196592958Y-80287448D02*
X196592957Y-78636447D01*
X196592958Y-82446448D02*
X196592958Y-82065448D01*
X196973958Y-82446448D02*
X196592958Y-82446448D01*
X198497958Y-71016448D02*
X199513958Y-71016448D01*
X198497958Y-76096448D02*
X198497958Y-71016448D01*
X200402958Y-82446448D02*
X200021958Y-82446448D01*
X202561958Y-69096448D02*
X202957958Y-69096448D01*
X202561958Y-71016448D02*
X202942958Y-71016448D01*
X202942958Y-71016448D02*
X202942958Y-79906448D01*
X202957958Y-69096448D02*
X202957958Y-70096448D01*
X202957958Y-82096448D02*
X202957958Y-83096448D01*
X202957958Y-83096448D02*
X201957958Y-83096448D01*
X198576129Y-76096449D02*
G75*
G02*
X196592957Y-78636447I-2618171J1D01*
G01*
X202942958Y-79906448D02*
G75*
G02*
X200402958Y-82446448I-2540001J1D01*
G01*
D12*
%TO.C,R3*%
X216477500Y-62312258D02*
X216477500Y-61837742D01*
X217522500Y-62312258D02*
X217522500Y-61837742D01*
%TO.C,D5*%
X174849707Y-53828233D02*
X174849707Y-55828233D01*
X174849707Y-53828233D02*
X178859707Y-53828233D01*
X174849707Y-55828233D02*
X178859707Y-55828233D01*
D10*
%TO.C,SW9*%
X131507958Y-74096448D02*
X132507958Y-74096448D01*
X131507958Y-75096448D02*
X131507958Y-74096448D01*
X131507958Y-88096448D02*
X131507958Y-87096448D01*
X132507958Y-88096448D02*
X131507958Y-88096448D01*
X139142958Y-85287448D02*
X139142957Y-83636447D01*
X139142958Y-87446448D02*
X139142958Y-87065448D01*
X139523958Y-87446448D02*
X139142958Y-87446448D01*
X141047958Y-76016448D02*
X142063958Y-76016448D01*
X141047958Y-81096448D02*
X141047958Y-76016448D01*
X142952958Y-87446448D02*
X142571958Y-87446448D01*
X145111958Y-74096448D02*
X145507958Y-74096448D01*
X145111958Y-76016448D02*
X145492958Y-76016448D01*
X145492958Y-76016448D02*
X145492958Y-84906448D01*
X145507958Y-74096448D02*
X145507958Y-75096448D01*
X145507958Y-87096448D02*
X145507958Y-88096448D01*
X145507958Y-88096448D02*
X144507958Y-88096448D01*
X141126129Y-81096449D02*
G75*
G02*
X139142957Y-83636447I-2618171J1D01*
G01*
X145492958Y-84906448D02*
G75*
G02*
X142952958Y-87446448I-2540001J1D01*
G01*
D12*
%TO.C,D3*%
X136017078Y-53812603D02*
X136017078Y-55812603D01*
X136017078Y-53812603D02*
X140027078Y-53812603D01*
X136017078Y-55812603D02*
X140027078Y-55812603D01*
%TD*%
M02*
