%TF.GenerationSoftware,KiCad,Pcbnew,9.0.8*%
%TF.CreationDate,2026-06-30T19:39:36+02:00*%
%TF.ProjectId,Splitboard,53706c69-7462-46f6-9172-642e6b696361,rev?*%
%TF.SameCoordinates,Original*%
%TF.FileFunction,Paste,Top*%
%TF.FilePolarity,Positive*%
%FSLAX46Y46*%
G04 Gerber Fmt 4.6, Leading zero omitted, Abs format (unit mm)*
G04 Created by KiCad (PCBNEW 9.0.8) date 2026-06-30 19:39:36*
%MOMM*%
%LPD*%
G01*
G04 APERTURE LIST*
G04 Aperture macros list*
%AMRoundRect*
0 Rectangle with rounded corners*
0 $1 Rounding radius*
0 $2 $3 $4 $5 $6 $7 $8 $9 X,Y pos of 4 corners*
0 Add a 4 corners polygon primitive as box body*
4,1,4,$2,$3,$4,$5,$6,$7,$8,$9,$2,$3,0*
0 Add four circle primitives for the rounded corners*
1,1,$1+$1,$2,$3*
1,1,$1+$1,$4,$5*
1,1,$1+$1,$6,$7*
1,1,$1+$1,$8,$9*
0 Add four rect primitives between the rounded corners*
20,1,$1+$1,$2,$3,$4,$5,0*
20,1,$1+$1,$4,$5,$6,$7,0*
20,1,$1+$1,$6,$7,$8,$9,0*
20,1,$1+$1,$8,$9,$2,$3,0*%
G04 Aperture macros list end*
%ADD10R,2.500000X2.550000*%
%ADD11RoundRect,0.225000X-0.225000X-0.375000X0.225000X-0.375000X0.225000X0.375000X-0.225000X0.375000X0*%
%ADD12RoundRect,0.225000X0.375000X-0.225000X0.375000X0.225000X-0.375000X0.225000X-0.375000X-0.225000X0*%
%ADD13RoundRect,0.250000X0.970000X0.310000X-0.970000X0.310000X-0.970000X-0.310000X0.970000X-0.310000X0*%
%ADD14RoundRect,0.225000X0.225000X0.375000X-0.225000X0.375000X-0.225000X-0.375000X0.225000X-0.375000X0*%
%ADD15RoundRect,0.200000X0.275000X-0.200000X0.275000X0.200000X-0.275000X0.200000X-0.275000X-0.200000X0*%
%ADD16RoundRect,0.225000X-0.375000X0.225000X-0.375000X-0.225000X0.375000X-0.225000X0.375000X0.225000X0*%
G04 APERTURE END LIST*
D10*
%TO.C,SW7*%
X105287958Y-74806448D03*
X102747958Y-88656448D03*
%TD*%
D11*
%TO.C,D20*%
X193950000Y-122750000D03*
X197250000Y-122750000D03*
%TD*%
D10*
%TO.C,SW6*%
X201037958Y-52548583D03*
X198497958Y-66398583D03*
%TD*%
%TO.C,SW4*%
X162875372Y-52548583D03*
X160335372Y-66398583D03*
%TD*%
D12*
%TO.C,D10*%
X148304664Y-79281597D03*
X148304664Y-75981597D03*
%TD*%
D11*
%TO.C,D6*%
X194397502Y-49863540D03*
X197697502Y-49863540D03*
%TD*%
D12*
%TO.C,D11*%
X167454164Y-82981415D03*
X167454164Y-79681415D03*
%TD*%
D10*
%TO.C,SW15*%
X143587958Y-92282876D03*
X141047958Y-106132876D03*
%TD*%
D13*
%TO.C,SW-B1*%
X218286328Y-109694039D03*
X209676328Y-109694039D03*
%TD*%
D14*
%TO.C,D2*%
X121407101Y-49667616D03*
X118107101Y-49667616D03*
%TD*%
D12*
%TO.C,D13*%
X90357748Y-100486328D03*
X90357748Y-97186328D03*
%TD*%
D15*
%TO.C,R1*%
X208000000Y-63150000D03*
X208000000Y-61500000D03*
%TD*%
%TO.C,R2*%
X212250000Y-63650000D03*
X212250000Y-62000000D03*
%TD*%
D10*
%TO.C,SW20*%
X201080000Y-104960000D03*
X198540000Y-118810000D03*
%TD*%
D12*
%TO.C,D8*%
X110600844Y-78624960D03*
X110600844Y-75324960D03*
%TD*%
%TO.C,D7*%
X91101663Y-83125642D03*
X91101663Y-79825642D03*
%TD*%
D14*
%TO.C,D14*%
X122669527Y-105255922D03*
X119369527Y-105255922D03*
%TD*%
D10*
%TO.C,SW11*%
X182025372Y-74806448D03*
X179485372Y-88656448D03*
%TD*%
D12*
%TO.C,D19*%
X167250000Y-117550000D03*
X167250000Y-114250000D03*
%TD*%
D10*
%TO.C,SW17*%
X182025372Y-92282876D03*
X179485372Y-106132876D03*
%TD*%
%TO.C,SW18*%
X201037958Y-87282876D03*
X198497958Y-101132876D03*
%TD*%
D12*
%TO.C,D12*%
X186453118Y-78832007D03*
X186453118Y-75532007D03*
%TD*%
%TO.C,D9*%
X129005301Y-80180779D03*
X129005301Y-76880779D03*
%TD*%
D16*
%TO.C,D21*%
X180500000Y-132600000D03*
X180500000Y-135900000D03*
%TD*%
D12*
%TO.C,D16*%
X148468293Y-97130242D03*
X148468293Y-93830242D03*
%TD*%
D10*
%TO.C,SW3*%
X143587958Y-57548583D03*
X141047958Y-71398583D03*
%TD*%
%TO.C,SW21*%
X196080000Y-126210000D03*
X193540000Y-140060000D03*
%TD*%
%TO.C,SW14*%
X124733714Y-87282876D03*
X122193714Y-101132876D03*
%TD*%
%TO.C,SW2*%
X124733714Y-52548583D03*
X122193714Y-66398583D03*
%TD*%
%TO.C,SW19*%
X182080000Y-109960000D03*
X179540000Y-123810000D03*
%TD*%
D12*
%TO.C,D17*%
X167551868Y-97789789D03*
X167551868Y-94489789D03*
%TD*%
D10*
%TO.C,SW5*%
X182025372Y-57548583D03*
X179485372Y-71398583D03*
%TD*%
%TO.C,SW10*%
X162875372Y-69806448D03*
X160335372Y-83656448D03*
%TD*%
%TO.C,SW1*%
X105287958Y-57548583D03*
X102747958Y-71398583D03*
%TD*%
D14*
%TO.C,D1*%
X101310895Y-54729899D03*
X98010895Y-54729899D03*
%TD*%
D11*
%TO.C,D15*%
X137342038Y-109617711D03*
X140642038Y-109617711D03*
%TD*%
D15*
%TO.C,R4*%
X222000000Y-63500000D03*
X222000000Y-61850000D03*
%TD*%
D10*
%TO.C,SW16*%
X162875372Y-87282876D03*
X160335372Y-101132876D03*
%TD*%
%TO.C,SW8*%
X124733714Y-69806448D03*
X122193714Y-83656448D03*
%TD*%
%TO.C,SW13*%
X105287958Y-92282876D03*
X102747958Y-106132876D03*
%TD*%
D14*
%TO.C,D4*%
X159098506Y-49852941D03*
X155798506Y-49852941D03*
%TD*%
D12*
%TO.C,D18*%
X186771534Y-95640733D03*
X186771534Y-92340733D03*
%TD*%
D10*
%TO.C,SW12*%
X201037958Y-69806448D03*
X198497958Y-83656448D03*
%TD*%
D15*
%TO.C,R3*%
X217000000Y-62900000D03*
X217000000Y-61250000D03*
%TD*%
D11*
%TO.C,D5*%
X175559707Y-54828233D03*
X178859707Y-54828233D03*
%TD*%
D10*
%TO.C,SW9*%
X143587958Y-74806448D03*
X141047958Y-88656448D03*
%TD*%
D11*
%TO.C,D3*%
X136727078Y-54812603D03*
X140027078Y-54812603D03*
%TD*%
M02*
